<?xml version="1.0" encoding="UTF-8" standalone="no"?>
<!DOCTYPE svg PUBLIC "-//W3C//DTD SVG 1.0//EN" "http://www.w3.org/TR/2001/REC-SVG-20010904/DTD/svg10.dtd">
<!-- Generated by Microsoft Visio 11.0, SVG Export, v1.0 CeremonyContactInPerson.svg CeremonyContactInPerson -->
<svg xmlns="http://www.w3.org/2000/svg" xmlns:xlink="http://www.w3.org/1999/xlink" xmlns:ev="http://www.w3.org/2001/xml-events"
		xmlns:v="http://schemas.microsoft.com/visio/2003/SVGExtensions/" width="5.27083in" height="4.68069in"
		viewBox="0 0 379.5 337.01" xml:space="preserve" color-interpolation-filters="sRGB" class="st8">
	<v:documentProperties v:langID="1033" v:viewMarkup="false">
		<v:userDefs>
			<v:ud v:nameU="msvNoAutoConnect" v:val="VT0(1):26"/>
		</v:userDefs>
	</v:documentProperties>

	<style type="text/css">
	<![CDATA[
		.st1 {fill:#ffffff;stroke:#000000;stroke-linecap:round;stroke-linejoin:round;stroke-width:0.75}
		.st2 {fill:#000000;font-family:Calibri;font-size:1.00001em}
		.st3 {fill:#ffffff;stroke:#000000;stroke-linecap:round;stroke-linejoin:round;stroke-width:0.24}
		.st4 {fill:#ffffff;stroke:#000000;stroke-linecap:round;stroke-linejoin:round;stroke-width:0.24;visibility:hidden}
		.st5 {marker-end:url(#mrkr13-26);marker-start:url(#mrkr13-24);stroke:#000000;stroke-linecap:round;stroke-linejoin:round;stroke-width:0.75}
		.st6 {fill:#000000;fill-opacity:1;stroke:#000000;stroke-opacity:1;stroke-width:0.22935779816514}
		.st7 {marker-end:url(#mrkr13-26);stroke:#000000;stroke-linecap:round;stroke-linejoin:round;stroke-width:0.75}
		.st8 {fill:none;fill-rule:evenodd;font-size:12px;overflow:visible;stroke-linecap:square;stroke-miterlimit:3}
	]]>
	</style>

	<defs id="Markers">
		<g id="lend13">
			<path d="M 3 1 L 0 0 L 3 -1 L 3 1 " style="stroke:none"/>
		</g>
		<marker id="mrkr13-24" class="st6" v:arrowType="13" v:arrowSize="2" v:setback="12.6" refX="12.6" orient="auto"
				markerUnits="strokeWidth" overflow="visible">
			<use xlink:href="#lend13" transform="scale(4.36) "/>
		</marker>
		<marker id="mrkr13-26" class="st6" v:arrowType="13" v:arrowSize="2" v:setback="13.08" refX="-13.08" orient="auto"
				markerUnits="strokeWidth" overflow="visible">
			<use xlink:href="#lend13" transform="scale(-4.36,-4.36) "/>
		</marker>
	</defs>
	<g v:mID="10" v:index="9" v:groupContext="foregroundPage">
		<title>CeremonyContactInPerson</title>
		<v:pageProperties v:drawingScale="1" v:pageScale="1" v:drawingUnits="19" v:shadowOffsetX="9" v:shadowOffsetY="-9"/>
		<v:layer v:name="Flowchart" v:index="0"/>
		<g id="shape1-1" v:mID="1" v:groupContext="shape" transform="translate(252.75,-174.26)">
			<title>Sheet.1</title>
			<desc>Bob’s Device</desc>
			<v:textBlock v:margins="rect(4,4,4,4)"/>
			<v:textRect cx="54" cy="319.01" width="108" height="36"/>
			<rect x="0" y="301.01" width="108" height="36" class="st1"/>
			<text x="22.93" y="322.61" class="st2" v:langID="1033"><v:paragraph v:horizAlign="1"/><v:tabList/>Bob’s Device</text>		</g>
		<g id="shape2-4" v:mID="2" v:groupContext="shape" transform="translate(18.75,-282.26)">
			<title>Sheet.2</title>
			<desc>Alice’s Service</desc>
			<v:textBlock v:margins="rect(4,4,4,4)"/>
			<v:textRect cx="54" cy="319.01" width="108" height="36"/>
			<rect x="0" y="301.01" width="108" height="36" class="st1"/>
			<text x="19.61" y="322.61" class="st2" v:langID="1033"><v:paragraph v:horizAlign="1"/><v:tabList/>Alice’s Service</text>		</g>
		<g id="shape3-7" v:mID="3" v:groupContext="shape" transform="translate(18.75,-174.26)">
			<title>Sheet.3</title>
			<desc>Alice’s Device</desc>
			<v:textBlock v:margins="rect(4,4,4,4)"/>
			<v:textRect cx="54" cy="319.01" width="108" height="36"/>
			<rect x="0" y="301.01" width="108" height="36" class="st1"/>
			<text x="20.77" y="322.61" class="st2" v:langID="1033"><v:paragraph v:horizAlign="1"/><v:tabList/>Alice’s Device</text>		</g>
		<g id="group4-10" transform="translate(54.75,-39.2598)" v:mID="4" v:groupContext="group" v:layerMember="0">
			<v:custProps>
				<v:cp v:nameU="Cost" v:lbl="Cost" v:type="7" v:format="@" v:langID="1033"/>
				<v:cp v:nameU="Duration" v:lbl="Duration" v:type="2" v:langID="1033"/>
				<v:cp v:nameU="Resources" v:lbl="Resources" v:langID="1033"/>
			</v:custProps>
			<v:userDefs>
				<v:ud v:nameU="visVersion" v:val="VT0(14):26"/>
			</v:userDefs>
			<title>Person 1</title>
			<g id="shape5-11" v:mID="5" v:groupContext="shape" v:layerMember="0" transform="translate(25.2236,-57.6) scale(-1,1)">
				<title>Sheet.5</title>
				<path d="M0 329.81 A7.22357 7.2 0 0 1 14.45 329.81 A7.22357 7.2 0 1 1 0 329.81 Z" class="st3"/>
			</g>
			<g id="shape6-13" v:mID="6" v:groupContext="shape" v:layerMember="0">
				<title>Sheet.6</title>
				<path d="M18.42 309.11 L26.79 337.01 L33.49 337.01 L26.79 304.61 L26.79 285.71 L31.81 301.01 L36 298.31 L30.14 279.41
							 L18.42 280.31 L6.7 279.41 L0 299.21 L5.02 301.01 L10.05 285.71 L10.05 304.61 L3.35 337.01 L10.05 337.01
							 L18.42 309.11 Z" class="st3"/>
			</g>
			<g id="shape7-15" v:mID="7" v:groupContext="shape" v:layerMember="0" transform="translate(0,21.2598)">
				<title>Sheet.7</title>
				<desc>Alice</desc>
				<v:userDefs>
					<v:ud v:nameU="ScaleFactor" v:val="VT0(1):26"/>
				</v:userDefs>
				<v:textBlock v:margins="rect(0,0,0,0)"/>
				<v:textRect cx="18" cy="326.38" width="36" height="21.2598"/>
				<rect x="0" y="315.75" width="36" height="21.2598" class="st4"/>
				<text x="6.25" y="329.98" class="st2" v:langID="1033"><v:paragraph v:horizAlign="1"/><v:tabList/>Alice</text>			</g>
		</g>
		<g id="shape8-18" v:mID="8" v:groupContext="shape" transform="translate(-264.26,216.75) rotate(-90)">
			<title>Sheet.8</title>
			<path d="M9.45 337.01 L9.81 337.01 L35.19 337.01" class="st5"/>
		</g>
		<g id="shape11-27" v:mID="11" v:groupContext="shape" transform="translate(135.75,373.76) scale(1,-1)">
			<title>Sheet.11</title>
			<path d="M9.45 337.01 L9.81 337.01 L98.19 337.01" class="st5"/>
		</g>
		<g id="shape16-34" v:mID="16" v:groupContext="shape" transform="translate(252.75,-282.26)">
			<title>Sheet.16</title>
			<desc>Bob’s Service</desc>
			<v:textBlock v:margins="rect(4,4,4,4)"/>
			<v:textRect cx="54" cy="319.01" width="108" height="36"/>
			<rect x="0" y="301.01" width="108" height="36" class="st1"/>
			<text x="21.78" y="322.61" class="st2" v:langID="1033"><v:paragraph v:horizAlign="1"/><v:tabList/>Bob’s Service</text>		</g>
		<g id="group10-37" transform="translate(288.75,-39.2598)" v:mID="10" v:groupContext="group" v:layerMember="0">
			<v:custProps>
				<v:cp v:nameU="Cost" v:lbl="Cost" v:type="7" v:format="@" v:langID="1033"/>
				<v:cp v:nameU="Duration" v:lbl="Duration" v:type="2" v:langID="1033"/>
				<v:cp v:nameU="Resources" v:lbl="Resources" v:langID="1033"/>
			</v:custProps>
			<v:userDefs>
				<v:ud v:nameU="visVersion" v:val="VT0(14):26"/>
			</v:userDefs>
			<title>Person 1.10</title>
			<g id="shape12-38" v:mID="12" v:groupContext="shape" v:layerMember="0" transform="translate(25.2236,-57.6) scale(-1,1)">
				<title>Sheet.12</title>
				<path d="M0 329.81 A7.22357 7.2 0 0 1 14.45 329.81 A7.22357 7.2 0 1 1 0 329.81 Z" class="st3"/>
			</g>
			<g id="shape13-40" v:mID="13" v:groupContext="shape" v:layerMember="0">
				<title>Sheet.13</title>
				<path d="M18.42 309.11 L26.79 337.01 L33.49 337.01 L26.79 304.61 L26.79 285.71 L31.81 301.01 L36 298.31 L30.14 279.41
							 L18.42 280.31 L6.7 279.41 L0 299.21 L5.02 301.01 L10.05 285.71 L10.05 304.61 L3.35 337.01 L10.05 337.01
							 L18.42 309.11 Z" class="st3"/>
			</g>
			<g id="shape14-42" v:mID="14" v:groupContext="shape" v:layerMember="0" transform="translate(0,21.2598)">
				<title>Sheet.14</title>
				<desc>Bob</desc>
				<v:userDefs>
					<v:ud v:nameU="ScaleFactor" v:val="VT0(1):26"/>
				</v:userDefs>
				<v:textBlock v:margins="rect(0,0,0,0)"/>
				<v:textRect cx="18" cy="326.38" width="36" height="21.2598"/>
				<rect x="0" y="315.75" width="36" height="21.2598" class="st4"/>
				<text x="8.42" y="329.98" class="st2" v:langID="1033"><v:paragraph v:horizAlign="1"/><v:tabList/>Bob</text>			</g>
		</g>
		<g id="shape15-45" v:mID="15" v:groupContext="shape" transform="translate(-30.2598,216.75) rotate(-90)">
			<title>Sheet.15</title>
			<path d="M9.45 337.01 L9.81 337.01 L35.19 337.01" class="st5"/>
		</g>
		<g id="shape17-52" v:mID="17" v:groupContext="shape" transform="translate(-30.2598,117.75) rotate(-90)">
			<title>Sheet.17</title>
			<path d="M9.45 337.01 L9.81 337.01 L44.19 337.01" class="st5"/>
		</g>
		<g id="shape18-59" v:mID="18" v:groupContext="shape" transform="translate(-264.26,117.75) rotate(-90)">
			<title>Sheet.18</title>
			<path d="M9.45 337.01 L9.81 337.01 L44.19 337.01" class="st5"/>
		</g>
		<g id="shape9-66" v:mID="9" v:groupContext="shape" transform="translate(135.75,481.76) scale(1,-1)">
			<title>Sheet.9</title>
			<path d="M0 337.01 L98.19 337.01" class="st7"/>
		</g>
	</g>
</svg>
