<?xml version="1.0" encoding="UTF-8" standalone="no"?>
<!DOCTYPE svg PUBLIC "-//W3C//DTD SVG 1.0//EN" "http://www.w3.org/TR/2001/REC-SVG-20010904/DTD/svg10.dtd">
<!-- Generated by Microsoft Visio 11.0, SVG Export, v1.0 CeremonyContextFingerprint.svg Page-1 -->
<svg xmlns="http://www.w3.org/2000/svg" xmlns:xlink="http://www.w3.org/1999/xlink" xmlns:ev="http://www.w3.org/2001/xml-events"
		xmlns:v="http://schemas.microsoft.com/visio/2003/SVGExtensions/" width="4.77083in" height="3.93069in"
		viewBox="0 0 343.5 283.01" xml:space="preserve" color-interpolation-filters="sRGB" class="st7">
	<v:documentProperties v:langID="1033" v:viewMarkup="false"/>

	<style type="text/css">
	<![CDATA[
		.st1 {fill:#ffffff;stroke:#000000;stroke-linecap:round;stroke-linejoin:round;stroke-width:0.75}
		.st2 {fill:#000000;font-family:Calibri;font-size:1.00001em}
		.st3 {fill:#ffffff;stroke:#000000;stroke-linecap:round;stroke-linejoin:round;stroke-width:0.24}
		.st4 {fill:#ffffff;stroke:#000000;stroke-linecap:round;stroke-linejoin:round;stroke-width:0.24;visibility:hidden}
		.st5 {marker-end:url(#mrkr13-26);marker-start:url(#mrkr13-24);stroke:#000000;stroke-linecap:round;stroke-linejoin:round;stroke-width:0.75}
		.st6 {fill:#000000;fill-opacity:1;stroke:#000000;stroke-opacity:1;stroke-width:0.22935779816514}
		.st7 {fill:none;fill-rule:evenodd;font-size:12px;overflow:visible;stroke-linecap:square;stroke-miterlimit:3}
	]]>
	</style>

	<defs id="Markers">
		<g id="lend13">
			<path d="M 3 1 L 0 0 L 3 -1 L 3 1 " style="stroke:none"/>
		</g>
		<marker id="mrkr13-24" class="st6" v:arrowType="13" v:arrowSize="2" v:setback="12.6" refX="12.6" orient="auto"
				markerUnits="strokeWidth" overflow="visible">
			<use xlink:href="#lend13" transform="scale(4.36) "/>
		</marker>
		<marker id="mrkr13-26" class="st6" v:arrowType="13" v:arrowSize="2" v:setback="13.08" refX="-13.08" orient="auto"
				markerUnits="strokeWidth" overflow="visible">
			<use xlink:href="#lend13" transform="scale(-4.36,-4.36) "/>
		</marker>
	</defs>
	<g v:mID="0" v:index="1" v:groupContext="foregroundPage">
		<title>Page-1</title>
		<v:pageProperties v:drawingScale="1" v:pageScale="1" v:drawingUnits="19" v:shadowOffsetX="9" v:shadowOffsetY="-9"/>
		<v:layer v:name="Flowchart" v:index="0"/>
		<g id="shape1-1" v:mID="1" v:groupContext="shape" transform="translate(234.75,-138.26)">
			<title>Sheet.1</title>
			<desc>Target Device</desc>
			<v:textBlock v:margins="rect(4,4,4,4)"/>
			<v:textRect cx="54" cy="265.01" width="108" height="36"/>
			<rect x="0" y="247.01" width="108" height="36" class="st1"/>
			<text x="20.65" y="268.61" class="st2" v:langID="1033"><v:paragraph v:horizAlign="1"/><v:tabList/>Target Device</text>		</g>
		<g id="shape2-4" v:mID="2" v:groupContext="shape" transform="translate(117.75,-246.26)">
			<title>Sheet.2</title>
			<desc>Service</desc>
			<v:textBlock v:margins="rect(4,4,4,4)"/>
			<v:textRect cx="54" cy="265.01" width="108" height="36"/>
			<rect x="0" y="247.01" width="108" height="36" class="st1"/>
			<text x="36.56" y="268.61" class="st2" v:langID="1033"><v:paragraph v:horizAlign="1"/><v:tabList/>Service</text>		</g>
		<g id="shape3-7" v:mID="3" v:groupContext="shape" transform="translate(0.75,-138.26)">
			<title>Sheet.3</title>
			<desc>Admin Device</desc>
			<v:textBlock v:margins="rect(4,4,4,4)"/>
			<v:textRect cx="54" cy="265.01" width="108" height="36"/>
			<rect x="0" y="247.01" width="108" height="36" class="st1"/>
			<text x="20.41" y="268.61" class="st2" v:langID="1033"><v:paragraph v:horizAlign="1"/><v:tabList/>Admin Device</text>		</g>
		<g id="group4-10" transform="translate(153.75,-21.2598)" v:mID="4" v:groupContext="group" v:layerMember="0">
			<v:custProps>
				<v:cp v:nameU="Cost" v:lbl="Cost" v:type="7" v:format="@" v:langID="1033"/>
				<v:cp v:nameU="Duration" v:lbl="Duration" v:type="2" v:langID="1033"/>
				<v:cp v:nameU="Resources" v:lbl="Resources" v:langID="1033"/>
			</v:custProps>
			<v:userDefs>
				<v:ud v:nameU="visVersion" v:val="VT0(14):26"/>
			</v:userDefs>
			<title>Person 1</title>
			<g id="shape5-11" v:mID="5" v:groupContext="shape" v:layerMember="0" transform="translate(25.2236,-57.6) scale(-1,1)">
				<title>Sheet.5</title>
				<path d="M0 275.81 A7.22357 7.2 0 0 1 14.45 275.81 A7.22357 7.2 0 1 1 0 275.81 Z" class="st3"/>
			</g>
			<g id="shape6-13" v:mID="6" v:groupContext="shape" v:layerMember="0">
				<title>Sheet.6</title>
				<path d="M18.42 255.11 L26.79 283.01 L33.49 283.01 L26.79 250.61 L26.79 231.71 L31.81 247.01 L36 244.31 L30.14 225.41
							 L18.42 226.31 L6.7 225.41 L0 245.21 L5.02 247.01 L10.05 231.71 L10.05 250.61 L3.35 283.01 L10.05 283.01
							 L18.42 255.11 Z" class="st3"/>
			</g>
			<g id="shape7-15" v:mID="7" v:groupContext="shape" v:layerMember="0" transform="translate(0,21.2598)">
				<title>Sheet.7</title>
				<desc>User</desc>
				<v:userDefs>
					<v:ud v:nameU="ScaleFactor" v:val="VT0(1):26"/>
				</v:userDefs>
				<v:textBlock v:margins="rect(0,0,0,0)"/>
				<v:textRect cx="18" cy="272.38" width="36" height="21.2598"/>
				<rect x="0" y="261.75" width="36" height="21.2598" class="st4"/>
				<text x="6.73" y="275.98" class="st2" v:langID="1033"><v:paragraph v:horizAlign="1"/><v:tabList/>User</text>			</g>
		</g>
		<g id="shape8-18" v:mID="8" v:groupContext="shape" transform="translate(-55.2075,417.029) rotate(-135)">
			<title>Sheet.8</title>
			<path d="M9.45 283.01 L9.81 283.01 L79.51 283.01" class="st5"/>
		</g>
		<g id="shape9-27" v:mID="9" v:groupContext="shape" transform="translate(-118.368,-100.368) rotate(-45)">
			<title>Sheet.9</title>
			<path d="M9.45 283.01 L9.81 283.01 L67.62 283.01" class="st5"/>
		</g>
		<g id="shape10-34" v:mID="10" v:groupContext="shape" transform="translate(399.029,416.707) rotate(-45) scale(1,-1)">
			<title>Sheet.10</title>
			<path d="M9.45 283.01 L9.81 283.01 L79.06 283.01" class="st5"/>
		</g>
		<g id="shape11-41" v:mID="11" v:groupContext="shape" transform="translate(461.868,-100.368) rotate(45) scale(-1,1)">
			<title>Sheet.11</title>
			<path d="M9.45 283.01 L9.81 283.01 L67.62 283.01" class="st5"/>
		</g>
	</g>
</svg>
