<?xml version="1.0" encoding="UTF-8" standalone="no"?>
<!DOCTYPE svg PUBLIC "-//W3C//DTD SVG 1.0//EN" "http://www.w3.org/TR/2001/REC-SVG-20010904/DTD/svg10.dtd">
<!-- Generated by Microsoft Visio 11.0, SVG Export, v1.0 CeremonyContextProxy.svg CeremonyContextProxy -->
<svg xmlns="http://www.w3.org/2000/svg" xmlns:xlink="http://www.w3.org/1999/xlink" xmlns:ev="http://www.w3.org/2001/xml-events"
		xmlns:v="http://schemas.microsoft.com/visio/2003/SVGExtensions/" width="7.39583in" height="4.55569in"
		viewBox="0 0 532.5 328.01" xml:space="preserve" color-interpolation-filters="sRGB" class="st10">
	<v:documentProperties v:langID="1033" v:viewMarkup="false">
		<v:userDefs>
			<v:ud v:nameU="msvNoAutoConnect" v:val="VT0(1):26"/>
		</v:userDefs>
	</v:documentProperties>

	<style type="text/css">
	<![CDATA[
		.st1 {fill:#ffffff;stroke:#000000;stroke-linecap:round;stroke-linejoin:round;stroke-width:0.75}
		.st2 {fill:#000000;font-family:Calibri;font-size:1.00001em}
		.st3 {fill:#ffffff;stroke:#000000;stroke-linecap:round;stroke-linejoin:round;stroke-width:0.24}
		.st4 {fill:#ffffff;stroke:#000000;stroke-linecap:round;stroke-linejoin:round;stroke-width:0.24;visibility:hidden}
		.st5 {marker-end:url(#mrkr13-37);marker-start:url(#mrkr13-35);stroke:#000000;stroke-linecap:round;stroke-linejoin:round;stroke-width:0.75}
		.st6 {fill:#000000;fill-opacity:1;stroke:#000000;stroke-opacity:1;stroke-width:0.22935779816514}
		.st7 {marker-start:url(#mrkr13-35);stroke:#000000;stroke-linecap:round;stroke-linejoin:round;stroke-width:0.75}
		.st8 {fill:#ffffff;stroke:none;stroke-linecap:butt;stroke-width:7.2}
		.st9 {marker-end:url(#mrkr13-37);marker-start:url(#mrkr13-35);stroke:#000000;stroke-dasharray:5.25,3.75;stroke-linecap:round;stroke-linejoin:round;stroke-width:0.75}
		.st10 {fill:none;fill-rule:evenodd;font-size:12px;overflow:visible;stroke-linecap:square;stroke-miterlimit:3}
	]]>
	</style>

	<defs id="Markers">
		<g id="lend13">
			<path d="M 3 1 L 0 0 L 3 -1 L 3 1 " style="stroke:none"/>
		</g>
		<marker id="mrkr13-35" class="st6" v:arrowType="13" v:arrowSize="2" v:setback="12.6" refX="12.6" orient="auto"
				markerUnits="strokeWidth" overflow="visible">
			<use xlink:href="#lend13" transform="scale(4.36) "/>
		</marker>
		<marker id="mrkr13-37" class="st6" v:arrowType="13" v:arrowSize="2" v:setback="13.08" refX="-13.08" orient="auto"
				markerUnits="strokeWidth" overflow="visible">
			<use xlink:href="#lend13" transform="scale(-4.36,-4.36) "/>
		</marker>
	</defs>
	<g v:mID="9" v:index="8" v:groupContext="foregroundPage">
		<title>CeremonyContextProxy</title>
		<v:pageProperties v:drawingScale="1" v:pageScale="1" v:drawingUnits="19" v:shadowOffsetX="9" v:shadowOffsetY="-9"/>
		<v:layer v:name="Flowchart" v:index="0"/>
		<g id="shape12-1" v:mID="12" v:groupContext="shape" transform="translate(18.75,-165.26)">
			<title>Sheet.12</title>
			<desc>Admin Device</desc>
			<v:textBlock v:margins="rect(4,4,4,4)"/>
			<v:textRect cx="54" cy="310.01" width="108" height="36"/>
			<rect x="0" y="292.01" width="108" height="36" class="st1"/>
			<text x="20.41" y="313.61" class="st2" v:langID="1033"><v:paragraph v:horizAlign="1"/><v:tabList/>Admin Device</text>		</g>
		<g id="group13-4" transform="translate(61.5,-39.2598)" v:mID="13" v:groupContext="group" v:layerMember="0">
			<v:custProps>
				<v:cp v:nameU="Cost" v:lbl="Cost" v:type="7" v:format="@" v:langID="1033"/>
				<v:cp v:nameU="Duration" v:lbl="Duration" v:type="2" v:langID="1033"/>
				<v:cp v:nameU="Resources" v:lbl="Resources" v:langID="1033"/>
			</v:custProps>
			<v:userDefs>
				<v:ud v:nameU="visVersion" v:val="VT0(14):26"/>
			</v:userDefs>
			<title>Person 1.13</title>
			<g id="shape14-5" v:mID="14" v:groupContext="shape" v:layerMember="0" transform="translate(25.2236,-57.6) scale(-1,1)">
				<title>Sheet.14</title>
				<path d="M0 320.81 A7.22357 7.2 0 0 1 14.45 320.81 A7.22357 7.2 0 1 1 0 320.81 Z" class="st3"/>
			</g>
			<g id="shape15-7" v:mID="15" v:groupContext="shape" v:layerMember="0">
				<title>Sheet.15</title>
				<path d="M18.42 300.11 L26.79 328.01 L33.49 328.01 L26.79 295.61 L26.79 276.71 L31.81 292.01 L36 289.31 L30.14 270.41
							 L18.42 271.31 L6.7 270.41 L0 290.21 L5.02 292.01 L10.05 276.71 L10.05 295.61 L3.35 328.01 L10.05 328.01
							 L18.42 300.11 Z" class="st3"/>
			</g>
			<g id="shape16-9" v:mID="16" v:groupContext="shape" v:layerMember="0" transform="translate(-17.2697,21.2598)">
				<title>Sheet.16</title>
				<desc>Administrator</desc>
				<v:userDefs>
					<v:ud v:nameU="ScaleFactor" v:val="VT0(1):26"/>
				</v:userDefs>
				<v:textBlock v:margins="rect(0,0,0,0)"/>
				<v:textRect cx="35.2697" cy="317.38" width="70.54" height="21.2598"/>
				<rect x="0" y="306.75" width="70.5394" height="21.2598" class="st4"/>
				<text x="1.36" y="320.98" class="st2" v:langID="1033"><v:paragraph v:horizAlign="1"/><v:tabList/>Administrator</text>			</g>
		</g>
		<g id="shape1-12" v:mID="1" v:groupContext="shape" transform="translate(405.75,-165.26)">
			<title>Sheet.1</title>
			<desc>Target Device</desc>
			<v:textBlock v:margins="rect(4,4,4,4)"/>
			<v:textRect cx="54" cy="310.01" width="108" height="36"/>
			<rect x="0" y="292.01" width="108" height="36" class="st1"/>
			<text x="20.65" y="313.61" class="st2" v:langID="1033"><v:paragraph v:horizAlign="1"/><v:tabList/>Target Device</text>		</g>
		<g id="shape2-15" v:mID="2" v:groupContext="shape" transform="translate(288.75,-273.26)">
			<title>Sheet.2</title>
			<desc>Service</desc>
			<v:textBlock v:margins="rect(4,4,4,4)"/>
			<v:textRect cx="54" cy="310.01" width="108" height="36"/>
			<rect x="0" y="292.01" width="108" height="36" class="st1"/>
			<text x="36.56" y="313.61" class="st2" v:langID="1033"><v:paragraph v:horizAlign="1"/><v:tabList/>Service</text>		</g>
		<g id="shape3-18" v:mID="3" v:groupContext="shape" transform="translate(171.75,-165.26)">
			<title>Sheet.3</title>
			<desc>Capture Device</desc>
			<v:textBlock v:margins="rect(4,4,4,4)"/>
			<v:textRect cx="54" cy="310.01" width="108" height="36"/>
			<rect x="0" y="292.01" width="108" height="36" class="st1"/>
			<text x="16.89" y="313.61" class="st2" v:langID="1033"><v:paragraph v:horizAlign="1"/><v:tabList/>Capture Device</text>		</g>
		<g id="group4-21" transform="translate(324.75,-39.2598)" v:mID="4" v:groupContext="group" v:layerMember="0">
			<v:custProps>
				<v:cp v:nameU="Cost" v:lbl="Cost" v:type="7" v:format="@" v:langID="1033"/>
				<v:cp v:nameU="Duration" v:lbl="Duration" v:type="2" v:langID="1033"/>
				<v:cp v:nameU="Resources" v:lbl="Resources" v:langID="1033"/>
			</v:custProps>
			<v:userDefs>
				<v:ud v:nameU="visVersion" v:val="VT0(14):26"/>
			</v:userDefs>
			<title>Person 1</title>
			<g id="shape5-22" v:mID="5" v:groupContext="shape" v:layerMember="0" transform="translate(25.2236,-57.6) scale(-1,1)">
				<title>Sheet.5</title>
				<path d="M0 320.81 A7.22357 7.2 0 0 1 14.45 320.81 A7.22357 7.2 0 1 1 0 320.81 Z" class="st3"/>
			</g>
			<g id="shape6-24" v:mID="6" v:groupContext="shape" v:layerMember="0">
				<title>Sheet.6</title>
				<path d="M18.42 300.11 L26.79 328.01 L33.49 328.01 L26.79 295.61 L26.79 276.71 L31.81 292.01 L36 289.31 L30.14 270.41
							 L18.42 271.31 L6.7 270.41 L0 290.21 L5.02 292.01 L10.05 276.71 L10.05 295.61 L3.35 328.01 L10.05 328.01
							 L18.42 300.11 Z" class="st3"/>
			</g>
			<g id="shape7-26" v:mID="7" v:groupContext="shape" v:layerMember="0" transform="translate(-9.42697,21.2598)">
				<title>Sheet.7</title>
				<desc>Technician</desc>
				<v:userDefs>
					<v:ud v:nameU="ScaleFactor" v:val="VT0(1):26"/>
				</v:userDefs>
				<v:textBlock v:margins="rect(0,0,0,0)"/>
				<v:textRect cx="27.427" cy="317.38" width="54.86" height="21.2598"/>
				<rect x="0" y="306.75" width="54.8539" height="21.2598" class="st4"/>
				<text x="1.36" y="320.98" class="st2" v:langID="1033"><v:paragraph v:horizAlign="1"/><v:tabList/>Technician</text>			</g>
		</g>
		<g id="shape8-29" v:mID="8" v:groupContext="shape" transform="translate(83.9727,466.849) rotate(-135)">
			<title>Sheet.8</title>
			<path d="M9.45 328.01 L9.81 328.01 L79.51 328.01" class="st5"/>
		</g>
		<g id="shape9-38" v:mID="9" v:groupContext="shape" transform="translate(20.812,-114.188) rotate(-45)">
			<title>Sheet.9</title>
			<path d="M9.45 328.01 L9.81 328.01 L67.62 328.01" class="st5"/>
		</g>
		<g id="shape10-45" v:mID="10" v:groupContext="shape" transform="translate(601.849,466.527) rotate(-45) scale(1,-1)">
			<title>Sheet.10</title>
			<path d="M9.45 328.01 L9.81 328.01 L79.06 328.01" class="st5"/>
		</g>
		<g id="shape11-52" v:mID="11" v:groupContext="shape" transform="translate(664.688,-114.188) rotate(45) scale(-1,1)">
			<title>Sheet.11</title>
			<path d="M9.45 328.01 L9.81 328.01 L67.62 328.01" class="st5"/>
		</g>
		<g id="shape17-59" v:mID="17" v:groupContext="shape" transform="translate(288.75,472.76) scale(1,-1)">
			<title>Sheet.17</title>
			<desc>Code</desc>
			<v:textBlock v:margins="rect(4,4,4,4)"/>
			<v:textRect cx="54" cy="328.01" width="108" height="0"/>
			<path d="M9.45 328.01 L9.81 328.01 L108 328.01" class="st7"/>
			<rect v:rectContext="textBkgnd" x="41.4989" y="320.81" width="25.0021" height="14.4001" class="st8"/>
			<text x="41.5" y="-324.41" transform="scale(1,-1)" class="st2" v:langID="1033"><v:paragraph v:horizAlign="1"/><v:tabList/>Code</text>		</g>
		<g id="shape18-66" v:mID="18" v:groupContext="shape" transform="translate(135.75,-183.26)">
			<title>Sheet.18</title>
			<path d="M9.45 328.01 L9.81 328.01 L14.94 328.01" class="st5"/>
		</g>
		<g id="shape19-73" v:mID="19" v:groupContext="shape" transform="translate(-248.51,207.75) rotate(-90)">
			<title>Sheet.19</title>
			<path d="M9.45 328.01 L9.81 328.01 L26.19 328.01" class="st5"/>
		</g>
		<g id="shape20-80" v:mID="20" v:groupContext="shape" transform="translate(108.75,-66.2598)">
			<title>Sheet.20</title>
			<path d="M9.45 328.01 L9.81 328.01 L188.19 328.01" class="st9"/>
		</g>
	</g>
</svg>
