<?xml version="1.0" encoding="UTF-8" standalone="no"?>
<!DOCTYPE svg PUBLIC "-//W3C//DTD SVG 1.0//EN" "http://www.w3.org/TR/2001/REC-SVG-20010904/DTD/svg10.dtd">
<!-- Generated by Microsoft Visio 11.0, SVG Export, v1.0 cryptomesh.svg cryptomesh -->
<svg xmlns="http://www.w3.org/2000/svg" xmlns:xlink="http://www.w3.org/1999/xlink" xmlns:ev="http://www.w3.org/2001/xml-events"
		xmlns:v="http://schemas.microsoft.com/visio/2003/SVGExtensions/" width="6.14366in" height="4.00333in"
		viewBox="0 0 442.343 288.24" xml:space="preserve" color-interpolation-filters="sRGB" class="st8">
	<v:documentProperties v:langID="1033" v:viewMarkup="false">
		<v:userDefs>
			<v:ud v:nameU="msvNoAutoConnect" v:val="VT0(1):26"/>
		</v:userDefs>
	</v:documentProperties>

	<style type="text/css">
	<![CDATA[
		.st1 {fill:#ffffff;stroke:#000000;stroke-linecap:round;stroke-linejoin:round;stroke-width:1}
		.st2 {fill:#000000;font-family:Calibri;font-size:1.00001em}
		.st3 {fill:#ffffff;stroke:#000000;stroke-linecap:round;stroke-linejoin:round;stroke-width:0.24}
		.st4 {fill:none;stroke:#000000;stroke-linecap:round;stroke-linejoin:round;stroke-width:0.24;visibility:hidden}
		.st5 {marker-end:url(#mrkr13-40);marker-start:url(#mrkr13-38);stroke:#000000;stroke-linecap:round;stroke-linejoin:round;stroke-width:1}
		.st6 {fill:#000000;fill-opacity:1;stroke:#000000;stroke-opacity:1;stroke-width:0.28409090909091}
		.st7 {fill:#ffffff;stroke:none;stroke-linecap:butt;stroke-width:7.2}
		.st8 {fill:none;fill-rule:evenodd;font-size:12px;overflow:visible;stroke-linecap:square;stroke-miterlimit:3}
	]]>
	</style>

	<defs id="Markers">
		<g id="lend13">
			<path d="M 3 1 L 0 0 L 3 -1 L 3 1 " style="stroke:none"/>
		</g>
		<marker id="mrkr13-38" class="st6" v:arrowType="13" v:arrowSize="2" v:setback="10.2" refX="10.2" orient="auto"
				markerUnits="strokeWidth" overflow="visible">
			<use xlink:href="#lend13" transform="scale(3.52) "/>
		</marker>
		<marker id="mrkr13-40" class="st6" v:arrowType="13" v:arrowSize="2" v:setback="10.56" refX="-10.56" orient="auto"
				markerUnits="strokeWidth" overflow="visible">
			<use xlink:href="#lend13" transform="scale(-3.52,-3.52) "/>
		</marker>
	</defs>
	<g v:mID="5" v:index="4" v:groupContext="foregroundPage">
		<title>cryptomesh</title>
		<v:pageProperties v:drawingScale="1" v:pageScale="1" v:drawingUnits="19" v:shadowOffsetX="9" v:shadowOffsetY="-9"/>
		<v:layer v:name="Flowchart" v:index="0"/>
		<g id="shape1-1" v:mID="1" v:groupContext="shape" v:layerMember="0" transform="translate(63.24,-225)">
			<title>Drum storage</title>
			<desc>PortalCorp</desc>
			<v:custProps>
				<v:cp v:nameU="Cost" v:lbl="Cost" v:type="7" v:format="@" v:langID="1033"/>
				<v:cp v:nameU="Duration" v:lbl="Duration" v:type="2" v:langID="1033"/>
				<v:cp v:nameU="Resources" v:lbl="Resources" v:langID="1033"/>
			</v:custProps>
			<v:userDefs>
				<v:ud v:nameU="visVersion" v:val="VT0(14):26"/>
				<v:ud v:nameU="Scale" v:val="VT0(1):26"/>
				<v:ud v:nameU="AntiScale" v:val="VT0(1):26"/>
			</v:userDefs>
			<v:textBlock v:margins="rect(2,2,2,2)"/>
			<v:textRect cx="45" cy="272.49" width="74.25" height="31.5"/>
			<path d="M82.12 288.24 A15.5306 15.5306 -180 0 0 90 272.49 A15.8764 15.8764 -180 0 0 82.12 256.74 L7.87 256.74 A15.8764
						 15.8764 -180 0 0 0 272.49 A15.5306 15.5306 -180 0 0 7.88 288.24 L82.12 288.24 Z" class="st1"/>
			<text x="18.78" y="276.09" class="st2" v:langID="1033"><v:paragraph v:horizAlign="1"/><v:tabList/>PortalCorp</text>		</g>
		<g id="shape2-4" v:mID="2" v:groupContext="shape" v:layerMember="0" transform="translate(49.74,-38.25)">
			<title>Drum storage.2</title>
			<desc>Prismproof</desc>
			<v:custProps>
				<v:cp v:nameU="Cost" v:lbl="Cost" v:type="7" v:format="@" v:langID="1033"/>
				<v:cp v:nameU="Duration" v:lbl="Duration" v:type="2" v:langID="1033"/>
				<v:cp v:nameU="Resources" v:lbl="Resources" v:langID="1033"/>
			</v:custProps>
			<v:userDefs>
				<v:ud v:nameU="visVersion" v:val="VT0(14):26"/>
				<v:ud v:nameU="Scale" v:val="VT0(1):26"/>
				<v:ud v:nameU="AntiScale" v:val="VT0(1):26"/>
			</v:userDefs>
			<v:textBlock v:margins="rect(2,2,2,2)"/>
			<v:textRect cx="45" cy="272.49" width="74.25" height="31.5"/>
			<path d="M82.12 288.24 A15.5306 15.5306 -180 0 0 90 272.49 A15.8764 15.8764 -180 0 0 82.12 256.74 L7.87 256.74 A15.8764
						 15.8764 -180 0 0 0 272.49 A15.5306 15.5306 -180 0 0 7.88 288.24 L82.12 288.24 Z" class="st1"/>
			<text x="17.89" y="276.09" class="st2" v:langID="1033"><v:paragraph v:horizAlign="1"/><v:tabList/>Prismproof</text>		</g>
		<g id="shape3-7" v:mID="3" v:groupContext="shape" v:layerMember="0" transform="translate(292.74,-47.25)">
			<title>Drum storage.3</title>
			<desc>NuPortal</desc>
			<v:custProps>
				<v:cp v:nameU="Cost" v:lbl="Cost" v:type="7" v:format="@" v:langID="1033"/>
				<v:cp v:nameU="Duration" v:lbl="Duration" v:type="2" v:langID="1033"/>
				<v:cp v:nameU="Resources" v:lbl="Resources" v:langID="1033"/>
			</v:custProps>
			<v:userDefs>
				<v:ud v:nameU="visVersion" v:val="VT0(14):26"/>
				<v:ud v:nameU="Scale" v:val="VT0(1):26"/>
				<v:ud v:nameU="AntiScale" v:val="VT0(1):26"/>
			</v:userDefs>
			<v:textBlock v:margins="rect(2,2,2,2)"/>
			<v:textRect cx="45" cy="272.49" width="74.25" height="31.5"/>
			<path d="M82.12 288.24 A15.5306 15.5306 -180 0 0 90 272.49 A15.8764 15.8764 -180 0 0 82.12 256.74 L7.87 256.74 A15.8764
						 15.8764 -180 0 0 0 272.49 A15.5306 15.5306 -180 0 0 7.88 288.24 L82.12 288.24 Z" class="st1"/>
			<text x="23.36" y="276.09" class="st2" v:langID="1033"><v:paragraph v:horizAlign="1"/><v:tabList/>NuPortal</text>		</g>
		<g id="shape4-10" v:mID="4" v:groupContext="shape" v:layerMember="0" transform="translate(328.74,-180)">
			<title>Drum storage.4</title>
			<desc>BitPortal</desc>
			<v:custProps>
				<v:cp v:nameU="Cost" v:lbl="Cost" v:type="7" v:format="@" v:langID="1033"/>
				<v:cp v:nameU="Duration" v:lbl="Duration" v:type="2" v:langID="1033"/>
				<v:cp v:nameU="Resources" v:lbl="Resources" v:langID="1033"/>
			</v:custProps>
			<v:userDefs>
				<v:ud v:nameU="visVersion" v:val="VT0(14):26"/>
				<v:ud v:nameU="Scale" v:val="VT0(1):26"/>
				<v:ud v:nameU="AntiScale" v:val="VT0(1):26"/>
			</v:userDefs>
			<v:textBlock v:margins="rect(2,2,2,2)"/>
			<v:textRect cx="45" cy="272.49" width="74.25" height="31.5"/>
			<path d="M82.12 288.24 A15.5306 15.5306 -180 0 0 90 272.49 A15.8764 15.8764 -180 0 0 82.12 256.74 L7.87 256.74 A15.8764
						 15.8764 -180 0 0 0 272.49 A15.5306 15.5306 -180 0 0 7.88 288.24 L82.12 288.24 Z" class="st1"/>
			<text x="23.73" y="276.09" class="st2" v:langID="1033"><v:paragraph v:horizAlign="1"/><v:tabList/>BitPortal</text>		</g>
		<g id="shape5-13" v:mID="5" v:groupContext="shape" transform="translate(148.74,-108)">
			<title>Cloud</title>
			<desc>CryptoMesh</desc>
			<v:userDefs>
				<v:ud v:nameU="SolSH"/>
				<v:ud v:nameU="ShapeType" v:val="VT0(1):26"/>
				<v:ud v:nameU="shapelook" v:val="VT0(2):26"/>
				<v:ud v:nameU="visVersion" v:val="VT0(14):26"/>
			</v:userDefs>
			<v:textBlock v:margins="rect(0,0,0,0)"/>
			<v:textRect cx="54" cy="266.149" width="108" height="44.1818"/>
			<path d="M40.12 250.14 A17.0945 11.3553 0 0 1 70.28 249.99 A12.547 8.33461 0 0 1 91.86 252.75 A12.6186 8.38217 0 0 1
						 106.76 256.97 A9.51883 6.32307 0 0 1 101.7 264.64 A10.7497 7.14069 0 0 1 93.45 277.82 A19.3573 12.8585 0
						 0 1 66.5 284.46 A24.3795 16.1946 0 0 1 32.67 282.85 A13.4165 8.91219 0 0 1 9.07 275.66 A9.69481 6.43997
						 0 0 1 9.11 262.81 A8.29513 5.5102 0 1 1 15.81 252.73 A13.0041 8.63821 0 0 1 40.12 250.14 Z" class="st1"/>
			<text x="24.05" y="269.75" class="st2" v:langID="1033"><v:paragraph v:horizAlign="1"/><v:tabList/>CryptoMesh</text>		</g>
		<g id="group6-16" transform="translate(18.24,-216)" v:mID="6" v:groupContext="group" v:layerMember="0">
			<v:custProps>
				<v:cp v:nameU="Cost" v:lbl="Cost" v:type="7" v:format="@" v:langID="1033"/>
				<v:cp v:nameU="Duration" v:lbl="Duration" v:type="2" v:langID="1033"/>
				<v:cp v:nameU="Resources" v:lbl="Resources" v:langID="1033"/>
			</v:custProps>
			<v:userDefs>
				<v:ud v:nameU="visVersion" v:val="VT0(14):26"/>
			</v:userDefs>
			<title>Person 1</title>
			<g id="shape7-17" v:mID="7" v:groupContext="shape" v:layerMember="0" transform="translate(18.9177,-43.2) scale(-1,1)">
				<title>Sheet.7</title>
				<path d="M0 282.84 A5.41768 5.4 0 1 1 10.84 282.84 A5.41768 5.4 0 1 1 0 282.84 Z" class="st3"/>
			</g>
			<g id="shape8-19" v:mID="8" v:groupContext="shape" v:layerMember="0">
				<title>Sheet.8</title>
				<path d="M13.81 267.31 L20.09 288.24 L25.12 288.24 L20.09 263.94 L20.09 249.76 L23.86 261.24 L27 259.22 L22.6 245.04
							 L13.81 245.71 L5.02 245.04 L0 259.89 L3.77 261.24 L7.53 249.76 L7.53 263.94 L2.51 288.24 L7.53 288.24
							 L13.81 267.31 Z" class="st3"/>
			</g>
			<g id="shape9-21" v:mID="9" v:groupContext="shape" v:layerMember="0" transform="translate(0,18)">
				<title>Sheet.9</title>
				<desc>Alice</desc>
				<v:userDefs>
					<v:ud v:nameU="ScaleFactor" v:val="VT0(1):26"/>
				</v:userDefs>
				<v:textBlock v:margins="rect(0,0,0,0)"/>
				<v:textRect cx="13.5" cy="279.24" width="27" height="18"/>
				<rect x="0" y="270.24" width="27" height="18" class="st4"/>
				<text x="1.75" y="282.84" class="st2" v:langID="1033"><v:paragraph v:horizAlign="1"/><v:tabList/>Alice</text>			</g>
		</g>
		<g id="group10-24" transform="translate(396.24,-36)" v:mID="10" v:groupContext="group" v:layerMember="0">
			<v:custProps>
				<v:cp v:nameU="Cost" v:lbl="Cost" v:type="7" v:format="@" v:langID="1033"/>
				<v:cp v:nameU="Duration" v:lbl="Duration" v:type="2" v:langID="1033"/>
				<v:cp v:nameU="Resources" v:lbl="Resources" v:langID="1033"/>
			</v:custProps>
			<v:userDefs>
				<v:ud v:nameU="visVersion" v:val="VT0(14):26"/>
			</v:userDefs>
			<title>Person 1.10</title>
			<g id="shape11-25" v:mID="11" v:groupContext="shape" v:layerMember="0" transform="translate(18.9177,-43.2) scale(-1,1)">
				<title>Sheet.11</title>
				<path d="M0 282.84 A5.41768 5.4 0 1 1 10.84 282.84 A5.41768 5.4 0 1 1 0 282.84 Z" class="st3"/>
			</g>
			<g id="shape12-27" v:mID="12" v:groupContext="shape" v:layerMember="0">
				<title>Sheet.12</title>
				<path d="M13.81 267.31 L20.09 288.24 L25.12 288.24 L20.09 263.94 L20.09 249.76 L23.86 261.24 L27 259.22 L22.6 245.04
							 L13.81 245.71 L5.02 245.04 L0 259.89 L3.77 261.24 L7.53 249.76 L7.53 263.94 L2.51 288.24 L7.53 288.24
							 L13.81 267.31 Z" class="st3"/>
			</g>
			<g id="shape13-29" v:mID="13" v:groupContext="shape" v:layerMember="0" transform="translate(-1.10345,18)">
				<title>Sheet.13</title>
				<desc>Alice’</desc>
				<v:userDefs>
					<v:ud v:nameU="ScaleFactor" v:val="VT0(1):26"/>
				</v:userDefs>
				<v:textBlock v:margins="rect(0,0,0,0)"/>
				<v:textRect cx="14.6035" cy="279.24" width="29.21" height="18"/>
				<rect x="0" y="270.24" width="29.2069" height="18" class="st4"/>
				<text x="1.36" y="282.84" class="st2" v:langID="1033"><v:paragraph v:horizAlign="1"/><v:tabList/>Alice’</text>			</g>
		</g>
		<g id="shape14-32" v:mID="14" v:groupContext="shape" transform="translate(335.84,-113.624) rotate(52.1499)">
			<title>Sheet.14</title>
			<desc>Synchronize</desc>
			<v:textBlock v:margins="rect(4,4,4,4)" v:verticalAlign="2"/>
			<v:textRect cx="48.843" cy="288.24" width="97.69" height="0"/>
			<path d="M10.2 288.24 L10.56 288.24 L87.13 288.24" class="st5"/>
			<rect v:rectContext="textBkgnd" x="19.3876" y="269.84" width="58.9109" height="14.4001" class="st7"/>
			<text x="19.39" y="280.64" class="st2" v:langID="1033"><v:paragraph v:horizAlign="1"/><v:tabList/>Synchronize</text>		</g>
		<g id="shape15-43" v:mID="15" v:groupContext="shape" transform="translate(-42.3459,-35.0643) rotate(-28.3982)">
			<title>Sheet.15</title>
			<desc>Synchronize</desc>
			<v:textBlock v:margins="rect(4,4,4,4)" v:verticalAlign="2"/>
			<v:textRect cx="42.5351" cy="288.24" width="85.08" height="0"/>
			<path d="M10.2 288.24 L10.56 288.24 L74.51 288.24" class="st5"/>
			<rect v:rectContext="textBkgnd" x="13.0798" y="269.84" width="58.9109" height="14.4001" class="st7"/>
			<text x="13.08" y="280.64" class="st2" v:langID="1033"><v:paragraph v:horizAlign="1"/><v:tabList/>Synchronize</text>		</g>
		<g id="shape16-52" v:mID="16" v:groupContext="shape" transform="translate(102.592,-114.316) rotate(-27.7068)">
			<title>Sheet.16</title>
			<desc>Synchronize</desc>
			<v:textBlock v:margins="rect(4,4,4,4)" v:verticalAlign="2"/>
			<v:textRect cx="52.0316" cy="288.24" width="104.07" height="0"/>
			<path d="M10.2 288.24 L10.56 288.24 L93.5 288.24" class="st5"/>
			<rect v:rectContext="textBkgnd" x="22.5764" y="269.84" width="58.9109" height="14.4001" class="st7"/>
			<text x="22.58" y="280.64" class="st2" v:langID="1033"><v:paragraph v:horizAlign="1"/><v:tabList/>Synchronize</text>		</g>
		<g id="shape17-61" v:mID="17" v:groupContext="shape" transform="translate(329.707,-97.8287) rotate(18.8506)">
			<title>Sheet.17</title>
			<desc>Synchronize</desc>
			<v:textBlock v:margins="rect(4,4,4,4)" v:verticalAlign="2"/>
			<v:textRect cx="53.4485" cy="288.24" width="106.9" height="0"/>
			<path d="M10.2 288.24 L10.56 288.24 L96.34 288.24" class="st5"/>
			<rect v:rectContext="textBkgnd" x="23.993" y="269.84" width="58.9109" height="14.4001" class="st7"/>
			<text x="23.99" y="280.64" class="st2" v:langID="1033"><v:paragraph v:horizAlign="1"/><v:tabList/>Synchronize</text>		</g>
	</g>
</svg>
