<svg version="1.1" baseProfile="full" shape-rendering="crispEdges" width="287" height="287" xmlns="http://www.w3.org/2000/svg"><rect x="0" y="0" width="287" height="287" fill="#FFFFFF" />
<rect x="28" y="28" width="7" height="7" fill="#000000" />
<rect x="28" y="35" width="7" height="7" fill="#000000" />
<rect x="28" y="42" width="7" height="7" fill="#000000" />
<rect x="28" y="49" width="7" height="7" fill="#000000" />
<rect x="28" y="56" width="7" height="7" fill="#000000" />
<rect x="28" y="63" width="7" height="7" fill="#000000" />
<rect x="28" y="70" width="7" height="7" fill="#000000" />
<rect x="28" y="84" width="7" height="7" fill="#000000" />
<rect x="28" y="98" width="7" height="7" fill="#000000" />
<rect x="28" y="105" width="7" height="7" fill="#000000" />
<rect x="28" y="112" width="7" height="7" fill="#000000" />
<rect x="28" y="126" width="7" height="7" fill="#000000" />
<rect x="28" y="140" width="7" height="7" fill="#000000" />
<rect x="28" y="147" width="7" height="7" fill="#000000" />
<rect x="28" y="154" width="7" height="7" fill="#000000" />
<rect x="28" y="182" width="7" height="7" fill="#000000" />
<rect x="28" y="196" width="7" height="7" fill="#000000" />
<rect x="28" y="210" width="7" height="7" fill="#000000" />
<rect x="28" y="217" width="7" height="7" fill="#000000" />
<rect x="28" y="224" width="7" height="7" fill="#000000" />
<rect x="28" y="231" width="7" height="7" fill="#000000" />
<rect x="28" y="238" width="7" height="7" fill="#000000" />
<rect x="28" y="245" width="7" height="7" fill="#000000" />
<rect x="28" y="252" width="7" height="7" fill="#000000" />
<rect x="35" y="28" width="7" height="7" fill="#000000" />
<rect x="35" y="70" width="7" height="7" fill="#000000" />
<rect x="35" y="84" width="7" height="7" fill="#000000" />
<rect x="35" y="119" width="7" height="7" fill="#000000" />
<rect x="35" y="126" width="7" height="7" fill="#000000" />
<rect x="35" y="133" width="7" height="7" fill="#000000" />
<rect x="35" y="154" width="7" height="7" fill="#000000" />
<rect x="35" y="168" width="7" height="7" fill="#000000" />
<rect x="35" y="175" width="7" height="7" fill="#000000" />
<rect x="35" y="182" width="7" height="7" fill="#000000" />
<rect x="35" y="196" width="7" height="7" fill="#000000" />
<rect x="35" y="210" width="7" height="7" fill="#000000" />
<rect x="35" y="252" width="7" height="7" fill="#000000" />
<rect x="42" y="28" width="7" height="7" fill="#000000" />
<rect x="42" y="42" width="7" height="7" fill="#000000" />
<rect x="42" y="49" width="7" height="7" fill="#000000" />
<rect x="42" y="56" width="7" height="7" fill="#000000" />
<rect x="42" y="70" width="7" height="7" fill="#000000" />
<rect x="42" y="84" width="7" height="7" fill="#000000" />
<rect x="42" y="98" width="7" height="7" fill="#000000" />
<rect x="42" y="105" width="7" height="7" fill="#000000" />
<rect x="42" y="133" width="7" height="7" fill="#000000" />
<rect x="42" y="140" width="7" height="7" fill="#000000" />
<rect x="42" y="147" width="7" height="7" fill="#000000" />
<rect x="42" y="168" width="7" height="7" fill="#000000" />
<rect x="42" y="182" width="7" height="7" fill="#000000" />
<rect x="42" y="210" width="7" height="7" fill="#000000" />
<rect x="42" y="224" width="7" height="7" fill="#000000" />
<rect x="42" y="231" width="7" height="7" fill="#000000" />
<rect x="42" y="238" width="7" height="7" fill="#000000" />
<rect x="42" y="252" width="7" height="7" fill="#000000" />
<rect x="49" y="28" width="7" height="7" fill="#000000" />
<rect x="49" y="42" width="7" height="7" fill="#000000" />
<rect x="49" y="49" width="7" height="7" fill="#000000" />
<rect x="49" y="56" width="7" height="7" fill="#000000" />
<rect x="49" y="70" width="7" height="7" fill="#000000" />
<rect x="49" y="98" width="7" height="7" fill="#000000" />
<rect x="49" y="119" width="7" height="7" fill="#000000" />
<rect x="49" y="147" width="7" height="7" fill="#000000" />
<rect x="49" y="154" width="7" height="7" fill="#000000" />
<rect x="49" y="161" width="7" height="7" fill="#000000" />
<rect x="49" y="168" width="7" height="7" fill="#000000" />
<rect x="49" y="175" width="7" height="7" fill="#000000" />
<rect x="49" y="182" width="7" height="7" fill="#000000" />
<rect x="49" y="196" width="7" height="7" fill="#000000" />
<rect x="49" y="210" width="7" height="7" fill="#000000" />
<rect x="49" y="224" width="7" height="7" fill="#000000" />
<rect x="49" y="231" width="7" height="7" fill="#000000" />
<rect x="49" y="238" width="7" height="7" fill="#000000" />
<rect x="49" y="252" width="7" height="7" fill="#000000" />
<rect x="56" y="28" width="7" height="7" fill="#000000" />
<rect x="56" y="42" width="7" height="7" fill="#000000" />
<rect x="56" y="49" width="7" height="7" fill="#000000" />
<rect x="56" y="56" width="7" height="7" fill="#000000" />
<rect x="56" y="70" width="7" height="7" fill="#000000" />
<rect x="56" y="91" width="7" height="7" fill="#000000" />
<rect x="56" y="105" width="7" height="7" fill="#000000" />
<rect x="56" y="126" width="7" height="7" fill="#000000" />
<rect x="56" y="133" width="7" height="7" fill="#000000" />
<rect x="56" y="161" width="7" height="7" fill="#000000" />
<rect x="56" y="210" width="7" height="7" fill="#000000" />
<rect x="56" y="224" width="7" height="7" fill="#000000" />
<rect x="56" y="231" width="7" height="7" fill="#000000" />
<rect x="56" y="238" width="7" height="7" fill="#000000" />
<rect x="56" y="252" width="7" height="7" fill="#000000" />
<rect x="63" y="28" width="7" height="7" fill="#000000" />
<rect x="63" y="70" width="7" height="7" fill="#000000" />
<rect x="63" y="84" width="7" height="7" fill="#000000" />
<rect x="63" y="119" width="7" height="7" fill="#000000" />
<rect x="63" y="133" width="7" height="7" fill="#000000" />
<rect x="63" y="147" width="7" height="7" fill="#000000" />
<rect x="63" y="154" width="7" height="7" fill="#000000" />
<rect x="63" y="161" width="7" height="7" fill="#000000" />
<rect x="63" y="182" width="7" height="7" fill="#000000" />
<rect x="63" y="210" width="7" height="7" fill="#000000" />
<rect x="63" y="252" width="7" height="7" fill="#000000" />
<rect x="70" y="28" width="7" height="7" fill="#000000" />
<rect x="70" y="35" width="7" height="7" fill="#000000" />
<rect x="70" y="42" width="7" height="7" fill="#000000" />
<rect x="70" y="49" width="7" height="7" fill="#000000" />
<rect x="70" y="56" width="7" height="7" fill="#000000" />
<rect x="70" y="63" width="7" height="7" fill="#000000" />
<rect x="70" y="70" width="7" height="7" fill="#000000" />
<rect x="70" y="84" width="7" height="7" fill="#000000" />
<rect x="70" y="98" width="7" height="7" fill="#000000" />
<rect x="70" y="112" width="7" height="7" fill="#000000" />
<rect x="70" y="126" width="7" height="7" fill="#000000" />
<rect x="70" y="140" width="7" height="7" fill="#000000" />
<rect x="70" y="154" width="7" height="7" fill="#000000" />
<rect x="70" y="168" width="7" height="7" fill="#000000" />
<rect x="70" y="182" width="7" height="7" fill="#000000" />
<rect x="70" y="196" width="7" height="7" fill="#000000" />
<rect x="70" y="210" width="7" height="7" fill="#000000" />
<rect x="70" y="217" width="7" height="7" fill="#000000" />
<rect x="70" y="224" width="7" height="7" fill="#000000" />
<rect x="70" y="231" width="7" height="7" fill="#000000" />
<rect x="70" y="238" width="7" height="7" fill="#000000" />
<rect x="70" y="245" width="7" height="7" fill="#000000" />
<rect x="70" y="252" width="7" height="7" fill="#000000" />
<rect x="77" y="112" width="7" height="7" fill="#000000" />
<rect x="77" y="140" width="7" height="7" fill="#000000" />
<rect x="77" y="147" width="7" height="7" fill="#000000" />
<rect x="77" y="161" width="7" height="7" fill="#000000" />
<rect x="77" y="168" width="7" height="7" fill="#000000" />
<rect x="77" y="175" width="7" height="7" fill="#000000" />
<rect x="77" y="182" width="7" height="7" fill="#000000" />
<rect x="77" y="189" width="7" height="7" fill="#000000" />
<rect x="77" y="196" width="7" height="7" fill="#000000" />
<rect x="84" y="28" width="7" height="7" fill="#000000" />
<rect x="84" y="35" width="7" height="7" fill="#000000" />
<rect x="84" y="56" width="7" height="7" fill="#000000" />
<rect x="84" y="63" width="7" height="7" fill="#000000" />
<rect x="84" y="70" width="7" height="7" fill="#000000" />
<rect x="84" y="77" width="7" height="7" fill="#000000" />
<rect x="84" y="84" width="7" height="7" fill="#000000" />
<rect x="84" y="98" width="7" height="7" fill="#000000" />
<rect x="84" y="112" width="7" height="7" fill="#000000" />
<rect x="84" y="133" width="7" height="7" fill="#000000" />
<rect x="84" y="140" width="7" height="7" fill="#000000" />
<rect x="84" y="161" width="7" height="7" fill="#000000" />
<rect x="84" y="175" width="7" height="7" fill="#000000" />
<rect x="84" y="182" width="7" height="7" fill="#000000" />
<rect x="84" y="189" width="7" height="7" fill="#000000" />
<rect x="84" y="203" width="7" height="7" fill="#000000" />
<rect x="84" y="217" width="7" height="7" fill="#000000" />
<rect x="84" y="238" width="7" height="7" fill="#000000" />
<rect x="84" y="245" width="7" height="7" fill="#000000" />
<rect x="84" y="252" width="7" height="7" fill="#000000" />
<rect x="91" y="35" width="7" height="7" fill="#000000" />
<rect x="91" y="56" width="7" height="7" fill="#000000" />
<rect x="91" y="84" width="7" height="7" fill="#000000" />
<rect x="91" y="91" width="7" height="7" fill="#000000" />
<rect x="91" y="105" width="7" height="7" fill="#000000" />
<rect x="91" y="112" width="7" height="7" fill="#000000" />
<rect x="91" y="140" width="7" height="7" fill="#000000" />
<rect x="91" y="154" width="7" height="7" fill="#000000" />
<rect x="91" y="161" width="7" height="7" fill="#000000" />
<rect x="91" y="175" width="7" height="7" fill="#000000" />
<rect x="91" y="189" width="7" height="7" fill="#000000" />
<rect x="91" y="203" width="7" height="7" fill="#000000" />
<rect x="91" y="217" width="7" height="7" fill="#000000" />
<rect x="91" y="231" width="7" height="7" fill="#000000" />
<rect x="91" y="252" width="7" height="7" fill="#000000" />
<rect x="98" y="35" width="7" height="7" fill="#000000" />
<rect x="98" y="42" width="7" height="7" fill="#000000" />
<rect x="98" y="49" width="7" height="7" fill="#000000" />
<rect x="98" y="56" width="7" height="7" fill="#000000" />
<rect x="98" y="70" width="7" height="7" fill="#000000" />
<rect x="98" y="77" width="7" height="7" fill="#000000" />
<rect x="98" y="84" width="7" height="7" fill="#000000" />
<rect x="98" y="91" width="7" height="7" fill="#000000" />
<rect x="98" y="147" width="7" height="7" fill="#000000" />
<rect x="98" y="154" width="7" height="7" fill="#000000" />
<rect x="98" y="182" width="7" height="7" fill="#000000" />
<rect x="98" y="189" width="7" height="7" fill="#000000" />
<rect x="98" y="203" width="7" height="7" fill="#000000" />
<rect x="98" y="231" width="7" height="7" fill="#000000" />
<rect x="98" y="238" width="7" height="7" fill="#000000" />
<rect x="98" y="245" width="7" height="7" fill="#000000" />
<rect x="98" y="252" width="7" height="7" fill="#000000" />
<rect x="105" y="28" width="7" height="7" fill="#000000" />
<rect x="105" y="42" width="7" height="7" fill="#000000" />
<rect x="105" y="56" width="7" height="7" fill="#000000" />
<rect x="105" y="63" width="7" height="7" fill="#000000" />
<rect x="105" y="77" width="7" height="7" fill="#000000" />
<rect x="105" y="98" width="7" height="7" fill="#000000" />
<rect x="105" y="112" width="7" height="7" fill="#000000" />
<rect x="105" y="133" width="7" height="7" fill="#000000" />
<rect x="105" y="154" width="7" height="7" fill="#000000" />
<rect x="105" y="168" width="7" height="7" fill="#000000" />
<rect x="105" y="189" width="7" height="7" fill="#000000" />
<rect x="105" y="210" width="7" height="7" fill="#000000" />
<rect x="105" y="224" width="7" height="7" fill="#000000" />
<rect x="105" y="245" width="7" height="7" fill="#000000" />
<rect x="112" y="28" width="7" height="7" fill="#000000" />
<rect x="112" y="35" width="7" height="7" fill="#000000" />
<rect x="112" y="42" width="7" height="7" fill="#000000" />
<rect x="112" y="70" width="7" height="7" fill="#000000" />
<rect x="112" y="77" width="7" height="7" fill="#000000" />
<rect x="112" y="112" width="7" height="7" fill="#000000" />
<rect x="112" y="119" width="7" height="7" fill="#000000" />
<rect x="112" y="126" width="7" height="7" fill="#000000" />
<rect x="112" y="133" width="7" height="7" fill="#000000" />
<rect x="112" y="168" width="7" height="7" fill="#000000" />
<rect x="112" y="175" width="7" height="7" fill="#000000" />
<rect x="112" y="182" width="7" height="7" fill="#000000" />
<rect x="112" y="189" width="7" height="7" fill="#000000" />
<rect x="112" y="224" width="7" height="7" fill="#000000" />
<rect x="112" y="231" width="7" height="7" fill="#000000" />
<rect x="112" y="238" width="7" height="7" fill="#000000" />
<rect x="112" y="245" width="7" height="7" fill="#000000" />
<rect x="119" y="35" width="7" height="7" fill="#000000" />
<rect x="119" y="56" width="7" height="7" fill="#000000" />
<rect x="119" y="84" width="7" height="7" fill="#000000" />
<rect x="119" y="91" width="7" height="7" fill="#000000" />
<rect x="119" y="105" width="7" height="7" fill="#000000" />
<rect x="119" y="112" width="7" height="7" fill="#000000" />
<rect x="119" y="126" width="7" height="7" fill="#000000" />
<rect x="119" y="140" width="7" height="7" fill="#000000" />
<rect x="119" y="147" width="7" height="7" fill="#000000" />
<rect x="119" y="161" width="7" height="7" fill="#000000" />
<rect x="119" y="168" width="7" height="7" fill="#000000" />
<rect x="119" y="182" width="7" height="7" fill="#000000" />
<rect x="119" y="196" width="7" height="7" fill="#000000" />
<rect x="119" y="203" width="7" height="7" fill="#000000" />
<rect x="119" y="217" width="7" height="7" fill="#000000" />
<rect x="119" y="224" width="7" height="7" fill="#000000" />
<rect x="119" y="238" width="7" height="7" fill="#000000" />
<rect x="119" y="252" width="7" height="7" fill="#000000" />
<rect x="126" y="35" width="7" height="7" fill="#000000" />
<rect x="126" y="42" width="7" height="7" fill="#000000" />
<rect x="126" y="49" width="7" height="7" fill="#000000" />
<rect x="126" y="56" width="7" height="7" fill="#000000" />
<rect x="126" y="70" width="7" height="7" fill="#000000" />
<rect x="126" y="77" width="7" height="7" fill="#000000" />
<rect x="126" y="84" width="7" height="7" fill="#000000" />
<rect x="126" y="91" width="7" height="7" fill="#000000" />
<rect x="126" y="126" width="7" height="7" fill="#000000" />
<rect x="126" y="133" width="7" height="7" fill="#000000" />
<rect x="126" y="140" width="7" height="7" fill="#000000" />
<rect x="126" y="147" width="7" height="7" fill="#000000" />
<rect x="126" y="182" width="7" height="7" fill="#000000" />
<rect x="126" y="189" width="7" height="7" fill="#000000" />
<rect x="126" y="196" width="7" height="7" fill="#000000" />
<rect x="126" y="203" width="7" height="7" fill="#000000" />
<rect x="126" y="238" width="7" height="7" fill="#000000" />
<rect x="126" y="245" width="7" height="7" fill="#000000" />
<rect x="126" y="252" width="7" height="7" fill="#000000" />
<rect x="133" y="28" width="7" height="7" fill="#000000" />
<rect x="133" y="42" width="7" height="7" fill="#000000" />
<rect x="133" y="56" width="7" height="7" fill="#000000" />
<rect x="133" y="63" width="7" height="7" fill="#000000" />
<rect x="133" y="77" width="7" height="7" fill="#000000" />
<rect x="133" y="98" width="7" height="7" fill="#000000" />
<rect x="133" y="112" width="7" height="7" fill="#000000" />
<rect x="133" y="133" width="7" height="7" fill="#000000" />
<rect x="133" y="154" width="7" height="7" fill="#000000" />
<rect x="133" y="168" width="7" height="7" fill="#000000" />
<rect x="133" y="182" width="7" height="7" fill="#000000" />
<rect x="133" y="189" width="7" height="7" fill="#000000" />
<rect x="133" y="196" width="7" height="7" fill="#000000" />
<rect x="133" y="210" width="7" height="7" fill="#000000" />
<rect x="133" y="231" width="7" height="7" fill="#000000" />
<rect x="133" y="238" width="7" height="7" fill="#000000" />
<rect x="133" y="245" width="7" height="7" fill="#000000" />
<rect x="133" y="252" width="7" height="7" fill="#000000" />
<rect x="140" y="28" width="7" height="7" fill="#000000" />
<rect x="140" y="35" width="7" height="7" fill="#000000" />
<rect x="140" y="42" width="7" height="7" fill="#000000" />
<rect x="140" y="70" width="7" height="7" fill="#000000" />
<rect x="140" y="77" width="7" height="7" fill="#000000" />
<rect x="140" y="112" width="7" height="7" fill="#000000" />
<rect x="140" y="119" width="7" height="7" fill="#000000" />
<rect x="140" y="126" width="7" height="7" fill="#000000" />
<rect x="140" y="133" width="7" height="7" fill="#000000" />
<rect x="140" y="140" width="7" height="7" fill="#000000" />
<rect x="140" y="161" width="7" height="7" fill="#000000" />
<rect x="140" y="168" width="7" height="7" fill="#000000" />
<rect x="140" y="175" width="7" height="7" fill="#000000" />
<rect x="140" y="182" width="7" height="7" fill="#000000" />
<rect x="140" y="203" width="7" height="7" fill="#000000" />
<rect x="140" y="217" width="7" height="7" fill="#000000" />
<rect x="140" y="224" width="7" height="7" fill="#000000" />
<rect x="147" y="42" width="7" height="7" fill="#000000" />
<rect x="147" y="49" width="7" height="7" fill="#000000" />
<rect x="147" y="56" width="7" height="7" fill="#000000" />
<rect x="147" y="84" width="7" height="7" fill="#000000" />
<rect x="147" y="126" width="7" height="7" fill="#000000" />
<rect x="147" y="147" width="7" height="7" fill="#000000" />
<rect x="147" y="154" width="7" height="7" fill="#000000" />
<rect x="147" y="168" width="7" height="7" fill="#000000" />
<rect x="147" y="175" width="7" height="7" fill="#000000" />
<rect x="147" y="182" width="7" height="7" fill="#000000" />
<rect x="147" y="196" width="7" height="7" fill="#000000" />
<rect x="147" y="224" width="7" height="7" fill="#000000" />
<rect x="147" y="231" width="7" height="7" fill="#000000" />
<rect x="147" y="238" width="7" height="7" fill="#000000" />
<rect x="154" y="42" width="7" height="7" fill="#000000" />
<rect x="154" y="63" width="7" height="7" fill="#000000" />
<rect x="154" y="70" width="7" height="7" fill="#000000" />
<rect x="154" y="77" width="7" height="7" fill="#000000" />
<rect x="154" y="91" width="7" height="7" fill="#000000" />
<rect x="154" y="105" width="7" height="7" fill="#000000" />
<rect x="154" y="112" width="7" height="7" fill="#000000" />
<rect x="154" y="119" width="7" height="7" fill="#000000" />
<rect x="154" y="140" width="7" height="7" fill="#000000" />
<rect x="154" y="161" width="7" height="7" fill="#000000" />
<rect x="154" y="189" width="7" height="7" fill="#000000" />
<rect x="154" y="210" width="7" height="7" fill="#000000" />
<rect x="154" y="217" width="7" height="7" fill="#000000" />
<rect x="154" y="238" width="7" height="7" fill="#000000" />
<rect x="154" y="245" width="7" height="7" fill="#000000" />
<rect x="154" y="252" width="7" height="7" fill="#000000" />
<rect x="161" y="28" width="7" height="7" fill="#000000" />
<rect x="161" y="42" width="7" height="7" fill="#000000" />
<rect x="161" y="49" width="7" height="7" fill="#000000" />
<rect x="161" y="84" width="7" height="7" fill="#000000" />
<rect x="161" y="98" width="7" height="7" fill="#000000" />
<rect x="161" y="105" width="7" height="7" fill="#000000" />
<rect x="161" y="126" width="7" height="7" fill="#000000" />
<rect x="161" y="140" width="7" height="7" fill="#000000" />
<rect x="161" y="154" width="7" height="7" fill="#000000" />
<rect x="161" y="161" width="7" height="7" fill="#000000" />
<rect x="161" y="168" width="7" height="7" fill="#000000" />
<rect x="161" y="175" width="7" height="7" fill="#000000" />
<rect x="161" y="182" width="7" height="7" fill="#000000" />
<rect x="161" y="203" width="7" height="7" fill="#000000" />
<rect x="161" y="210" width="7" height="7" fill="#000000" />
<rect x="161" y="224" width="7" height="7" fill="#000000" />
<rect x="161" y="238" width="7" height="7" fill="#000000" />
<rect x="161" y="245" width="7" height="7" fill="#000000" />
<rect x="161" y="252" width="7" height="7" fill="#000000" />
<rect x="168" y="35" width="7" height="7" fill="#000000" />
<rect x="168" y="56" width="7" height="7" fill="#000000" />
<rect x="168" y="63" width="7" height="7" fill="#000000" />
<rect x="168" y="70" width="7" height="7" fill="#000000" />
<rect x="168" y="77" width="7" height="7" fill="#000000" />
<rect x="168" y="91" width="7" height="7" fill="#000000" />
<rect x="168" y="105" width="7" height="7" fill="#000000" />
<rect x="168" y="112" width="7" height="7" fill="#000000" />
<rect x="168" y="119" width="7" height="7" fill="#000000" />
<rect x="168" y="133" width="7" height="7" fill="#000000" />
<rect x="168" y="147" width="7" height="7" fill="#000000" />
<rect x="168" y="154" width="7" height="7" fill="#000000" />
<rect x="168" y="189" width="7" height="7" fill="#000000" />
<rect x="168" y="196" width="7" height="7" fill="#000000" />
<rect x="168" y="217" width="7" height="7" fill="#000000" />
<rect x="168" y="224" width="7" height="7" fill="#000000" />
<rect x="168" y="231" width="7" height="7" fill="#000000" />
<rect x="168" y="238" width="7" height="7" fill="#000000" />
<rect x="175" y="42" width="7" height="7" fill="#000000" />
<rect x="175" y="56" width="7" height="7" fill="#000000" />
<rect x="175" y="63" width="7" height="7" fill="#000000" />
<rect x="175" y="84" width="7" height="7" fill="#000000" />
<rect x="175" y="91" width="7" height="7" fill="#000000" />
<rect x="175" y="112" width="7" height="7" fill="#000000" />
<rect x="175" y="140" width="7" height="7" fill="#000000" />
<rect x="175" y="175" width="7" height="7" fill="#000000" />
<rect x="175" y="182" width="7" height="7" fill="#000000" />
<rect x="175" y="196" width="7" height="7" fill="#000000" />
<rect x="175" y="203" width="7" height="7" fill="#000000" />
<rect x="175" y="210" width="7" height="7" fill="#000000" />
<rect x="175" y="224" width="7" height="7" fill="#000000" />
<rect x="175" y="252" width="7" height="7" fill="#000000" />
<rect x="182" y="28" width="7" height="7" fill="#000000" />
<rect x="182" y="35" width="7" height="7" fill="#000000" />
<rect x="182" y="49" width="7" height="7" fill="#000000" />
<rect x="182" y="56" width="7" height="7" fill="#000000" />
<rect x="182" y="70" width="7" height="7" fill="#000000" />
<rect x="182" y="77" width="7" height="7" fill="#000000" />
<rect x="182" y="105" width="7" height="7" fill="#000000" />
<rect x="182" y="126" width="7" height="7" fill="#000000" />
<rect x="182" y="133" width="7" height="7" fill="#000000" />
<rect x="182" y="147" width="7" height="7" fill="#000000" />
<rect x="182" y="161" width="7" height="7" fill="#000000" />
<rect x="182" y="168" width="7" height="7" fill="#000000" />
<rect x="182" y="189" width="7" height="7" fill="#000000" />
<rect x="182" y="217" width="7" height="7" fill="#000000" />
<rect x="182" y="238" width="7" height="7" fill="#000000" />
<rect x="182" y="245" width="7" height="7" fill="#000000" />
<rect x="189" y="42" width="7" height="7" fill="#000000" />
<rect x="189" y="56" width="7" height="7" fill="#000000" />
<rect x="189" y="98" width="7" height="7" fill="#000000" />
<rect x="189" y="105" width="7" height="7" fill="#000000" />
<rect x="189" y="126" width="7" height="7" fill="#000000" />
<rect x="189" y="140" width="7" height="7" fill="#000000" />
<rect x="189" y="154" width="7" height="7" fill="#000000" />
<rect x="189" y="175" width="7" height="7" fill="#000000" />
<rect x="189" y="182" width="7" height="7" fill="#000000" />
<rect x="189" y="196" width="7" height="7" fill="#000000" />
<rect x="189" y="203" width="7" height="7" fill="#000000" />
<rect x="189" y="224" width="7" height="7" fill="#000000" />
<rect x="189" y="231" width="7" height="7" fill="#000000" />
<rect x="189" y="238" width="7" height="7" fill="#000000" />
<rect x="196" y="28" width="7" height="7" fill="#000000" />
<rect x="196" y="70" width="7" height="7" fill="#000000" />
<rect x="196" y="84" width="7" height="7" fill="#000000" />
<rect x="196" y="91" width="7" height="7" fill="#000000" />
<rect x="196" y="105" width="7" height="7" fill="#000000" />
<rect x="196" y="112" width="7" height="7" fill="#000000" />
<rect x="196" y="119" width="7" height="7" fill="#000000" />
<rect x="196" y="133" width="7" height="7" fill="#000000" />
<rect x="196" y="147" width="7" height="7" fill="#000000" />
<rect x="196" y="161" width="7" height="7" fill="#000000" />
<rect x="196" y="168" width="7" height="7" fill="#000000" />
<rect x="196" y="189" width="7" height="7" fill="#000000" />
<rect x="196" y="196" width="7" height="7" fill="#000000" />
<rect x="196" y="203" width="7" height="7" fill="#000000" />
<rect x="196" y="210" width="7" height="7" fill="#000000" />
<rect x="196" y="217" width="7" height="7" fill="#000000" />
<rect x="196" y="224" width="7" height="7" fill="#000000" />
<rect x="196" y="238" width="7" height="7" fill="#000000" />
<rect x="196" y="252" width="7" height="7" fill="#000000" />
<rect x="203" y="84" width="7" height="7" fill="#000000" />
<rect x="203" y="105" width="7" height="7" fill="#000000" />
<rect x="203" y="133" width="7" height="7" fill="#000000" />
<rect x="203" y="140" width="7" height="7" fill="#000000" />
<rect x="203" y="161" width="7" height="7" fill="#000000" />
<rect x="203" y="189" width="7" height="7" fill="#000000" />
<rect x="203" y="196" width="7" height="7" fill="#000000" />
<rect x="203" y="224" width="7" height="7" fill="#000000" />
<rect x="203" y="231" width="7" height="7" fill="#000000" />
<rect x="203" y="238" width="7" height="7" fill="#000000" />
<rect x="203" y="252" width="7" height="7" fill="#000000" />
<rect x="210" y="28" width="7" height="7" fill="#000000" />
<rect x="210" y="35" width="7" height="7" fill="#000000" />
<rect x="210" y="42" width="7" height="7" fill="#000000" />
<rect x="210" y="49" width="7" height="7" fill="#000000" />
<rect x="210" y="56" width="7" height="7" fill="#000000" />
<rect x="210" y="63" width="7" height="7" fill="#000000" />
<rect x="210" y="70" width="7" height="7" fill="#000000" />
<rect x="210" y="84" width="7" height="7" fill="#000000" />
<rect x="210" y="91" width="7" height="7" fill="#000000" />
<rect x="210" y="105" width="7" height="7" fill="#000000" />
<rect x="210" y="112" width="7" height="7" fill="#000000" />
<rect x="210" y="119" width="7" height="7" fill="#000000" />
<rect x="210" y="140" width="7" height="7" fill="#000000" />
<rect x="210" y="147" width="7" height="7" fill="#000000" />
<rect x="210" y="161" width="7" height="7" fill="#000000" />
<rect x="210" y="168" width="7" height="7" fill="#000000" />
<rect x="210" y="182" width="7" height="7" fill="#000000" />
<rect x="210" y="196" width="7" height="7" fill="#000000" />
<rect x="210" y="210" width="7" height="7" fill="#000000" />
<rect x="210" y="224" width="7" height="7" fill="#000000" />
<rect x="210" y="238" width="7" height="7" fill="#000000" />
<rect x="217" y="28" width="7" height="7" fill="#000000" />
<rect x="217" y="70" width="7" height="7" fill="#000000" />
<rect x="217" y="84" width="7" height="7" fill="#000000" />
<rect x="217" y="91" width="7" height="7" fill="#000000" />
<rect x="217" y="112" width="7" height="7" fill="#000000" />
<rect x="217" y="119" width="7" height="7" fill="#000000" />
<rect x="217" y="126" width="7" height="7" fill="#000000" />
<rect x="217" y="133" width="7" height="7" fill="#000000" />
<rect x="217" y="140" width="7" height="7" fill="#000000" />
<rect x="217" y="161" width="7" height="7" fill="#000000" />
<rect x="217" y="168" width="7" height="7" fill="#000000" />
<rect x="217" y="175" width="7" height="7" fill="#000000" />
<rect x="217" y="182" width="7" height="7" fill="#000000" />
<rect x="217" y="189" width="7" height="7" fill="#000000" />
<rect x="217" y="196" width="7" height="7" fill="#000000" />
<rect x="217" y="224" width="7" height="7" fill="#000000" />
<rect x="217" y="252" width="7" height="7" fill="#000000" />
<rect x="224" y="28" width="7" height="7" fill="#000000" />
<rect x="224" y="42" width="7" height="7" fill="#000000" />
<rect x="224" y="49" width="7" height="7" fill="#000000" />
<rect x="224" y="56" width="7" height="7" fill="#000000" />
<rect x="224" y="70" width="7" height="7" fill="#000000" />
<rect x="224" y="84" width="7" height="7" fill="#000000" />
<rect x="224" y="133" width="7" height="7" fill="#000000" />
<rect x="224" y="154" width="7" height="7" fill="#000000" />
<rect x="224" y="182" width="7" height="7" fill="#000000" />
<rect x="224" y="189" width="7" height="7" fill="#000000" />
<rect x="224" y="196" width="7" height="7" fill="#000000" />
<rect x="224" y="203" width="7" height="7" fill="#000000" />
<rect x="224" y="210" width="7" height="7" fill="#000000" />
<rect x="224" y="217" width="7" height="7" fill="#000000" />
<rect x="224" y="224" width="7" height="7" fill="#000000" />
<rect x="224" y="231" width="7" height="7" fill="#000000" />
<rect x="224" y="238" width="7" height="7" fill="#000000" />
<rect x="224" y="252" width="7" height="7" fill="#000000" />
<rect x="231" y="28" width="7" height="7" fill="#000000" />
<rect x="231" y="42" width="7" height="7" fill="#000000" />
<rect x="231" y="49" width="7" height="7" fill="#000000" />
<rect x="231" y="56" width="7" height="7" fill="#000000" />
<rect x="231" y="70" width="7" height="7" fill="#000000" />
<rect x="231" y="91" width="7" height="7" fill="#000000" />
<rect x="231" y="112" width="7" height="7" fill="#000000" />
<rect x="231" y="119" width="7" height="7" fill="#000000" />
<rect x="231" y="133" width="7" height="7" fill="#000000" />
<rect x="231" y="140" width="7" height="7" fill="#000000" />
<rect x="231" y="147" width="7" height="7" fill="#000000" />
<rect x="231" y="161" width="7" height="7" fill="#000000" />
<rect x="231" y="182" width="7" height="7" fill="#000000" />
<rect x="231" y="189" width="7" height="7" fill="#000000" />
<rect x="231" y="196" width="7" height="7" fill="#000000" />
<rect x="231" y="217" width="7" height="7" fill="#000000" />
<rect x="231" y="224" width="7" height="7" fill="#000000" />
<rect x="231" y="231" width="7" height="7" fill="#000000" />
<rect x="231" y="245" width="7" height="7" fill="#000000" />
<rect x="238" y="28" width="7" height="7" fill="#000000" />
<rect x="238" y="42" width="7" height="7" fill="#000000" />
<rect x="238" y="49" width="7" height="7" fill="#000000" />
<rect x="238" y="56" width="7" height="7" fill="#000000" />
<rect x="238" y="70" width="7" height="7" fill="#000000" />
<rect x="238" y="91" width="7" height="7" fill="#000000" />
<rect x="238" y="119" width="7" height="7" fill="#000000" />
<rect x="238" y="154" width="7" height="7" fill="#000000" />
<rect x="238" y="175" width="7" height="7" fill="#000000" />
<rect x="238" y="182" width="7" height="7" fill="#000000" />
<rect x="238" y="210" width="7" height="7" fill="#000000" />
<rect x="238" y="231" width="7" height="7" fill="#000000" />
<rect x="238" y="238" width="7" height="7" fill="#000000" />
<rect x="245" y="28" width="7" height="7" fill="#000000" />
<rect x="245" y="70" width="7" height="7" fill="#000000" />
<rect x="245" y="84" width="7" height="7" fill="#000000" />
<rect x="245" y="98" width="7" height="7" fill="#000000" />
<rect x="245" y="112" width="7" height="7" fill="#000000" />
<rect x="245" y="119" width="7" height="7" fill="#000000" />
<rect x="245" y="126" width="7" height="7" fill="#000000" />
<rect x="245" y="189" width="7" height="7" fill="#000000" />
<rect x="245" y="203" width="7" height="7" fill="#000000" />
<rect x="245" y="217" width="7" height="7" fill="#000000" />
<rect x="245" y="231" width="7" height="7" fill="#000000" />
<rect x="245" y="238" width="7" height="7" fill="#000000" />
<rect x="252" y="28" width="7" height="7" fill="#000000" />
<rect x="252" y="35" width="7" height="7" fill="#000000" />
<rect x="252" y="42" width="7" height="7" fill="#000000" />
<rect x="252" y="49" width="7" height="7" fill="#000000" />
<rect x="252" y="56" width="7" height="7" fill="#000000" />
<rect x="252" y="63" width="7" height="7" fill="#000000" />
<rect x="252" y="70" width="7" height="7" fill="#000000" />
<rect x="252" y="84" width="7" height="7" fill="#000000" />
<rect x="252" y="91" width="7" height="7" fill="#000000" />
<rect x="252" y="98" width="7" height="7" fill="#000000" />
<rect x="252" y="105" width="7" height="7" fill="#000000" />
<rect x="252" y="119" width="7" height="7" fill="#000000" />
<rect x="252" y="126" width="7" height="7" fill="#000000" />
<rect x="252" y="133" width="7" height="7" fill="#000000" />
<rect x="252" y="140" width="7" height="7" fill="#000000" />
<rect x="252" y="147" width="7" height="7" fill="#000000" />
<rect x="252" y="154" width="7" height="7" fill="#000000" />
<rect x="252" y="168" width="7" height="7" fill="#000000" />
<rect x="252" y="175" width="7" height="7" fill="#000000" />
<rect x="252" y="182" width="7" height="7" fill="#000000" />
<rect x="252" y="196" width="7" height="7" fill="#000000" />
<rect x="252" y="203" width="7" height="7" fill="#000000" />
<rect x="252" y="210" width="7" height="7" fill="#000000" />
<rect x="252" y="217" width="7" height="7" fill="#000000" />
<rect x="252" y="224" width="7" height="7" fill="#000000" />
<rect x="252" y="231" width="7" height="7" fill="#000000" />
<rect x="252" y="238" width="7" height="7" fill="#000000" />
<rect x="252" y="252" width="7" height="7" fill="#000000" />
</svg>