<svg version="1.1" baseProfile="full" shape-rendering="crispEdges" width="287" height="287" xmlns="http://www.w3.org/2000/svg"><rect x="0" y="0" width="287" height="287" fill="#FFFFFF" />
<rect x="28" y="28" width="49" height="7" fill="#000000" />
<rect x="91" y="28" width="7" height="7" fill="#000000" />
<rect x="112" y="28" width="14" height="7" fill="#000000" />
<rect x="140" y="28" width="7" height="7" fill="#000000" />
<rect x="175" y="28" width="28" height="7" fill="#000000" />
<rect x="210" y="28" width="49" height="7" fill="#000000" />
<rect x="28" y="35" width="7" height="35" fill="#000000" />
<rect x="70" y="35" width="7" height="35" fill="#000000" />
<rect x="84" y="35" width="7" height="7" fill="#000000" />
<rect x="105" y="35" width="35" height="7" fill="#000000" />
<rect x="154" y="35" width="7" height="7" fill="#000000" />
<rect x="168" y="35" width="14" height="7" fill="#000000" />
<rect x="189" y="35" width="14" height="14" fill="#000000" />
<rect x="210" y="35" width="7" height="35" fill="#000000" />
<rect x="252" y="35" width="7" height="35" fill="#000000" />
<rect x="42" y="42" width="21" height="21" fill="#000000" />
<rect x="84" y="42" width="42" height="7" fill="#000000" />
<rect x="140" y="42" width="21" height="7" fill="#000000" />
<rect x="168" y="42" width="7" height="7" fill="#000000" />
<rect x="224" y="42" width="21" height="21" fill="#000000" />
<rect x="91" y="49" width="21" height="7" fill="#000000" />
<rect x="119" y="49" width="21" height="7" fill="#000000" />
<rect x="175" y="49" width="28" height="7" fill="#000000" />
<rect x="84" y="56" width="7" height="7" fill="#000000" />
<rect x="119" y="56" width="14" height="14" fill="#000000" />
<rect x="140" y="56" width="7" height="7" fill="#000000" />
<rect x="168" y="56" width="7" height="7" fill="#000000" />
<rect x="182" y="56" width="7" height="21" fill="#000000" />
<rect x="84" y="63" width="14" height="7" fill="#000000" />
<rect x="105" y="63" width="7" height="7" fill="#000000" />
<rect x="154" y="63" width="21" height="7" fill="#000000" />
<rect x="28" y="70" width="49" height="7" fill="#000000" />
<rect x="84" y="70" width="7" height="7" fill="#000000" />
<rect x="98" y="70" width="7" height="7" fill="#000000" />
<rect x="112" y="70" width="7" height="14" fill="#000000" />
<rect x="126" y="70" width="7" height="14" fill="#000000" />
<rect x="140" y="70" width="7" height="7" fill="#000000" />
<rect x="154" y="70" width="7" height="7" fill="#000000" />
<rect x="168" y="70" width="7" height="7" fill="#000000" />
<rect x="196" y="70" width="7" height="14" fill="#000000" />
<rect x="210" y="70" width="49" height="7" fill="#000000" />
<rect x="84" y="77" width="14" height="7" fill="#000000" />
<rect x="147" y="77" width="7" height="14" fill="#000000" />
<rect x="161" y="77" width="28" height="7" fill="#000000" />
<rect x="28" y="84" width="14" height="7" fill="#000000" />
<rect x="49" y="84" width="7" height="7" fill="#000000" />
<rect x="70" y="84" width="14" height="7" fill="#000000" />
<rect x="98" y="84" width="7" height="7" fill="#000000" />
<rect x="133" y="84" width="7" height="7" fill="#000000" />
<rect x="161" y="84" width="7" height="7" fill="#000000" />
<rect x="189" y="84" width="7" height="7" fill="#000000" />
<rect x="210" y="84" width="21" height="7" fill="#000000" />
<rect x="238" y="84" width="14" height="7" fill="#000000" />
<rect x="28" y="91" width="7" height="14" fill="#000000" />
<rect x="42" y="91" width="21" height="7" fill="#000000" />
<rect x="98" y="91" width="14" height="7" fill="#000000" />
<rect x="126" y="91" width="14" height="7" fill="#000000" />
<rect x="147" y="91" width="70" height="7" fill="#000000" />
<rect x="238" y="91" width="21" height="7" fill="#000000" />
<rect x="63" y="98" width="21" height="7" fill="#000000" />
<rect x="91" y="98" width="14" height="7" fill="#000000" />
<rect x="140" y="98" width="7" height="7" fill="#000000" />
<rect x="154" y="98" width="14" height="7" fill="#000000" />
<rect x="175" y="98" width="7" height="7" fill="#000000" />
<rect x="217" y="98" width="21" height="7" fill="#000000" />
<rect x="245" y="98" width="14" height="7" fill="#000000" />
<rect x="28" y="105" width="21" height="7" fill="#000000" />
<rect x="56" y="105" width="7" height="14" fill="#000000" />
<rect x="77" y="105" width="7" height="7" fill="#000000" />
<rect x="126" y="105" width="14" height="7" fill="#000000" />
<rect x="154" y="105" width="28" height="7" fill="#000000" />
<rect x="196" y="105" width="7" height="7" fill="#000000" />
<rect x="217" y="105" width="7" height="7" fill="#000000" />
<rect x="245" y="105" width="7" height="7" fill="#000000" />
<rect x="28" y="112" width="14" height="7" fill="#000000" />
<rect x="70" y="112" width="7" height="7" fill="#000000" />
<rect x="112" y="112" width="7" height="7" fill="#000000" />
<rect x="140" y="112" width="7" height="7" fill="#000000" />
<rect x="161" y="112" width="14" height="7" fill="#000000" />
<rect x="203" y="112" width="14" height="7" fill="#000000" />
<rect x="28" y="119" width="21" height="7" fill="#000000" />
<rect x="56" y="119" width="14" height="7" fill="#000000" />
<rect x="77" y="119" width="14" height="7" fill="#000000" />
<rect x="98" y="119" width="21" height="7" fill="#000000" />
<rect x="133" y="119" width="7" height="7" fill="#000000" />
<rect x="147" y="119" width="14" height="7" fill="#000000" />
<rect x="168" y="119" width="14" height="7" fill="#000000" />
<rect x="210" y="119" width="7" height="7" fill="#000000" />
<rect x="224" y="119" width="7" height="7" fill="#000000" />
<rect x="238" y="119" width="21" height="7" fill="#000000" />
<rect x="35" y="126" width="14" height="7" fill="#000000" />
<rect x="56" y="126" width="7" height="7" fill="#000000" />
<rect x="70" y="126" width="14" height="7" fill="#000000" />
<rect x="91" y="126" width="7" height="7" fill="#000000" />
<rect x="112" y="126" width="7" height="7" fill="#000000" />
<rect x="133" y="126" width="14" height="7" fill="#000000" />
<rect x="168" y="126" width="7" height="7" fill="#000000" />
<rect x="189" y="126" width="28" height="7" fill="#000000" />
<rect x="42" y="133" width="7" height="7" fill="#000000" />
<rect x="63" y="133" width="7" height="7" fill="#000000" />
<rect x="77" y="133" width="7" height="7" fill="#000000" />
<rect x="98" y="133" width="7" height="7" fill="#000000" />
<rect x="112" y="133" width="21" height="7" fill="#000000" />
<rect x="140" y="133" width="42" height="7" fill="#000000" />
<rect x="189" y="133" width="7" height="7" fill="#000000" />
<rect x="224" y="133" width="7" height="14" fill="#000000" />
<rect x="245" y="133" width="14" height="7" fill="#000000" />
<rect x="35" y="140" width="28" height="7" fill="#000000" />
<rect x="70" y="140" width="14" height="7" fill="#000000" />
<rect x="91" y="140" width="7" height="7" fill="#000000" />
<rect x="105" y="140" width="7" height="7" fill="#000000" />
<rect x="119" y="140" width="21" height="7" fill="#000000" />
<rect x="147" y="140" width="21" height="7" fill="#000000" />
<rect x="182" y="140" width="35" height="7" fill="#000000" />
<rect x="252" y="140" width="7" height="7" fill="#000000" />
<rect x="35" y="147" width="21" height="14" fill="#000000" />
<rect x="98" y="147" width="7" height="7" fill="#000000" />
<rect x="133" y="147" width="7" height="7" fill="#000000" />
<rect x="147" y="147" width="7" height="7" fill="#000000" />
<rect x="168" y="147" width="21" height="7" fill="#000000" />
<rect x="196" y="147" width="14" height="7" fill="#000000" />
<rect x="217" y="147" width="7" height="7" fill="#000000" />
<rect x="231" y="147" width="7" height="7" fill="#000000" />
<rect x="245" y="147" width="7" height="7" fill="#000000" />
<rect x="70" y="154" width="7" height="7" fill="#000000" />
<rect x="91" y="154" width="14" height="7" fill="#000000" />
<rect x="119" y="154" width="7" height="14" fill="#000000" />
<rect x="140" y="154" width="7" height="7" fill="#000000" />
<rect x="168" y="154" width="7" height="7" fill="#000000" />
<rect x="203" y="154" width="7" height="7" fill="#000000" />
<rect x="217" y="154" width="42" height="7" fill="#000000" />
<rect x="49" y="161" width="7" height="7" fill="#000000" />
<rect x="63" y="161" width="7" height="7" fill="#000000" />
<rect x="84" y="161" width="14" height="7" fill="#000000" />
<rect x="105" y="161" width="7" height="7" fill="#000000" />
<rect x="140" y="161" width="21" height="7" fill="#000000" />
<rect x="168" y="161" width="49" height="7" fill="#000000" />
<rect x="224" y="161" width="7" height="7" fill="#000000" />
<rect x="35" y="168" width="21" height="7" fill="#000000" />
<rect x="70" y="168" width="7" height="7" fill="#000000" />
<rect x="91" y="168" width="28" height="7" fill="#000000" />
<rect x="126" y="168" width="28" height="7" fill="#000000" />
<rect x="161" y="168" width="7" height="7" fill="#000000" />
<rect x="175" y="168" width="14" height="7" fill="#000000" />
<rect x="196" y="168" width="14" height="7" fill="#000000" />
<rect x="245" y="168" width="7" height="7" fill="#000000" />
<rect x="49" y="175" width="21" height="7" fill="#000000" />
<rect x="84" y="175" width="7" height="7" fill="#000000" />
<rect x="98" y="175" width="28" height="7" fill="#000000" />
<rect x="133" y="175" width="21" height="7" fill="#000000" />
<rect x="161" y="175" width="14" height="7" fill="#000000" />
<rect x="203" y="175" width="7" height="7" fill="#000000" />
<rect x="231" y="175" width="28" height="7" fill="#000000" />
<rect x="28" y="182" width="14" height="7" fill="#000000" />
<rect x="70" y="182" width="7" height="7" fill="#000000" />
<rect x="91" y="182" width="7" height="7" fill="#000000" />
<rect x="105" y="182" width="28" height="7" fill="#000000" />
<rect x="154" y="182" width="14" height="14" fill="#000000" />
<rect x="182" y="182" width="7" height="7" fill="#000000" />
<rect x="210" y="182" width="7" height="14" fill="#000000" />
<rect x="238" y="182" width="7" height="7" fill="#000000" />
<rect x="252" y="182" width="7" height="14" fill="#000000" />
<rect x="35" y="189" width="35" height="7" fill="#000000" />
<rect x="77" y="189" width="7" height="7" fill="#000000" />
<rect x="105" y="189" width="21" height="7" fill="#000000" />
<rect x="133" y="189" width="14" height="7" fill="#000000" />
<rect x="175" y="189" width="28" height="7" fill="#000000" />
<rect x="224" y="189" width="14" height="7" fill="#000000" />
<rect x="28" y="196" width="7" height="7" fill="#000000" />
<rect x="42" y="196" width="7" height="7" fill="#000000" />
<rect x="56" y="196" width="56" height="7" fill="#000000" />
<rect x="126" y="196" width="7" height="7" fill="#000000" />
<rect x="140" y="196" width="7" height="7" fill="#000000" />
<rect x="161" y="196" width="14" height="7" fill="#000000" />
<rect x="196" y="196" width="35" height="7" fill="#000000" />
<rect x="245" y="196" width="14" height="14" fill="#000000" />
<rect x="84" y="203" width="7" height="7" fill="#000000" />
<rect x="98" y="203" width="14" height="7" fill="#000000" />
<rect x="119" y="203" width="21" height="7" fill="#000000" />
<rect x="147" y="203" width="21" height="7" fill="#000000" />
<rect x="175" y="203" width="28" height="7" fill="#000000" />
<rect x="224" y="203" width="14" height="7" fill="#000000" />
<rect x="28" y="210" width="49" height="7" fill="#000000" />
<rect x="84" y="210" width="28" height="7" fill="#000000" />
<rect x="119" y="210" width="14" height="7" fill="#000000" />
<rect x="154" y="210" width="7" height="7" fill="#000000" />
<rect x="175" y="210" width="7" height="7" fill="#000000" />
<rect x="189" y="210" width="14" height="7" fill="#000000" />
<rect x="210" y="210" width="7" height="7" fill="#000000" />
<rect x="224" y="210" width="7" height="14" fill="#000000" />
<rect x="238" y="210" width="14" height="7" fill="#000000" />
<rect x="28" y="217" width="7" height="35" fill="#000000" />
<rect x="70" y="217" width="7" height="35" fill="#000000" />
<rect x="105" y="217" width="7" height="7" fill="#000000" />
<rect x="133" y="217" width="28" height="7" fill="#000000" />
<rect x="168" y="217" width="14" height="7" fill="#000000" />
<rect x="196" y="217" width="7" height="7" fill="#000000" />
<rect x="252" y="217" width="7" height="14" fill="#000000" />
<rect x="42" y="224" width="21" height="21" fill="#000000" />
<rect x="91" y="224" width="7" height="7" fill="#000000" />
<rect x="112" y="224" width="14" height="7" fill="#000000" />
<rect x="133" y="224" width="7" height="7" fill="#000000" />
<rect x="161" y="224" width="7" height="14" fill="#000000" />
<rect x="182" y="224" width="7" height="7" fill="#000000" />
<rect x="196" y="224" width="35" height="7" fill="#000000" />
<rect x="84" y="231" width="21" height="7" fill="#000000" />
<rect x="112" y="231" width="21" height="7" fill="#000000" />
<rect x="175" y="231" width="7" height="7" fill="#000000" />
<rect x="189" y="231" width="14" height="7" fill="#000000" />
<rect x="210" y="231" width="35" height="14" fill="#000000" />
<rect x="91" y="238" width="28" height="7" fill="#000000" />
<rect x="126" y="238" width="7" height="7" fill="#000000" />
<rect x="140" y="238" width="14" height="7" fill="#000000" />
<rect x="168" y="238" width="35" height="7" fill="#000000" />
<rect x="252" y="238" width="7" height="7" fill="#000000" />
<rect x="84" y="245" width="14" height="7" fill="#000000" />
<rect x="112" y="245" width="7" height="7" fill="#000000" />
<rect x="126" y="245" width="35" height="7" fill="#000000" />
<rect x="168" y="245" width="21" height="7" fill="#000000" />
<rect x="196" y="245" width="7" height="7" fill="#000000" />
<rect x="217" y="245" width="14" height="7" fill="#000000" />
<rect x="28" y="252" width="49" height="7" fill="#000000" />
<rect x="84" y="252" width="7" height="7" fill="#000000" />
<rect x="133" y="252" width="7" height="7" fill="#000000" />
<rect x="147" y="252" width="7" height="7" fill="#000000" />
<rect x="168" y="252" width="7" height="7" fill="#000000" />
<rect x="189" y="252" width="21" height="7" fill="#000000" />
<rect x="224" y="252" width="7" height="7" fill="#000000" />
<rect x="245" y="252" width="7" height="7" fill="#000000" />
</svg>