<svg version="1.1" baseProfile="full" shape-rendering="crispEdges" width="820" height="820" xmlns="http://www.w3.org/2000/svg"><rect x="0" y="0" width="820" height="820" fill="#FFFFFF" />
<rect x="80" y="80" width="20" height="20" fill="#000000" />
<rect x="80" y="100" width="20" height="20" fill="#000000" />
<rect x="80" y="120" width="20" height="20" fill="#000000" />
<rect x="80" y="140" width="20" height="20" fill="#000000" />
<rect x="80" y="160" width="20" height="20" fill="#000000" />
<rect x="80" y="180" width="20" height="20" fill="#000000" />
<rect x="80" y="200" width="20" height="20" fill="#000000" />
<rect x="80" y="240" width="20" height="20" fill="#000000" />
<rect x="80" y="280" width="20" height="20" fill="#000000" />
<rect x="80" y="320" width="20" height="20" fill="#000000" />
<rect x="80" y="360" width="20" height="20" fill="#000000" />
<rect x="80" y="400" width="20" height="20" fill="#000000" />
<rect x="80" y="460" width="20" height="20" fill="#000000" />
<rect x="80" y="500" width="20" height="20" fill="#000000" />
<rect x="80" y="560" width="20" height="20" fill="#000000" />
<rect x="80" y="600" width="20" height="20" fill="#000000" />
<rect x="80" y="620" width="20" height="20" fill="#000000" />
<rect x="80" y="640" width="20" height="20" fill="#000000" />
<rect x="80" y="660" width="20" height="20" fill="#000000" />
<rect x="80" y="680" width="20" height="20" fill="#000000" />
<rect x="80" y="700" width="20" height="20" fill="#000000" />
<rect x="80" y="720" width="20" height="20" fill="#000000" />
<rect x="100" y="80" width="20" height="20" fill="#000000" />
<rect x="100" y="200" width="20" height="20" fill="#000000" />
<rect x="100" y="240" width="20" height="20" fill="#000000" />
<rect x="100" y="280" width="20" height="20" fill="#000000" />
<rect x="100" y="340" width="20" height="20" fill="#000000" />
<rect x="100" y="360" width="20" height="20" fill="#000000" />
<rect x="100" y="440" width="20" height="20" fill="#000000" />
<rect x="100" y="480" width="20" height="20" fill="#000000" />
<rect x="100" y="500" width="20" height="20" fill="#000000" />
<rect x="100" y="540" width="20" height="20" fill="#000000" />
<rect x="100" y="600" width="20" height="20" fill="#000000" />
<rect x="100" y="720" width="20" height="20" fill="#000000" />
<rect x="120" y="80" width="20" height="20" fill="#000000" />
<rect x="120" y="120" width="20" height="20" fill="#000000" />
<rect x="120" y="140" width="20" height="20" fill="#000000" />
<rect x="120" y="160" width="20" height="20" fill="#000000" />
<rect x="120" y="200" width="20" height="20" fill="#000000" />
<rect x="120" y="240" width="20" height="20" fill="#000000" />
<rect x="120" y="260" width="20" height="20" fill="#000000" />
<rect x="120" y="300" width="20" height="20" fill="#000000" />
<rect x="120" y="320" width="20" height="20" fill="#000000" />
<rect x="120" y="340" width="20" height="20" fill="#000000" />
<rect x="120" y="420" width="20" height="20" fill="#000000" />
<rect x="120" y="460" width="20" height="20" fill="#000000" />
<rect x="120" y="480" width="20" height="20" fill="#000000" />
<rect x="120" y="500" width="20" height="20" fill="#000000" />
<rect x="120" y="520" width="20" height="20" fill="#000000" />
<rect x="120" y="540" width="20" height="20" fill="#000000" />
<rect x="120" y="560" width="20" height="20" fill="#000000" />
<rect x="120" y="600" width="20" height="20" fill="#000000" />
<rect x="120" y="640" width="20" height="20" fill="#000000" />
<rect x="120" y="660" width="20" height="20" fill="#000000" />
<rect x="120" y="680" width="20" height="20" fill="#000000" />
<rect x="120" y="720" width="20" height="20" fill="#000000" />
<rect x="140" y="80" width="20" height="20" fill="#000000" />
<rect x="140" y="120" width="20" height="20" fill="#000000" />
<rect x="140" y="140" width="20" height="20" fill="#000000" />
<rect x="140" y="160" width="20" height="20" fill="#000000" />
<rect x="140" y="200" width="20" height="20" fill="#000000" />
<rect x="140" y="240" width="20" height="20" fill="#000000" />
<rect x="140" y="260" width="20" height="20" fill="#000000" />
<rect x="140" y="300" width="20" height="20" fill="#000000" />
<rect x="140" y="340" width="20" height="20" fill="#000000" />
<rect x="140" y="400" width="20" height="20" fill="#000000" />
<rect x="140" y="420" width="20" height="20" fill="#000000" />
<rect x="140" y="440" width="20" height="20" fill="#000000" />
<rect x="140" y="460" width="20" height="20" fill="#000000" />
<rect x="140" y="480" width="20" height="20" fill="#000000" />
<rect x="140" y="540" width="20" height="20" fill="#000000" />
<rect x="140" y="560" width="20" height="20" fill="#000000" />
<rect x="140" y="600" width="20" height="20" fill="#000000" />
<rect x="140" y="640" width="20" height="20" fill="#000000" />
<rect x="140" y="660" width="20" height="20" fill="#000000" />
<rect x="140" y="680" width="20" height="20" fill="#000000" />
<rect x="140" y="720" width="20" height="20" fill="#000000" />
<rect x="160" y="80" width="20" height="20" fill="#000000" />
<rect x="160" y="120" width="20" height="20" fill="#000000" />
<rect x="160" y="140" width="20" height="20" fill="#000000" />
<rect x="160" y="160" width="20" height="20" fill="#000000" />
<rect x="160" y="200" width="20" height="20" fill="#000000" />
<rect x="160" y="280" width="20" height="20" fill="#000000" />
<rect x="160" y="300" width="20" height="20" fill="#000000" />
<rect x="160" y="320" width="20" height="20" fill="#000000" />
<rect x="160" y="340" width="20" height="20" fill="#000000" />
<rect x="160" y="360" width="20" height="20" fill="#000000" />
<rect x="160" y="380" width="20" height="20" fill="#000000" />
<rect x="160" y="420" width="20" height="20" fill="#000000" />
<rect x="160" y="480" width="20" height="20" fill="#000000" />
<rect x="160" y="500" width="20" height="20" fill="#000000" />
<rect x="160" y="520" width="20" height="20" fill="#000000" />
<rect x="160" y="560" width="20" height="20" fill="#000000" />
<rect x="160" y="600" width="20" height="20" fill="#000000" />
<rect x="160" y="640" width="20" height="20" fill="#000000" />
<rect x="160" y="660" width="20" height="20" fill="#000000" />
<rect x="160" y="680" width="20" height="20" fill="#000000" />
<rect x="160" y="720" width="20" height="20" fill="#000000" />
<rect x="180" y="80" width="20" height="20" fill="#000000" />
<rect x="180" y="200" width="20" height="20" fill="#000000" />
<rect x="180" y="260" width="20" height="20" fill="#000000" />
<rect x="180" y="280" width="20" height="20" fill="#000000" />
<rect x="180" y="300" width="20" height="20" fill="#000000" />
<rect x="180" y="320" width="20" height="20" fill="#000000" />
<rect x="180" y="340" width="20" height="20" fill="#000000" />
<rect x="180" y="360" width="20" height="20" fill="#000000" />
<rect x="180" y="380" width="20" height="20" fill="#000000" />
<rect x="180" y="460" width="20" height="20" fill="#000000" />
<rect x="180" y="600" width="20" height="20" fill="#000000" />
<rect x="180" y="720" width="20" height="20" fill="#000000" />
<rect x="200" y="80" width="20" height="20" fill="#000000" />
<rect x="200" y="100" width="20" height="20" fill="#000000" />
<rect x="200" y="120" width="20" height="20" fill="#000000" />
<rect x="200" y="140" width="20" height="20" fill="#000000" />
<rect x="200" y="160" width="20" height="20" fill="#000000" />
<rect x="200" y="180" width="20" height="20" fill="#000000" />
<rect x="200" y="200" width="20" height="20" fill="#000000" />
<rect x="200" y="240" width="20" height="20" fill="#000000" />
<rect x="200" y="280" width="20" height="20" fill="#000000" />
<rect x="200" y="320" width="20" height="20" fill="#000000" />
<rect x="200" y="360" width="20" height="20" fill="#000000" />
<rect x="200" y="400" width="20" height="20" fill="#000000" />
<rect x="200" y="440" width="20" height="20" fill="#000000" />
<rect x="200" y="480" width="20" height="20" fill="#000000" />
<rect x="200" y="520" width="20" height="20" fill="#000000" />
<rect x="200" y="560" width="20" height="20" fill="#000000" />
<rect x="200" y="600" width="20" height="20" fill="#000000" />
<rect x="200" y="620" width="20" height="20" fill="#000000" />
<rect x="200" y="640" width="20" height="20" fill="#000000" />
<rect x="200" y="660" width="20" height="20" fill="#000000" />
<rect x="200" y="680" width="20" height="20" fill="#000000" />
<rect x="200" y="700" width="20" height="20" fill="#000000" />
<rect x="200" y="720" width="20" height="20" fill="#000000" />
<rect x="220" y="300" width="20" height="20" fill="#000000" />
<rect x="220" y="360" width="20" height="20" fill="#000000" />
<rect x="220" y="400" width="20" height="20" fill="#000000" />
<rect x="220" y="420" width="20" height="20" fill="#000000" />
<rect x="220" y="440" width="20" height="20" fill="#000000" />
<rect x="220" y="480" width="20" height="20" fill="#000000" />
<rect x="220" y="500" width="20" height="20" fill="#000000" />
<rect x="220" y="520" width="20" height="20" fill="#000000" />
<rect x="220" y="540" width="20" height="20" fill="#000000" />
<rect x="240" y="80" width="20" height="20" fill="#000000" />
<rect x="240" y="120" width="20" height="20" fill="#000000" />
<rect x="240" y="140" width="20" height="20" fill="#000000" />
<rect x="240" y="160" width="20" height="20" fill="#000000" />
<rect x="240" y="200" width="20" height="20" fill="#000000" />
<rect x="240" y="240" width="20" height="20" fill="#000000" />
<rect x="240" y="260" width="20" height="20" fill="#000000" />
<rect x="240" y="280" width="20" height="20" fill="#000000" />
<rect x="240" y="340" width="20" height="20" fill="#000000" />
<rect x="240" y="380" width="20" height="20" fill="#000000" />
<rect x="240" y="440" width="20" height="20" fill="#000000" />
<rect x="240" y="460" width="20" height="20" fill="#000000" />
<rect x="240" y="520" width="20" height="20" fill="#000000" />
<rect x="240" y="560" width="20" height="20" fill="#000000" />
<rect x="240" y="580" width="20" height="20" fill="#000000" />
<rect x="240" y="660" width="20" height="20" fill="#000000" />
<rect x="240" y="680" width="20" height="20" fill="#000000" />
<rect x="240" y="700" width="20" height="20" fill="#000000" />
<rect x="240" y="720" width="20" height="20" fill="#000000" />
<rect x="260" y="100" width="20" height="20" fill="#000000" />
<rect x="260" y="120" width="20" height="20" fill="#000000" />
<rect x="260" y="140" width="20" height="20" fill="#000000" />
<rect x="260" y="280" width="20" height="20" fill="#000000" />
<rect x="260" y="300" width="20" height="20" fill="#000000" />
<rect x="260" y="320" width="20" height="20" fill="#000000" />
<rect x="260" y="380" width="20" height="20" fill="#000000" />
<rect x="260" y="420" width="20" height="20" fill="#000000" />
<rect x="260" y="460" width="20" height="20" fill="#000000" />
<rect x="260" y="500" width="20" height="20" fill="#000000" />
<rect x="260" y="560" width="20" height="20" fill="#000000" />
<rect x="260" y="600" width="20" height="20" fill="#000000" />
<rect x="260" y="620" width="20" height="20" fill="#000000" />
<rect x="260" y="680" width="20" height="20" fill="#000000" />
<rect x="280" y="80" width="20" height="20" fill="#000000" />
<rect x="280" y="100" width="20" height="20" fill="#000000" />
<rect x="280" y="120" width="20" height="20" fill="#000000" />
<rect x="280" y="140" width="20" height="20" fill="#000000" />
<rect x="280" y="180" width="20" height="20" fill="#000000" />
<rect x="280" y="200" width="20" height="20" fill="#000000" />
<rect x="280" y="220" width="20" height="20" fill="#000000" />
<rect x="280" y="240" width="20" height="20" fill="#000000" />
<rect x="280" y="260" width="20" height="20" fill="#000000" />
<rect x="280" y="280" width="20" height="20" fill="#000000" />
<rect x="280" y="300" width="20" height="20" fill="#000000" />
<rect x="280" y="320" width="20" height="20" fill="#000000" />
<rect x="280" y="360" width="20" height="20" fill="#000000" />
<rect x="280" y="380" width="20" height="20" fill="#000000" />
<rect x="280" y="460" width="20" height="20" fill="#000000" />
<rect x="280" y="500" width="20" height="20" fill="#000000" />
<rect x="280" y="520" width="20" height="20" fill="#000000" />
<rect x="280" y="540" width="20" height="20" fill="#000000" />
<rect x="280" y="580" width="20" height="20" fill="#000000" />
<rect x="280" y="600" width="20" height="20" fill="#000000" />
<rect x="280" y="660" width="20" height="20" fill="#000000" />
<rect x="300" y="100" width="20" height="20" fill="#000000" />
<rect x="300" y="160" width="20" height="20" fill="#000000" />
<rect x="300" y="180" width="20" height="20" fill="#000000" />
<rect x="300" y="240" width="20" height="20" fill="#000000" />
<rect x="300" y="280" width="20" height="20" fill="#000000" />
<rect x="300" y="340" width="20" height="20" fill="#000000" />
<rect x="300" y="360" width="20" height="20" fill="#000000" />
<rect x="300" y="380" width="20" height="20" fill="#000000" />
<rect x="300" y="460" width="20" height="20" fill="#000000" />
<rect x="300" y="540" width="20" height="20" fill="#000000" />
<rect x="300" y="560" width="20" height="20" fill="#000000" />
<rect x="300" y="580" width="20" height="20" fill="#000000" />
<rect x="300" y="640" width="20" height="20" fill="#000000" />
<rect x="300" y="680" width="20" height="20" fill="#000000" />
<rect x="300" y="720" width="20" height="20" fill="#000000" />
<rect x="320" y="80" width="20" height="20" fill="#000000" />
<rect x="320" y="100" width="20" height="20" fill="#000000" />
<rect x="320" y="140" width="20" height="20" fill="#000000" />
<rect x="320" y="160" width="20" height="20" fill="#000000" />
<rect x="320" y="200" width="20" height="20" fill="#000000" />
<rect x="320" y="220" width="20" height="20" fill="#000000" />
<rect x="320" y="240" width="20" height="20" fill="#000000" />
<rect x="320" y="260" width="20" height="20" fill="#000000" />
<rect x="320" y="280" width="20" height="20" fill="#000000" />
<rect x="320" y="320" width="20" height="20" fill="#000000" />
<rect x="320" y="340" width="20" height="20" fill="#000000" />
<rect x="320" y="400" width="20" height="20" fill="#000000" />
<rect x="320" y="540" width="20" height="20" fill="#000000" />
<rect x="320" y="600" width="20" height="20" fill="#000000" />
<rect x="320" y="620" width="20" height="20" fill="#000000" />
<rect x="320" y="660" width="20" height="20" fill="#000000" />
<rect x="320" y="680" width="20" height="20" fill="#000000" />
<rect x="320" y="700" width="20" height="20" fill="#000000" />
<rect x="320" y="720" width="20" height="20" fill="#000000" />
<rect x="340" y="80" width="20" height="20" fill="#000000" />
<rect x="340" y="100" width="20" height="20" fill="#000000" />
<rect x="340" y="180" width="20" height="20" fill="#000000" />
<rect x="340" y="240" width="20" height="20" fill="#000000" />
<rect x="340" y="260" width="20" height="20" fill="#000000" />
<rect x="340" y="280" width="20" height="20" fill="#000000" />
<rect x="340" y="360" width="20" height="20" fill="#000000" />
<rect x="340" y="440" width="20" height="20" fill="#000000" />
<rect x="340" y="460" width="20" height="20" fill="#000000" />
<rect x="340" y="480" width="20" height="20" fill="#000000" />
<rect x="340" y="540" width="20" height="20" fill="#000000" />
<rect x="340" y="580" width="20" height="20" fill="#000000" />
<rect x="340" y="620" width="20" height="20" fill="#000000" />
<rect x="340" y="660" width="20" height="20" fill="#000000" />
<rect x="340" y="720" width="20" height="20" fill="#000000" />
<rect x="360" y="80" width="20" height="20" fill="#000000" />
<rect x="360" y="140" width="20" height="20" fill="#000000" />
<rect x="360" y="160" width="20" height="20" fill="#000000" />
<rect x="360" y="200" width="20" height="20" fill="#000000" />
<rect x="360" y="260" width="20" height="20" fill="#000000" />
<rect x="360" y="320" width="20" height="20" fill="#000000" />
<rect x="360" y="340" width="20" height="20" fill="#000000" />
<rect x="360" y="380" width="20" height="20" fill="#000000" />
<rect x="360" y="400" width="20" height="20" fill="#000000" />
<rect x="360" y="420" width="20" height="20" fill="#000000" />
<rect x="360" y="440" width="20" height="20" fill="#000000" />
<rect x="360" y="460" width="20" height="20" fill="#000000" />
<rect x="360" y="480" width="20" height="20" fill="#000000" />
<rect x="360" y="520" width="20" height="20" fill="#000000" />
<rect x="360" y="540" width="20" height="20" fill="#000000" />
<rect x="360" y="600" width="20" height="20" fill="#000000" />
<rect x="380" y="80" width="20" height="20" fill="#000000" />
<rect x="380" y="140" width="20" height="20" fill="#000000" />
<rect x="380" y="180" width="20" height="20" fill="#000000" />
<rect x="380" y="220" width="20" height="20" fill="#000000" />
<rect x="380" y="240" width="20" height="20" fill="#000000" />
<rect x="380" y="260" width="20" height="20" fill="#000000" />
<rect x="380" y="320" width="20" height="20" fill="#000000" />
<rect x="380" y="360" width="20" height="20" fill="#000000" />
<rect x="380" y="400" width="20" height="20" fill="#000000" />
<rect x="380" y="440" width="20" height="20" fill="#000000" />
<rect x="380" y="460" width="20" height="20" fill="#000000" />
<rect x="380" y="620" width="20" height="20" fill="#000000" />
<rect x="380" y="640" width="20" height="20" fill="#000000" />
<rect x="380" y="660" width="20" height="20" fill="#000000" />
<rect x="380" y="680" width="20" height="20" fill="#000000" />
<rect x="400" y="100" width="20" height="20" fill="#000000" />
<rect x="400" y="120" width="20" height="20" fill="#000000" />
<rect x="400" y="160" width="20" height="20" fill="#000000" />
<rect x="400" y="180" width="20" height="20" fill="#000000" />
<rect x="400" y="200" width="20" height="20" fill="#000000" />
<rect x="400" y="220" width="20" height="20" fill="#000000" />
<rect x="400" y="280" width="20" height="20" fill="#000000" />
<rect x="400" y="300" width="20" height="20" fill="#000000" />
<rect x="400" y="340" width="20" height="20" fill="#000000" />
<rect x="400" y="360" width="20" height="20" fill="#000000" />
<rect x="400" y="380" width="20" height="20" fill="#000000" />
<rect x="400" y="420" width="20" height="20" fill="#000000" />
<rect x="400" y="520" width="20" height="20" fill="#000000" />
<rect x="400" y="580" width="20" height="20" fill="#000000" />
<rect x="400" y="620" width="20" height="20" fill="#000000" />
<rect x="400" y="660" width="20" height="20" fill="#000000" />
<rect x="400" y="680" width="20" height="20" fill="#000000" />
<rect x="400" y="720" width="20" height="20" fill="#000000" />
<rect x="420" y="80" width="20" height="20" fill="#000000" />
<rect x="420" y="100" width="20" height="20" fill="#000000" />
<rect x="420" y="180" width="20" height="20" fill="#000000" />
<rect x="420" y="220" width="20" height="20" fill="#000000" />
<rect x="420" y="280" width="20" height="20" fill="#000000" />
<rect x="420" y="340" width="20" height="20" fill="#000000" />
<rect x="420" y="420" width="20" height="20" fill="#000000" />
<rect x="420" y="460" width="20" height="20" fill="#000000" />
<rect x="420" y="520" width="20" height="20" fill="#000000" />
<rect x="420" y="580" width="20" height="20" fill="#000000" />
<rect x="420" y="600" width="20" height="20" fill="#000000" />
<rect x="420" y="640" width="20" height="20" fill="#000000" />
<rect x="420" y="680" width="20" height="20" fill="#000000" />
<rect x="420" y="700" width="20" height="20" fill="#000000" />
<rect x="440" y="80" width="20" height="20" fill="#000000" />
<rect x="440" y="100" width="20" height="20" fill="#000000" />
<rect x="440" y="120" width="20" height="20" fill="#000000" />
<rect x="440" y="200" width="20" height="20" fill="#000000" />
<rect x="440" y="240" width="20" height="20" fill="#000000" />
<rect x="440" y="260" width="20" height="20" fill="#000000" />
<rect x="440" y="280" width="20" height="20" fill="#000000" />
<rect x="440" y="340" width="20" height="20" fill="#000000" />
<rect x="440" y="360" width="20" height="20" fill="#000000" />
<rect x="440" y="460" width="20" height="20" fill="#000000" />
<rect x="440" y="480" width="20" height="20" fill="#000000" />
<rect x="440" y="500" width="20" height="20" fill="#000000" />
<rect x="440" y="520" width="20" height="20" fill="#000000" />
<rect x="440" y="540" width="20" height="20" fill="#000000" />
<rect x="440" y="620" width="20" height="20" fill="#000000" />
<rect x="440" y="640" width="20" height="20" fill="#000000" />
<rect x="440" y="680" width="20" height="20" fill="#000000" />
<rect x="440" y="720" width="20" height="20" fill="#000000" />
<rect x="460" y="120" width="20" height="20" fill="#000000" />
<rect x="460" y="140" width="20" height="20" fill="#000000" />
<rect x="460" y="160" width="20" height="20" fill="#000000" />
<rect x="460" y="180" width="20" height="20" fill="#000000" />
<rect x="460" y="300" width="20" height="20" fill="#000000" />
<rect x="460" y="360" width="20" height="20" fill="#000000" />
<rect x="460" y="420" width="20" height="20" fill="#000000" />
<rect x="460" y="460" width="20" height="20" fill="#000000" />
<rect x="460" y="480" width="20" height="20" fill="#000000" />
<rect x="460" y="540" width="20" height="20" fill="#000000" />
<rect x="460" y="560" width="20" height="20" fill="#000000" />
<rect x="460" y="580" width="20" height="20" fill="#000000" />
<rect x="460" y="600" width="20" height="20" fill="#000000" />
<rect x="460" y="620" width="20" height="20" fill="#000000" />
<rect x="460" y="640" width="20" height="20" fill="#000000" />
<rect x="460" y="660" width="20" height="20" fill="#000000" />
<rect x="460" y="720" width="20" height="20" fill="#000000" />
<rect x="480" y="80" width="20" height="20" fill="#000000" />
<rect x="480" y="120" width="20" height="20" fill="#000000" />
<rect x="480" y="160" width="20" height="20" fill="#000000" />
<rect x="480" y="200" width="20" height="20" fill="#000000" />
<rect x="480" y="220" width="20" height="20" fill="#000000" />
<rect x="480" y="240" width="20" height="20" fill="#000000" />
<rect x="480" y="260" width="20" height="20" fill="#000000" />
<rect x="480" y="280" width="20" height="20" fill="#000000" />
<rect x="480" y="300" width="20" height="20" fill="#000000" />
<rect x="480" y="320" width="20" height="20" fill="#000000" />
<rect x="480" y="360" width="20" height="20" fill="#000000" />
<rect x="480" y="420" width="20" height="20" fill="#000000" />
<rect x="480" y="440" width="20" height="20" fill="#000000" />
<rect x="480" y="460" width="20" height="20" fill="#000000" />
<rect x="480" y="480" width="20" height="20" fill="#000000" />
<rect x="480" y="500" width="20" height="20" fill="#000000" />
<rect x="480" y="540" width="20" height="20" fill="#000000" />
<rect x="480" y="580" width="20" height="20" fill="#000000" />
<rect x="480" y="600" width="20" height="20" fill="#000000" />
<rect x="480" y="620" width="20" height="20" fill="#000000" />
<rect x="480" y="640" width="20" height="20" fill="#000000" />
<rect x="480" y="660" width="20" height="20" fill="#000000" />
<rect x="480" y="680" width="20" height="20" fill="#000000" />
<rect x="500" y="180" width="20" height="20" fill="#000000" />
<rect x="500" y="240" width="20" height="20" fill="#000000" />
<rect x="500" y="260" width="20" height="20" fill="#000000" />
<rect x="500" y="320" width="20" height="20" fill="#000000" />
<rect x="500" y="340" width="20" height="20" fill="#000000" />
<rect x="500" y="380" width="20" height="20" fill="#000000" />
<rect x="500" y="420" width="20" height="20" fill="#000000" />
<rect x="500" y="440" width="20" height="20" fill="#000000" />
<rect x="500" y="480" width="20" height="20" fill="#000000" />
<rect x="500" y="560" width="20" height="20" fill="#000000" />
<rect x="500" y="580" width="20" height="20" fill="#000000" />
<rect x="500" y="620" width="20" height="20" fill="#000000" />
<rect x="500" y="660" width="20" height="20" fill="#000000" />
<rect x="500" y="680" width="20" height="20" fill="#000000" />
<rect x="520" y="100" width="20" height="20" fill="#000000" />
<rect x="520" y="160" width="20" height="20" fill="#000000" />
<rect x="520" y="180" width="20" height="20" fill="#000000" />
<rect x="520" y="200" width="20" height="20" fill="#000000" />
<rect x="520" y="240" width="20" height="20" fill="#000000" />
<rect x="520" y="260" width="20" height="20" fill="#000000" />
<rect x="520" y="280" width="20" height="20" fill="#000000" />
<rect x="520" y="300" width="20" height="20" fill="#000000" />
<rect x="520" y="320" width="20" height="20" fill="#000000" />
<rect x="520" y="380" width="20" height="20" fill="#000000" />
<rect x="520" y="400" width="20" height="20" fill="#000000" />
<rect x="520" y="480" width="20" height="20" fill="#000000" />
<rect x="520" y="520" width="20" height="20" fill="#000000" />
<rect x="520" y="560" width="20" height="20" fill="#000000" />
<rect x="520" y="600" width="20" height="20" fill="#000000" />
<rect x="520" y="620" width="20" height="20" fill="#000000" />
<rect x="520" y="640" width="20" height="20" fill="#000000" />
<rect x="520" y="660" width="20" height="20" fill="#000000" />
<rect x="520" y="680" width="20" height="20" fill="#000000" />
<rect x="520" y="700" width="20" height="20" fill="#000000" />
<rect x="540" y="80" width="20" height="20" fill="#000000" />
<rect x="540" y="100" width="20" height="20" fill="#000000" />
<rect x="540" y="120" width="20" height="20" fill="#000000" />
<rect x="540" y="160" width="20" height="20" fill="#000000" />
<rect x="540" y="220" width="20" height="20" fill="#000000" />
<rect x="540" y="280" width="20" height="20" fill="#000000" />
<rect x="540" y="320" width="20" height="20" fill="#000000" />
<rect x="540" y="340" width="20" height="20" fill="#000000" />
<rect x="540" y="380" width="20" height="20" fill="#000000" />
<rect x="540" y="460" width="20" height="20" fill="#000000" />
<rect x="540" y="480" width="20" height="20" fill="#000000" />
<rect x="540" y="500" width="20" height="20" fill="#000000" />
<rect x="540" y="520" width="20" height="20" fill="#000000" />
<rect x="540" y="540" width="20" height="20" fill="#000000" />
<rect x="540" y="620" width="20" height="20" fill="#000000" />
<rect x="540" y="640" width="20" height="20" fill="#000000" />
<rect x="540" y="660" width="20" height="20" fill="#000000" />
<rect x="540" y="700" width="20" height="20" fill="#000000" />
<rect x="540" y="720" width="20" height="20" fill="#000000" />
<rect x="560" y="80" width="20" height="20" fill="#000000" />
<rect x="560" y="120" width="20" height="20" fill="#000000" />
<rect x="560" y="160" width="20" height="20" fill="#000000" />
<rect x="560" y="200" width="20" height="20" fill="#000000" />
<rect x="560" y="220" width="20" height="20" fill="#000000" />
<rect x="560" y="280" width="20" height="20" fill="#000000" />
<rect x="560" y="340" width="20" height="20" fill="#000000" />
<rect x="560" y="360" width="20" height="20" fill="#000000" />
<rect x="560" y="420" width="20" height="20" fill="#000000" />
<rect x="560" y="460" width="20" height="20" fill="#000000" />
<rect x="560" y="500" width="20" height="20" fill="#000000" />
<rect x="560" y="520" width="20" height="20" fill="#000000" />
<rect x="560" y="540" width="20" height="20" fill="#000000" />
<rect x="560" y="560" width="20" height="20" fill="#000000" />
<rect x="560" y="580" width="20" height="20" fill="#000000" />
<rect x="560" y="600" width="20" height="20" fill="#000000" />
<rect x="560" y="620" width="20" height="20" fill="#000000" />
<rect x="560" y="640" width="20" height="20" fill="#000000" />
<rect x="580" y="240" width="20" height="20" fill="#000000" />
<rect x="580" y="280" width="20" height="20" fill="#000000" />
<rect x="580" y="320" width="20" height="20" fill="#000000" />
<rect x="580" y="380" width="20" height="20" fill="#000000" />
<rect x="580" y="420" width="20" height="20" fill="#000000" />
<rect x="580" y="440" width="20" height="20" fill="#000000" />
<rect x="580" y="460" width="20" height="20" fill="#000000" />
<rect x="580" y="520" width="20" height="20" fill="#000000" />
<rect x="580" y="560" width="20" height="20" fill="#000000" />
<rect x="580" y="640" width="20" height="20" fill="#000000" />
<rect x="600" y="80" width="20" height="20" fill="#000000" />
<rect x="600" y="100" width="20" height="20" fill="#000000" />
<rect x="600" y="120" width="20" height="20" fill="#000000" />
<rect x="600" y="140" width="20" height="20" fill="#000000" />
<rect x="600" y="160" width="20" height="20" fill="#000000" />
<rect x="600" y="180" width="20" height="20" fill="#000000" />
<rect x="600" y="200" width="20" height="20" fill="#000000" />
<rect x="600" y="260" width="20" height="20" fill="#000000" />
<rect x="600" y="300" width="20" height="20" fill="#000000" />
<rect x="600" y="360" width="20" height="20" fill="#000000" />
<rect x="600" y="400" width="20" height="20" fill="#000000" />
<rect x="600" y="420" width="20" height="20" fill="#000000" />
<rect x="600" y="440" width="20" height="20" fill="#000000" />
<rect x="600" y="520" width="20" height="20" fill="#000000" />
<rect x="600" y="560" width="20" height="20" fill="#000000" />
<rect x="600" y="600" width="20" height="20" fill="#000000" />
<rect x="600" y="640" width="20" height="20" fill="#000000" />
<rect x="600" y="700" width="20" height="20" fill="#000000" />
<rect x="620" y="80" width="20" height="20" fill="#000000" />
<rect x="620" y="200" width="20" height="20" fill="#000000" />
<rect x="620" y="280" width="20" height="20" fill="#000000" />
<rect x="620" y="320" width="20" height="20" fill="#000000" />
<rect x="620" y="340" width="20" height="20" fill="#000000" />
<rect x="620" y="460" width="20" height="20" fill="#000000" />
<rect x="620" y="540" width="20" height="20" fill="#000000" />
<rect x="620" y="560" width="20" height="20" fill="#000000" />
<rect x="620" y="640" width="20" height="20" fill="#000000" />
<rect x="640" y="80" width="20" height="20" fill="#000000" />
<rect x="640" y="120" width="20" height="20" fill="#000000" />
<rect x="640" y="140" width="20" height="20" fill="#000000" />
<rect x="640" y="160" width="20" height="20" fill="#000000" />
<rect x="640" y="200" width="20" height="20" fill="#000000" />
<rect x="640" y="240" width="20" height="20" fill="#000000" />
<rect x="640" y="280" width="20" height="20" fill="#000000" />
<rect x="640" y="300" width="20" height="20" fill="#000000" />
<rect x="640" y="320" width="20" height="20" fill="#000000" />
<rect x="640" y="380" width="20" height="20" fill="#000000" />
<rect x="640" y="400" width="20" height="20" fill="#000000" />
<rect x="640" y="420" width="20" height="20" fill="#000000" />
<rect x="640" y="560" width="20" height="20" fill="#000000" />
<rect x="640" y="580" width="20" height="20" fill="#000000" />
<rect x="640" y="600" width="20" height="20" fill="#000000" />
<rect x="640" y="620" width="20" height="20" fill="#000000" />
<rect x="640" y="640" width="20" height="20" fill="#000000" />
<rect x="640" y="720" width="20" height="20" fill="#000000" />
<rect x="660" y="80" width="20" height="20" fill="#000000" />
<rect x="660" y="120" width="20" height="20" fill="#000000" />
<rect x="660" y="140" width="20" height="20" fill="#000000" />
<rect x="660" y="160" width="20" height="20" fill="#000000" />
<rect x="660" y="200" width="20" height="20" fill="#000000" />
<rect x="660" y="240" width="20" height="20" fill="#000000" />
<rect x="660" y="260" width="20" height="20" fill="#000000" />
<rect x="660" y="360" width="20" height="20" fill="#000000" />
<rect x="660" y="380" width="20" height="20" fill="#000000" />
<rect x="660" y="400" width="20" height="20" fill="#000000" />
<rect x="660" y="420" width="20" height="20" fill="#000000" />
<rect x="660" y="440" width="20" height="20" fill="#000000" />
<rect x="660" y="480" width="20" height="20" fill="#000000" />
<rect x="660" y="520" width="20" height="20" fill="#000000" />
<rect x="660" y="540" width="20" height="20" fill="#000000" />
<rect x="660" y="580" width="20" height="20" fill="#000000" />
<rect x="660" y="600" width="20" height="20" fill="#000000" />
<rect x="660" y="620" width="20" height="20" fill="#000000" />
<rect x="660" y="640" width="20" height="20" fill="#000000" />
<rect x="660" y="660" width="20" height="20" fill="#000000" />
<rect x="660" y="680" width="20" height="20" fill="#000000" />
<rect x="660" y="720" width="20" height="20" fill="#000000" />
<rect x="680" y="80" width="20" height="20" fill="#000000" />
<rect x="680" y="120" width="20" height="20" fill="#000000" />
<rect x="680" y="140" width="20" height="20" fill="#000000" />
<rect x="680" y="160" width="20" height="20" fill="#000000" />
<rect x="680" y="200" width="20" height="20" fill="#000000" />
<rect x="680" y="240" width="20" height="20" fill="#000000" />
<rect x="680" y="280" width="20" height="20" fill="#000000" />
<rect x="680" y="340" width="20" height="20" fill="#000000" />
<rect x="680" y="360" width="20" height="20" fill="#000000" />
<rect x="680" y="380" width="20" height="20" fill="#000000" />
<rect x="680" y="400" width="20" height="20" fill="#000000" />
<rect x="680" y="440" width="20" height="20" fill="#000000" />
<rect x="680" y="480" width="20" height="20" fill="#000000" />
<rect x="680" y="620" width="20" height="20" fill="#000000" />
<rect x="680" y="640" width="20" height="20" fill="#000000" />
<rect x="680" y="660" width="20" height="20" fill="#000000" />
<rect x="680" y="680" width="20" height="20" fill="#000000" />
<rect x="680" y="720" width="20" height="20" fill="#000000" />
<rect x="700" y="80" width="20" height="20" fill="#000000" />
<rect x="700" y="200" width="20" height="20" fill="#000000" />
<rect x="700" y="300" width="20" height="20" fill="#000000" />
<rect x="700" y="340" width="20" height="20" fill="#000000" />
<rect x="700" y="360" width="20" height="20" fill="#000000" />
<rect x="700" y="400" width="20" height="20" fill="#000000" />
<rect x="700" y="420" width="20" height="20" fill="#000000" />
<rect x="700" y="440" width="20" height="20" fill="#000000" />
<rect x="700" y="520" width="20" height="20" fill="#000000" />
<rect x="700" y="560" width="20" height="20" fill="#000000" />
<rect x="700" y="580" width="20" height="20" fill="#000000" />
<rect x="700" y="620" width="20" height="20" fill="#000000" />
<rect x="700" y="640" width="20" height="20" fill="#000000" />
<rect x="720" y="80" width="20" height="20" fill="#000000" />
<rect x="720" y="100" width="20" height="20" fill="#000000" />
<rect x="720" y="120" width="20" height="20" fill="#000000" />
<rect x="720" y="140" width="20" height="20" fill="#000000" />
<rect x="720" y="160" width="20" height="20" fill="#000000" />
<rect x="720" y="180" width="20" height="20" fill="#000000" />
<rect x="720" y="200" width="20" height="20" fill="#000000" />
<rect x="720" y="240" width="20" height="20" fill="#000000" />
<rect x="720" y="260" width="20" height="20" fill="#000000" />
<rect x="720" y="280" width="20" height="20" fill="#000000" />
<rect x="720" y="300" width="20" height="20" fill="#000000" />
<rect x="720" y="320" width="20" height="20" fill="#000000" />
<rect x="720" y="380" width="20" height="20" fill="#000000" />
<rect x="720" y="400" width="20" height="20" fill="#000000" />
<rect x="720" y="420" width="20" height="20" fill="#000000" />
<rect x="720" y="460" width="20" height="20" fill="#000000" />
<rect x="720" y="500" width="20" height="20" fill="#000000" />
<rect x="720" y="520" width="20" height="20" fill="#000000" />
<rect x="720" y="620" width="20" height="20" fill="#000000" />
<rect x="720" y="640" width="20" height="20" fill="#000000" />
<rect x="720" y="660" width="20" height="20" fill="#000000" />
<rect x="720" y="700" width="20" height="20" fill="#000000" />
</svg>