<?xml version="1.0" encoding="UTF-8" standalone="no"?>
<!DOCTYPE svg PUBLIC "-//W3C//DTD SVG 1.0//EN" "http://www.w3.org/TR/2001/REC-SVG-20010904/DTD/svg10.dtd">
<!-- Generated by Microsoft Visio 11.0, SVG Export, v1.0 ConfirmSummary.svg Page-2 -->
<svg xmlns="http://www.w3.org/2000/svg" xmlns:xlink="http://www.w3.org/1999/xlink" xmlns:ev="http://www.w3.org/2001/xml-events"
		xmlns:v="http://schemas.microsoft.com/visio/2003/SVGExtensions/" width="4.52083in" height="3.13875in"
		viewBox="0 0 325.5 225.99" xml:space="preserve" color-interpolation-filters="sRGB" class="st11">
	<v:documentProperties v:langID="1033" v:viewMarkup="false">
		<v:userDefs>
			<v:ud v:nameU="msvNoAutoConnect" v:val="VT0(1):26"/>
		</v:userDefs>
	</v:documentProperties>

	<style type="text/css">
	<![CDATA[
		.st1 {fill:none;stroke:none;stroke-linecap:round;stroke-linejoin:round;stroke-width:0.75}
		.st2 {fill:#000000;font-family:Calibri;font-size:1.00001em}
		.st3 {marker-start:url(#mrkr13-13);stroke:#000000;stroke-linecap:round;stroke-linejoin:round;stroke-width:0.75}
		.st4 {fill:#000000;fill-opacity:1;stroke:#000000;stroke-opacity:1;stroke-width:0.22935779816514}
		.st5 {stroke:#000000;stroke-linecap:round;stroke-linejoin:round;stroke-width:0.75}
		.st6 {fill:#ffffff;stroke:#000000;stroke-linecap:round;stroke-linejoin:round;stroke-width:0.24}
		.st7 {font-size:1em}
		.st8 {fill:#00ff00;stroke:#000000;stroke-linecap:round;stroke-linejoin:round;stroke-width:0.75}
		.st9 {fill:#000000;font-family:Calibri;font-size:0.666664em}
		.st10 {fill:#ff0000;stroke:#000000;stroke-linecap:round;stroke-linejoin:round;stroke-width:0.75}
		.st11 {fill:none;fill-rule:evenodd;font-size:12px;overflow:visible;stroke-linecap:square;stroke-miterlimit:3}
	]]>
	</style>

	<defs id="Markers">
		<g id="lend13">
			<path d="M 3 1 L 0 0 L 3 -1 L 3 1 " style="stroke:none"/>
		</g>
		<marker id="mrkr13-13" class="st4" v:arrowType="13" v:arrowSize="2" v:setback="12.6" refX="12.6" orient="auto"
				markerUnits="strokeWidth" overflow="visible">
			<use xlink:href="#lend13" transform="scale(4.36) "/>
		</marker>
	</defs>
	<g v:mID="4" v:index="2" v:groupContext="foregroundPage">
		<title>Page-2</title>
		<v:pageProperties v:drawingScale="1" v:pageScale="1" v:drawingUnits="19" v:shadowOffsetX="9" v:shadowOffsetY="-9"/>
		<g id="shape1-1" v:mID="1" v:groupContext="shape" transform="translate(18.75,-72.75)">
			<title>Sheet.1</title>
			<desc>Enquirer</desc>
			<v:textBlock v:margins="rect(4,4,4,4)"/>
			<v:textRect cx="36" cy="216.99" width="72" height="18"/>
			<rect x="0" y="207.99" width="72" height="18" class="st1"/>
			<text x="15.07" y="220.59" class="st2" v:langID="1033"><v:paragraph v:horizAlign="1"/><v:tabList/>Enquirer</text>		</g>
		<g id="shape2-4" v:mID="2" v:groupContext="shape" transform="translate(234.75,-72.75)">
			<title>Sheet.2</title>
			<desc>Alice</desc>
			<v:textBlock v:margins="rect(4,4,4,4)"/>
			<v:textRect cx="36" cy="216.99" width="72" height="18"/>
			<rect x="0" y="207.99" width="72" height="18" class="st1"/>
			<text x="24.25" y="220.59" class="st2" v:langID="1033"><v:paragraph v:horizAlign="1"/><v:tabList/>Alice</text>		</g>
		<g id="group5-7" transform="translate(54.75,-90.75)" v:mID="5" v:groupContext="group">
			<title>Sheet.5</title>
			<g id="shape3-8" v:mID="3" v:groupContext="shape" transform="translate(163.821,434.707) rotate(-165.964)">
				<title>Sheet.3</title>
				<path d="M6.83 221.67 L7.09 221.92 A108 27 -14.04 0 0 111.32 215.14" class="st3"/>
			</g>
			<g id="shape4-14" v:mID="4" v:groupContext="shape" transform="translate(52.1792,434.707) rotate(-14.0362) scale(1,-1)">
				<title>Sheet.4</title>
				<path d="M0 215.14 A108 27 -14.04 0 0 111.32 215.14" class="st5"/>
			</g>
		</g>
		<g id="group6-17" transform="translate(270.75,379.23) rotate(180)" v:mID="6" v:groupContext="group">
			<title>Sheet.6</title>
			<g id="shape7-18" v:mID="7" v:groupContext="shape" transform="translate(163.821,434.707) rotate(-165.964)">
				<title>Sheet.7</title>
				<path d="M6.83 221.67 L7.09 221.92 A108 27 -14.04 0 0 111.32 215.14" class="st3"/>
			</g>
			<g id="shape8-23" v:mID="8" v:groupContext="shape" transform="translate(52.1792,434.707) rotate(-14.0362) scale(1,-1)">
				<title>Sheet.8</title>
				<path d="M0 215.14 A108 27 -14.04 0 0 111.32 215.14" class="st5"/>
			</g>
		</g>
		<g id="shape9-26" v:mID="9" v:groupContext="shape" transform="translate(126.75,-18.75)">
			<title>Sheet.9</title>
			<desc>Accept</desc>
			<v:textBlock v:margins="rect(4,4,4,4)"/>
			<v:textRect cx="36" cy="216.99" width="72" height="18"/>
			<rect x="0" y="207.99" width="72" height="18" class="st1"/>
			<text x="19.31" y="220.59" class="st2" v:langID="1033"><v:paragraph v:horizAlign="1"/><v:tabList/>Accept</text>		</g>
		<g id="shape10-29" v:mID="10" v:groupContext="shape" transform="translate(122.25,-126.75)">
			<title>Rounded rectangle</title>
			<desc>Log in to host1 ?</desc>
			<v:userDefs>
				<v:ud v:nameU="visVersion" v:val="VT0(14):26"/>
			</v:userDefs>
			<v:textBlock v:margins="rect(4,4,4,4)" v:verticalAlign="0"/>
			<v:textRect cx="40.5" cy="185.49" width="81" height="81"/>
			<path d="M72 225.99 A9.00007 9.00007 -180 0 0 81 216.99 L81 153.99 A9.00007 9.00007 -180 0 0 72 144.99 L9 144.99 A9.00007
						 9.00007 -180 0 0 -0 153.99 L0 216.99 A9.00007 9.00007 -180 0 0 9 225.99 L72 225.99 Z" class="st6"/>
			<text x="19.57" y="159.79" class="st2" v:langID="1033"><v:paragraph v:horizAlign="1"/><v:tabList/>Log in to<v:newlineChar/><tspan
						x="22.65" dy="1.2em" class="st7">host</tspan>1 ?</text>		</g>
		<g id="shape11-33" v:mID="11" v:groupContext="shape" transform="translate(126.75,-135.75)">
			<title>Sheet.11</title>
			<desc>Accept</desc>
			<v:textBlock v:margins="rect(4,4,4,4)"/>
			<v:textRect cx="16.875" cy="216.99" width="33.75" height="18"/>
			<rect x="0" y="207.99" width="33.75" height="18" class="st8"/>
			<text x="5.75" y="219.39" class="st9" v:langID="1033"><v:paragraph v:horizAlign="1"/><v:tabList/>Accept</text>		</g>
		<g id="shape12-36" v:mID="12" v:groupContext="shape" transform="translate(165,-135.75)">
			<title>Sheet.12</title>
			<desc>Reject</desc>
			<v:textBlock v:margins="rect(4,4,4,4)"/>
			<v:textRect cx="16.875" cy="216.99" width="33.75" height="18"/>
			<rect x="0" y="207.99" width="33.75" height="18" class="st10"/>
			<text x="6.73" y="219.39" class="st9" v:langID="1033"><v:paragraph v:horizAlign="1"/><v:tabList/>Reject</text>		</g>
	</g>
</svg>
