<?xml version="1.0" encoding="UTF-8" standalone="no"?>
<!DOCTYPE svg PUBLIC "-//W3C//DTD SVG 1.0//EN" "http://www.w3.org/TR/2001/REC-SVG-20010904/DTD/svg10.dtd">
<!-- Generated by Microsoft Visio 11.0, SVG Export, v1.0 MerkleTree1.svg Page-3 -->
<svg xmlns="http://www.w3.org/2000/svg" xmlns:xlink="http://www.w3.org/1999/xlink" xmlns:ev="http://www.w3.org/2001/xml-events"
		xmlns:v="http://schemas.microsoft.com/visio/2003/SVGExtensions/" width="6.32292in" height="4.34722in"
		viewBox="0 0 455.25 313" xml:space="preserve" color-interpolation-filters="sRGB" class="st10">
	<v:documentProperties v:langID="1033" v:viewMarkup="false">
		<v:userDefs>
			<v:ud v:nameU="msvNoAutoConnect" v:val="VT0(1):26"/>
		</v:userDefs>
	</v:documentProperties>

	<style type="text/css">
	<![CDATA[
		.st1 {stroke:#ff0000;stroke-dasharray:5.25,3.75;stroke-linecap:round;stroke-linejoin:round;stroke-width:0.75}
		.st2 {marker-end:url(#mrkr13-10);stroke:#ff0000;stroke-dasharray:5.25,3.75;stroke-linecap:round;stroke-linejoin:round;stroke-width:0.75}
		.st3 {fill:#ff0000;fill-opacity:1;stroke:#ff0000;stroke-opacity:1;stroke-width:0.22935779816514}
		.st4 {stroke:#000000;stroke-linecap:round;stroke-linejoin:round;stroke-width:0.75}
		.st5 {fill:none;stroke:none;stroke-linecap:round;stroke-linejoin:round;stroke-width:0.75}
		.st6 {fill:#000000;font-family:Calibri;font-size:1.00001em}
		.st7 {marker-end:url(#mrkr13-109);stroke:#000000;stroke-linecap:round;stroke-linejoin:round;stroke-width:0.75}
		.st8 {fill:#000000;fill-opacity:1;stroke:#000000;stroke-opacity:1;stroke-width:0.22935779816514}
		.st9 {fill:#ffffff;stroke:#000000;stroke-linecap:round;stroke-linejoin:round;stroke-width:0.75}
		.st10 {fill:none;fill-rule:evenodd;font-size:12px;overflow:visible;stroke-linecap:square;stroke-miterlimit:3}
	]]>
	</style>

	<defs id="Markers">
		<g id="lend13">
			<path d="M 3 1 L 0 0 L 3 -1 L 3 1 " style="stroke:none"/>
		</g>
		<marker id="mrkr13-10" class="st3" v:arrowType="13" v:arrowSize="2" v:setback="13.08" refX="-13.08" orient="auto"
				markerUnits="strokeWidth" overflow="visible">
			<use xlink:href="#lend13" transform="scale(-4.36,-4.36) "/>
		</marker>
		<marker id="mrkr13-109" class="st8" v:arrowType="13" v:arrowSize="2" v:setback="13.08" refX="-13.08" orient="auto"
				markerUnits="strokeWidth" overflow="visible">
			<use xlink:href="#lend13" transform="scale(-4.36,-4.36) "/>
		</marker>
	</defs>
	<g v:mID="5" v:index="3" v:groupContext="foregroundPage">
		<title>Page-3</title>
		<v:pageProperties v:drawingScale="1" v:pageScale="1" v:drawingUnits="19" v:shadowOffsetX="9" v:shadowOffsetY="-9"/>
		<g id="group40-1" transform="translate(362.375,-63.375) scale(-1,1)" v:mID="40" v:groupContext="group">
			<title>Sheet.40</title>
			<g id="shape41-2" v:mID="41" v:groupContext="shape" transform="translate(-249.718,124.295) rotate(-52.9227)">
				<title>Sheet.41</title>
				<path d="M0 313 L89.78 313" class="st1"/>
			</g>
			<g id="shape42-5" v:mID="42" v:groupContext="shape" transform="translate(-249.718,124.295) rotate(-52.9227)">
				<title>Sheet.42</title>
				<path d="M0 313 L41.59 313" class="st2"/>
			</g>
		</g>
		<g id="group43-11" transform="translate(306,-135.375) scale(-1,1)" v:mID="43" v:groupContext="group">
			<title>Sheet.43</title>
			<g id="shape44-12" v:mID="44" v:groupContext="shape" transform="translate(-177.969,55.5197) rotate(-34.652)">
				<title>Sheet.44</title>
				<path d="M0 313 L125.97 313" class="st1"/>
			</g>
			<g id="shape45-15" v:mID="45" v:groupContext="shape" transform="translate(-177.969,55.5197) rotate(-34.652)">
				<title>Sheet.45</title>
				<path d="M0 313 L62.31 313" class="st2"/>
			</g>
		</g>
		<g id="group73-20" transform="translate(256.625,-63.375) scale(-1,1)" v:mID="73" v:groupContext="group">
			<title>Sheet.73</title>
			<g id="shape74-21" v:mID="74" v:groupContext="shape" transform="translate(-249.718,124.295) rotate(-52.9227)">
				<title>Sheet.74</title>
				<path d="M0 313 L89.78 313" class="st1"/>
			</g>
			<g id="shape75-24" v:mID="75" v:groupContext="shape" transform="translate(-249.718,124.295) rotate(-52.9227)">
				<title>Sheet.75</title>
				<path d="M0 313 L41.59 313" class="st2"/>
			</g>
		</g>
		<g id="group76-29" transform="translate(148.625,-65.625) scale(-1,1)" v:mID="76" v:groupContext="group">
			<title>Sheet.76</title>
			<g id="shape77-30" v:mID="77" v:groupContext="shape" transform="translate(-249.718,124.295) rotate(-52.9227)">
				<title>Sheet.77</title>
				<path d="M0 313 L89.78 313" class="st1"/>
			</g>
			<g id="shape78-33" v:mID="78" v:groupContext="shape" transform="translate(-249.718,124.295) rotate(-52.9227)">
				<title>Sheet.78</title>
				<path d="M0 313 L41.59 313" class="st2"/>
			</g>
		</g>
		<g id="shape7-38" v:mID="7" v:groupContext="shape" transform="translate(-80.2462,-83.8067) rotate(-33.6901)">
			<title>Sheet.7</title>
			<path d="M0 313 L129.8 313" class="st4"/>
		</g>
		<g id="shape26-41" v:mID="26" v:groupContext="shape" transform="translate(18.75,-18.75)">
			<title>Sheet.26</title>
			<desc>0001</desc>
			<v:textBlock v:margins="rect(4,4,4,4)"/>
			<v:textRect cx="20.375" cy="303" width="40.75" height="20"/>
			<rect x="0" y="293" width="40.75" height="20" class="st5"/>
			<text x="8.21" y="306.6" class="st6" v:langID="1033"><v:paragraph v:horizAlign="1"/><v:tabList/>0001</text>		</g>
		<g id="shape27-44" v:mID="27" v:groupContext="shape" transform="translate(72.75,-18.75)">
			<title>Sheet.27</title>
			<desc>0010</desc>
			<v:textBlock v:margins="rect(4,4,4,4)"/>
			<v:textRect cx="20.375" cy="303" width="40.75" height="20"/>
			<rect x="0" y="293" width="40.75" height="20" class="st5"/>
			<text x="8.21" y="306.6" class="st6" v:langID="1033"><v:paragraph v:horizAlign="1"/><v:tabList/>0010</text>		</g>
		<g id="shape28-47" v:mID="28" v:groupContext="shape" transform="translate(126.75,-18.75)">
			<title>Sheet.28</title>
			<desc>0011</desc>
			<v:textBlock v:margins="rect(4,4,4,4)"/>
			<v:textRect cx="20.375" cy="303" width="40.75" height="20"/>
			<rect x="0" y="293" width="40.75" height="20" class="st5"/>
			<text x="8.21" y="306.6" class="st6" v:langID="1033"><v:paragraph v:horizAlign="1"/><v:tabList/>0011</text>		</g>
		<g id="shape29-50" v:mID="29" v:groupContext="shape" transform="translate(180.75,-18.75)">
			<title>Sheet.29</title>
			<desc>0100</desc>
			<v:textBlock v:margins="rect(4,4,4,4)"/>
			<v:textRect cx="20.375" cy="303" width="40.75" height="20"/>
			<rect x="0" y="293" width="40.75" height="20" class="st5"/>
			<text x="8.21" y="306.6" class="st6" v:langID="1033"><v:paragraph v:horizAlign="1"/><v:tabList/>0100</text>		</g>
		<g id="shape30-53" v:mID="30" v:groupContext="shape" transform="translate(235.25,-18.75)">
			<title>Sheet.30</title>
			<desc>0101</desc>
			<v:textBlock v:margins="rect(4,4,4,4)"/>
			<v:textRect cx="20.375" cy="303" width="40.75" height="20"/>
			<rect x="0" y="293" width="40.75" height="20" class="st5"/>
			<text x="8.21" y="306.6" class="st6" v:langID="1033"><v:paragraph v:horizAlign="1"/><v:tabList/>0101</text>		</g>
		<g id="shape31-56" v:mID="31" v:groupContext="shape" transform="translate(289.25,-18.75)">
			<title>Sheet.31</title>
			<desc>0110</desc>
			<v:textBlock v:margins="rect(4,4,4,4)"/>
			<v:textRect cx="20.375" cy="303" width="40.75" height="20"/>
			<rect x="0" y="293" width="40.75" height="20" class="st5"/>
			<text x="8.21" y="306.6" class="st6" v:langID="1033"><v:paragraph v:horizAlign="1"/><v:tabList/>0110</text>		</g>
		<g id="shape32-59" v:mID="32" v:groupContext="shape" transform="translate(342,-18.75)">
			<title>Sheet.32</title>
			<desc>0111</desc>
			<v:textBlock v:margins="rect(4,4,4,4)"/>
			<v:textRect cx="20.375" cy="303" width="40.75" height="20"/>
			<rect x="0" y="293" width="40.75" height="20" class="st5"/>
			<text x="8.21" y="306.6" class="st6" v:langID="1033"><v:paragraph v:horizAlign="1"/><v:tabList/>0111</text>		</g>
		<g id="shape33-62" v:mID="33" v:groupContext="shape" transform="translate(395.75,-18.75)">
			<title>Sheet.33</title>
			<desc>1000</desc>
			<v:textBlock v:margins="rect(4,4,4,4)"/>
			<v:textRect cx="20.375" cy="303" width="40.75" height="20"/>
			<rect x="0" y="293" width="40.75" height="20" class="st5"/>
			<text x="8.21" y="306.6" class="st6" v:langID="1033"><v:paragraph v:horizAlign="1"/><v:tabList/>1000</text>		</g>
		<g id="shape1-65" v:mID="1" v:groupContext="shape" transform="translate(100.506,-191.676) rotate(-18.7999)">
			<title>Sheet.1</title>
			<path d="M0 313 L223.42 313" class="st4"/>
		</g>
		<g id="shape4-68" v:mID="4" v:groupContext="shape" transform="translate(-210.468,59.5447) rotate(-52.9227)">
			<title>Sheet.4</title>
			<path d="M0 313 L89.78 313" class="st4"/>
		</g>
		<g id="shape2-71" v:mID="2" v:groupContext="shape" transform="translate(-102.343,59.9197) rotate(-52.9227)">
			<title>Sheet.2</title>
			<path d="M0 313 L89.78 313" class="st4"/>
		</g>
		<g id="shape5-74" v:mID="5" v:groupContext="shape" transform="translate(4.5315,59.5447) rotate(-52.9227)">
			<title>Sheet.5</title>
			<path d="M0 313 L89.78 313" class="st4"/>
		</g>
		<g id="shape6-77" v:mID="6" v:groupContext="shape" transform="translate(114.407,59.5447) rotate(-52.9227)">
			<title>Sheet.6</title>
			<path d="M0 313 L89.78 313" class="st4"/>
		</g>
		<g id="shape15-80" v:mID="15" v:groupContext="shape" transform="translate(135.379,-84.1817) rotate(-33.6901)">
			<title>Sheet.15</title>
			<path d="M0 313 L129.8 313" class="st4"/>
		</g>
		<g id="shape16-83" v:mID="16" v:groupContext="shape" transform="translate(-219.5,249.541) rotate(-90.099)">
			<title>Sheet.16</title>
			<path d="M0 313 L72.38 313" class="st4"/>
		</g>
		<g id="shape17-86" v:mID="17" v:groupContext="shape" transform="translate(-111.375,249.916) rotate(-90.099)">
			<title>Sheet.17</title>
			<path d="M0 313 L72.38 313" class="st4"/>
		</g>
		<g id="shape18-89" v:mID="18" v:groupContext="shape" transform="translate(-4.49953,249.541) rotate(-90.099)">
			<title>Sheet.18</title>
			<path d="M0 313 L72.38 313" class="st4"/>
		</g>
		<g id="shape54-92" v:mID="54" v:groupContext="shape" transform="translate(-111.5,177.541) rotate(-90.099)">
			<title>Sheet.54</title>
			<path d="M0 313 L72.38 313" class="st4"/>
		</g>
		<g id="shape55-95" v:mID="55" v:groupContext="shape" transform="translate(104.25,249.541) rotate(-90.099)">
			<title>Sheet.55</title>
			<path d="M0 313 L72.38 313" class="st4"/>
		</g>
		<g id="shape56-98" v:mID="56" v:groupContext="shape" transform="translate(104.125,177.166) rotate(-90.099)">
			<title>Sheet.56</title>
			<path d="M0 313 L72.38 313" class="st4"/>
		</g>
		<g id="shape57-101" v:mID="57" v:groupContext="shape" transform="translate(104,104.791) rotate(-90.099)">
			<title>Sheet.57</title>
			<path d="M0 313 L72.38 313" class="st4"/>
		</g>
		<g id="shape61-104" v:mID="61" v:groupContext="shape" transform="translate(-210.468,59.5447) rotate(-52.9227)">
			<title>Sheet.61</title>
			<path d="M0 313 L41.59 313" class="st7"/>
		</g>
		<g id="shape62-110" v:mID="62" v:groupContext="shape" transform="translate(-80.2462,-83.8067) rotate(-33.6901)">
			<title>Sheet.62</title>
			<path d="M0 313 L56.16 313" class="st7"/>
		</g>
		<g id="shape63-115" v:mID="63" v:groupContext="shape" transform="translate(100.506,-191.676) rotate(-18.7999)">
			<title>Sheet.63</title>
			<path d="M0 313 L98.55 313" class="st7"/>
		</g>
		<g id="shape64-120" v:mID="64" v:groupContext="shape" transform="translate(4.5315,59.5447) rotate(-52.9227)">
			<title>Sheet.64</title>
			<path d="M0 313 L39.8 313" class="st7"/>
		</g>
		<g id="shape65-125" v:mID="65" v:groupContext="shape" transform="translate(-102.343,59.9197) rotate(-52.9227)">
			<title>Sheet.65</title>
			<path d="M0 313 L39.8 313" class="st7"/>
		</g>
		<g id="shape66-130" v:mID="66" v:groupContext="shape" transform="translate(114.407,59.5447) rotate(-52.9227)">
			<title>Sheet.66</title>
			<path d="M0 313 L39.8 313" class="st7"/>
		</g>
		<g id="shape67-135" v:mID="67" v:groupContext="shape" transform="translate(135.379,-84.1817) rotate(-33.6901)">
			<title>Sheet.67</title>
			<path d="M0 313 L56.16 313" class="st7"/>
		</g>
		<g id="shape69-140" v:mID="69" v:groupContext="shape" transform="translate(-219.5,249.541) rotate(-90.099)">
			<title>Sheet.69</title>
			<path d="M0 313 L33 313" class="st7"/>
		</g>
		<g id="shape70-145" v:mID="70" v:groupContext="shape" transform="translate(-111.375,249.916) rotate(-90.099)">
			<title>Sheet.70</title>
			<path d="M0 313 L33 313" class="st7"/>
		</g>
		<g id="shape71-150" v:mID="71" v:groupContext="shape" transform="translate(-4.49953,249.541) rotate(-90.099)">
			<title>Sheet.71</title>
			<path d="M0 313 L33 313" class="st7"/>
		</g>
		<g id="shape72-155" v:mID="72" v:groupContext="shape" transform="translate(104.25,249.541) rotate(-90.099)">
			<title>Sheet.72</title>
			<path d="M0 313 L33 313" class="st7"/>
		</g>
		<g id="shape3-160" v:mID="3" v:groupContext="shape" transform="translate(402.625,-267.25)">
			<title>Sheet.3</title>
			<desc>8</desc>
			<v:textBlock v:margins="rect(4,4,4,4)"/>
			<v:textRect cx="13.5" cy="299.5" width="27" height="27"/>
			<ellipse cx="13.5" cy="299.5" rx="13.5" ry="13.5" class="st9"/>
			<text x="10.46" y="303.1" class="st6" v:langID="1033"><v:paragraph v:horizAlign="1"/><v:tabList/>8</text>		</g>
		<g id="shape8-163" v:mID="8" v:groupContext="shape" transform="translate(25.75,-51.25)">
			<title>Sheet.8</title>
			<desc>1</desc>
			<v:textBlock v:margins="rect(4,4,4,4)"/>
			<v:textRect cx="13.5" cy="299.5" width="27" height="27"/>
			<ellipse cx="13.5" cy="299.5" rx="13.5" ry="13.5" class="st9"/>
			<text x="10.46" y="303.1" class="st6" v:langID="1033"><v:paragraph v:horizAlign="1"/><v:tabList/>1</text>		</g>
		<g id="shape9-166" v:mID="9" v:groupContext="shape" transform="translate(79.625,-51.25)">
			<title>Sheet.9</title>
			<desc>2</desc>
			<v:textBlock v:margins="rect(4,4,4,4)"/>
			<v:textRect cx="13.5" cy="299.5" width="27" height="27"/>
			<ellipse cx="13.5" cy="299.5" rx="13.5" ry="13.5" class="st9"/>
			<text x="10.46" y="303.1" class="st6" v:langID="1033"><v:paragraph v:horizAlign="1"/><v:tabList/>2</text>		</g>
		<g id="shape10-169" v:mID="10" v:groupContext="shape" transform="translate(133.75,-51.25)">
			<title>Sheet.10</title>
			<desc>3</desc>
			<v:textBlock v:margins="rect(4,4,4,4)"/>
			<v:textRect cx="13.5" cy="299.5" width="27" height="27"/>
			<ellipse cx="13.5" cy="299.5" rx="13.5" ry="13.5" class="st9"/>
			<text x="10.46" y="303.1" class="st6" v:langID="1033"><v:paragraph v:horizAlign="1"/><v:tabList/>3</text>		</g>
		<g id="shape11-172" v:mID="11" v:groupContext="shape" transform="translate(187.625,-51.25)">
			<title>Sheet.11</title>
			<desc>4</desc>
			<v:textBlock v:margins="rect(4,4,4,4)"/>
			<v:textRect cx="13.5" cy="299.5" width="27" height="27"/>
			<ellipse cx="13.5" cy="299.5" rx="13.5" ry="13.5" class="st9"/>
			<text x="10.46" y="303.1" class="st6" v:langID="1033"><v:paragraph v:horizAlign="1"/><v:tabList/>4</text>		</g>
		<g id="shape12-175" v:mID="12" v:groupContext="shape" transform="translate(79.625,-123.25)">
			<title>Sheet.12</title>
			<desc>2</desc>
			<v:textBlock v:margins="rect(4,4,4,4)"/>
			<v:textRect cx="13.5" cy="299.5" width="27" height="27"/>
			<ellipse cx="13.5" cy="299.5" rx="13.5" ry="13.5" class="st9"/>
			<text x="10.46" y="303.1" class="st6" v:langID="1033"><v:paragraph v:horizAlign="1"/><v:tabList/>2</text>		</g>
		<g id="shape13-178" v:mID="13" v:groupContext="shape" transform="translate(187.625,-123.25)">
			<title>Sheet.13</title>
			<desc>4</desc>
			<v:textBlock v:margins="rect(4,4,4,4)"/>
			<v:textRect cx="13.5" cy="299.5" width="27" height="27"/>
			<ellipse cx="13.5" cy="299.5" rx="13.5" ry="13.5" class="st9"/>
			<text x="10.46" y="303.1" class="st6" v:langID="1033"><v:paragraph v:horizAlign="1"/><v:tabList/>4</text>		</g>
		<g id="shape14-181" v:mID="14" v:groupContext="shape" transform="translate(187.625,-195.25)">
			<title>Sheet.14</title>
			<desc>4</desc>
			<v:textBlock v:margins="rect(4,4,4,4)"/>
			<v:textRect cx="13.5" cy="299.5" width="27" height="27"/>
			<ellipse cx="13.5" cy="299.5" rx="13.5" ry="13.5" class="st9"/>
			<text x="10.46" y="303.1" class="st6" v:langID="1033"><v:paragraph v:horizAlign="1"/><v:tabList/>4</text>		</g>
		<g id="shape19-184" v:mID="19" v:groupContext="shape" transform="translate(242.25,-51.25)">
			<title>Sheet.19</title>
			<desc>5</desc>
			<v:textBlock v:margins="rect(4,4,4,4)"/>
			<v:textRect cx="13.5" cy="299.5" width="27" height="27"/>
			<ellipse cx="13.5" cy="299.5" rx="13.5" ry="13.5" class="st9"/>
			<text x="10.46" y="303.1" class="st6" v:langID="1033"><v:paragraph v:horizAlign="1"/><v:tabList/>5</text>		</g>
		<g id="shape20-187" v:mID="20" v:groupContext="shape" transform="translate(296.125,-51.25)">
			<title>Sheet.20</title>
			<desc>6</desc>
			<v:textBlock v:margins="rect(4,4,4,4)"/>
			<v:textRect cx="13.5" cy="299.5" width="27" height="27"/>
			<ellipse cx="13.5" cy="299.5" rx="13.5" ry="13.5" class="st9"/>
			<text x="10.46" y="303.1" class="st6" v:langID="1033"><v:paragraph v:horizAlign="1"/><v:tabList/>6</text>		</g>
		<g id="shape21-190" v:mID="21" v:groupContext="shape" transform="translate(349.875,-51.25)">
			<title>Sheet.21</title>
			<desc>7</desc>
			<v:textBlock v:margins="rect(4,4,4,4)"/>
			<v:textRect cx="13.5" cy="299.5" width="27" height="27"/>
			<ellipse cx="13.5" cy="299.5" rx="13.5" ry="13.5" class="st9"/>
			<text x="10.46" y="303.1" class="st6" v:langID="1033"><v:paragraph v:horizAlign="1"/><v:tabList/>7</text>		</g>
		<g id="shape22-193" v:mID="22" v:groupContext="shape" transform="translate(402.625,-51.25)">
			<title>Sheet.22</title>
			<desc>8</desc>
			<v:textBlock v:margins="rect(4,4,4,4)"/>
			<v:textRect cx="13.5" cy="299.5" width="27" height="27"/>
			<ellipse cx="13.5" cy="299.5" rx="13.5" ry="13.5" class="st9"/>
			<text x="10.46" y="303.1" class="st6" v:langID="1033"><v:paragraph v:horizAlign="1"/><v:tabList/>8</text>		</g>
		<g id="shape23-196" v:mID="23" v:groupContext="shape" transform="translate(296.125,-123.25)">
			<title>Sheet.23</title>
			<desc>6</desc>
			<v:textBlock v:margins="rect(4,4,4,4)"/>
			<v:textRect cx="13.5" cy="299.5" width="27" height="27"/>
			<ellipse cx="13.5" cy="299.5" rx="13.5" ry="13.5" class="st9"/>
			<text x="10.46" y="303.1" class="st6" v:langID="1033"><v:paragraph v:horizAlign="1"/><v:tabList/>6</text>		</g>
		<g id="shape24-199" v:mID="24" v:groupContext="shape" transform="translate(402.625,-123.25)">
			<title>Sheet.24</title>
			<desc>8</desc>
			<v:textBlock v:margins="rect(4,4,4,4)"/>
			<v:textRect cx="13.5" cy="299.5" width="27" height="27"/>
			<ellipse cx="13.5" cy="299.5" rx="13.5" ry="13.5" class="st9"/>
			<text x="10.46" y="303.1" class="st6" v:langID="1033"><v:paragraph v:horizAlign="1"/><v:tabList/>8</text>		</g>
		<g id="shape25-202" v:mID="25" v:groupContext="shape" transform="translate(402.625,-195.25)">
			<title>Sheet.25</title>
			<desc>8</desc>
			<v:textBlock v:margins="rect(4,4,4,4)"/>
			<v:textRect cx="13.5" cy="299.5" width="27" height="27"/>
			<ellipse cx="13.5" cy="299.5" rx="13.5" ry="13.5" class="st9"/>
			<text x="10.46" y="303.1" class="st6" v:langID="1033"><v:paragraph v:horizAlign="1"/><v:tabList/>8</text>		</g>
	</g>
</svg>
