<?xml version="1.0" encoding="UTF-8" standalone="no"?>
<!DOCTYPE svg PUBLIC "-//W3C//DTD SVG 1.0//EN" "http://www.w3.org/TR/2001/REC-SVG-20010904/DTD/svg10.dtd">
<!-- Generated by Microsoft Visio 11.0, SVG Export, v1.0 Recrypt-static.svg Recrypt-static -->
<svg xmlns="http://www.w3.org/2000/svg" xmlns:xlink="http://www.w3.org/1999/xlink" xmlns:ev="http://www.w3.org/2001/xml-events"
		xmlns:v="http://schemas.microsoft.com/visio/2003/SVGExtensions/" width="5.67708in" height="3.75333in"
		viewBox="0 0 408.75 270.24" xml:space="preserve" color-interpolation-filters="sRGB" class="st16">
	<v:documentProperties v:langID="1033" v:viewMarkup="false">
		<v:userDefs>
			<v:ud v:nameU="msvNoAutoConnect" v:val="VT0(1):26"/>
		</v:userDefs>
	</v:documentProperties>

	<style type="text/css">
	<![CDATA[
		.st1 {fill:#ffffff;stroke:#000000;stroke-linecap:round;stroke-linejoin:round;stroke-width:0.24}
		.st2 {fill:none;stroke:#000000;stroke-linecap:round;stroke-linejoin:round;stroke-width:0.24;visibility:hidden}
		.st3 {fill:#000000;font-family:Calibri;font-size:0.666664em}
		.st4 {fill:#00b050;stroke:#000000;stroke-linecap:round;stroke-linejoin:round;stroke-width:0.24}
		.st5 {fill:#00b050;stroke:#000000;stroke-linecap:round;stroke-linejoin:round;stroke-width:0.24;visibility:hidden}
		.st6 {fill:#ff0000;stroke:#000000;stroke-linecap:round;stroke-linejoin:round;stroke-width:0.24}
		.st7 {fill:#ff0000;stroke:#000000;stroke-linecap:round;stroke-linejoin:round;stroke-width:0.24;visibility:hidden}
		.st8 {fill:#ffffff;stroke:#000000;stroke-dasharray:1.68,1.2;stroke-linecap:round;stroke-linejoin:round;stroke-width:0.24}
		.st9 {fill:none;stroke:none;stroke-linecap:round;stroke-linejoin:round;stroke-width:0.75}
		.st10 {fill:#000000;font-family:Calibri;font-size:0.75em}
		.st11 {font-size:1em}
		.st12 {stroke:#000000;stroke-linecap:round;stroke-linejoin:round;stroke-width:2.25}
		.st13 {marker-end:url(#mrkr13-56);stroke:#000000;stroke-linecap:round;stroke-linejoin:round;stroke-width:1}
		.st14 {fill:#000000;fill-opacity:1;stroke:#000000;stroke-opacity:1;stroke-width:0.28409090909091}
		.st15 {marker-end:url(#mrkr13-56);stroke:#000000;stroke-dasharray:7,5;stroke-linecap:round;stroke-linejoin:round;stroke-width:1}
		.st16 {fill:none;fill-rule:evenodd;font-size:12px;overflow:visible;stroke-linecap:square;stroke-miterlimit:3}
	]]>
	</style>

	<defs id="Markers">
		<g id="lend13">
			<path d="M 3 1 L 0 0 L 3 -1 L 3 1 " style="stroke:none"/>
		</g>
		<marker id="mrkr13-56" class="st14" v:arrowType="13" v:arrowSize="2" v:setback="10.56" refX="-10.56" orient="auto"
				markerUnits="strokeWidth" overflow="visible">
			<use xlink:href="#lend13" transform="scale(-3.52,-3.52) "/>
		</marker>
	</defs>
	<g v:mID="0" v:index="1" v:groupContext="foregroundPage">
		<title>Recrypt-static</title>
		<v:pageProperties v:drawingScale="1" v:pageScale="1" v:drawingUnits="19" v:shadowOffsetX="9" v:shadowOffsetY="-9"/>
		<v:layer v:name="Flowchart" v:index="0"/>
		<g id="group1-1" transform="translate(43.5,-126)" v:mID="1" v:groupContext="group" v:layerMember="0">
			<v:custProps>
				<v:cp v:nameU="Cost" v:lbl="Cost" v:type="7" v:format="@" v:langID="1033"/>
				<v:cp v:nameU="Duration" v:lbl="Duration" v:type="2" v:langID="1033"/>
				<v:cp v:nameU="Resources" v:lbl="Resources" v:langID="1033"/>
			</v:custProps>
			<v:userDefs>
				<v:ud v:nameU="visVersion" v:val="VT0(14):26"/>
			</v:userDefs>
			<title>Person 1</title>
			<g id="shape2-2" v:mID="2" v:groupContext="shape" v:layerMember="0" transform="translate(18.9177,-43.2) scale(-1,1)">
				<title>Sheet.2</title>
				<path d="M0 264.84 A5.41768 5.4 0 1 1 10.84 264.84 A5.41768 5.4 0 1 1 0 264.84 Z" class="st1"/>
			</g>
			<g id="shape3-4" v:mID="3" v:groupContext="shape" v:layerMember="0">
				<title>Sheet.3</title>
				<path d="M13.81 249.31 L20.09 270.24 L25.12 270.24 L20.09 245.94 L20.09 231.76 L23.86 243.24 L27 241.21 L22.6 227.04
							 L13.81 227.71 L5.02 227.04 L0 241.89 L3.77 243.24 L7.53 231.76 L7.53 245.94 L2.51 270.24 L7.53 270.24
							 L13.81 249.31 Z" class="st1"/>
			</g>
			<g id="shape4-6" v:mID="4" v:groupContext="shape" v:layerMember="0" transform="translate(0,18)">
				<title>Sheet.4</title>
				<desc>Carol</desc>
				<v:userDefs>
					<v:ud v:nameU="ScaleFactor" v:val="VT0(1):26"/>
				</v:userDefs>
				<v:textBlock v:margins="rect(0,0,0,0)"/>
				<v:textRect cx="13.5" cy="261.24" width="27" height="18"/>
				<rect x="0" y="252.24" width="27" height="18" class="st2"/>
				<text x="5.03" y="263.64" class="st3" v:langID="1033"><v:paragraph v:horizAlign="1"/><v:tabList/>Carol</text>			</g>
		</g>
		<g id="group5-9" transform="translate(259.5,-198)" v:mID="5" v:groupContext="group" v:layerMember="0">
			<v:custProps>
				<v:cp v:nameU="Cost" v:lbl="Cost" v:type="7" v:format="@" v:langID="1033"/>
				<v:cp v:nameU="Duration" v:lbl="Duration" v:type="2" v:langID="1033"/>
				<v:cp v:nameU="Resources" v:lbl="Resources" v:langID="1033"/>
			</v:custProps>
			<v:userDefs>
				<v:ud v:nameU="visVersion" v:val="VT0(14):26"/>
			</v:userDefs>
			<title>Person 1.5</title>
			<g id="shape6-10" v:mID="6" v:groupContext="shape" v:layerMember="0" transform="translate(18.9177,-43.2) scale(-1,1)">
				<title>Sheet.6</title>
				<path d="M0 264.84 A5.41768 5.4 0 1 1 10.84 264.84 A5.41768 5.4 0 1 1 0 264.84 Z" class="st4"/>
			</g>
			<g id="shape7-12" v:mID="7" v:groupContext="shape" v:layerMember="0">
				<title>Sheet.7</title>
				<path d="M13.81 249.31 L20.09 270.24 L25.12 270.24 L20.09 245.94 L20.09 231.76 L23.86 243.24 L27 241.21 L22.6 227.04
							 L13.81 227.71 L5.02 227.04 L0 241.89 L3.77 243.24 L7.53 231.76 L7.53 245.94 L2.51 270.24 L7.53 270.24
							 L13.81 249.31 Z" class="st4"/>
			</g>
			<g id="shape8-14" v:mID="8" v:groupContext="shape" v:layerMember="0" transform="translate(0,18)">
				<title>Sheet.8</title>
				<desc>Alice</desc>
				<v:userDefs>
					<v:ud v:nameU="ScaleFactor" v:val="VT0(1):26"/>
				</v:userDefs>
				<v:textBlock v:margins="rect(0,0,0,0)"/>
				<v:textRect cx="13.5" cy="261.24" width="27" height="18"/>
				<rect x="0" y="252.24" width="27" height="18" class="st5"/>
				<text x="5.67" y="263.64" class="st3" v:langID="1033"><v:paragraph v:horizAlign="1"/><v:tabList/>Alice</text>			</g>
		</g>
		<g id="group9-17" transform="translate(318,-121.5)" v:mID="9" v:groupContext="group" v:layerMember="0">
			<v:custProps>
				<v:cp v:nameU="Cost" v:lbl="Cost" v:type="7" v:format="@" v:langID="1033"/>
				<v:cp v:nameU="Duration" v:lbl="Duration" v:type="2" v:langID="1033"/>
				<v:cp v:nameU="Resources" v:lbl="Resources" v:langID="1033"/>
			</v:custProps>
			<v:userDefs>
				<v:ud v:nameU="visVersion" v:val="VT0(14):26"/>
			</v:userDefs>
			<title>Person 1.9</title>
			<g id="shape10-18" v:mID="10" v:groupContext="shape" v:layerMember="0" transform="translate(18.9177,-43.2) scale(-1,1)">
				<title>Sheet.10</title>
				<path d="M0 264.84 A5.41768 5.4 0 1 1 10.84 264.84 A5.41768 5.4 0 1 1 0 264.84 Z" class="st6"/>
			</g>
			<g id="shape11-20" v:mID="11" v:groupContext="shape" v:layerMember="0">
				<title>Sheet.11</title>
				<path d="M13.81 249.31 L20.09 270.24 L25.12 270.24 L20.09 245.94 L20.09 231.76 L23.86 243.24 L27 241.21 L22.6 227.04
							 L13.81 227.71 L5.02 227.04 L0 241.89 L3.77 243.24 L7.53 231.76 L7.53 245.94 L2.51 270.24 L7.53 270.24
							 L13.81 249.31 Z" class="st6"/>
			</g>
			<g id="shape12-22" v:mID="12" v:groupContext="shape" v:layerMember="0" transform="translate(0,18)">
				<title>Sheet.12</title>
				<desc>Bob</desc>
				<v:userDefs>
					<v:ud v:nameU="ScaleFactor" v:val="VT0(1):26"/>
				</v:userDefs>
				<v:textBlock v:margins="rect(0,0,0,0)"/>
				<v:textRect cx="13.5" cy="261.24" width="27" height="18"/>
				<rect x="0" y="252.24" width="27" height="18" class="st7"/>
				<text x="7.11" y="263.64" class="st3" v:langID="1033"><v:paragraph v:horizAlign="1"/><v:tabList/>Bob</text>			</g>
		</g>
		<g id="group13-25" transform="translate(259.5,-36)" v:mID="13" v:groupContext="group" v:layerMember="0">
			<v:custProps>
				<v:cp v:nameU="Cost" v:lbl="Cost" v:type="7" v:format="@" v:langID="1033"/>
				<v:cp v:nameU="Duration" v:lbl="Duration" v:type="2" v:langID="1033"/>
				<v:cp v:nameU="Resources" v:lbl="Resources" v:langID="1033"/>
			</v:custProps>
			<v:userDefs>
				<v:ud v:nameU="visVersion" v:val="VT0(14):26"/>
			</v:userDefs>
			<title>Person 1.13</title>
			<g id="shape14-26" v:mID="14" v:groupContext="shape" v:layerMember="0" transform="translate(18.9177,-43.2) scale(-1,1)">
				<title>Sheet.14</title>
				<path d="M0 264.84 A5.41768 5.4 0 1 1 10.84 264.84 A5.41768 5.4 0 1 1 0 264.84 Z" class="st8"/>
			</g>
			<g id="shape15-28" v:mID="15" v:groupContext="shape" v:layerMember="0">
				<title>Sheet.15</title>
				<path d="M13.81 249.31 L20.09 270.24 L25.12 270.24 L20.09 245.94 L20.09 231.76 L23.86 243.24 L27 241.21 L22.6 227.04
							 L13.81 227.71 L5.02 227.04 L0 241.89 L3.77 243.24 L7.53 231.76 L7.53 245.94 L2.51 270.24 L7.53 270.24
							 L13.81 249.31 Z" class="st8"/>
			</g>
			<g id="shape16-30" v:mID="16" v:groupContext="shape" v:layerMember="0" transform="translate(0,18)">
				<title>Sheet.16</title>
				<desc>Doug</desc>
				<v:userDefs>
					<v:ud v:nameU="ScaleFactor" v:val="VT0(1):26"/>
				</v:userDefs>
				<v:textBlock v:margins="rect(0,0,0,0)"/>
				<v:textRect cx="13.5" cy="261.24" width="27" height="18"/>
				<text x="4.95" y="263.64" class="st3" v:langID="1033"><v:paragraph v:horizAlign="1"/><v:tabList/>Doug</text>			</g>
		</g>
		<g id="shape17-33" v:mID="17" v:groupContext="shape" transform="translate(295.5,-49.5)">
			<title>Sheet.17</title>
			<desc>Joined June</desc>
			<v:textBlock v:margins="rect(4,4,4,4)"/>
			<v:textRect cx="20" cy="260.24" width="40.01" height="20"/>
			<rect x="0" y="250.24" width="40" height="20" class="st9"/>
			<text x="8.19" y="257.54" class="st10" v:langID="1033"><v:paragraph v:horizAlign="1"/><v:tabList/>Joined<v:newlineChar/><tspan
						x="11.6" dy="1.2em" class="st11">June</tspan></text>		</g>
		<g id="shape18-37" v:mID="18" v:groupContext="shape" transform="translate(350,-133)">
			<title>Sheet.18</title>
			<desc>Left May</desc>
			<v:textBlock v:margins="rect(4,4,4,4)"/>
			<v:textRect cx="20" cy="260.24" width="40.01" height="20"/>
			<rect x="0" y="250.24" width="40" height="20" class="st9"/>
			<text x="12.99" y="257.54" class="st10" v:langID="1033"><v:paragraph v:horizAlign="1"/><v:tabList/>Left<v:newlineChar/><tspan
						x="11.96" dy="1.2em" class="st11">May</tspan></text>		</g>
		<g id="shape19-41" v:mID="19" v:groupContext="shape" transform="translate(18.75,-88)">
			<title>Sheet.19</title>
			<desc>Sends Message April</desc>
			<v:textBlock v:margins="rect(4,4,4,4)"/>
			<v:textRect cx="40.5" cy="260.24" width="81" height="20"/>
			<rect x="0" y="250.24" width="81" height="20" class="st9"/>
			<text x="12.57" y="257.54" class="st10" v:langID="1033"><v:paragraph v:horizAlign="1"/><v:tabList/>Sends Message <tspan
						x="31.9" dy="1.2em" class="st11">April</tspan></text>		</g>
		<g id="shape20-45" v:mID="20" v:groupContext="shape" transform="translate(496.151,-96.3485) rotate(45)">
			<title>Sheet.20</title>
			<path d="M0 270.24 L75.57 270.24" class="st12"/>
		</g>
		<g id="shape21-48" v:mID="21" v:groupContext="shape" transform="translate(496.151,339.829) rotate(-45) scale(1,-1)">
			<title>Sheet.21</title>
			<path d="M0 270.24 L75.57 270.24" class="st12"/>
		</g>
		<g id="shape22-51" v:mID="22" v:groupContext="shape" transform="translate(79.5,-153)">
			<title>Sheet.22</title>
			<path d="M0 270.24 L133.44 270.24" class="st13"/>
		</g>
		<g id="shape23-57" v:mID="23" v:groupContext="shape" transform="translate(32.4115,-80.5985) rotate(-45)">
			<title>Sheet.23</title>
			<path d="M0 270.24 L34.78 270.24" class="st13"/>
		</g>
		<g id="shape24-62" v:mID="24" v:groupContext="shape" transform="translate(232.5,-153)">
			<title>Sheet.24</title>
			<path d="M0 270.24 L34.44 270.24" class="st13"/>
		</g>
		<g id="shape25-67" v:mID="25" v:groupContext="shape" transform="translate(32.4115,318.454) rotate(45) scale(1,-1)">
			<title>Sheet.25</title>
			<path d="M0 270.24 L34.78 270.24" class="st15"/>
		</g>
		<g id="shape26-72" v:mID="26" v:groupContext="shape" transform="translate(414.589,342.079) rotate(-45) scale(1,-1)">
			<title>Sheet.26</title>
			<path d="M0 270.24 L32.42 270.24" class="st12"/>
		</g>
	</g>
</svg>
