<?xml version="1.0" encoding="UTF-8" standalone="no"?>
<!DOCTYPE svg PUBLIC "-//W3C//DTD SVG 1.0//EN" "http://www.w3.org/TR/2001/REC-SVG-20010904/DTD/svg10.dtd">
<!-- Generated by Microsoft Visio 11.0, SVG Export, v1.0 Recrypt-parties.svg Recrypt-parties -->
<svg xmlns="http://www.w3.org/2000/svg" xmlns:xlink="http://www.w3.org/1999/xlink" xmlns:ev="http://www.w3.org/2001/xml-events"
		xmlns:v="http://schemas.microsoft.com/visio/2003/SVGExtensions/" width="5.33471in" height="4.19083in"
		viewBox="0 0 384.099 301.74" xml:space="preserve" color-interpolation-filters="sRGB" class="st15">
	<v:documentProperties v:langID="1033" v:viewMarkup="false">
		<v:userDefs>
			<v:ud v:nameU="msvNoAutoConnect" v:val="VT0(1):26"/>
		</v:userDefs>
	</v:documentProperties>

	<style type="text/css">
	<![CDATA[
		.st1 {fill:#ffffff;stroke:#000000;stroke-linecap:round;stroke-linejoin:round;stroke-width:0.24}
		.st2 {fill:none;stroke:#000000;stroke-linecap:round;stroke-linejoin:round;stroke-width:0.24;visibility:hidden}
		.st3 {fill:#000000;font-family:Calibri;font-size:0.666664em}
		.st4 {fill:none;stroke:#000000;stroke-linecap:round;stroke-linejoin:round;stroke-width:0.24}
		.st5 {marker-end:url(#mrkr13-30);stroke:#000000;stroke-linecap:round;stroke-linejoin:round;stroke-width:1}
		.st6 {fill:#000000;fill-opacity:1;stroke:#000000;stroke-opacity:1;stroke-width:0.28409090909091}
		.st7 {fill:#ffffff;stroke:none;stroke-linecap:butt;stroke-width:7.2}
		.st8 {fill:#000000;font-family:Calibri;font-size:1.00001em}
		.st9 {fill:#ffffff;stroke:#000000;stroke-linecap:round;stroke-linejoin:round;stroke-width:0.75}
		.st10 {font-size:1em}
		.st11 {marker-start:url(#mrkr13-42);stroke:#000000;stroke-linecap:round;stroke-linejoin:round;stroke-width:1}
		.st12 {marker-end:url(#mrkr13-51);stroke:#17355d;stroke-linecap:round;stroke-linejoin:round;stroke-width:1}
		.st13 {fill:#17355d;fill-opacity:1;stroke:#17355d;stroke-opacity:1;stroke-width:0.28409090909091}
		.st14 {fill:none;stroke:none;stroke-linecap:round;stroke-linejoin:round;stroke-width:0.75}
		.st15 {fill:none;fill-rule:evenodd;font-size:12px;overflow:visible;stroke-linecap:square;stroke-miterlimit:3}
	]]>
	</style>

	<defs id="Markers">
		<g id="lend13">
			<path d="M 3 1 L 0 0 L 3 -1 L 3 1 " style="stroke:none"/>
		</g>
		<marker id="mrkr13-30" class="st6" v:arrowType="13" v:arrowSize="2" v:setback="10.56" refX="-10.56" orient="auto"
				markerUnits="strokeWidth" overflow="visible">
			<use xlink:href="#lend13" transform="scale(-3.52,-3.52) "/>
		</marker>
		<marker id="mrkr13-42" class="st6" v:arrowType="13" v:arrowSize="2" v:setback="10.2" refX="10.2" orient="auto"
				markerUnits="strokeWidth" overflow="visible">
			<use xlink:href="#lend13" transform="scale(3.52) "/>
		</marker>
		<marker id="mrkr13-51" class="st13" v:arrowType="13" v:arrowSize="2" v:setback="10.56" refX="-10.56" orient="auto"
				markerUnits="strokeWidth" overflow="visible">
			<use xlink:href="#lend13" transform="scale(-3.52,-3.52) "/>
		</marker>
	</defs>
	<g v:mID="5" v:index="3" v:groupContext="foregroundPage">
		<title>Recrypt-parties</title>
		<v:pageProperties v:drawingScale="1" v:pageScale="1" v:drawingUnits="19" v:shadowOffsetX="9" v:shadowOffsetY="-9"/>
		<v:layer v:name="Flowchart" v:index="0"/>
		<g id="group1-1" transform="translate(18.24,-229.5)" v:mID="1" v:groupContext="group" v:layerMember="0">
			<v:custProps>
				<v:cp v:nameU="Cost" v:lbl="Cost" v:type="7" v:format="@" v:langID="1033"/>
				<v:cp v:nameU="Duration" v:lbl="Duration" v:type="2" v:langID="1033"/>
				<v:cp v:nameU="Resources" v:lbl="Resources" v:langID="1033"/>
			</v:custProps>
			<v:userDefs>
				<v:ud v:nameU="visVersion" v:val="VT0(14):26"/>
			</v:userDefs>
			<title>Person 1</title>
			<g id="shape2-2" v:mID="2" v:groupContext="shape" v:layerMember="0" transform="translate(18.9177,-43.2) scale(-1,1)">
				<title>Sheet.2</title>
				<path d="M0 296.34 A5.41768 5.4 0 1 1 10.84 296.34 A5.41768 5.4 0 1 1 0 296.34 Z" class="st1"/>
			</g>
			<g id="shape3-4" v:mID="3" v:groupContext="shape" v:layerMember="0">
				<title>Sheet.3</title>
				<path d="M13.81 280.81 L20.09 301.74 L25.12 301.74 L20.09 277.44 L20.09 263.26 L23.86 274.74 L27 272.71 L22.6 258.54
							 L13.81 259.21 L5.02 258.54 L0 273.39 L3.77 274.74 L7.53 263.26 L7.53 277.44 L2.51 301.74 L7.53 301.74
							 L13.81 280.81 Z" class="st1"/>
			</g>
			<g id="shape4-6" v:mID="4" v:groupContext="shape" v:layerMember="0" transform="translate(0,18)">
				<title>Sheet.4</title>
				<desc>Sender</desc>
				<v:userDefs>
					<v:ud v:nameU="ScaleFactor" v:val="VT0(1):26"/>
				</v:userDefs>
				<v:textBlock v:margins="rect(0,0,0,0)"/>
				<v:textRect cx="13.5" cy="292.74" width="27" height="18"/>
				<rect x="0" y="283.74" width="27" height="18" class="st2"/>
				<text x="2.08" y="295.14" class="st3" v:langID="1033"><v:paragraph v:horizAlign="1"/><v:tabList/>Sender</text>			</g>
		</g>
		<g id="group5-9" transform="translate(180.24,-36)" v:mID="5" v:groupContext="group" v:layerMember="0">
			<v:custProps>
				<v:cp v:nameU="Cost" v:lbl="Cost" v:type="7" v:format="@" v:langID="1033"/>
				<v:cp v:nameU="Duration" v:lbl="Duration" v:type="2" v:langID="1033"/>
				<v:cp v:nameU="Resources" v:lbl="Resources" v:langID="1033"/>
			</v:custProps>
			<v:userDefs>
				<v:ud v:nameU="visVersion" v:val="VT0(14):26"/>
			</v:userDefs>
			<title>Person 1.5</title>
			<g id="shape6-10" v:mID="6" v:groupContext="shape" v:layerMember="0" transform="translate(18.9177,-43.2) scale(-1,1)">
				<title>Sheet.6</title>
				<path d="M0 296.34 A5.41768 5.4 0 1 1 10.84 296.34 A5.41768 5.4 0 1 1 0 296.34 Z" class="st4"/>
			</g>
			<g id="shape7-12" v:mID="7" v:groupContext="shape" v:layerMember="0">
				<title>Sheet.7</title>
				<path d="M13.81 280.81 L20.09 301.74 L25.12 301.74 L20.09 277.44 L20.09 263.26 L23.86 274.74 L27 272.71 L22.6 258.54
							 L13.81 259.21 L5.02 258.54 L0 273.39 L3.77 274.74 L7.53 263.26 L7.53 277.44 L2.51 301.74 L7.53 301.74
							 L13.81 280.81 Z" class="st4"/>
			</g>
			<g id="shape8-14" v:mID="8" v:groupContext="shape" v:layerMember="0" transform="translate(-10.0132,18)">
				<title>Sheet.8</title>
				<desc>Administrator</desc>
				<v:userDefs>
					<v:ud v:nameU="ScaleFactor" v:val="VT0(1):26"/>
				</v:userDefs>
				<v:textBlock v:margins="rect(0,0,0,0)"/>
				<v:textRect cx="23.5132" cy="292.74" width="47.03" height="18"/>
				<rect x="0" y="283.74" width="47.0265" height="18" class="st2"/>
				<text x="0.91" y="295.14" class="st3" v:langID="1033"><v:paragraph v:horizAlign="1"/><v:tabList/>Administrator</text>			</g>
		</g>
		<g id="group9-17" transform="translate(337.74,-211.5)" v:mID="9" v:groupContext="group" v:layerMember="0">
			<v:custProps>
				<v:cp v:nameU="Cost" v:lbl="Cost" v:type="7" v:format="@" v:langID="1033"/>
				<v:cp v:nameU="Duration" v:lbl="Duration" v:type="2" v:langID="1033"/>
				<v:cp v:nameU="Resources" v:lbl="Resources" v:langID="1033"/>
			</v:custProps>
			<v:userDefs>
				<v:ud v:nameU="visVersion" v:val="VT0(14):26"/>
			</v:userDefs>
			<title>Person 1.9</title>
			<g id="shape10-18" v:mID="10" v:groupContext="shape" v:layerMember="0" transform="translate(18.9177,-43.2) scale(-1,1)">
				<title>Sheet.10</title>
				<path d="M0 296.34 A5.41768 5.4 0 1 1 10.84 296.34 A5.41768 5.4 0 1 1 0 296.34 Z" class="st4"/>
			</g>
			<g id="shape11-20" v:mID="11" v:groupContext="shape" v:layerMember="0">
				<title>Sheet.11</title>
				<path d="M13.81 280.81 L20.09 301.74 L25.12 301.74 L20.09 277.44 L20.09 263.26 L23.86 274.74 L27 272.71 L22.6 258.54
							 L13.81 259.21 L5.02 258.54 L0 273.39 L3.77 274.74 L7.53 263.26 L7.53 277.44 L2.51 301.74 L7.53 301.74
							 L13.81 280.81 Z" class="st4"/>
			</g>
			<g id="shape12-22" v:mID="12" v:groupContext="shape" v:layerMember="0" transform="translate(-1.35902,18)">
				<title>Sheet.12</title>
				<desc>Receiver</desc>
				<v:userDefs>
					<v:ud v:nameU="ScaleFactor" v:val="VT0(1):26"/>
				</v:userDefs>
				<v:textBlock v:margins="rect(0,0,0,0)"/>
				<v:textRect cx="14.859" cy="292.74" width="29.72" height="18"/>
				<rect x="0" y="283.74" width="29.718" height="18" class="st2"/>
				<text x="0.91" y="295.14" class="st3" v:langID="1033"><v:paragraph v:horizAlign="1"/><v:tabList/>Receiver</text>			</g>
		</g>
		<g id="shape22-25" v:mID="22" v:groupContext="shape" transform="translate(67.74,-256.5)">
			<title>Sheet.22</title>
			<desc>Message</desc>
			<v:textBlock v:margins="rect(4,4,4,4)" v:verticalAlign="2"/>
			<v:textRect cx="126" cy="301.74" width="252" height="0"/>
			<path d="M0 301.74 L241.44 301.74" class="st5"/>
			<rect v:rectContext="textBkgnd" x="104.508" y="283.34" width="42.9846" height="14.4001" class="st7"/>
			<text x="104.51" y="294.14" class="st8" v:langID="1033"><v:paragraph v:horizAlign="1"/><v:tabList/>Message</text>		</g>
		<g id="shape13-33" v:mID="13" v:groupContext="shape" transform="translate(157.74,-166.5)">
			<title>Sheet.13</title>
			<desc>Recryption Service</desc>
			<v:textBlock v:margins="rect(4,4,4,4)"/>
			<v:textRect cx="36" cy="283.74" width="72" height="36"/>
			<rect x="0" y="265.74" width="72" height="36" class="st9"/>
			<text x="9.56" y="280.14" class="st8" v:langID="1033"><v:paragraph v:horizAlign="1"/><v:tabList/>Recryption <tspan
						x="18.56" dy="1.2em" class="st10">Service</tspan></text>		</g>
		<g id="shape14-37" v:mID="14" v:groupContext="shape" transform="translate(116.192,-167.493) rotate(-23.9625)">
			<title>Sheet.14</title>
			<desc>Request Recryption</desc>
			<v:textBlock v:margins="rect(4,4,4,4)" v:verticalAlign="2"/>
			<v:textRect cx="44.3199" cy="301.74" width="88.64" height="0"/>
			<path d="M10.2 301.74 L10.56 301.74 L88.64 301.74" class="st11"/>
			<rect v:rectContext="textBkgnd" x="17.8761" y="268.94" width="52.8874" height="28.8001" class="st7"/>
			<text x="24.43" y="279.74" class="st8" v:langID="1033"><v:paragraph v:horizAlign="1"/><v:tabList/>Request <tspan
						x="17.88" dy="1.2em" class="st10">Recryption</tspan></text>		</g>
		<g id="shape15-46" v:mID="15" v:groupContext="shape" transform="translate(-108,202.74) rotate(-90)">
			<title>Sheet.15</title>
			<path d="M0 301.74 L47.94 301.74" class="st12"/>
		</g>
		<g id="shape16-52" v:mID="16" v:groupContext="shape" transform="translate(198.99,-102.987)">
			<title>Sheet.16</title>
			<desc>Manage Group Membership</desc>
			<v:textBlock v:margins="rect(4,4,4,4)"/>
			<v:textRect cx="48.75" cy="283.483" width="97.5" height="36.5132"/>
			<rect x="0" y="265.227" width="97.5" height="36.5132" class="st14"/>
			<text x="4" y="279.88" class="st8" v:langID="1033"><v:paragraph/><v:tabList/>Manage Group <tspan x="4" dy="1.2em"
						class="st10">Membership</tspan></text>		</g>
		<g id="shape17-56" v:mID="17" v:groupContext="shape" transform="translate(116.192,-149.493) rotate(-23.9625)">
			<title>Sheet.17</title>
			<desc>Recryption Data</desc>
			<v:textBlock v:margins="rect(4,4,4,4)" v:verticalAlign="0"/>
			<v:textRect cx="44.3199" cy="301.74" width="88.64" height="0"/>
			<path d="M0 301.74 L78.08 301.74" class="st5"/>
			<rect v:rectContext="textBkgnd" x="17.8761" y="305.74" width="52.8874" height="28.8001" class="st7"/>
			<text x="17.88" y="316.54" class="st8" v:langID="1033"><v:paragraph v:horizAlign="1"/><v:tabList/>Recryption<v:newlineChar/><tspan
						x="32.87" dy="1.2em" class="st10">Data</tspan></text>		</g>
	</g>
</svg>
