<?xml version="1.0" encoding="UTF-8" standalone="no"?>
<!DOCTYPE svg PUBLIC "-//W3C//DTD SVG 1.0//EN" "http://www.w3.org/TR/2001/REC-SVG-20010904/DTD/svg10.dtd">
<!-- Generated by Microsoft Visio 11.0, SVG Export, v1.0 Tree.svg Page-1 -->
<svg xmlns="http://www.w3.org/2000/svg" xmlns:xlink="http://www.w3.org/1999/xlink" xmlns:ev="http://www.w3.org/2001/xml-events"
		xmlns:v="http://schemas.microsoft.com/visio/2003/SVGExtensions/" width="6.54514in" height="5.60417in"
		viewBox="0 0 471.25 403.5" xml:space="preserve" color-interpolation-filters="sRGB" class="st8">
	<v:documentProperties v:langID="1033" v:viewMarkup="false">
		<v:userDefs>
			<v:ud v:nameU="msvNoAutoConnect" v:val="VT0(1):26"/>
		</v:userDefs>
	</v:documentProperties>

	<style type="text/css">
	<![CDATA[
		.st1 {stroke:#000000;stroke-linecap:round;stroke-linejoin:round;stroke-width:0.75}
		.st2 {fill:#ffffff;stroke:#000000;stroke-linecap:round;stroke-linejoin:round;stroke-width:0.75}
		.st3 {fill:#000000;font-family:Calibri;font-size:1.00001em}
		.st4 {fill:none;stroke:none;stroke-linecap:round;stroke-linejoin:round;stroke-width:0.75}
		.st5 {fill:#ff0000;font-family:Calibri;font-size:1.00001em}
		.st6 {fill:#7030a0;font-family:Calibri;font-size:1.00001em;font-weight:bold}
		.st7 {stroke:#000000;stroke-dasharray:1.75,1.25;stroke-linecap:round;stroke-linejoin:round;stroke-width:0.25}
		.st8 {fill:none;fill-rule:evenodd;font-size:12px;overflow:visible;stroke-linecap:square;stroke-miterlimit:3}
	]]>
	</style>

	<g v:mID="0" v:index="1" v:groupContext="foregroundPage">
		<title>Page-1</title>
		<v:pageProperties v:drawingScale="1" v:pageScale="1" v:drawingUnits="19" v:shadowOffsetX="9" v:shadowOffsetY="-9"/>
		<v:layer v:name="Connector" v:index="0"/>
		<g id="shape26-1" v:mID="26" v:groupContext="shape" transform="translate(-91.5715,-231.482) rotate(-33.6901)">
			<title>Sheet.26</title>
			<path d="M0 403.5 L129.8 403.5" class="st1"/>
		</g>
		<g id="shape27-4" v:mID="27" v:groupContext="shape" transform="translate(117.059,437.028) rotate(-145.561)">
			<title>Sheet.27</title>
			<path d="M0 403.5 L127.31 403.5" class="st1"/>
		</g>
		<g id="shape8-7" v:mID="8" v:groupContext="shape" transform="translate(226.75,-357.75)">
			<title>Sheet.8</title>
			<desc>7</desc>
			<v:textBlock v:margins="rect(4,4,4,4)"/>
			<v:textRect cx="13.5" cy="390" width="27" height="27"/>
			<ellipse cx="13.5" cy="390" rx="13.5" ry="13.5" class="st2"/>
			<text x="10.46" y="393.6" class="st3" v:langID="1033"><v:paragraph v:horizAlign="1"/><v:tabList/>7</text>		</g>
		<g id="shape10-10" v:mID="10" v:groupContext="shape" transform="translate(-326.559,106.572) rotate(-69.444)">
			<title>Sheet.10</title>
			<path d="M0 403.5 L76.9 403.5" class="st1"/>
		</g>
		<g id="shape11-13" v:mID="11" v:groupContext="shape" transform="translate(78.25,-155.25)">
			<title>Sheet.11</title>
			<path d="M27 403.5 L0 331.5 L54 259.5" class="st1"/>
		</g>
		<g id="shape12-16" v:mID="12" v:groupContext="shape" transform="translate(-218.559,106.572) rotate(-69.444)">
			<title>Sheet.12</title>
			<path d="M0 403.5 L76.9 403.5" class="st1"/>
		</g>
		<g id="shape13-19" v:mID="13" v:groupContext="shape" transform="translate(132.25,-155.25)">
			<title>Sheet.13</title>
			<path d="M81 403.5 L54 331.5 L0 259.5" class="st1"/>
		</g>
		<g id="shape1-22" v:mID="1" v:groupContext="shape" transform="translate(37.75,-141.75)">
			<title>Sheet.1</title>
			<desc>0</desc>
			<v:textBlock v:margins="rect(4,4,4,4)"/>
			<v:textRect cx="13.5" cy="390" width="27" height="27"/>
			<ellipse cx="13.5" cy="390" rx="13.5" ry="13.5" class="st2"/>
			<text x="10.46" y="393.6" class="st3" v:langID="1033"><v:paragraph v:horizAlign="1"/><v:tabList/>0</text>		</g>
		<g id="shape2-25" v:mID="2" v:groupContext="shape" transform="translate(91.625,-141.75)">
			<title>Sheet.2</title>
			<desc>1</desc>
			<v:textBlock v:margins="rect(4,4,4,4)"/>
			<v:textRect cx="13.5" cy="390" width="27" height="27"/>
			<ellipse cx="13.5" cy="390" rx="13.5" ry="13.5" class="st2"/>
			<text x="10.46" y="393.6" class="st3" v:langID="1033"><v:paragraph v:horizAlign="1"/><v:tabList/>1</text>		</g>
		<g id="shape3-28" v:mID="3" v:groupContext="shape" transform="translate(145.75,-141.75)">
			<title>Sheet.3</title>
			<desc>2</desc>
			<v:textBlock v:margins="rect(4,4,4,4)"/>
			<v:textRect cx="13.5" cy="390" width="27" height="27"/>
			<ellipse cx="13.5" cy="390" rx="13.5" ry="13.5" class="st2"/>
			<text x="10.46" y="393.6" class="st3" v:langID="1033"><v:paragraph v:horizAlign="1"/><v:tabList/>2</text>		</g>
		<g id="shape4-31" v:mID="4" v:groupContext="shape" transform="translate(199.625,-141.75)">
			<title>Sheet.4</title>
			<desc>3</desc>
			<v:textBlock v:margins="rect(4,4,4,4)"/>
			<v:textRect cx="13.5" cy="390" width="27" height="27"/>
			<ellipse cx="13.5" cy="390" rx="13.5" ry="13.5" class="st2"/>
			<text x="10.46" y="393.6" class="st3" v:langID="1033"><v:paragraph v:horizAlign="1"/><v:tabList/>3</text>		</g>
		<g id="shape5-34" v:mID="5" v:groupContext="shape" transform="translate(64.75,-213.75)">
			<title>Sheet.5</title>
			<desc>1</desc>
			<v:textBlock v:margins="rect(4,4,4,4)"/>
			<v:textRect cx="13.5" cy="390" width="27" height="27"/>
			<ellipse cx="13.5" cy="390" rx="13.5" ry="13.5" class="st2"/>
			<text x="10.46" y="393.6" class="st3" v:langID="1033"><v:paragraph v:horizAlign="1"/><v:tabList/>1</text>		</g>
		<g id="shape6-37" v:mID="6" v:groupContext="shape" transform="translate(172.75,-213.75)">
			<title>Sheet.6</title>
			<desc>3</desc>
			<v:textBlock v:margins="rect(4,4,4,4)"/>
			<v:textRect cx="13.5" cy="390" width="27" height="27"/>
			<ellipse cx="13.5" cy="390" rx="13.5" ry="13.5" class="st2"/>
			<text x="10.46" y="393.6" class="st3" v:langID="1033"><v:paragraph v:horizAlign="1"/><v:tabList/>3</text>		</g>
		<g id="shape7-40" v:mID="7" v:groupContext="shape" transform="translate(118.75,-285.75)">
			<title>Sheet.7</title>
			<desc>3</desc>
			<v:textBlock v:margins="rect(4,4,4,4)"/>
			<v:textRect cx="13.5" cy="390" width="27" height="27"/>
			<ellipse cx="13.5" cy="390" rx="13.5" ry="13.5" class="st2"/>
			<text x="10.46" y="393.6" class="st3" v:langID="1033"><v:paragraph v:horizAlign="1"/><v:tabList/>3</text>		</g>
		<g id="shape14-43" v:mID="14" v:groupContext="shape" transform="translate(-113.559,106.572) rotate(-69.444)">
			<title>Sheet.14</title>
			<path d="M0 403.5 L76.9 403.5" class="st1"/>
		</g>
		<g id="shape15-46" v:mID="15" v:groupContext="shape" transform="translate(291.25,-155.25)">
			<title>Sheet.15</title>
			<path d="M27 403.5 L0 331.5 L54 259.5" class="st1"/>
		</g>
		<g id="shape16-49" v:mID="16" v:groupContext="shape" transform="translate(-5.55882,106.572) rotate(-69.444)">
			<title>Sheet.16</title>
			<path d="M0 403.5 L76.9 403.5" class="st1"/>
		</g>
		<g id="shape17-52" v:mID="17" v:groupContext="shape" transform="translate(345.25,-155.25)">
			<title>Sheet.17</title>
			<path d="M81 403.5 L54 331.5 L0 259.5" class="st1"/>
		</g>
		<g id="shape19-55" v:mID="19" v:groupContext="shape" transform="translate(250.75,-141.75)">
			<title>Sheet.19</title>
			<desc>4</desc>
			<v:textBlock v:margins="rect(4,4,4,4)"/>
			<v:textRect cx="13.5" cy="390" width="27" height="27"/>
			<ellipse cx="13.5" cy="390" rx="13.5" ry="13.5" class="st2"/>
			<text x="10.46" y="393.6" class="st3" v:langID="1033"><v:paragraph v:horizAlign="1"/><v:tabList/>4</text>		</g>
		<g id="shape20-58" v:mID="20" v:groupContext="shape" transform="translate(304.625,-141.75)">
			<title>Sheet.20</title>
			<desc>5</desc>
			<v:textBlock v:margins="rect(4,4,4,4)"/>
			<v:textRect cx="13.5" cy="390" width="27" height="27"/>
			<ellipse cx="13.5" cy="390" rx="13.5" ry="13.5" class="st2"/>
			<text x="10.46" y="393.6" class="st3" v:langID="1033"><v:paragraph v:horizAlign="1"/><v:tabList/>5</text>		</g>
		<g id="shape21-61" v:mID="21" v:groupContext="shape" transform="translate(358.75,-141.75)">
			<title>Sheet.21</title>
			<desc>6</desc>
			<v:textBlock v:margins="rect(4,4,4,4)"/>
			<v:textRect cx="13.5" cy="390" width="27" height="27"/>
			<ellipse cx="13.5" cy="390" rx="13.5" ry="13.5" class="st2"/>
			<text x="10.46" y="393.6" class="st3" v:langID="1033"><v:paragraph v:horizAlign="1"/><v:tabList/>6</text>		</g>
		<g id="shape22-64" v:mID="22" v:groupContext="shape" transform="translate(412.625,-141.75)">
			<title>Sheet.22</title>
			<desc>7</desc>
			<v:textBlock v:margins="rect(4,4,4,4)"/>
			<v:textRect cx="13.5" cy="390" width="27" height="27"/>
			<ellipse cx="13.5" cy="390" rx="13.5" ry="13.5" class="st2"/>
			<text x="10.46" y="393.6" class="st3" v:langID="1033"><v:paragraph v:horizAlign="1"/><v:tabList/>7</text>		</g>
		<g id="shape23-67" v:mID="23" v:groupContext="shape" transform="translate(277.75,-213.75)">
			<title>Sheet.23</title>
			<desc>5</desc>
			<v:textBlock v:margins="rect(4,4,4,4)"/>
			<v:textRect cx="13.5" cy="390" width="27" height="27"/>
			<ellipse cx="13.5" cy="390" rx="13.5" ry="13.5" class="st2"/>
			<text x="10.46" y="393.6" class="st3" v:langID="1033"><v:paragraph v:horizAlign="1"/><v:tabList/>5</text>		</g>
		<g id="shape24-70" v:mID="24" v:groupContext="shape" transform="translate(385.75,-213.75)">
			<title>Sheet.24</title>
			<desc>7</desc>
			<v:textBlock v:margins="rect(4,4,4,4)"/>
			<v:textRect cx="13.5" cy="390" width="27" height="27"/>
			<ellipse cx="13.5" cy="390" rx="13.5" ry="13.5" class="st2"/>
			<text x="10.46" y="393.6" class="st3" v:langID="1033"><v:paragraph v:horizAlign="1"/><v:tabList/>7</text>		</g>
		<g id="shape25-73" v:mID="25" v:groupContext="shape" transform="translate(331.75,-285.75)">
			<title>Sheet.25</title>
			<desc>7</desc>
			<v:textBlock v:margins="rect(4,4,4,4)"/>
			<v:textRect cx="13.5" cy="390" width="27" height="27"/>
			<ellipse cx="13.5" cy="390" rx="13.5" ry="13.5" class="st2"/>
			<text x="10.46" y="393.6" class="st3" v:langID="1033"><v:paragraph v:horizAlign="1"/><v:tabList/>7</text>		</g>
		<g id="shape9-76" v:mID="9" v:groupContext="shape" transform="translate(30.75,-109.25)">
			<title>Sheet.9</title>
			<desc>0000</desc>
			<v:textBlock v:margins="rect(4,4,4,4)"/>
			<v:textRect cx="20.375" cy="393.5" width="40.75" height="20"/>
			<rect x="0" y="383.5" width="40.75" height="20" class="st4"/>
			<text x="8.21" y="397.1" class="st3" v:langID="1033"><v:paragraph v:horizAlign="1"/><v:tabList/>0000</text>		</g>
		<g id="shape18-79" v:mID="18" v:groupContext="shape" transform="translate(84.75,-109.25)">
			<title>Sheet.18</title>
			<desc>0001</desc>
			<v:textBlock v:margins="rect(4,4,4,4)"/>
			<v:textRect cx="20.375" cy="393.5" width="40.75" height="20"/>
			<rect x="0" y="383.5" width="40.75" height="20" class="st4"/>
			<text x="8.21" y="397.1" class="st3" v:langID="1033"><v:paragraph v:horizAlign="1"/><v:tabList/>0001</text>		</g>
		<g id="shape28-82" v:mID="28" v:groupContext="shape" transform="translate(138.75,-109.25)">
			<title>Sheet.28</title>
			<desc>0010</desc>
			<v:textBlock v:margins="rect(4,4,4,4)"/>
			<v:textRect cx="20.375" cy="393.5" width="40.75" height="20"/>
			<rect x="0" y="383.5" width="40.75" height="20" class="st4"/>
			<text x="8.21" y="397.1" class="st3" v:langID="1033"><v:paragraph v:horizAlign="1"/><v:tabList/>0010</text>		</g>
		<g id="shape29-85" v:mID="29" v:groupContext="shape" transform="translate(192.75,-109.25)">
			<title>Sheet.29</title>
			<desc>0011</desc>
			<v:textBlock v:margins="rect(4,4,4,4)"/>
			<v:textRect cx="20.375" cy="393.5" width="40.75" height="20"/>
			<rect x="0" y="383.5" width="40.75" height="20" class="st4"/>
			<text x="8.21" y="397.1" class="st3" v:langID="1033"><v:paragraph v:horizAlign="1"/><v:tabList/>0011</text>		</g>
		<g id="shape30-88" v:mID="30" v:groupContext="shape" transform="translate(243.75,-109.25)">
			<title>Sheet.30</title>
			<desc>0100</desc>
			<v:textBlock v:margins="rect(4,4,4,4)"/>
			<v:textRect cx="20.375" cy="393.5" width="40.75" height="20"/>
			<rect x="0" y="383.5" width="40.75" height="20" class="st4"/>
			<text x="8.21" y="397.1" class="st3" v:langID="1033"><v:paragraph v:horizAlign="1"/><v:tabList/>0100</text>		</g>
		<g id="shape31-91" v:mID="31" v:groupContext="shape" transform="translate(297.75,-109.25)">
			<title>Sheet.31</title>
			<desc>0101</desc>
			<v:textBlock v:margins="rect(4,4,4,4)"/>
			<v:textRect cx="20.375" cy="393.5" width="40.75" height="20"/>
			<rect x="0" y="383.5" width="40.75" height="20" class="st4"/>
			<text x="8.21" y="397.1" class="st3" v:langID="1033"><v:paragraph v:horizAlign="1"/><v:tabList/>0101</text>		</g>
		<g id="shape32-94" v:mID="32" v:groupContext="shape" transform="translate(351.75,-109.25)">
			<title>Sheet.32</title>
			<desc>0110</desc>
			<v:textBlock v:margins="rect(4,4,4,4)"/>
			<v:textRect cx="20.375" cy="393.5" width="40.75" height="20"/>
			<rect x="0" y="383.5" width="40.75" height="20" class="st4"/>
			<text x="8.21" y="397.1" class="st3" v:langID="1033"><v:paragraph v:horizAlign="1"/><v:tabList/>0110</text>		</g>
		<g id="shape33-97" v:mID="33" v:groupContext="shape" transform="translate(405.75,-109.25)">
			<title>Sheet.33</title>
			<desc>0111</desc>
			<v:textBlock v:margins="rect(4,4,4,4)"/>
			<v:textRect cx="20.375" cy="393.5" width="40.75" height="20"/>
			<rect x="0" y="383.5" width="40.75" height="20" class="st4"/>
			<text x="8.21" y="397.1" class="st3" v:langID="1033"><v:paragraph v:horizAlign="1"/><v:tabList/>0111</text>		</g>
		<g id="shape34-100" v:mID="34" v:groupContext="shape" transform="translate(342.5,-216.5)">
			<title>Sheet.34</title>
			<desc>(0110)</desc>
			<v:textBlock v:margins="rect(4,4,4,4)"/>
			<v:textRect cx="20.375" cy="393.5" width="40.75" height="20"/>
			<rect x="0" y="383.5" width="40.75" height="20" class="st4"/>
			<text x="4.57" y="397.1" class="st3" v:langID="1033"><v:paragraph v:horizAlign="1"/><v:tabList/>(0110)</text>		</g>
		<g id="shape35-103" v:mID="35" v:groupContext="shape" transform="translate(288.5,-287.5)">
			<title>Sheet.35</title>
			<desc>0101</desc>
			<v:textBlock v:margins="rect(4,4,4,4)"/>
			<v:textRect cx="20.375" cy="393.5" width="40.75" height="20"/>
			<rect x="0" y="383.5" width="40.75" height="20" class="st4"/>
			<text x="8.21" y="397.1" class="st3" v:langID="1033"><v:paragraph v:horizAlign="1"/><v:tabList/>0101</text>		</g>
		<g id="shape36-106" v:mID="36" v:groupContext="shape" transform="translate(180.75,-359.5)">
			<title>Sheet.36</title>
			<desc>0011</desc>
			<v:textBlock v:margins="rect(4,4,4,4)"/>
			<v:textRect cx="20.375" cy="393.5" width="40.75" height="20"/>
			<rect x="0" y="383.5" width="40.75" height="20" class="st4"/>
			<text x="8.21" y="397.1" class="st3" v:langID="1033"><v:paragraph v:horizAlign="1"/><v:tabList/>0011</text>		</g>
		<g id="shape37-109" v:mID="37" v:groupContext="shape" transform="translate(72.625,-287.5)">
			<title>Sheet.37</title>
			<desc>0001</desc>
			<v:textBlock v:margins="rect(4,4,4,4)"/>
			<v:textRect cx="20.375" cy="393.5" width="40.75" height="20"/>
			<rect x="0" y="383.5" width="40.75" height="20" class="st4"/>
			<text x="8.21" y="397.1" class="st3" v:langID="1033"><v:paragraph v:horizAlign="1"/><v:tabList/>0001</text>		</g>
		<g id="shape38-112" v:mID="38" v:groupContext="shape" transform="translate(126.625,-215.5)">
			<title>Sheet.38</title>
			<desc>(0010)</desc>
			<v:textBlock v:margins="rect(4,4,4,4)"/>
			<v:textRect cx="20.375" cy="393.5" width="40.75" height="20"/>
			<rect x="0" y="383.5" width="40.75" height="20" class="st4"/>
			<text x="4.57" y="397.1" class="st3" v:langID="1033"><v:paragraph v:horizAlign="1"/><v:tabList/>(0010)</text>		</g>
		<g id="shape39-115" v:mID="39" v:groupContext="shape" transform="translate(405.75,-80.5)">
			<title>Sheet.39</title>
			<desc>(0110)</desc>
			<v:textBlock v:margins="rect(4,4,4,4)"/>
			<v:textRect cx="20.375" cy="393.5" width="40.75" height="20"/>
			<rect x="0" y="383.5" width="40.75" height="20" class="st4"/>
			<text x="4.57" y="397.1" class="st5" v:langID="1033"><v:paragraph v:horizAlign="1"/><v:tabList/>(0110)</text>		</g>
		<g id="shape40-118" v:mID="40" v:groupContext="shape" transform="translate(405.75,-62.5)">
			<title>Sheet.40</title>
			<desc>0101</desc>
			<v:textBlock v:margins="rect(4,4,4,4)"/>
			<v:textRect cx="20.375" cy="393.5" width="40.75" height="20"/>
			<rect x="0" y="383.5" width="40.75" height="20" class="st4"/>
			<text x="8.21" y="397.1" class="st5" v:langID="1033"><v:paragraph v:horizAlign="1"/><v:tabList/>0101</text>		</g>
		<g id="shape41-121" v:mID="41" v:groupContext="shape" transform="translate(405.75,-44.5)">
			<title>Sheet.41</title>
			<desc>0011</desc>
			<v:textBlock v:margins="rect(4,4,4,4)"/>
			<v:textRect cx="20.375" cy="393.5" width="40.75" height="20"/>
			<rect x="0" y="383.5" width="40.75" height="20" class="st4"/>
			<text x="8.21" y="397.1" class="st5" v:langID="1033"><v:paragraph v:horizAlign="1"/><v:tabList/>0011</text>		</g>
		<g id="shape42-124" v:mID="42" v:groupContext="shape" transform="translate(192.75,-80.5)">
			<title>Sheet.42</title>
			<desc>(0010)</desc>
			<v:textBlock v:margins="rect(4,4,4,4)"/>
			<v:textRect cx="20.375" cy="393.5" width="40.75" height="20"/>
			<rect x="0" y="383.5" width="40.75" height="20" class="st4"/>
			<text x="4.57" y="397.1" class="st5" v:langID="1033"><v:paragraph v:horizAlign="1"/><v:tabList/>(0010)</text>		</g>
		<g id="shape43-127" v:mID="43" v:groupContext="shape" transform="translate(192.75,-62.5)">
			<title>Sheet.43</title>
			<desc>0001</desc>
			<v:textBlock v:margins="rect(4,4,4,4)"/>
			<v:textRect cx="20.375" cy="393.5" width="40.75" height="20"/>
			<rect x="0" y="383.5" width="40.75" height="20" class="st4"/>
			<text x="8.21" y="397.1" class="st5" v:langID="1033"><v:paragraph v:horizAlign="1"/><v:tabList/>0001</text>		</g>
		<g id="shape44-130" v:mID="44" v:groupContext="shape" transform="translate(84.75,-80.5)">
			<title>Sheet.44</title>
			<desc>(0000)</desc>
			<v:textBlock v:margins="rect(4,4,4,4)"/>
			<v:textRect cx="20.375" cy="393.5" width="40.75" height="20"/>
			<rect x="0" y="383.5" width="40.75" height="20" class="st4"/>
			<text x="4.57" y="397.1" class="st5" v:langID="1033"><v:paragraph v:horizAlign="1"/><v:tabList/>(0000)</text>		</g>
		<g id="shape45-133" v:mID="45" v:groupContext="shape" transform="translate(297.75,-80.5)">
			<title>Sheet.45</title>
			<desc>(0100)</desc>
			<v:textBlock v:margins="rect(4,4,4,4)"/>
			<v:textRect cx="20.375" cy="393.5" width="40.75" height="20"/>
			<rect x="0" y="383.5" width="40.75" height="20" class="st4"/>
			<text x="4.57" y="397.1" class="st5" v:langID="1033"><v:paragraph v:horizAlign="1"/><v:tabList/>(0100)</text>		</g>
		<g id="shape46-136" v:mID="46" v:groupContext="shape" transform="translate(234.5,-215.5)">
			<title>Sheet.46</title>
			<desc>(0100)</desc>
			<v:textBlock v:margins="rect(4,4,4,4)"/>
			<v:textRect cx="20.375" cy="393.5" width="40.75" height="20"/>
			<rect x="0" y="383.5" width="40.75" height="20" class="st4"/>
			<text x="4.57" y="397.1" class="st3" v:langID="1033"><v:paragraph v:horizAlign="1"/><v:tabList/>(0100)</text>		</g>
		<g id="shape47-139" v:mID="47" v:groupContext="shape" transform="translate(18.75,-216.5)">
			<title>Sheet.47</title>
			<desc>(0000)</desc>
			<v:textBlock v:margins="rect(4,4,4,4)"/>
			<v:textRect cx="20.375" cy="393.5" width="40.75" height="20"/>
			<rect x="0" y="383.5" width="40.75" height="20" class="st4"/>
			<text x="4.57" y="397.1" class="st3" v:langID="1033"><v:paragraph v:horizAlign="1"/><v:tabList/>(0000)</text>		</g>
		<g id="shape49-142" v:mID="49" v:groupContext="shape" transform="translate(297.625,-18.75)">
			<title>Sheet.49</title>
			<desc>0011</desc>
			<v:textBlock v:margins="rect(4,4,4,4)"/>
			<v:textRect cx="20.375" cy="393.5" width="40.75" height="20"/>
			<rect x="0" y="383.5" width="40.75" height="20" class="st4"/>
			<text x="8.21" y="397.1" class="st6" v:langID="1033"><v:paragraph v:horizAlign="1"/><v:tabList/>0011</text>		</g>
		<g id="shape50-145" v:mID="50" v:groupContext="shape" transform="translate(243.625,-18.75)">
			<title>Sheet.50</title>
			<desc>0011</desc>
			<v:textBlock v:margins="rect(4,4,4,4)"/>
			<v:textRect cx="20.375" cy="393.5" width="40.75" height="20"/>
			<rect x="0" y="383.5" width="40.75" height="20" class="st4"/>
			<text x="8.21" y="397.1" class="st6" v:langID="1033"><v:paragraph v:horizAlign="1"/><v:tabList/>0011</text>		</g>
		<g id="shape51-148" v:mID="51" v:groupContext="shape" transform="translate(351.75,-18.75)">
			<title>Sheet.51</title>
			<desc>(0101)</desc>
			<v:textBlock v:margins="rect(4,4,4,4)"/>
			<v:textRect cx="20.375" cy="393.5" width="40.75" height="20"/>
			<rect x="0" y="383.5" width="40.75" height="20" class="st4"/>
			<text x="4.47" y="397.1" class="st6" v:langID="1033"><v:paragraph v:horizAlign="1"/><v:tabList/>(0101)</text>		</g>
		<g id="shape48-151" v:mID="48" v:groupContext="shape" transform="translate(135.625,-18.75)">
			<title>Sheet.48</title>
			<desc>(0001)</desc>
			<v:textBlock v:margins="rect(4,4,4,4)"/>
			<v:textRect cx="20.375" cy="393.5" width="40.75" height="20"/>
			<rect x="0" y="383.5" width="40.75" height="20" class="st4"/>
			<text x="4.47" y="397.1" class="st6" v:langID="1033"><v:paragraph v:horizAlign="1"/><v:tabList/>(0001)</text>		</g>
		<g id="shape52-154" v:mID="52" v:groupContext="shape" transform="translate(30,-105.25)">
			<title>Sheet.52</title>
			<path d="M0 403.5 L423 403.5" class="st7"/>
		</g>
		<g id="shape53-157" v:mID="53" v:groupContext="shape" transform="translate(27.75,-42.25)">
			<title>Sheet.53</title>
			<path d="M0 403.5 L423 403.5" class="st7"/>
		</g>
	</g>
</svg>
