<?xml version="1.0" encoding="UTF-8" standalone="no"?>
<!DOCTYPE svg PUBLIC "-//W3C//DTD SVG 1.0//EN" "http://www.w3.org/TR/2001/REC-SVG-20010904/DTD/svg10.dtd">
<!-- Generated by Microsoft Visio 11.0, SVG Export, v1.0 portal.svg portal -->
<svg xmlns="http://www.w3.org/2000/svg" xmlns:xlink="http://www.w3.org/1999/xlink" xmlns:ev="http://www.w3.org/2001/xml-events"
		xmlns:v="http://schemas.microsoft.com/visio/2003/SVGExtensions/" width="5.55157in" height="4.07292in"
		viewBox="0 0 399.713 293.25" xml:space="preserve" color-interpolation-filters="sRGB" class="st27">
	<v:documentProperties v:langID="1033" v:viewMarkup="false">
		<v:userDefs>
			<v:ud v:nameU="msvNoAutoConnect" v:val="VT0(1):26"/>
		</v:userDefs>
	</v:documentProperties>

	<style type="text/css">
	<![CDATA[
		.st1 {fill:#ffffff;stroke:#000000;stroke-linecap:round;stroke-linejoin:round;stroke-width:1}
		.st2 {fill:#000000;font-family:Calibri;font-size:1.00001em}
		.st3 {fill:#ff00ff;fill-opacity:0}
		.st4 {stroke:#000000;stroke-linecap:round;stroke-linejoin:round;stroke-opacity:0;stroke-width:0.72}
		.st5 {fill:url(#grad36-11);stroke:none;stroke-linecap:round;stroke-linejoin:round;stroke-width:0.72}
		.st6 {fill:url(#grad26-15);stroke:none;stroke-linecap:round;stroke-linejoin:round;stroke-width:0.72}
		.st7 {fill:url(#grad30-19);stroke:#ffffff;stroke-linecap:round;stroke-linejoin:round;stroke-width:0.72}
		.st8 {stroke:#ffffff;stroke-linecap:round;stroke-linejoin:round;stroke-width:0.72}
		.st9 {fill:url(#grad40-27);stroke:#000000;stroke-linecap:round;stroke-linejoin:round;stroke-width:0.12}
		.st10 {fill:url(#grad35-31);stroke:#000000;stroke-linecap:round;stroke-linejoin:round;stroke-width:0.72}
		.st11 {fill:#ffffff;stroke:#000000;stroke-linecap:round;stroke-linejoin:round;stroke-width:0.24}
		.st12 {stroke:#000000;stroke-linecap:round;stroke-linejoin:round;stroke-width:1.5}
		.st13 {fill:url(#grad29-44);stroke:#000000;stroke-linecap:round;stroke-linejoin:round;stroke-width:0.72}
		.st14 {fill:#ff00ff;fill-opacity:0;stroke:#000000;stroke-linecap:round;stroke-linejoin:round;stroke-opacity:0;stroke-width:0.72}
		.st15 {fill:url(#grad31-51);stroke:#ffffff;stroke-linecap:round;stroke-linejoin:round;stroke-width:0.72}
		.st16 {fill:url(#grad32-66);stroke:#000000;stroke-linecap:round;stroke-linejoin:round;stroke-width:0.72}
		.st17 {stroke:#000000;stroke-linecap:round;stroke-linejoin:round;stroke-width:0.72}
		.st18 {fill:#ffffff;stroke:none;stroke-linecap:round;stroke-linejoin:round;stroke-width:0.24}
		.st19 {fill:#969696;fill-opacity:0.3;stroke:none;stroke-linecap:round;stroke-linejoin:round;stroke-width:0.72}
		.st20 {fill:none;stroke:#000000;stroke-linecap:round;stroke-linejoin:round;stroke-width:1.5}
		.st21 {stroke:#000000;stroke-dasharray:11.25,6.75;stroke-linecap:round;stroke-linejoin:round;stroke-width:0.75}
		.st22 {marker-end:url(#mrkr13-103);stroke:#000000;stroke-linecap:round;stroke-linejoin:round;stroke-width:1}
		.st23 {fill:#000000;fill-opacity:1;stroke:#000000;stroke-opacity:1;stroke-width:0.28409090909091}
		.st24 {fill:#ffffff;stroke:none;stroke-linecap:butt;stroke-width:7.2}
		.st25 {marker-start:url(#mrkr13-118);stroke:#000000;stroke-linecap:round;stroke-linejoin:round;stroke-width:1}
		.st26 {fill:none;stroke:#000000;stroke-linecap:round;stroke-linejoin:round;stroke-width:0.24;visibility:hidden}
		.st27 {fill:none;fill-rule:evenodd;font-size:12px;overflow:visible;stroke-linecap:square;stroke-miterlimit:3}
	]]>
	</style>

	<defs id="Patterns_And_Gradients">
		<radialGradient id="grad36-11" v:fillPattern="36" v:foreground="#ffffff" v:background="#c0c0c0" cx="0" cy="0" r="1">
			<stop offset="0" style="stop-color:#ffffff;stop-opacity:1"/>
			<stop offset="1" style="stop-color:#c0c0c0;stop-opacity:1"/>
		</radialGradient>
		<linearGradient id="grad26-15" v:fillPattern="26" v:foreground="#ffffff" v:background="#a7a7a7" x1="0" y1="0" x2="1" y2="0">
			<stop offset="0" style="stop-color:#a7a7a7;stop-opacity:1"/>
			<stop offset="0.5" style="stop-color:#ffffff;stop-opacity:1"/>
			<stop offset="1" style="stop-color:#a7a7a7;stop-opacity:1"/>
		</linearGradient>
		<linearGradient id="grad30-19" v:fillPattern="30" v:foreground="#ffffff" v:background="#dfdfdf" x1="0" y1="1" x2="0" y2="0">
			<stop offset="0" style="stop-color:#ffffff;stop-opacity:1"/>
			<stop offset="1" style="stop-color:#dfdfdf;stop-opacity:1"/>
		</linearGradient>
		<radialGradient id="grad40-27" v:fillPattern="40" v:foreground="#ffffff" v:background="#008000" cx="0.5" cy="0.5" r="0.5">
			<stop offset="0" style="stop-color:#ffffff;stop-opacity:1"/>
			<stop offset="1" style="stop-color:#008000;stop-opacity:1"/>
		</radialGradient>
		<pattern id="grad35-31" v:fillPattern="35" v:foreground="#ffffff" v:background="#c6d1e3" x="0" y="0" width="1" height="1"
				patternContentUnits="objectBoundingBox">
			<path d="M 0.5 0.5 L 0 0 L 0 1 z" style="fill:url(#grad27-32)"/>
			<path d="M 0.5 0.5 L 1 0 L 1 1 z" style="fill:url(#grad25-33)"/>
			<path d="M 0.5 0.5 L 0 0 L 1 0 z" style="fill:url(#grad30-34)"/>
			<path d="M 0.5 0.5 L 0 1 L 1 1 z" style="fill:url(#grad28-35)"/>
		</pattern>
		<linearGradient id="grad27-32" v:fillPattern="35" v:foreground="#ffffff" v:background="#c6d1e3" x1="1" y1="0" x2="0" y2="0">
			<stop offset="0" style="stop-color:#ffffff;stop-opacity:1"/>
			<stop offset="1" style="stop-color:#c6d1e3;stop-opacity:1"/>
		</linearGradient>
		<linearGradient id="grad25-33" v:fillPattern="35" v:foreground="#ffffff" v:background="#c6d1e3" x1="0" y1="0" x2="1" y2="0">
			<stop offset="0" style="stop-color:#ffffff;stop-opacity:1"/>
			<stop offset="1" style="stop-color:#c6d1e3;stop-opacity:1"/>
		</linearGradient>
		<linearGradient id="grad30-34" v:fillPattern="35" v:foreground="#ffffff" v:background="#c6d1e3" x1="0" y1="1" x2="0" y2="0">
			<stop offset="0" style="stop-color:#ffffff;stop-opacity:1"/>
			<stop offset="1" style="stop-color:#c6d1e3;stop-opacity:1"/>
		</linearGradient>
		<linearGradient id="grad28-35" v:fillPattern="35" v:foreground="#ffffff" v:background="#c6d1e3" x1="0" y1="0" x2="0" y2="1">
			<stop offset="0" style="stop-color:#ffffff;stop-opacity:1"/>
			<stop offset="1" style="stop-color:#c6d1e3;stop-opacity:1"/>
		</linearGradient>
		<linearGradient id="grad29-44" v:fillPattern="29" v:foreground="#ffffff" v:background="#a7a7a7" x1="0" y1="0" x2="0" y2="1">
			<stop offset="0" style="stop-color:#a7a7a7;stop-opacity:1"/>
			<stop offset="0.5" style="stop-color:#ffffff;stop-opacity:1"/>
			<stop offset="1" style="stop-color:#a7a7a7;stop-opacity:1"/>
		</linearGradient>
		<pattern id="grad31-51" v:fillPattern="31" v:foreground="#ffffff" v:background="#a7a7a7" x="0" y="0" width="1" height="1"
				patternContentUnits="objectBoundingBox">
			<path d="M 0 0 L 0 1 L 1 1 z" style="fill:url(#grad28-52)"/>
			<path d="M 0 0 L 1 0 L 1 1 z" style="fill:url(#grad25-53)"/>
		</pattern>
		<linearGradient id="grad28-52" v:fillPattern="31" v:foreground="#ffffff" v:background="#a7a7a7" x1="0" y1="0" x2="0" y2="1">
			<stop offset="0" style="stop-color:#ffffff;stop-opacity:1"/>
			<stop offset="1" style="stop-color:#a7a7a7;stop-opacity:1"/>
		</linearGradient>
		<linearGradient id="grad25-53" v:fillPattern="31" v:foreground="#ffffff" v:background="#a7a7a7" x1="0" y1="0" x2="1" y2="0">
			<stop offset="0" style="stop-color:#ffffff;stop-opacity:1"/>
			<stop offset="1" style="stop-color:#a7a7a7;stop-opacity:1"/>
		</linearGradient>
		<pattern id="grad32-66" v:fillPattern="32" v:foreground="#ffffff" v:background="#c0c0c0" x="0" y="0" width="1" height="1"
				patternContentUnits="objectBoundingBox">
			<path d="M 0 1 L 0 0 L 1 0 z" style="fill:url(#grad27-67)"/>
			<path d="M 0 1 L 1 1 L 1 0 z" style="fill:url(#grad28-68)"/>
		</pattern>
		<linearGradient id="grad27-67" v:fillPattern="32" v:foreground="#ffffff" v:background="#c0c0c0" x1="1" y1="0" x2="0" y2="0">
			<stop offset="0" style="stop-color:#ffffff;stop-opacity:1"/>
			<stop offset="1" style="stop-color:#c0c0c0;stop-opacity:1"/>
		</linearGradient>
		<linearGradient id="grad28-68" v:fillPattern="32" v:foreground="#ffffff" v:background="#c0c0c0" x1="0" y1="0" x2="0" y2="1">
			<stop offset="0" style="stop-color:#ffffff;stop-opacity:1"/>
			<stop offset="1" style="stop-color:#c0c0c0;stop-opacity:1"/>
		</linearGradient>
	</defs>
	<defs id="Markers">
		<g id="lend13">
			<path d="M 3 1 L 0 0 L 3 -1 L 3 1 " style="stroke:none"/>
		</g>
		<marker id="mrkr13-103" class="st23" v:arrowType="13" v:arrowSize="2" v:setback="10.56" refX="-10.56" orient="auto"
				markerUnits="strokeWidth" overflow="visible">
			<use xlink:href="#lend13" transform="scale(-3.52,-3.52) "/>
		</marker>
		<marker id="mrkr13-118" class="st23" v:arrowType="13" v:arrowSize="2" v:setback="10.2" refX="10.2" orient="auto"
				markerUnits="strokeWidth" overflow="visible">
			<use xlink:href="#lend13" transform="scale(3.52) "/>
		</marker>
	</defs>
	<g v:mID="4" v:index="3" v:groupContext="foregroundPage">
		<title>portal</title>
		<v:pageProperties v:drawingScale="1" v:pageScale="1" v:drawingUnits="19" v:shadowOffsetX="9" v:shadowOffsetY="-9"/>
		<v:layer v:name="Flowchart" v:index="0"/>
		<g id="shape1-1" v:mID="1" v:groupContext="shape" v:layerMember="0" transform="translate(157.106,-237)">
			<title>Drum storage</title>
			<desc>Mesh Portal</desc>
			<v:custProps>
				<v:cp v:nameU="Cost" v:lbl="Cost" v:type="7" v:format="@" v:langID="1033"/>
				<v:cp v:nameU="Duration" v:lbl="Duration" v:type="2" v:langID="1033"/>
				<v:cp v:nameU="Resources" v:lbl="Resources" v:langID="1033"/>
			</v:custProps>
			<v:userDefs>
				<v:ud v:nameU="visVersion" v:val="VT0(14):26"/>
				<v:ud v:nameU="Scale" v:val="VT0(1):26"/>
				<v:ud v:nameU="AntiScale" v:val="VT0(1):26"/>
			</v:userDefs>
			<v:textBlock v:margins="rect(2,2,2,2)"/>
			<v:textRect cx="45" cy="277.5" width="74.25" height="31.5"/>
			<path d="M82.12 293.25 A15.5306 15.5306 -180 0 0 90 277.5 A15.8764 15.8764 -180 0 0 82.12 261.75 L7.87 261.75 A15.8764
						 15.8764 -180 0 0 0 277.5 A15.5306 15.5306 -180 0 0 7.88 293.25 L82.12 293.25 Z" class="st1"/>
			<text x="15.41" y="281.1" class="st2" v:langID="1033"><v:paragraph v:horizAlign="1"/><v:tabList/>Mesh Portal</text>		</g>
		<g id="group6-4" transform="translate(42.035,-228)" v:mID="6" v:groupContext="group">
			<v:custProps>
				<v:cp v:nameU="ShapeClass" v:lbl="ShapeClass" v:type="0" v:invis="true" v:ask="false" v:langID="1033"
						v:val="VT4(Equipment)"/>
				<v:cp v:nameU="ShapeType" v:lbl="ShapeType" v:type="0" v:invis="true" v:ask="false" v:langID="1033"
						v:val="VT4(Computer)"/>
				<v:cp v:nameU="SubShapeType" v:lbl="SubShapeType" v:type="0" v:invis="true" v:ask="false" v:langID="1033"
						v:val="VT4(Tablet)"/>
				<v:cp v:nameU="Manufacturer" v:lbl="Manufacturer" v:type="0" v:sortKey="Equipment" v:invis="false" v:ask="false"
						v:langID="1033"/>
				<v:cp v:nameU="ProductNumber" v:lbl="Product Number" v:type="0" v:sortKey="Equipment" v:invis="false" v:ask="false"
						v:langID="1033"/>
				<v:cp v:nameU="PartNumber" v:lbl="Part Number" v:type="0" v:sortKey="Equipment" v:invis="false" v:ask="false"
						v:langID="1033"/>
				<v:cp v:nameU="ProductDescription" v:lbl="Product Description" v:type="0" v:sortKey="Equipment" v:invis="false"
						v:ask="false" v:langID="1033"/>
				<v:cp v:nameU="AssetNumber" v:lbl="Asset Number" v:type="0" v:sortKey="Asset" v:invis="false" v:ask="false"
						v:langID="1033"/>
				<v:cp v:nameU="SerialNumber" v:lbl="Serial Number" v:type="0" v:sortKey="Asset" v:invis="false" v:ask="false"
						v:langID="1033"/>
				<v:cp v:nameU="Location" v:lbl="Location" v:type="0" v:sortKey="Asset" v:invis="false" v:ask="false"
						v:langID="1033"/>
				<v:cp v:nameU="Building" v:lbl="Building" v:type="0" v:sortKey="Asset" v:invis="false" v:ask="false"
						v:langID="1033"/>
				<v:cp v:nameU="Room" v:lbl="Room" v:type="0" v:sortKey="Asset" v:invis="false" v:ask="false" v:langID="1033"/>
				<v:cp v:nameU="NetworkName" v:lbl="Network Name" v:type="0" v:sortKey="Network" v:invis="false" v:ask="false"
						v:langID="1033"/>
				<v:cp v:nameU="IPAddress" v:lbl="IP Address" v:type="0" v:sortKey="Network" v:invis="false" v:ask="false"
						v:langID="1033"/>
				<v:cp v:nameU="SubnetMask" v:lbl="Subnet Mask" v:type="0" v:sortKey="Network" v:invis="false" v:ask="false"
						v:langID="1033"/>
				<v:cp v:nameU="AdminInterface" v:lbl="Administrative Interface" v:type="0" v:sortKey="Network" v:invis="false"
						v:ask="false" v:langID="1033"/>
				<v:cp v:nameU="NumberofPorts" v:lbl="Number of Ports" v:type="0" v:sortKey="Network" v:invis="false" v:ask="false"
						v:langID="1033"/>
				<v:cp v:nameU="MACAddress" v:lbl="MAC Address" v:type="0" v:sortKey="Network" v:invis="false" v:ask="false"
						v:langID="1033"/>
				<v:cp v:nameU="CommunityString" v:lbl="Community String" v:type="0" v:sortKey="Network" v:invis="false"
						v:ask="false" v:langID="1033"/>
				<v:cp v:nameU="NetworkDescription" v:lbl="Network Description" v:type="0" v:sortKey="Network" v:invis="false"
						v:ask="false" v:langID="1033"/>
				<v:cp v:nameU="HardDriveSize" v:lbl="Hard Drive Capacity" v:type="0" v:sortKey="Workstation" v:invis="false"
						v:ask="false" v:langID="1033"/>
				<v:cp v:nameU="CPU" v:lbl="CPU" v:type="0" v:sortKey="Workstation" v:invis="false" v:ask="false" v:langID="1033"/>
				<v:cp v:nameU="Memory" v:lbl="Memory" v:type="0" v:sortKey="Workstation" v:invis="false" v:ask="false"
						v:langID="1033"/>
				<v:cp v:nameU="OperatingSystem" v:lbl="Operating System" v:type="0" v:sortKey="Workstation" v:invis="false"
						v:ask="false" v:langID="1033"/>
			</v:custProps>
			<v:userDefs>
				<v:ud v:nameU="HasText" v:val="VT0(0):5"/>
				<v:ud v:nameU="ShapeClass" v:val="VT0(5):26"/>
				<v:ud v:nameU="ShapeType" v:val="VT0(6):26"/>
				<v:ud v:nameU="SubShapeType" v:val="VT0(69):26"/>
				<v:ud v:nameU="SolSH" v:val="VT14({BF0433D9-CD73-4EB5-8390-8653BE590246}):41"/>
				<v:ud v:nameU="visLegendShape" v:val="VT0(2):26"/>
				<v:ud v:nameU="visVersion" v:prompt="" v:val="VT0(14):26"/>
			</v:userDefs>
			<title>Tablet computer</title>
			<g id="shape7-5" v:mID="7" v:groupContext="shape" transform="translate(0,8.71705E-006)">
				<title>Sheet.7</title>
				<path d="M1.08 259.95 a1.09821 0.677875 -80 1 0 -0.192549 1.96692 A1.79415 1.73456 -90 0 0 1.07 259.94 L1.08 259.95
							 ZM10.75 251.08 A71.3073 68.9391 89.62 0 1 19.46 255.33 A71.3991 69.0279 -89.52 0 0 10.75 251.08 ZM1.08
							 259.95 a1.09821 0.677875 100 0 1 -0.192549 1.96692 A1.79415 1.73456 90 0 1 0.72 262.1 L10.75 263.89
							 L10.75 282.96 A47.5986 46.0178 -90.26 0 0 28.23 293.25 A5.29978 5.12376 -88.53 0 0 31.53 290.9 L31.57
							 259.41 A2.56534 2.48014 89.86 0 1 28.23 261.36 A2.7877 2.69512 -87.63 0 0 31.57 259.41 A57.1018 55.2054
							 -90.89 0 0 13.93 249.23 A3.04361 2.94253 -89.3 0 0 10.75 251.08 L10.75 262.09 L1.07 259.94 L1.08 259.95
							 Z" class="st3"/>
				<path d="M1.08 259.95 a1.09821 0.677875 -80 1 0 -0.192549 1.96692 A1.79415 1.73456 -90 0 0 1.07 259.94M10.75 251.08
							 A71.3073 68.9391 89.62 0 1 19.46 255.33 A71.3991 69.0279 -89.52 0 0 10.75 251.08M1.08 259.95 a1.09821
							 0.677875 100 0 1 -0.192549 1.96692 A1.79415 1.73456 90 0 1 0.72 262.1 L10.75 263.89 L10.75 282.96 A47.5986
							 46.0178 -90.26 0 0 28.23 293.25 A5.29978 5.12376 -88.53 0 0 31.53 290.9 L31.57 259.41 A2.56534 2.48014
							 89.86 0 1 28.23 261.36 A2.7877 2.69512 -87.63 0 0 31.57 259.41 A57.1018 55.2054 -90.89 0 0 13.93 249.23
							 A3.04361 2.94253 -89.3 0 0 10.75 251.08 L10.75 262.09 L1.07 259.94" class="st4"/>
			</g>
			<g id="shape8-8" v:mID="8" v:groupContext="shape" transform="translate(11.3143,5.68434E-014)">
				<title>Sheet.8</title>
				<path d="M0 282.96 A47.5986 46.0178 -90.26 0 0 17.49 293.25 L17.49 261.36 A71.3991 69.0279 -89.52 0 0 0 251.08 L0
							 282.96 Z" class="st5"/>
			</g>
			<g id="shape9-12" v:mID="9" v:groupContext="shape" transform="translate(28.8,5.68434E-014)">
				<title>Sheet.9</title>
				<path d="M0 293.25 A5.29978 5.12376 -88.53 0 0 3.29 290.9 L3.34 259.41 A2.56534 2.48014 89.86 0 1 0 261.36 L0 293.25
							 Z" class="st6"/>
			</g>
			<g id="shape10-16" v:mID="10" v:groupContext="shape" transform="translate(11.3143,-31.7799)">
				<title>Sheet.10</title>
				<path d="M-0 282.86 A71.3073 68.9391 89.62 0 1 17.49 293.14 A2.7877 2.69512 -87.63 0 0 20.83 291.19 A57.1018 55.2054
							 -90.89 0 0 3.19 281.01 A3.04361 2.94253 -89.3 0 0 0 282.86 Z" class="st7"/>
			</g>
			<g id="shape11-20" v:mID="11" v:groupContext="shape" transform="translate(13.0629,-4.62857)">
				<title>Sheet.11</title>
				<path d="M14.45 293.25 L0 284.92 L0 258.43" class="st8"/>
			</g>
			<g id="shape12-24" v:mID="12" v:groupContext="shape" transform="translate(-122.389,35.8341) rotate(-30)">
				<title>Sheet.12</title>
				<ellipse cx="0.596697" cy="292.485" rx="0.596697" ry="0.764753" class="st9"/>
			</g>
			<g id="shape13-28" v:mID="13" v:groupContext="shape" transform="translate(13.0629,-4.62857)">
				<title>Sheet.13</title>
				<path d="M0.57 284.61 L14.45 292.74 L14.45 293.25 L14.45 266.76 L0 258.43 L0.57 258.79 L0.57 284.61 Z" class="st10"/>
			</g>
			<g id="shape14-36" v:mID="14" v:groupContext="shape" transform="translate(17.0391,-28.4702)">
				<title>Sheet.14</title>
				<path d="M0 293.25 L1.45 292.95 L0.11 291.97 L0 293.25 Z" class="st11"/>
			</g>
			<g id="shape15-38" v:mID="15" v:groupContext="shape" transform="translate(0,6.22647E-006)">
				<title>Sheet.15</title>
				<path d="M11.31 282.96 A48.8099 46.7144 -90.81 0 0 28.8 293.25 A3.82447 3.66028 -91.42 0 0 32.09 291.1 L32.14 259.41
							 A62.021 59.3583 -91.17 0 0 14.5 249.23 A3.10961 2.97611 -89.03 0 0 11.31 251.08 L11.32 261.42 L1.72
							 259.28 A1.47913 1.54548 -180 0 0 0.01 260.96 A1.82174 1.90346 -180 0 0 1.28 262.67 L11.32 264.33 L11.31
							 282.96" class="st12"/>
			</g>
			<g id="shape16-41" v:mID="16" v:groupContext="shape" transform="translate(0.568677,-28.36)">
				<title>Sheet.16</title>
				<path d="M1.36 289.42 a0.677875 1.09821 -170 1 0 -1.33515 -0.235424 a0.677875 1.09821 -170 1 0 1.33515 0.235424 ZM0.72
							 290.46 L16.36 293.25 L16.6 291.75 L1.07 288.3 A1.79415 1.73456 90 0 1 0.72 290.46 Z" class="st13"/>
			</g>
		</g>
		<g id="group24-45" transform="translate(321.356,-225.75)" v:mID="24" v:groupContext="group">
			<v:custProps>
				<v:cp v:nameU="ShapeClass" v:lbl="ShapeClass" v:type="0" v:invis="true" v:ask="false" v:langID="1033"
						v:val="VT4(Equipment)"/>
				<v:cp v:nameU="ShapeType" v:lbl="ShapeType" v:type="0" v:invis="true" v:ask="false" v:langID="1033"
						v:val="VT4(Computer)"/>
				<v:cp v:nameU="SubShapeType" v:lbl="SubShapeType" v:type="0" v:invis="true" v:ask="false" v:langID="1033"
						v:val="VT4(Laptop)"/>
				<v:cp v:nameU="Manufacturer" v:lbl="Manufacturer" v:type="0" v:sortKey="Equipment" v:invis="false" v:ask="false"
						v:langID="1033"/>
				<v:cp v:nameU="ProductNumber" v:lbl="Product Number" v:type="0" v:sortKey="Equipment" v:invis="false" v:ask="false"
						v:langID="1033"/>
				<v:cp v:nameU="PartNumber" v:lbl="Part Number" v:type="0" v:sortKey="Equipment" v:invis="false" v:ask="false"
						v:langID="1033"/>
				<v:cp v:nameU="ProductDescription" v:lbl="Product Description" v:type="0" v:sortKey="Equipment" v:invis="false"
						v:ask="false" v:langID="1033"/>
				<v:cp v:nameU="AssetNumber" v:lbl="Asset Number" v:type="0" v:sortKey="Asset" v:invis="false" v:ask="false"
						v:langID="1033"/>
				<v:cp v:nameU="SerialNumber" v:lbl="Serial Number" v:type="0" v:sortKey="Asset" v:invis="false" v:ask="false"
						v:langID="1033"/>
				<v:cp v:nameU="Location" v:lbl="Location" v:type="0" v:sortKey="Asset" v:invis="false" v:ask="false"
						v:langID="1033"/>
				<v:cp v:nameU="Building" v:lbl="Building" v:type="0" v:sortKey="Asset" v:invis="false" v:ask="false"
						v:langID="1033"/>
				<v:cp v:nameU="Room" v:lbl="Room" v:type="0" v:sortKey="Asset" v:invis="false" v:ask="false" v:langID="1033"/>
				<v:cp v:nameU="NetworkName" v:lbl="Network Name" v:type="0" v:sortKey="Network" v:invis="false" v:ask="false"
						v:langID="1033"/>
				<v:cp v:nameU="IPAddress" v:lbl="IP Address" v:type="0" v:sortKey="Network" v:invis="false" v:ask="false"
						v:langID="1033"/>
				<v:cp v:nameU="SubnetMask" v:lbl="Subnet Mask" v:type="0" v:sortKey="Network" v:invis="false" v:ask="false"
						v:langID="1033"/>
				<v:cp v:nameU="AdminInterface" v:lbl="Administrative Interface" v:type="0" v:sortKey="Network" v:invis="false"
						v:ask="false" v:langID="1033"/>
				<v:cp v:nameU="NumberofPorts" v:lbl="Number of Ports" v:type="0" v:sortKey="Network" v:invis="false" v:ask="false"
						v:langID="1033"/>
				<v:cp v:nameU="MACAddress" v:lbl="MAC Address" v:type="0" v:sortKey="Network" v:invis="false" v:ask="false"
						v:langID="1033"/>
				<v:cp v:nameU="CommunityString" v:lbl="Community String" v:type="0" v:sortKey="Network" v:invis="false"
						v:ask="false" v:langID="1033"/>
				<v:cp v:nameU="NetworkDescription" v:lbl="Network Description" v:type="0" v:sortKey="Network" v:invis="false"
						v:ask="false" v:langID="1033"/>
				<v:cp v:nameU="HardDriveSize" v:lbl="Hard Drive Capacity" v:type="0" v:sortKey="Workstation" v:invis="false"
						v:ask="false" v:langID="1033"/>
				<v:cp v:nameU="CPU" v:lbl="CPU" v:type="0" v:sortKey="Workstation" v:invis="false" v:ask="false" v:langID="1033"/>
				<v:cp v:nameU="Memory" v:lbl="Memory" v:type="0" v:sortKey="Workstation" v:invis="false" v:ask="false"
						v:langID="1033"/>
				<v:cp v:nameU="OperatingSystem" v:lbl="Operating System" v:type="0" v:sortKey="Workstation" v:invis="false"
						v:ask="false" v:langID="1033"/>
			</v:custProps>
			<v:userDefs>
				<v:ud v:nameU="HasText" v:val="VT0(0):5"/>
				<v:ud v:nameU="ShapeClass" v:val="VT0(5):26"/>
				<v:ud v:nameU="ShapeType" v:val="VT0(6):26"/>
				<v:ud v:nameU="SubShapeType" v:val="VT0(37):26"/>
				<v:ud v:nameU="SolSH" v:val="VT14({BF0433D9-CD73-4EB5-8390-8653BE590246}):41"/>
				<v:ud v:nameU="visLegendShape" v:val="VT0(2):26"/>
				<v:ud v:nameU="visVersion" v:prompt="" v:val="VT0(14):26"/>
			</v:userDefs>
			<title>Laptop computer</title>
			<g id="shape25-46" v:mID="25" v:groupContext="shape">
				<title>Sheet.25</title>
				<path d="M49.5 260.08 L24.13 245.45 L21.95 245.45 L21.93 245.53 L15.94 265.73 L0 274.93 L0 278.4 A59.6798 58.772
							 -90.05 0 0 25.48 293.25 L42.57 283.35 L49.5 260.08 Z" class="st14"/>
			</g>
			<g id="shape26-48" v:mID="26" v:groupContext="shape" transform="translate(25.4778,5.68434E-014)">
				<title>Sheet.26</title>
				<path d="M0.01 289.54 L18.33 278.89 L17.09 283.35 L0 293.25 L0.01 289.54 Z" class="st15"/>
			</g>
			<g id="shape27-54" v:mID="27" v:groupContext="shape" transform="translate(41.3116,-12.8866)">
				<title>Sheet.27</title>
				<path d="M0 293.25 L6.01 272.97 L8.19 272.97 L2.5 291.78 L0 293.25 Z" class="st15"/>
			</g>
			<g id="shape28-57" v:mID="28" v:groupContext="shape" transform="translate(21.879,-33.165)">
				<title>Sheet.28</title>
				<path d="M0 278.7 L2.25 278.61 L27.62 293.25 L25.44 293.25 A1097.38 1080.69 87.95 0 1 0 278.7 Z" class="st7"/>
			</g>
			<g id="shape29-60" v:mID="29" v:groupContext="shape" transform="translate(0,-3.7125)">
				<title>Sheet.29</title>
				<path d="M0 278.65 L15.94 269.44 L41.31 284.08 L25.49 293.25 A66.4043 65.3942 89.17 0 1 -0 278.65 Z" class="st7"/>
			</g>
			<g id="shape30-63" v:mID="30" v:groupContext="shape" transform="translate(15.939,-12.8866)">
				<title>Sheet.30</title>
				<path d="M25.37 293.25 A3466.18 3413.45 -91.15 0 0 -0 278.61 L6.01 258.34 L31.38 272.97 L25.37 293.25 Z"
						class="st16"/>
			</g>
			<g id="shape31-69" v:mID="31" v:groupContext="shape">
				<title>Sheet.31</title>
				<path d="M0 278.4 A59.6798 58.772 -90.05 0 0 25.48 293.25 L25.49 289.54 A66.3911 65.3811 88.88 0 1 0 274.93 L0 278.4
							 Z" class="st16"/>
			</g>
			<g id="shape32-72" v:mID="32" v:groupContext="shape" transform="translate(17.82,-14.9737)">
				<title>Sheet.32</title>
				<path d="M5.25 262.81 L0 280.33 L22.47 293.25" class="st8"/>
			</g>
			<g id="shape33-75" v:mID="33" v:groupContext="shape" transform="translate(37.8675,-0.891) scale(-1,1)">
				<title>Sheet.33</title>
				<path d="M0 284.74 L10.94 291.07 L10.94 293.25" class="st17"/>
			</g>
			<g id="shape34-79" v:mID="34" v:groupContext="shape" transform="translate(18.513,-14.9737)">
				<title>Sheet.34</title>
				<path d="M0 280.13 L5.05 263.1 L4.55 262.81 A975.667 960.825 89.01 0 1 26.93 275.73 L21.78 293.25 L21.88 292.75 A860.419
							 847.33 88.95 0 1 0 280.13 Z" class="st10"/>
			</g>
			<g id="group35-82" transform="translate(3.58446,-5.28551)" v:mID="35" v:groupContext="group">
				<title>Sheet.35</title>
				<g id="shape36-83" v:mID="36" v:groupContext="shape" transform="translate(0,-0.495)">
					<title>Sheet.36</title>
					<path d="M0 280.04 L2.29 281.36 L4.44 280.12 L2.15 278.8 L0 280.04 ZM3.23 278.18 L5.51 279.5 L7.67 278.26 L5.38
								 276.94 L3.23 278.18 ZM6.45 276.32 L8.74 277.64 L10.89 276.4 L8.61 275.08 L6.45 276.32 ZM9.68 274.45
								 L11.97 275.77 L14.12 274.53 L11.83 273.21 L9.68 274.45 ZM13.11 276.43 L15.4 277.76 L17.55 276.51
								 L15.26 275.19 L13.11 276.43 ZM16.54 278.42 L18.83 279.74 L20.98 278.49 L18.7 277.17 L16.54 278.42
								 ZM19.97 280.4 L22.26 281.72 L24.41 280.48 L22.13 279.15 L19.97 280.4 ZM26.84 284.36 L29.12 285.68
								 L31.28 284.44 L28.99 283.12 L26.84 284.36 ZM30.27 286.34 L32.56 287.66 L34.71 286.42 L32.42 285.1
								 L30.27 286.34 ZM27.04 288.2 L29.33 289.52 L31.48 288.28 L29.19 286.96 L27.04 288.2 ZM23.61 286.22
								 L25.9 287.54 L28.05 286.3 L25.76 284.98 L23.61 286.22 ZM23.41 282.38 L25.69 283.7 L27.84 282.46
								 L25.56 281.14 L23.41 282.38 ZM20.18 284.24 L22.47 285.56 L24.62 284.32 L22.33 283 L20.18 284.24
								 ZM16.75 282.26 L19.04 283.58 L21.19 282.34 L18.9 281.02 L16.75 282.26 ZM13.32 280.28 L15.6 281.6
								 L17.76 280.36 L15.47 279.04 L13.32 280.28 ZM9.89 278.3 L12.17 279.62 L14.32 278.38 L12.04 277.06
								 L9.89 278.3 ZM6.66 280.16 L8.95 281.48 L11.1 280.24 L8.81 278.92 L6.66 280.16 ZM10.09 282.14 L12.38
								 283.46 L14.53 282.22 L12.24 280.9 L10.09 282.14 ZM13.52 284.12 L15.81 285.44 L17.96 284.2 L15.67
								 282.88 L13.52 284.12 ZM16.95 286.1 L19.24 287.42 L21.39 286.18 L19.1 284.86 L16.95 286.1 ZM20.38
								 288.09 L22.67 289.41 L24.82 288.16 L22.53 286.84 L20.38 288.09 ZM23.81 290.07 L26.1 291.39 L28.25
								 290.14 L25.97 288.82 L23.81 290.07 ZM20.59 291.93 L22.87 293.25 L25.03 292.01 L22.74 290.69 L20.59
								 291.93 ZM17.16 289.95 L19.44 291.27 L21.59 290.03 L19.31 288.71 L17.16 289.95 ZM6.86 284.01 L16.01
								 289.29 L18.16 288.05 L9.01 282.76 L6.86 284.01 ZM3.43 282.02 L5.72 283.35 L7.87 282.1 L5.58 280.78
								 L3.43 282.02 Z" class="st18"/>
				</g>
				<g id="shape37-85" v:mID="37" v:groupContext="shape">
					<title>Sheet.37</title>
					<path d="M9.68 274.45 L11.97 275.77 L11.97 275.28 L9.68 273.96 L9.68 274.45 ZM13.11 276.43 L15.4 277.76 L15.4
								 277.26 L13.11 275.94 L13.11 276.43 ZM16.54 278.42 L18.83 279.74 L18.83 279.24 L16.54 277.92 L16.54
								 278.42 ZM19.97 280.4 L22.26 281.72 L22.26 281.22 L19.97 279.9 L19.97 280.4 ZM23.41 282.38 L25.69
								 283.7 L25.69 283.2 L23.41 281.88 L23.41 282.38 ZM26.84 284.36 L29.12 285.68 L29.12 285.18 L26.84
								 283.86 L26.84 284.36 ZM11.97 275.28 L11.97 275.77 L14.12 274.53 L14.12 274.04 L11.97 275.28 ZM15.4
								 277.26 L15.4 277.76 L17.55 276.51 L17.55 276.02 L15.4 277.26 ZM18.83 279.24 L18.83 279.74 L20.98
								 278.49 L20.98 278 L18.83 279.24 ZM22.26 281.22 L22.26 281.72 L24.41 280.48 L24.41 279.98 L22.26
								 281.22 ZM25.69 283.2 L25.69 283.7 L27.84 282.46 L27.84 281.96 L25.69 283.2 ZM29.12 285.18 L29.12
								 285.68 L31.28 284.44 L31.28 283.94 L29.12 285.18 ZM30.27 286.34 L32.56 287.66 L32.56 287.17 L30.27
								 285.84 L30.27 286.34 ZM32.56 287.17 L32.56 287.66 L34.71 286.42 L34.71 285.92 L32.56 287.17 ZM6.45
								 276.32 L8.74 277.64 L8.74 277.14 L6.45 275.82 L6.45 276.32 ZM9.89 278.3 L12.17 279.62 L12.17 279.12
								 L9.89 277.8 L9.89 278.3 ZM13.32 280.28 L15.6 281.6 L15.6 281.1 L13.32 279.78 L13.32 280.28 ZM16.75
								 282.26 L19.04 283.58 L19.04 283.09 L16.75 281.77 L16.75 282.26 ZM20.18 284.24 L22.47 285.56 L22.47
								 285.07 L20.18 283.75 L20.18 284.24 ZM23.61 286.22 L25.9 287.54 L25.9 287.05 L23.61 285.73 L23.61
								 286.22 ZM8.74 277.14 L8.74 277.64 L10.89 276.4 L10.89 275.9 L8.74 277.14 ZM12.17 279.12 L12.17 279.62
								 L14.32 278.38 L14.32 277.88 L12.17 279.12 ZM15.6 281.1 L15.6 281.6 L17.76 280.36 L17.76 279.86 L15.6
								 281.1 ZM19.04 283.09 L19.04 283.58 L21.19 282.34 L21.19 281.84 L19.04 283.09 ZM22.47 285.07 L22.47
								 285.56 L24.62 284.32 L24.62 283.82 L22.47 285.07 ZM25.9 287.05 L25.9 287.54 L28.05 286.3 L28.05
								 285.81 L25.9 287.05 ZM27.04 288.2 L29.33 289.52 L29.33 289.03 L27.04 287.71 L27.04 288.2 ZM29.33
								 289.03 L29.33 289.52 L31.48 288.28 L31.48 287.79 L29.33 289.03 ZM3.23 278.18 L5.51 279.5 L5.51 279.01
								 L3.23 277.69 L3.23 278.18 ZM6.66 280.16 L8.95 281.48 L8.95 280.99 L6.66 279.67 L6.66 280.16 ZM10.09
								 282.14 L12.38 283.46 L12.38 282.97 L10.09 281.65 L10.09 282.14 ZM13.52 284.12 L15.81 285.44 L15.81
								 284.95 L13.52 283.63 L13.52 284.12 ZM16.95 286.1 L19.24 287.42 L19.24 286.93 L16.95 285.61 L16.95
								 286.1 ZM20.38 288.09 L22.67 289.41 L22.67 288.91 L20.38 287.59 L20.38 288.09 ZM5.51 279.01 L5.51
								 279.5 L7.67 278.26 L7.67 277.76 L5.51 279.01 ZM8.95 280.99 L8.95 281.48 L11.1 280.24 L11.1 279.74
								 L8.95 280.99 ZM12.38 282.97 L12.38 283.46 L14.53 282.22 L14.53 281.73 L12.38 282.97 ZM15.81 284.95
								 L15.81 285.44 L17.96 284.2 L17.96 283.71 L15.81 284.95 ZM19.24 286.93 L19.24 287.42 L21.39 286.18
								 L21.39 285.69 L19.24 286.93 ZM22.67 288.91 L22.67 289.41 L24.82 288.16 L24.82 287.67 L22.67 288.91
								 ZM23.81 290.07 L26.1 291.39 L26.1 290.89 L23.81 289.57 L23.81 290.07 ZM26.1 290.89 L26.1 291.39
								 L28.25 290.14 L28.25 289.65 L26.1 290.89 ZM0 280.04 L2.29 281.36 L2.29 280.87 L0 279.55 L0 280.04
								 ZM3.43 282.02 L5.72 283.35 L5.72 282.85 L3.43 281.53 L3.43 282.02 ZM6.86 284.01 L16.01 289.29 L16.01
								 288.79 L6.86 283.51 L6.86 284.01 ZM17.16 289.95 L19.44 291.27 L19.44 290.77 L17.16 289.45 L17.16
								 289.95 ZM2.29 280.87 L2.29 281.36 L4.44 280.12 L4.44 279.63 L2.29 280.87 ZM5.72 282.85 L5.72 283.35
								 L7.87 282.1 L7.87 281.61 L5.72 282.85 ZM16.01 288.79 L16.01 289.29 L18.16 288.05 L18.16 287.55 L16.01
								 288.79 ZM19.44 290.77 L19.44 291.27 L21.59 290.03 L21.59 289.53 L19.44 290.77 ZM20.59 291.93 L22.87
								 293.25 L22.87 292.75 L20.59 291.43 L20.59 291.93 ZM22.87 292.75 L22.87 293.25 L25.03 292.01 L25.03
								 291.51 L22.87 292.75 Z" class="st19"/>
				</g>
			</g>
			<g id="shape38-87" v:mID="38" v:groupContext="shape">
				<title>Sheet.38</title>
				<path d="M25.48 293.25 L42.57 283.35 L49.5 260.08 L24.13 245.45 L21.95 245.45 L15.94 265.73 L0 274.93 L0 278.4 A60.7075
							 59.784 -90.05 0 0 25.48 293.25 Z" class="st20"/>
			</g>
		</g>
		<g id="shape3-89" v:mID="3" v:groupContext="shape" transform="translate(495.356,94.5) rotate(90)">
			<title>Sheet.3</title>
			<path d="M0 293.25 L180 293.25" class="st21"/>
		</g>
		<g id="shape4-92" v:mID="4" v:groupContext="shape" transform="translate(351.356,94.5) rotate(90)">
			<title>Sheet.4</title>
			<path d="M0 293.25 L180 293.25" class="st21"/>
		</g>
		<g id="shape5-95" v:mID="5" v:groupContext="shape" transform="translate(639.356,94.5) rotate(90)">
			<title>Sheet.5</title>
			<path d="M0 293.25 L180 293.25" class="st21"/>
		</g>
		<g id="shape18-98" v:mID="18" v:groupContext="shape" transform="translate(76.1064,-162.75)">
			<title>Sheet.18</title>
			<desc>Connect</desc>
			<v:textBlock v:margins="rect(4,4,4,4)" v:verticalAlign="2"/>
			<v:textRect cx="54" cy="293.25" width="108" height="0"/>
			<path d="M0 293.25 L97.44 293.25" class="st22"/>
			<rect v:rectContext="textBkgnd" x="33.7997" y="274.85" width="40.4008" height="14.4001" class="st24"/>
			<text x="33.8" y="285.65" class="st2" v:langID="1033"><v:paragraph v:horizAlign="1"/><v:tabList/>Connect</text>		</g>
		<g id="shape19-106" v:mID="19" v:groupContext="shape" transform="translate(220.106,-117.75)">
			<title>Sheet.19</title>
			<desc>Pending Requests</desc>
			<v:textBlock v:margins="rect(4,4,4,4)" v:verticalAlign="2"/>
			<v:textRect cx="54" cy="293.25" width="108" height="0"/>
			<path d="M0 293.25 L97.44 293.25" class="st22"/>
			<rect v:rectContext="textBkgnd" x="10.6636" y="274.85" width="86.6728" height="14.4001" class="st24"/>
			<text x="10.66" y="285.65" class="st2" v:langID="1033"><v:paragraph v:horizAlign="1"/><v:tabList/>Pending Requests</text>		</g>
		<g id="shape20-113" v:mID="20" v:groupContext="shape" transform="translate(220.106,-144.75)">
			<title>Sheet.20</title>
			<desc>Get Pending</desc>
			<v:textBlock v:margins="rect(4,4,4,4)" v:verticalAlign="2"/>
			<v:textRect cx="54" cy="293.25" width="108" height="0"/>
			<path d="M10.2 293.25 L10.56 293.25 L108 293.25" class="st25"/>
			<rect v:rectContext="textBkgnd" x="24.1199" y="274.85" width="59.7604" height="14.4001" class="st24"/>
			<text x="24.12" y="285.65" class="st2" v:langID="1033"><v:paragraph v:horizAlign="1"/><v:tabList/>Get Pending</text>		</g>
		<g id="shape42-121" v:mID="42" v:groupContext="shape" transform="translate(220.106,-90.75)">
			<title>Sheet.42</title>
			<desc>Approve</desc>
			<v:textBlock v:margins="rect(4,4,4,4)" v:verticalAlign="2"/>
			<v:textRect cx="54" cy="293.25" width="108" height="0"/>
			<path d="M10.2 293.25 L10.56 293.25 L108 293.25" class="st25"/>
			<rect v:rectContext="textBkgnd" x="33.2724" y="274.85" width="41.4553" height="14.4001" class="st24"/>
			<text x="33.27" y="285.65" class="st2" v:langID="1033"><v:paragraph v:horizAlign="1"/><v:tabList/>Approve</text>		</g>
		<g id="shape43-128" v:mID="43" v:groupContext="shape" transform="translate(76.1064,-72.75)">
			<title>Sheet.43</title>
			<desc>Status Request</desc>
			<v:textBlock v:margins="rect(4,4,4,4)" v:verticalAlign="2"/>
			<v:textRect cx="54" cy="293.25" width="108" height="0"/>
			<path d="M0 293.25 L97.44 293.25" class="st22"/>
			<rect v:rectContext="textBkgnd" x="17.6042" y="274.85" width="72.7918" height="14.4001" class="st24"/>
			<text x="17.6" y="285.65" class="st2" v:langID="1033"><v:paragraph v:horizAlign="1"/><v:tabList/>Status Request</text>		</g>
		<g id="shape44-135" v:mID="44" v:groupContext="shape" transform="translate(76.1064,-45.75)">
			<title>Sheet.44</title>
			<desc>Profile</desc>
			<v:textBlock v:margins="rect(4,4,4,4)" v:verticalAlign="2"/>
			<v:textRect cx="54" cy="293.25" width="108" height="0"/>
			<path d="M10.2 293.25 L10.56 293.25 L108 293.25" class="st25"/>
			<rect v:rectContext="textBkgnd" x="38.0742" y="274.85" width="31.8518" height="14.4001" class="st24"/>
			<text x="38.07" y="285.65" class="st2" v:langID="1033"><v:paragraph v:horizAlign="1"/><v:tabList/>Profile</text>		</g>
		<g id="group21-142" transform="translate(22.1064,-149.25)" v:mID="21" v:groupContext="group" v:layerMember="0">
			<v:custProps>
				<v:cp v:nameU="Cost" v:lbl="Cost" v:type="7" v:format="@" v:langID="1033"/>
				<v:cp v:nameU="Duration" v:lbl="Duration" v:type="2" v:langID="1033"/>
				<v:cp v:nameU="Resources" v:lbl="Resources" v:langID="1033"/>
			</v:custProps>
			<v:userDefs>
				<v:ud v:nameU="visVersion" v:val="VT0(14):26"/>
			</v:userDefs>
			<title>Person 1</title>
			<g id="shape22-143" v:mID="22" v:groupContext="shape" v:layerMember="0"
					transform="translate(12.6118,-28.8) scale(-1,1)">
				<title>Sheet.22</title>
				<path d="M0 289.65 A3.61178 3.6 0 0 1 7.22 289.65 A3.61178 3.6 0 1 1 0 289.65 Z" class="st11"/>
			</g>
			<g id="shape23-145" v:mID="23" v:groupContext="shape" v:layerMember="0">
				<title>Sheet.23</title>
				<path d="M9.21 279.3 L13.4 293.25 L16.74 293.25 L13.4 277.05 L13.4 267.6 L15.91 275.25 L18 273.9 L15.07 264.45 L9.21
							 264.9 L3.35 264.45 L0 274.35 L2.51 275.25 L5.02 267.6 L5.02 277.05 L1.67 293.25 L5.02 293.25 L9.21 279.3
							 Z" class="st11"/>
			</g>
			<g id="shape39-147" v:mID="39" v:groupContext="shape" v:layerMember="0" transform="translate(-4.10643,18)">
				<title>Sheet.39</title>
				<desc>Alice</desc>
				<v:userDefs>
					<v:ud v:nameU="ScaleFactor" v:val="VT0(1):26"/>
				</v:userDefs>
				<v:textBlock v:margins="rect(0,0,0,0)"/>
				<v:textRect cx="13.1064" cy="284.25" width="26.22" height="18"/>
				<rect x="0" y="275.25" width="26.2129" height="18" class="st26"/>
				<text x="1.36" y="287.85" class="st2" v:langID="1033"><v:paragraph v:horizAlign="1"/><v:tabList/>Alice</text>			</g>
		</g>
		<g id="group2-150" transform="translate(359.606,-104.25)" v:mID="2" v:groupContext="group" v:layerMember="0">
			<v:custProps>
				<v:cp v:nameU="Cost" v:lbl="Cost" v:type="7" v:format="@" v:langID="1033"/>
				<v:cp v:nameU="Duration" v:lbl="Duration" v:type="2" v:langID="1033"/>
				<v:cp v:nameU="Resources" v:lbl="Resources" v:langID="1033"/>
			</v:custProps>
			<v:userDefs>
				<v:ud v:nameU="visVersion" v:val="VT0(14):26"/>
			</v:userDefs>
			<title>Person 1.2</title>
			<g id="shape17-151" v:mID="17" v:groupContext="shape" v:layerMember="0"
					transform="translate(12.6118,-28.8) scale(-1,1)">
				<title>Sheet.17</title>
				<path d="M0 289.65 A3.61178 3.6 0 0 1 7.22 289.65 A3.61178 3.6 0 1 1 0 289.65 Z" class="st11"/>
			</g>
			<g id="shape40-153" v:mID="40" v:groupContext="shape" v:layerMember="0">
				<title>Sheet.40</title>
				<path d="M9.21 279.3 L13.4 293.25 L16.74 293.25 L13.4 277.05 L13.4 267.6 L15.91 275.25 L18 273.9 L15.07 264.45 L9.21
							 264.9 L3.35 264.45 L0 274.35 L2.51 275.25 L5.02 267.6 L5.02 277.05 L1.67 293.25 L5.02 293.25 L9.21 279.3
							 Z" class="st11"/>
			</g>
			<g id="shape41-155" v:mID="41" v:groupContext="shape" v:layerMember="0" transform="translate(-4.10643,18)">
				<title>Sheet.41</title>
				<desc>Alice</desc>
				<v:userDefs>
					<v:ud v:nameU="ScaleFactor" v:val="VT0(1):26"/>
				</v:userDefs>
				<v:textBlock v:margins="rect(0,0,0,0)"/>
				<v:textRect cx="13.1064" cy="284.25" width="26.22" height="18"/>
				<rect x="0" y="275.25" width="26.2129" height="18" class="st26"/>
				<text x="1.36" y="287.85" class="st2" v:langID="1033"><v:paragraph v:horizAlign="1"/><v:tabList/>Alice</text>			</g>
		</g>
	</g>
</svg>
