<?xml version="1.0" encoding="UTF-8" standalone="no"?>
<!DOCTYPE svg PUBLIC "-//W3C//DTD SVG 1.0//EN" "http://www.w3.org/TR/2001/REC-SVG-20010904/DTD/svg10.dtd">
<!-- Generated by Microsoft Visio 11.0, SVG Export, v1.0 aliceconnect.svg aliceconnect -->
<svg xmlns="http://www.w3.org/2000/svg" xmlns:xlink="http://www.w3.org/1999/xlink" xmlns:ev="http://www.w3.org/2001/xml-events"
		xmlns:v="http://schemas.microsoft.com/visio/2003/SVGExtensions/" width="4.8006in" height="4.13889in"
		viewBox="0 0 345.643 298" xml:space="preserve" color-interpolation-filters="sRGB" class="st28">
	<v:documentProperties v:langID="1033" v:viewMarkup="false">
		<v:userDefs>
			<v:ud v:nameU="msvNoAutoConnect" v:val="VT0(1):26"/>
		</v:userDefs>
	</v:documentProperties>

	<style type="text/css">
	<![CDATA[
		.st1 {fill:#ffffff;stroke:#000000;stroke-linecap:round;stroke-linejoin:round;stroke-width:1}
		.st2 {fill:#000000;font-family:Calibri;font-size:1.00001em}
		.st3 {fill:#ff00ff;fill-opacity:0}
		.st4 {stroke:#000000;stroke-linecap:round;stroke-linejoin:round;stroke-opacity:0;stroke-width:0.72}
		.st5 {fill:url(#grad36-11);stroke:none;stroke-linecap:round;stroke-linejoin:round;stroke-width:0.72}
		.st6 {fill:url(#grad26-15);stroke:none;stroke-linecap:round;stroke-linejoin:round;stroke-width:0.72}
		.st7 {fill:url(#grad30-19);stroke:#ffffff;stroke-linecap:round;stroke-linejoin:round;stroke-width:0.72}
		.st8 {stroke:#ffffff;stroke-linecap:round;stroke-linejoin:round;stroke-width:0.72}
		.st9 {fill:url(#grad40-27);stroke:#000000;stroke-linecap:round;stroke-linejoin:round;stroke-width:0.12}
		.st10 {fill:url(#grad35-31);stroke:#000000;stroke-linecap:round;stroke-linejoin:round;stroke-width:0.72}
		.st11 {fill:#ffffff;stroke:#000000;stroke-linecap:round;stroke-linejoin:round;stroke-width:0.24}
		.st12 {stroke:#000000;stroke-linecap:round;stroke-linejoin:round;stroke-width:1.5}
		.st13 {fill:url(#grad29-44);stroke:#000000;stroke-linecap:round;stroke-linejoin:round;stroke-width:0.72}
		.st14 {marker-end:url(#mrkr13-50);stroke:#000000;stroke-linecap:round;stroke-linejoin:round;stroke-width:1}
		.st15 {fill:#000000;fill-opacity:1;stroke:#000000;stroke-opacity:1;stroke-width:0.28409090909091}
		.st16 {fill:#ffffff;stroke:none;stroke-linecap:butt;stroke-width:7.2}
		.st17 {font-size:1em}
		.st18 {marker-start:url(#mrkr13-66);stroke:#000000;stroke-linecap:round;stroke-linejoin:round;stroke-width:1}
		.st19 {fill:none;stroke:#000000;stroke-linecap:round;stroke-linejoin:round;stroke-width:0.24;visibility:hidden}
		.st20 {stroke:#000000;stroke-dasharray:5.25,3.75;stroke-linecap:round;stroke-linejoin:round;stroke-width:0.75}
		.st21 {fill:#ff00ff;fill-opacity:0;stroke:#000000;stroke-linecap:round;stroke-linejoin:round;stroke-opacity:0;stroke-width:0.72}
		.st22 {fill:url(#grad31-92);stroke:#ffffff;stroke-linecap:round;stroke-linejoin:round;stroke-width:0.72}
		.st23 {fill:url(#grad32-101);stroke:#000000;stroke-linecap:round;stroke-linejoin:round;stroke-width:0.72}
		.st24 {fill:#ffffff;stroke:none;stroke-linecap:round;stroke-linejoin:round;stroke-width:0.24}
		.st25 {fill:#969696;fill-opacity:0.3;stroke:none;stroke-linecap:round;stroke-linejoin:round;stroke-width:0.72}
		.st26 {fill:url(#grad35-31)}
		.st27 {stroke:#000000;stroke-linecap:round;stroke-linejoin:round;stroke-width:0.72}
		.st28 {fill:none;fill-rule:evenodd;font-size:12px;overflow:visible;stroke-linecap:square;stroke-miterlimit:3}
	]]>
	</style>

	<defs id="Patterns_And_Gradients">
		<radialGradient id="grad36-11" v:fillPattern="36" v:foreground="#ffffff" v:background="#c0c0c0" cx="0" cy="0" r="1">
			<stop offset="0" style="stop-color:#ffffff;stop-opacity:1"/>
			<stop offset="1" style="stop-color:#c0c0c0;stop-opacity:1"/>
		</radialGradient>
		<linearGradient id="grad26-15" v:fillPattern="26" v:foreground="#ffffff" v:background="#a7a7a7" x1="0" y1="0" x2="1" y2="0">
			<stop offset="0" style="stop-color:#a7a7a7;stop-opacity:1"/>
			<stop offset="0.5" style="stop-color:#ffffff;stop-opacity:1"/>
			<stop offset="1" style="stop-color:#a7a7a7;stop-opacity:1"/>
		</linearGradient>
		<linearGradient id="grad30-19" v:fillPattern="30" v:foreground="#ffffff" v:background="#dfdfdf" x1="0" y1="1" x2="0" y2="0">
			<stop offset="0" style="stop-color:#ffffff;stop-opacity:1"/>
			<stop offset="1" style="stop-color:#dfdfdf;stop-opacity:1"/>
		</linearGradient>
		<radialGradient id="grad40-27" v:fillPattern="40" v:foreground="#ffffff" v:background="#008000" cx="0.5" cy="0.5" r="0.5">
			<stop offset="0" style="stop-color:#ffffff;stop-opacity:1"/>
			<stop offset="1" style="stop-color:#008000;stop-opacity:1"/>
		</radialGradient>
		<pattern id="grad35-31" v:fillPattern="35" v:foreground="#ffffff" v:background="#c6d1e3" x="0" y="0" width="1" height="1"
				patternContentUnits="objectBoundingBox">
			<path d="M 0.5 0.5 L 0 0 L 0 1 z" style="fill:url(#grad27-32)"/>
			<path d="M 0.5 0.5 L 1 0 L 1 1 z" style="fill:url(#grad25-33)"/>
			<path d="M 0.5 0.5 L 0 0 L 1 0 z" style="fill:url(#grad30-34)"/>
			<path d="M 0.5 0.5 L 0 1 L 1 1 z" style="fill:url(#grad28-35)"/>
		</pattern>
		<linearGradient id="grad27-32" v:fillPattern="35" v:foreground="#ffffff" v:background="#c6d1e3" x1="1" y1="0" x2="0" y2="0">
			<stop offset="0" style="stop-color:#ffffff;stop-opacity:1"/>
			<stop offset="1" style="stop-color:#c6d1e3;stop-opacity:1"/>
		</linearGradient>
		<linearGradient id="grad25-33" v:fillPattern="35" v:foreground="#ffffff" v:background="#c6d1e3" x1="0" y1="0" x2="1" y2="0">
			<stop offset="0" style="stop-color:#ffffff;stop-opacity:1"/>
			<stop offset="1" style="stop-color:#c6d1e3;stop-opacity:1"/>
		</linearGradient>
		<linearGradient id="grad30-34" v:fillPattern="35" v:foreground="#ffffff" v:background="#c6d1e3" x1="0" y1="1" x2="0" y2="0">
			<stop offset="0" style="stop-color:#ffffff;stop-opacity:1"/>
			<stop offset="1" style="stop-color:#c6d1e3;stop-opacity:1"/>
		</linearGradient>
		<linearGradient id="grad28-35" v:fillPattern="35" v:foreground="#ffffff" v:background="#c6d1e3" x1="0" y1="0" x2="0" y2="1">
			<stop offset="0" style="stop-color:#ffffff;stop-opacity:1"/>
			<stop offset="1" style="stop-color:#c6d1e3;stop-opacity:1"/>
		</linearGradient>
		<linearGradient id="grad29-44" v:fillPattern="29" v:foreground="#ffffff" v:background="#a7a7a7" x1="0" y1="0" x2="0" y2="1">
			<stop offset="0" style="stop-color:#a7a7a7;stop-opacity:1"/>
			<stop offset="0.5" style="stop-color:#ffffff;stop-opacity:1"/>
			<stop offset="1" style="stop-color:#a7a7a7;stop-opacity:1"/>
		</linearGradient>
		<pattern id="grad31-92" v:fillPattern="31" v:foreground="#ffffff" v:background="#a7a7a7" x="0" y="0" width="1" height="1"
				patternContentUnits="objectBoundingBox">
			<path d="M 0 0 L 0 1 L 1 1 z" style="fill:url(#grad28-93)"/>
			<path d="M 0 0 L 1 0 L 1 1 z" style="fill:url(#grad25-94)"/>
		</pattern>
		<linearGradient id="grad28-93" v:fillPattern="31" v:foreground="#ffffff" v:background="#a7a7a7" x1="0" y1="0" x2="0" y2="1">
			<stop offset="0" style="stop-color:#ffffff;stop-opacity:1"/>
			<stop offset="1" style="stop-color:#a7a7a7;stop-opacity:1"/>
		</linearGradient>
		<linearGradient id="grad25-94" v:fillPattern="31" v:foreground="#ffffff" v:background="#a7a7a7" x1="0" y1="0" x2="1" y2="0">
			<stop offset="0" style="stop-color:#ffffff;stop-opacity:1"/>
			<stop offset="1" style="stop-color:#a7a7a7;stop-opacity:1"/>
		</linearGradient>
		<pattern id="grad32-101" v:fillPattern="32" v:foreground="#ffffff" v:background="#c0c0c0" x="0" y="0" width="1" height="1"
				patternContentUnits="objectBoundingBox">
			<path d="M 0 1 L 0 0 L 1 0 z" style="fill:url(#grad27-102)"/>
			<path d="M 0 1 L 1 1 L 1 0 z" style="fill:url(#grad28-103)"/>
		</pattern>
		<linearGradient id="grad27-102" v:fillPattern="32" v:foreground="#ffffff" v:background="#c0c0c0" x1="1" y1="0" x2="0"
				y2="0">
			<stop offset="0" style="stop-color:#ffffff;stop-opacity:1"/>
			<stop offset="1" style="stop-color:#c0c0c0;stop-opacity:1"/>
		</linearGradient>
		<linearGradient id="grad28-103" v:fillPattern="32" v:foreground="#ffffff" v:background="#c0c0c0" x1="0" y1="0" x2="0"
				y2="1">
			<stop offset="0" style="stop-color:#ffffff;stop-opacity:1"/>
			<stop offset="1" style="stop-color:#c0c0c0;stop-opacity:1"/>
		</linearGradient>
	</defs>
	<defs id="Markers">
		<g id="lend13">
			<path d="M 3 1 L 0 0 L 3 -1 L 3 1 " style="stroke:none"/>
		</g>
		<marker id="mrkr13-50" class="st15" v:arrowType="13" v:arrowSize="2" v:setback="10.56" refX="-10.56" orient="auto"
				markerUnits="strokeWidth" overflow="visible">
			<use xlink:href="#lend13" transform="scale(-3.52,-3.52) "/>
		</marker>
		<marker id="mrkr13-66" class="st15" v:arrowType="13" v:arrowSize="2" v:setback="10.2" refX="10.2" orient="auto"
				markerUnits="strokeWidth" overflow="visible">
			<use xlink:href="#lend13" transform="scale(3.52) "/>
		</marker>
	</defs>
	<g v:mID="8" v:index="6" v:groupContext="foregroundPage">
		<title>aliceconnect</title>
		<v:pageProperties v:drawingScale="1" v:pageScale="1" v:drawingUnits="19" v:shadowOffsetX="9" v:shadowOffsetY="-9"/>
		<v:layer v:name="Flowchart" v:index="0"/>
		<g id="shape1-1" v:mID="1" v:groupContext="shape" v:layerMember="0" transform="translate(131.571,-247.5)">
			<title>Drum storage</title>
			<desc>Mesh Portal</desc>
			<v:custProps>
				<v:cp v:nameU="Cost" v:lbl="Cost" v:type="7" v:format="@" v:langID="1033"/>
				<v:cp v:nameU="Duration" v:lbl="Duration" v:type="2" v:langID="1033"/>
				<v:cp v:nameU="Resources" v:lbl="Resources" v:langID="1033"/>
			</v:custProps>
			<v:userDefs>
				<v:ud v:nameU="visVersion" v:val="VT0(14):26"/>
				<v:ud v:nameU="Scale" v:val="VT0(1):26"/>
				<v:ud v:nameU="AntiScale" v:val="VT0(1):26"/>
			</v:userDefs>
			<v:textBlock v:margins="rect(2,2,2,2)"/>
			<v:textRect cx="45" cy="282.25" width="74.25" height="31.5"/>
			<path d="M82.12 298 A15.5306 15.5306 -180 0 0 90 282.25 A15.8764 15.8764 -180 0 0 82.12 266.5 L7.87 266.5 A15.8764 15.8764
						 -180 0 0 0 282.25 A15.5306 15.5306 -180 0 0 7.88 298 L82.12 298 Z" class="st1"/>
			<text x="15.41" y="285.85" class="st2" v:langID="1033"><v:paragraph v:horizAlign="1"/><v:tabList/>Mesh Portal</text>		</g>
		<g id="group2-4" transform="translate(294,-139.5)" v:mID="2" v:groupContext="group">
			<v:custProps>
				<v:cp v:nameU="ShapeClass" v:lbl="ShapeClass" v:type="0" v:invis="true" v:ask="false" v:langID="1033"
						v:val="VT4(Equipment)"/>
				<v:cp v:nameU="ShapeType" v:lbl="ShapeType" v:type="0" v:invis="true" v:ask="false" v:langID="1033"
						v:val="VT4(Computer)"/>
				<v:cp v:nameU="SubShapeType" v:lbl="SubShapeType" v:type="0" v:invis="true" v:ask="false" v:langID="1033"
						v:val="VT4(Tablet)"/>
				<v:cp v:nameU="Manufacturer" v:lbl="Manufacturer" v:type="0" v:sortKey="Equipment" v:invis="false" v:ask="false"
						v:langID="1033"/>
				<v:cp v:nameU="ProductNumber" v:lbl="Product Number" v:type="0" v:sortKey="Equipment" v:invis="false" v:ask="false"
						v:langID="1033"/>
				<v:cp v:nameU="PartNumber" v:lbl="Part Number" v:type="0" v:sortKey="Equipment" v:invis="false" v:ask="false"
						v:langID="1033"/>
				<v:cp v:nameU="ProductDescription" v:lbl="Product Description" v:type="0" v:sortKey="Equipment" v:invis="false"
						v:ask="false" v:langID="1033"/>
				<v:cp v:nameU="AssetNumber" v:lbl="Asset Number" v:type="0" v:sortKey="Asset" v:invis="false" v:ask="false"
						v:langID="1033"/>
				<v:cp v:nameU="SerialNumber" v:lbl="Serial Number" v:type="0" v:sortKey="Asset" v:invis="false" v:ask="false"
						v:langID="1033"/>
				<v:cp v:nameU="Location" v:lbl="Location" v:type="0" v:sortKey="Asset" v:invis="false" v:ask="false"
						v:langID="1033"/>
				<v:cp v:nameU="Building" v:lbl="Building" v:type="0" v:sortKey="Asset" v:invis="false" v:ask="false"
						v:langID="1033"/>
				<v:cp v:nameU="Room" v:lbl="Room" v:type="0" v:sortKey="Asset" v:invis="false" v:ask="false" v:langID="1033"/>
				<v:cp v:nameU="NetworkName" v:lbl="Network Name" v:type="0" v:sortKey="Network" v:invis="false" v:ask="false"
						v:langID="1033"/>
				<v:cp v:nameU="IPAddress" v:lbl="IP Address" v:type="0" v:sortKey="Network" v:invis="false" v:ask="false"
						v:langID="1033"/>
				<v:cp v:nameU="SubnetMask" v:lbl="Subnet Mask" v:type="0" v:sortKey="Network" v:invis="false" v:ask="false"
						v:langID="1033"/>
				<v:cp v:nameU="AdminInterface" v:lbl="Administrative Interface" v:type="0" v:sortKey="Network" v:invis="false"
						v:ask="false" v:langID="1033"/>
				<v:cp v:nameU="NumberofPorts" v:lbl="Number of Ports" v:type="0" v:sortKey="Network" v:invis="false" v:ask="false"
						v:langID="1033"/>
				<v:cp v:nameU="MACAddress" v:lbl="MAC Address" v:type="0" v:sortKey="Network" v:invis="false" v:ask="false"
						v:langID="1033"/>
				<v:cp v:nameU="CommunityString" v:lbl="Community String" v:type="0" v:sortKey="Network" v:invis="false"
						v:ask="false" v:langID="1033"/>
				<v:cp v:nameU="NetworkDescription" v:lbl="Network Description" v:type="0" v:sortKey="Network" v:invis="false"
						v:ask="false" v:langID="1033"/>
				<v:cp v:nameU="HardDriveSize" v:lbl="Hard Drive Capacity" v:type="0" v:sortKey="Workstation" v:invis="false"
						v:ask="false" v:langID="1033"/>
				<v:cp v:nameU="CPU" v:lbl="CPU" v:type="0" v:sortKey="Workstation" v:invis="false" v:ask="false" v:langID="1033"/>
				<v:cp v:nameU="Memory" v:lbl="Memory" v:type="0" v:sortKey="Workstation" v:invis="false" v:ask="false"
						v:langID="1033"/>
				<v:cp v:nameU="OperatingSystem" v:lbl="Operating System" v:type="0" v:sortKey="Workstation" v:invis="false"
						v:ask="false" v:langID="1033"/>
			</v:custProps>
			<v:userDefs>
				<v:ud v:nameU="HasText" v:val="VT0(0):5"/>
				<v:ud v:nameU="ShapeClass" v:val="VT0(5):26"/>
				<v:ud v:nameU="ShapeType" v:val="VT0(6):26"/>
				<v:ud v:nameU="SubShapeType" v:val="VT0(69):26"/>
				<v:ud v:nameU="SolSH" v:val="VT14({BF0433D9-CD73-4EB5-8390-8653BE590246}):41"/>
				<v:ud v:nameU="visLegendShape" v:val="VT0(2):26"/>
				<v:ud v:nameU="visVersion" v:prompt="" v:val="VT0(14):26"/>
			</v:userDefs>
			<title>Tablet computer</title>
			<g id="shape3-5" v:mID="3" v:groupContext="shape" transform="translate(0,8.71705E-006)">
				<title>Sheet.3</title>
				<path d="M1.08 264.7 a1.09821 0.677875 -80 1 0 -0.192549 1.96692 A1.79415 1.73456 -90 0 0 1.07 264.69 L1.08 264.7
							 ZM10.75 255.83 A71.3073 68.9391 89.62 0 1 19.46 260.08 A71.3991 69.0279 -89.52 0 0 10.75 255.83 ZM1.08
							 264.7 a1.09821 0.677875 100 0 1 -0.192549 1.96692 A1.79415 1.73456 90 0 1 0.72 266.85 L10.75 268.64
							 L10.75 287.71 A47.5986 46.0178 -90.26 0 0 28.23 298 A5.29978 5.12376 -88.53 0 0 31.53 295.65 L31.57
							 264.16 A2.56534 2.48014 89.86 0 1 28.23 266.11 A2.7877 2.69512 -87.63 0 0 31.57 264.16 A57.1018 55.2054
							 -90.89 0 0 13.93 253.98 A3.04361 2.94253 -89.3 0 0 10.75 255.83 L10.75 266.84 L1.07 264.69 L1.08 264.7
							 Z" class="st3"/>
				<path d="M1.08 264.7 a1.09821 0.677875 -80 1 0 -0.192549 1.96692 A1.79415 1.73456 -90 0 0 1.07 264.69M10.75 255.83
							 A71.3073 68.9391 89.62 0 1 19.46 260.08 A71.3991 69.0279 -89.52 0 0 10.75 255.83M1.08 264.7 a1.09821
							 0.677875 100 0 1 -0.192549 1.96692 A1.79415 1.73456 90 0 1 0.72 266.85 L10.75 268.64 L10.75 287.71 A47.5986
							 46.0178 -90.26 0 0 28.23 298 A5.29978 5.12376 -88.53 0 0 31.53 295.65 L31.57 264.16 A2.56534 2.48014
							 89.86 0 1 28.23 266.11 A2.7877 2.69512 -87.63 0 0 31.57 264.16 A57.1018 55.2054 -90.89 0 0 13.93 253.98
							 A3.04361 2.94253 -89.3 0 0 10.75 255.83 L10.75 266.84 L1.07 264.69" class="st4"/>
			</g>
			<g id="shape4-8" v:mID="4" v:groupContext="shape" transform="translate(11.3143,5.68434E-014)">
				<title>Sheet.4</title>
				<path d="M0 287.71 A47.5986 46.0178 -90.26 0 0 17.49 298 L17.49 266.11 A71.3991 69.0279 -89.52 0 0 0 255.83 L0 287.71
							 Z" class="st5"/>
			</g>
			<g id="shape5-12" v:mID="5" v:groupContext="shape" transform="translate(28.8,5.68434E-014)">
				<title>Sheet.5</title>
				<path d="M0 298 A5.29978 5.12376 -88.53 0 0 3.29 295.65 L3.34 264.16 A2.56534 2.48014 89.86 0 1 0 266.11 L0 298 Z"
						class="st6"/>
			</g>
			<g id="shape6-16" v:mID="6" v:groupContext="shape" transform="translate(11.3143,-31.7799)">
				<title>Sheet.6</title>
				<path d="M-0 287.61 A71.3073 68.9391 89.62 0 1 17.49 297.89 A2.7877 2.69512 -87.63 0 0 20.83 295.94 A57.1018 55.2054
							 -90.89 0 0 3.19 285.76 A3.04361 2.94253 -89.3 0 0 0 287.61 Z" class="st7"/>
			</g>
			<g id="shape7-20" v:mID="7" v:groupContext="shape" transform="translate(13.0629,-4.62857)">
				<title>Sheet.7</title>
				<path d="M14.45 298 L0 289.67 L0 263.18" class="st8"/>
			</g>
			<g id="shape8-24" v:mID="8" v:groupContext="shape" transform="translate(-124.764,36.4705) rotate(-30)">
				<title>Sheet.8</title>
				<ellipse cx="0.596697" cy="297.235" rx="0.596697" ry="0.764753" class="st9"/>
			</g>
			<g id="shape9-28" v:mID="9" v:groupContext="shape" transform="translate(13.0629,-4.62857)">
				<title>Sheet.9</title>
				<path d="M0.57 289.36 L14.45 297.49 L14.45 298 L14.45 271.51 L0 263.18 L0.57 263.54 L0.57 289.36 Z" class="st10"/>
			</g>
			<g id="shape10-36" v:mID="10" v:groupContext="shape" transform="translate(17.0391,-28.4702)">
				<title>Sheet.10</title>
				<path d="M0 298 L1.45 297.7 L0.11 296.72 L0 298 Z" class="st11"/>
			</g>
			<g id="shape11-38" v:mID="11" v:groupContext="shape" transform="translate(0,6.22647E-006)">
				<title>Sheet.11</title>
				<path d="M11.31 287.71 A48.8099 46.7144 -90.81 0 0 28.8 298 A3.82447 3.66028 -91.42 0 0 32.09 295.85 L32.14 264.16
							 A62.021 59.3583 -91.17 0 0 14.5 253.98 A3.10961 2.97611 -89.03 0 0 11.31 255.83 L11.32 266.17 L1.72
							 264.03 A1.47913 1.54548 -180 0 0 0.01 265.71 A1.82174 1.90346 -180 0 0 1.28 267.42 L11.32 269.08 L11.31
							 287.71" class="st12"/>
			</g>
			<g id="shape12-41" v:mID="12" v:groupContext="shape" transform="translate(0.568677,-28.36)">
				<title>Sheet.12</title>
				<path d="M1.36 294.17 a0.677875 1.09821 -170 1 0 -1.33515 -0.235424 a0.677875 1.09821 -170 1 0 1.33515 0.235424 ZM0.72
							 295.21 L16.36 298 L16.6 296.5 L1.07 293.05 A1.79415 1.73456 90 0 1 0.72 295.21 Z" class="st13"/>
			</g>
		</g>
		<g id="shape31-45" v:mID="31" v:groupContext="shape" transform="translate(-142.146,-99.4678) rotate(-45)">
			<title>Sheet.31</title>
			<desc>Connect</desc>
			<v:textBlock v:margins="rect(4,4,4,4)" v:verticalAlign="2"/>
			<v:textRect cx="41.3657" cy="298" width="82.74" height="0"/>
			<path d="M0 298 L72.17 298" class="st14"/>
			<rect v:rectContext="textBkgnd" x="21.1654" y="279.6" width="40.4008" height="14.4001" class="st16"/>
			<text x="21.17" y="290.4" class="st2" v:langID="1033"><v:paragraph v:horizAlign="1"/><v:tabList/>Connect</text>		</g>
		<g id="shape32-53" v:mID="32" v:groupContext="shape" transform="translate(421.745,-188.077) rotate(38.2338)">
			<title>Sheet.32</title>
			<desc>Pending Requests</desc>
			<v:textBlock v:margins="rect(4,4,4,4)" v:verticalAlign="2"/>
			<v:textRect cx="47.2634" cy="298" width="94.53" height="0"/>
			<path d="M0 298 L83.97 298" class="st14"/>
			<rect v:rectContext="textBkgnd" x="25.0269" y="265.2" width="44.4732" height="28.8001" class="st16"/>
			<text x="27.52" y="276" class="st2" v:langID="1033"><v:paragraph v:horizAlign="1"/><v:tabList/>Pending <tspan x="25.03"
						dy="1.2em" class="st17">Requests</tspan></text>		</g>
		<g id="shape34-61" v:mID="34" v:groupContext="shape" transform="translate(395.871,-174.4) rotate(36.8699)">
			<title>Sheet.34</title>
			<desc>Approve</desc>
			<v:textBlock v:margins="rect(4,4,4,4)" v:verticalAlign="2"/>
			<v:textRect cx="45" cy="298" width="90" height="0"/>
			<path d="M10.2 298 L10.56 298 L90 298" class="st18"/>
			<rect v:rectContext="textBkgnd" x="24.2724" y="279.6" width="41.4553" height="14.4001" class="st16"/>
			<text x="24.27" y="290.4" class="st2" v:langID="1033"><v:paragraph v:horizAlign="1"/><v:tabList/>Approve</text>		</g>
		<g id="group37-69" transform="translate(158.571,-36)" v:mID="37" v:groupContext="group" v:layerMember="0">
			<v:custProps>
				<v:cp v:nameU="Cost" v:lbl="Cost" v:type="7" v:format="@" v:langID="1033"/>
				<v:cp v:nameU="Duration" v:lbl="Duration" v:type="2" v:langID="1033"/>
				<v:cp v:nameU="Resources" v:lbl="Resources" v:langID="1033"/>
			</v:custProps>
			<v:userDefs>
				<v:ud v:nameU="visVersion" v:val="VT0(14):26"/>
			</v:userDefs>
			<title>Person 1</title>
			<g id="shape38-70" v:mID="38" v:groupContext="shape" v:layerMember="0" transform="translate(33.1059,-75.6) scale(-1,1)">
				<title>Sheet.38</title>
				<path d="M0 288.55 A9.48093 9.45 0 0 1 18.96 288.55 A9.48093 9.45 0 0 1 0 288.55 Z" class="st11"/>
			</g>
			<g id="shape39-72" v:mID="39" v:groupContext="shape" v:layerMember="0">
				<title>Sheet.39</title>
				<path d="M24.17 261.38 L35.16 298 L43.95 298 L35.16 255.47 L35.16 230.67 L41.76 250.75 L47.25 247.21 L39.56 222.4
							 L24.17 223.58 L8.79 222.4 L0 248.39 L6.59 250.75 L13.19 230.67 L13.19 255.47 L4.4 298 L13.19 298 L24.17
							 261.38 Z" class="st11"/>
			</g>
			<g id="shape40-74" v:mID="40" v:groupContext="shape" v:layerMember="0" transform="translate(0,18)">
				<title>Sheet.40</title>
				<desc>Alice</desc>
				<v:userDefs>
					<v:ud v:nameU="ScaleFactor" v:val="VT0(1):26"/>
				</v:userDefs>
				<v:textBlock v:margins="rect(0,0,0,0)"/>
				<v:textRect cx="23.625" cy="289" width="47.25" height="18"/>
				<rect x="0" y="280" width="47.25" height="18" class="st19"/>
				<text x="11.88" y="292.6" class="st2" v:langID="1033"><v:paragraph v:horizAlign="1"/><v:tabList/>Alice</text>			</g>
		</g>
		<g id="shape28-77" v:mID="28" v:groupContext="shape" transform="translate(60.3675,-49.099) rotate(-31.2184)">
			<title>Sheet.28</title>
			<path d="M0 298 L86.82 298" class="st20"/>
		</g>
		<g id="shape29-80" v:mID="29" v:groupContext="shape" transform="translate(10.9507,465.887) rotate(-150.803)">
			<title>Sheet.29</title>
			<path d="M0 298 L87.63 298" class="st20"/>
		</g>
		<g id="group13-83" transform="translate(19.5,-126)" v:mID="13" v:groupContext="group">
			<v:custProps>
				<v:cp v:nameU="ShapeClass" v:lbl="ShapeClass" v:type="0" v:invis="true" v:ask="false" v:langID="1033"
						v:val="VT4(Equipment)"/>
				<v:cp v:nameU="ShapeType" v:lbl="ShapeType" v:type="0" v:invis="true" v:ask="false" v:langID="1033"
						v:val="VT4(Computer)"/>
				<v:cp v:nameU="SubShapeType" v:lbl="SubShapeType" v:type="0" v:invis="true" v:ask="false" v:langID="1033"
						v:val="VT4(Macintosh)"/>
				<v:cp v:nameU="Manufacturer" v:lbl="Manufacturer" v:type="0" v:sortKey="Equipment" v:invis="false" v:ask="false"
						v:langID="1033"/>
				<v:cp v:nameU="ProductNumber" v:lbl="Product Number" v:type="0" v:sortKey="Equipment" v:invis="false" v:ask="false"
						v:langID="1033"/>
				<v:cp v:nameU="PartNumber" v:lbl="Part Number" v:type="0" v:sortKey="Equipment" v:invis="false" v:ask="false"
						v:langID="1033"/>
				<v:cp v:nameU="ProductDescription" v:lbl="Product Description" v:type="0" v:sortKey="Equipment" v:invis="false"
						v:ask="false" v:langID="1033"/>
				<v:cp v:nameU="AssetNumber" v:lbl="Asset Number" v:type="0" v:sortKey="Asset" v:invis="false" v:ask="false"
						v:langID="1033"/>
				<v:cp v:nameU="SerialNumber" v:lbl="Serial Number" v:type="0" v:sortKey="Asset" v:invis="false" v:ask="false"
						v:langID="1033"/>
				<v:cp v:nameU="Location" v:lbl="Location" v:type="0" v:sortKey="Asset" v:invis="false" v:ask="false"
						v:langID="1033"/>
				<v:cp v:nameU="Building" v:lbl="Building" v:type="0" v:sortKey="Asset" v:invis="false" v:ask="false"
						v:langID="1033"/>
				<v:cp v:nameU="Room" v:lbl="Room" v:type="0" v:sortKey="Asset" v:invis="false" v:ask="false" v:langID="1033"/>
				<v:cp v:nameU="NetworkName" v:lbl="Network Name" v:type="0" v:sortKey="Network" v:invis="false" v:ask="false"
						v:langID="1033"/>
				<v:cp v:nameU="IPAddress" v:lbl="IP Address" v:type="0" v:sortKey="Network" v:invis="false" v:ask="false"
						v:langID="1033"/>
				<v:cp v:nameU="SubnetMask" v:lbl="Subnet Mask" v:type="0" v:sortKey="Network" v:invis="false" v:ask="false"
						v:langID="1033"/>
				<v:cp v:nameU="AdminInterface" v:lbl="Administrative Interface" v:type="0" v:sortKey="Network" v:invis="false"
						v:ask="false" v:langID="1033"/>
				<v:cp v:nameU="NumberofPorts" v:lbl="Number of Ports" v:type="0" v:sortKey="Network" v:invis="false" v:ask="false"
						v:langID="1033"/>
				<v:cp v:nameU="MACAddress" v:lbl="MAC Address" v:type="0" v:sortKey="Network" v:invis="false" v:ask="false"
						v:langID="1033"/>
				<v:cp v:nameU="CommunityString" v:lbl="Community String" v:type="0" v:sortKey="Network" v:invis="false"
						v:ask="false" v:langID="1033"/>
				<v:cp v:nameU="NetworkDescription" v:lbl="Network Description" v:type="0" v:sortKey="Network" v:invis="false"
						v:ask="false" v:langID="1033"/>
				<v:cp v:nameU="HardDriveSize" v:lbl="Hard Drive Capacity" v:type="0" v:sortKey="Workstation" v:invis="false"
						v:ask="false" v:langID="1033"/>
				<v:cp v:nameU="CPU" v:lbl="CPU" v:type="0" v:sortKey="Workstation" v:invis="false" v:ask="false" v:langID="1033"/>
				<v:cp v:nameU="Memory" v:lbl="Memory" v:type="0" v:sortKey="Workstation" v:invis="false" v:ask="false"
						v:langID="1033"/>
				<v:cp v:nameU="OperatingSystem" v:lbl="Operating System" v:type="0" v:sortKey="Workstation" v:invis="false"
						v:ask="false" v:langID="1033"/>
			</v:custProps>
			<v:userDefs>
				<v:ud v:nameU="HasText" v:val="VT0(0):5"/>
				<v:ud v:nameU="ShapeClass" v:val="VT0(5):26"/>
				<v:ud v:nameU="ShapeType" v:val="VT0(6):26"/>
				<v:ud v:nameU="SubShapeType" v:val="VT0(40):26"/>
				<v:ud v:nameU="SolSH" v:val="VT14({BF0433D9-CD73-4EB5-8390-8653BE590246}):41"/>
				<v:ud v:nameU="visLegendShape" v:val="VT0(2):26"/>
				<v:ud v:nameU="visVersion" v:prompt="" v:val="VT0(14):26"/>
			</v:userDefs>
			<title>New iMac</title>
			<g id="shape14-84" v:mID="14" v:groupContext="shape">
				<title>Sheet.14</title>
				<path d="M23.4 298 L33.64 292.15 L33.64 289.23 L9.94 275.65 L0 282.79 L0 284.54 L23.4 298 ZM32.82 274.06 A13.5418
							 12.7203 -180 0 0 31.5 281.09 A15.449 14.5118 -180 0 0 57.92 283.38 A13.5418 12.7203 -180 0 0 58.42 278.31
							 A13.5418 12.7203 -180 0 0 52.89 269.39 L52.9 253.83 A65.0661 61.1189 -178.53 0 0 28.08 239.5 L24.86
							 241.36 L24.86 267.97 A71.6967 67.3472 -178.38 0 0 32.82 274.06 Z" class="st21"/>
			</g>
			<g id="shape15-86" v:mID="15" v:groupContext="shape" transform="translate(31.4164,-8.65454)">
				<title>Sheet.15</title>
				<path d="M27 286.97 A13.5418 12.7203 -180 1 0 0.08 289.75 A15.449 14.5118 -180 0 0 26.5 292.04 A13.5418 12.7203 -180
							 0 0 27 286.97 Z" class="st7"/>
			</g>
			<g id="shape16-89" v:mID="16" v:groupContext="shape" transform="translate(49.725,-15.678)">
				<title>Sheet.16</title>
				<path d="M0 298 L3.16 296.19 L3.18 269.51 L0 271.32 L0 298 Z" class="st22"/>
			</g>
			<g id="shape17-95" v:mID="17" v:groupContext="shape" transform="translate(24.8607,-42.354)">
				<title>Sheet.17</title>
				<path d="M0 283.71 A67.1777 63.1024 1.25 0 1 24.86 298 L28.04 296.18 A65.0661 61.1189 -178.53 0 0 3.22 281.85 L0
							 283.71 Z" class="st7"/>
			</g>
			<g id="shape18-98" v:mID="18" v:groupContext="shape" transform="translate(24.8607,-15.678)">
				<title>Sheet.18</title>
				<path d="M-0 283.64 A71.6967 67.3472 -178.38 0 0 24.86 298 L24.86 271.32 A67.1777 63.1024 -178.75 0 0 0 257.04 L0
							 283.64 Z" class="st23"/>
			</g>
			<g id="shape19-104" v:mID="19" v:groupContext="shape" transform="translate(24.8607,-8.67514)">
				<title>Sheet.19</title>
				<path d="M-0 276.64 A89.3225 83.9038 -176.15 0 0 7.7 282.77 A18.9194 17.7717 -180 0 0 6.79 289.74 A15.2915 14.3638
							 -180 0 0 33.04 292.03 A14.1903 13.3294 -1.65 0 0 28.03 278.07 L28.04 262.51 A65.0672 61.1199 -178.54
							 0 0 3.22 248.18 L0 250.03 L0 276.64" class="st12"/>
			</g>
			<g id="shape20-107" v:mID="20" v:groupContext="shape" transform="translate(27.261,-18.8475)">
				<title>Sheet.20</title>
				<path d="M0 263.5 L0 286.31 L20.12 298" class="st8"/>
			</g>
			<g id="shape21-111" v:mID="21" v:groupContext="shape" transform="translate(0,-1.755)">
				<title>Sheet.21</title>
				<path d="M0 284.54 L9.94 277.41 L33.64 290.98 L23.4 298 L0 284.54 Z" class="st7"/>
			</g>
			<g id="shape22-114" v:mID="22" v:groupContext="shape" transform="translate(23.4,5.68434E-014)">
				<title>Sheet.22</title>
				<path d="M0 298 L0 296.24 L10.24 289.23 L10.24 292.15 L0 298 Z" class="st22"/>
			</g>
			<g id="group23-117" transform="translate(2.925,-3.53655)" v:mID="23" v:groupContext="group">
				<title>Sheet.23</title>
				<g id="shape24-118" v:mID="24" v:groupContext="shape" transform="translate(0,-0.380677)">
					<title>Sheet.24</title>
					<path d="M0 286.32 L1.65 287.27 L3.02 286.39 L1.37 285.44 L0 286.32 ZM2.04 284.98 L3.69 285.93 L5.06 285.06 L3.41
								 284.11 L2.04 284.98 ZM4.08 283.65 L5.73 284.6 L7.1 283.73 L5.45 282.77 L4.08 283.65 ZM6.12 282.32
								 L7.77 283.27 L9.14 282.39 L7.49 281.44 L6.12 282.32 ZM9.18 284.11 L10.83 285.06 L12.2 284.18 L10.55
								 283.23 L9.18 284.11 ZM12.24 285.9 L13.88 286.85 L15.26 285.97 L13.61 285.02 L12.24 285.9 ZM15.3
								 287.68 L16.94 288.64 L18.32 287.76 L16.67 286.81 L15.3 287.68 ZM21.42 291.26 L23.06 292.21 L24.44
								 291.34 L22.79 290.39 L21.42 291.26 ZM24.48 293.05 L26.12 294 L27.49 293.13 L25.85 292.18 L24.48
								 293.05 ZM22.44 294.38 L24.08 295.34 L25.46 294.46 L23.81 293.51 L22.44 294.38 ZM19.38 292.59 L21.02
								 293.55 L22.4 292.67 L20.75 291.72 L19.38 292.59 ZM18.36 289.47 L20 290.42 L21.38 289.55 L19.73 288.6
								 L18.36 289.47 ZM16.32 290.81 L17.96 291.76 L19.34 290.88 L17.69 289.93 L16.32 290.81 ZM13.26 289.02
								 L14.9 289.97 L16.28 289.09 L14.63 288.14 L13.26 289.02 ZM10.2 287.23 L11.85 288.18 L13.22 287.3
								 L11.57 286.35 L10.2 287.23 ZM7.14 285.44 L8.79 286.39 L10.16 285.52 L8.51 284.56 L7.14 285.44 ZM5.1
								 286.77 L6.75 287.72 L8.12 286.85 L6.47 285.9 L5.1 286.77 ZM8.16 288.56 L9.81 289.51 L11.18 288.64
								 L9.53 287.68 L8.16 288.56 ZM11.22 290.35 L12.86 291.3 L14.24 290.43 L12.59 289.47 L11.22 290.35
								 ZM14.28 292.14 L15.92 293.09 L17.3 292.21 L15.65 291.26 L14.28 292.14 ZM17.34 293.93 L18.98 294.88
								 L20.36 294 L18.71 293.05 L17.34 293.93 ZM20.4 295.72 L22.04 296.67 L23.42 295.79 L21.77 294.84 L20.4
								 295.72 ZM18.36 297.05 L20 298 L21.38 297.12 L19.73 296.17 L18.36 297.05 ZM15.3 295.26 L16.94 296.21
								 L18.32 295.34 L16.67 294.38 L15.3 295.26 ZM6.12 289.89 L13.88 294.42 L15.26 293.55 L7.49 289.02
								 L6.12 289.89 ZM3.06 288.1 L4.71 289.06 L6.08 288.18 L4.43 287.23 L3.06 288.1 Z" class="st24"/>
				</g>
				<g id="shape25-120" v:mID="25" v:groupContext="shape" transform="translate(0.000647062,1.13687E-013)">
					<title>Sheet.25</title>
					<path d="M6.12 282.32 L7.77 283.27 L7.77 282.89 L6.12 281.94 L6.12 282.32 ZM9.18 284.11 L10.83 285.06 L10.83
								 284.68 L9.18 283.73 L9.18 284.11 ZM12.24 285.9 L13.88 286.85 L13.88 286.47 L12.24 285.51 L12.24
								 285.9 ZM15.3 287.68 L16.94 288.64 L16.94 288.26 L15.3 287.3 L15.3 287.68 ZM18.36 289.47 L20 290.42
								 L20 290.04 L18.36 289.09 L18.36 289.47 ZM21.42 291.26 L23.06 292.21 L23.06 291.83 L21.42 290.88
								 L21.42 291.26 ZM7.77 282.89 L7.77 283.27 L9.14 282.39 L9.14 282.01 L7.77 282.89 ZM10.83 284.68 L10.83
								 285.06 L12.2 284.18 L12.2 283.8 L10.83 284.68 ZM13.88 286.47 L13.88 286.85 L15.26 285.97 L15.26
								 285.59 L13.88 286.47 ZM16.94 288.25 L16.94 288.64 L18.32 287.76 L18.32 287.38 L16.94 288.25 ZM20
								 290.04 L20 290.42 L21.38 289.55 L21.38 289.17 L20 290.04 ZM23.06 291.83 L23.06 292.21 L24.43 291.34
								 L24.44 290.96 L23.06 291.83 ZM24.47 293.05 L26.12 294 L26.12 293.62 L24.47 292.67 L24.47 293.05
								 ZM26.12 293.62 L26.12 294 L27.49 293.13 L27.49 292.75 L26.12 293.62 ZM4.08 283.65 L5.73 284.6 L5.73
								 284.22 L4.08 283.27 L4.08 283.65 ZM7.14 285.44 L8.79 286.39 L8.79 286.01 L7.14 285.06 L7.14 285.44
								 ZM10.2 287.23 L11.85 288.18 L11.85 287.8 L10.2 286.85 L10.2 287.23 ZM13.26 289.02 L14.9 289.97 L14.9
								 289.59 L13.26 288.64 L13.26 289.02 ZM16.32 290.81 L17.96 291.76 L17.96 291.38 L16.32 290.42 L16.32
								 290.81 ZM19.38 292.59 L21.02 293.55 L21.02 293.17 L19.38 292.21 L19.38 292.59 ZM5.73 284.22 L5.73
								 284.6 L7.1 283.73 L7.1 283.34 L5.73 284.22 ZM8.79 286.01 L8.79 286.39 L10.16 285.51 L10.16 285.13
								 L8.79 286.01 ZM11.84 287.8 L11.84 288.18 L13.22 287.3 L13.22 286.92 L11.84 287.8 ZM14.9 289.59 L14.9
								 289.97 L16.28 289.09 L16.28 288.71 L14.9 289.59 ZM17.96 291.38 L17.96 291.76 L19.34 290.88 L19.34
								 290.5 L17.96 291.38 ZM21.02 293.17 L21.02 293.55 L22.4 292.67 L22.4 292.29 L21.02 293.17 ZM22.43
								 294.38 L24.08 295.34 L24.08 294.95 L22.43 294 L22.43 294.38 ZM24.08 294.95 L24.08 295.34 L25.45
								 294.46 L25.45 294.08 L24.08 294.95 ZM2.04 284.98 L3.69 285.93 L3.69 285.55 L2.04 284.6 L2.04 284.98
								 ZM5.1 286.77 L6.75 287.72 L6.75 287.34 L5.1 286.39 L5.1 286.77 ZM8.16 288.56 L9.81 289.51 L9.81
								 289.13 L8.16 288.18 L8.16 288.56 ZM11.22 290.35 L12.86 291.3 L12.86 290.92 L11.22 289.97 L11.22
								 290.35 ZM14.28 292.14 L15.92 293.09 L15.92 292.71 L14.28 291.76 L14.28 292.14 ZM17.34 293.93 L18.98
								 294.88 L18.98 294.5 L17.34 293.55 L17.34 293.93 ZM3.69 285.55 L3.69 285.93 L5.06 285.06 L5.06 284.68
								 L3.69 285.55 ZM6.75 287.34 L6.75 287.72 L8.12 286.85 L8.12 286.47 L6.75 287.34 ZM9.8 289.13 L9.8
								 289.51 L11.18 288.64 L11.18 288.26 L9.8 289.13 ZM12.86 290.92 L12.86 291.3 L14.24 290.42 L14.24
								 290.04 L12.86 290.92 ZM15.92 292.71 L15.92 293.09 L17.3 292.21 L17.3 291.83 L15.92 292.71 ZM18.98
								 294.5 L18.98 294.88 L20.36 294 L20.36 293.62 L18.98 294.5 ZM20.39 295.72 L22.04 296.67 L22.04 296.29
								 L20.39 295.33 L20.39 295.72 ZM22.04 296.29 L22.04 296.67 L23.41 295.79 L23.41 295.41 L22.04 296.29
								 ZM0 286.31 L1.65 287.27 L1.65 286.89 L0 285.93 L0 286.31 ZM3.06 288.1 L4.71 289.06 L4.71 288.68
								 L3.06 287.72 L3.06 288.1 ZM6.12 289.89 L13.88 294.42 L13.88 294.04 L6.12 289.51 L6.12 289.89 ZM15.3
								 295.26 L16.94 296.21 L16.94 295.83 L15.3 294.88 L15.3 295.26 ZM1.65 286.88 L1.65 287.27 L3.02 286.39
								 L3.02 286.01 L1.65 286.88 ZM4.71 288.67 L4.71 289.05 L6.08 288.18 L6.08 287.8 L4.71 288.67 ZM13.88
								 294.04 L13.88 294.42 L15.26 293.55 L15.26 293.17 L13.88 294.04 ZM16.94 295.83 L16.94 296.21 L18.32
								 295.34 L18.32 294.95 L16.94 295.83 ZM18.36 297.05 L20 298 L20 297.62 L18.36 296.67 L18.36 297.05
								 ZM20 297.62 L20 298 L21.38 297.12 L21.38 296.74 L20 297.62 Z" class="st25"/>
				</g>
			</g>
			<g id="shape26-122" v:mID="26" v:groupContext="shape">
				<title>Sheet.26</title>
				<path d="M0 284.55 L23.4 298 L23.4 296.24 L0 282.79 L0 284.55 Z" class="st23"/>
			</g>
			<g id="shape27-125" v:mID="27" v:groupContext="shape">
				<title>Sheet.27</title>
				<path d="M0 282.79 L9.94 275.65 L33.64 289.23 L33.64 292.15 L23.4 298 L0 284.54 L0 282.79" class="st12"/>
			</g>
			<g id="shape30-128" v:mID="30" v:groupContext="shape" transform="translate(27.261,-18.8475)">
				<title>Sheet.30</title>
				<path d="M0.5 285.92 L20.12 297.31 L20.12 275.08 L0.5 263.77 L0.5 285.92 Z" class="st26"/>
				<path d="M0.5 285.92 L20.12 297.31 L20.12 275.08 L0.5 263.77 L0.5 285.92" class="st27"/>
				<path d="M20.12 297.31 L20.12 298.35" class="st27"/>
				<path d="M0.5 263.77 L0 263.5" class="st27"/>
			</g>
		</g>
		<g id="shape33-134" v:mID="33" v:groupContext="shape" transform="translate(-127.28,-81.6553) rotate(-45)">
			<title>Sheet.33</title>
			<desc>Profile</desc>
			<v:textBlock v:margins="rect(4,4,4,4)" v:verticalAlign="2"/>
			<v:textRect cx="41.1006" cy="298" width="82.21" height="0"/>
			<path d="M10.2 298 L10.56 298 L82.2 298" class="st18"/>
			<rect v:rectContext="textBkgnd" x="25.1746" y="279.6" width="31.8518" height="14.4001" class="st16"/>
			<text x="25.17" y="290.4" class="st2" v:langID="1033"><v:paragraph v:horizAlign="1"/><v:tabList/>Profile</text>		</g>
	</g>
</svg>
