<?xml version="1.0" encoding="UTF-8" standalone="no"?>
<!DOCTYPE svg PUBLIC "-//W3C//DTD SVG 1.0//EN" "http://www.w3.org/TR/2001/REC-SVG-20010904/DTD/svg10.dtd">
<!-- Generated by Microsoft Visio 11.0, SVG Export, v1.0 aliceprofile.svg aliceprofile -->
<svg xmlns="http://www.w3.org/2000/svg" xmlns:xlink="http://www.w3.org/1999/xlink" xmlns:ev="http://www.w3.org/2001/xml-events"
		xmlns:v="http://schemas.microsoft.com/visio/2003/SVGExtensions/" width="5.9081in" height="4.06444in"
		viewBox="0 0 425.383 292.64" xml:space="preserve" color-interpolation-filters="sRGB" class="st27">
	<v:documentProperties v:langID="1033" v:viewMarkup="false">
		<v:userDefs>
			<v:ud v:nameU="msvNoAutoConnect" v:val="VT0(1):26"/>
		</v:userDefs>
	</v:documentProperties>

	<style type="text/css">
	<![CDATA[
		.st1 {fill:#ffffff;stroke:#000000;stroke-linecap:round;stroke-linejoin:round;stroke-width:0.24}
		.st2 {fill:none;stroke:#000000;stroke-linecap:round;stroke-linejoin:round;stroke-width:0.24;visibility:hidden}
		.st3 {fill:#000000;font-family:Calibri;font-size:1.00001em}
		.st4 {marker-start:url(#mrkr13-14);stroke:#000000;stroke-linecap:round;stroke-linejoin:round;stroke-width:1}
		.st5 {fill:#000000;fill-opacity:1;stroke:#000000;stroke-opacity:1;stroke-width:0.28409090909091}
		.st6 {fill:#ffffff;stroke:none;stroke-linecap:butt;stroke-width:7.2}
		.st7 {fill:#ffffff;stroke:#000000;stroke-linecap:round;stroke-linejoin:round;stroke-width:0.75}
		.st8 {font-size:1em}
		.st9 {fill:#ff00ff;fill-opacity:0}
		.st10 {stroke:#000000;stroke-linecap:round;stroke-linejoin:round;stroke-opacity:0;stroke-width:0.72}
		.st11 {fill:url(#grad36-41);stroke:none;stroke-linecap:round;stroke-linejoin:round;stroke-width:0.72}
		.st12 {fill:url(#grad26-45);stroke:none;stroke-linecap:round;stroke-linejoin:round;stroke-width:0.72}
		.st13 {fill:url(#grad30-49);stroke:#ffffff;stroke-linecap:round;stroke-linejoin:round;stroke-width:0.72}
		.st14 {stroke:#ffffff;stroke-linecap:round;stroke-linejoin:round;stroke-width:0.72}
		.st15 {fill:url(#grad40-57);stroke:#000000;stroke-linecap:round;stroke-linejoin:round;stroke-width:0.12}
		.st16 {fill:url(#grad35-61);stroke:#000000;stroke-linecap:round;stroke-linejoin:round;stroke-width:0.72}
		.st17 {stroke:#000000;stroke-linecap:round;stroke-linejoin:round;stroke-width:1.5}
		.st18 {fill:url(#grad29-74);stroke:#000000;stroke-linecap:round;stroke-linejoin:round;stroke-width:0.72}
		.st19 {fill:#ff00ff;fill-opacity:0;stroke:#000000;stroke-linecap:round;stroke-linejoin:round;stroke-opacity:0;stroke-width:0.72}
		.st20 {fill:url(#grad31-89);stroke:#ffffff;stroke-linecap:round;stroke-linejoin:round;stroke-width:0.72}
		.st21 {fill:url(#grad32-104);stroke:#000000;stroke-linecap:round;stroke-linejoin:round;stroke-width:0.72}
		.st22 {stroke:#000000;stroke-linecap:round;stroke-linejoin:round;stroke-width:0.72}
		.st23 {fill:#ffffff;stroke:none;stroke-linecap:round;stroke-linejoin:round;stroke-width:0.24}
		.st24 {fill:#969696;fill-opacity:0.3;stroke:none;stroke-linecap:round;stroke-linejoin:round;stroke-width:0.72}
		.st25 {fill:none;stroke:#000000;stroke-linecap:round;stroke-linejoin:round;stroke-width:1.5}
		.st26 {marker-end:url(#mrkr13-132);stroke:#000000;stroke-linecap:round;stroke-linejoin:round;stroke-width:1}
		.st27 {fill:none;fill-rule:evenodd;font-size:12px;overflow:visible;stroke-linecap:square;stroke-miterlimit:3}
	]]>
	</style>

	<defs id="Patterns_And_Gradients">
		<radialGradient id="grad36-41" v:fillPattern="36" v:foreground="#ffffff" v:background="#c0c0c0" cx="0" cy="0" r="1">
			<stop offset="0" style="stop-color:#ffffff;stop-opacity:1"/>
			<stop offset="1" style="stop-color:#c0c0c0;stop-opacity:1"/>
		</radialGradient>
		<linearGradient id="grad26-45" v:fillPattern="26" v:foreground="#ffffff" v:background="#a7a7a7" x1="0" y1="0" x2="1" y2="0">
			<stop offset="0" style="stop-color:#a7a7a7;stop-opacity:1"/>
			<stop offset="0.5" style="stop-color:#ffffff;stop-opacity:1"/>
			<stop offset="1" style="stop-color:#a7a7a7;stop-opacity:1"/>
		</linearGradient>
		<linearGradient id="grad30-49" v:fillPattern="30" v:foreground="#ffffff" v:background="#dfdfdf" x1="0" y1="1" x2="0" y2="0">
			<stop offset="0" style="stop-color:#ffffff;stop-opacity:1"/>
			<stop offset="1" style="stop-color:#dfdfdf;stop-opacity:1"/>
		</linearGradient>
		<radialGradient id="grad40-57" v:fillPattern="40" v:foreground="#ffffff" v:background="#008000" cx="0.5" cy="0.5" r="0.5">
			<stop offset="0" style="stop-color:#ffffff;stop-opacity:1"/>
			<stop offset="1" style="stop-color:#008000;stop-opacity:1"/>
		</radialGradient>
		<pattern id="grad35-61" v:fillPattern="35" v:foreground="#ffffff" v:background="#c6d1e3" x="0" y="0" width="1" height="1"
				patternContentUnits="objectBoundingBox">
			<path d="M 0.5 0.5 L 0 0 L 0 1 z" style="fill:url(#grad27-62)"/>
			<path d="M 0.5 0.5 L 1 0 L 1 1 z" style="fill:url(#grad25-63)"/>
			<path d="M 0.5 0.5 L 0 0 L 1 0 z" style="fill:url(#grad30-64)"/>
			<path d="M 0.5 0.5 L 0 1 L 1 1 z" style="fill:url(#grad28-65)"/>
		</pattern>
		<linearGradient id="grad27-62" v:fillPattern="35" v:foreground="#ffffff" v:background="#c6d1e3" x1="1" y1="0" x2="0" y2="0">
			<stop offset="0" style="stop-color:#ffffff;stop-opacity:1"/>
			<stop offset="1" style="stop-color:#c6d1e3;stop-opacity:1"/>
		</linearGradient>
		<linearGradient id="grad25-63" v:fillPattern="35" v:foreground="#ffffff" v:background="#c6d1e3" x1="0" y1="0" x2="1" y2="0">
			<stop offset="0" style="stop-color:#ffffff;stop-opacity:1"/>
			<stop offset="1" style="stop-color:#c6d1e3;stop-opacity:1"/>
		</linearGradient>
		<linearGradient id="grad30-64" v:fillPattern="35" v:foreground="#ffffff" v:background="#c6d1e3" x1="0" y1="1" x2="0" y2="0">
			<stop offset="0" style="stop-color:#ffffff;stop-opacity:1"/>
			<stop offset="1" style="stop-color:#c6d1e3;stop-opacity:1"/>
		</linearGradient>
		<linearGradient id="grad28-65" v:fillPattern="35" v:foreground="#ffffff" v:background="#c6d1e3" x1="0" y1="0" x2="0" y2="1">
			<stop offset="0" style="stop-color:#ffffff;stop-opacity:1"/>
			<stop offset="1" style="stop-color:#c6d1e3;stop-opacity:1"/>
		</linearGradient>
		<linearGradient id="grad29-74" v:fillPattern="29" v:foreground="#ffffff" v:background="#a7a7a7" x1="0" y1="0" x2="0" y2="1">
			<stop offset="0" style="stop-color:#a7a7a7;stop-opacity:1"/>
			<stop offset="0.5" style="stop-color:#ffffff;stop-opacity:1"/>
			<stop offset="1" style="stop-color:#a7a7a7;stop-opacity:1"/>
		</linearGradient>
		<pattern id="grad31-89" v:fillPattern="31" v:foreground="#ffffff" v:background="#a7a7a7" x="0" y="0" width="1" height="1"
				patternContentUnits="objectBoundingBox">
			<path d="M 0 0 L 0 1 L 1 1 z" style="fill:url(#grad28-90)"/>
			<path d="M 0 0 L 1 0 L 1 1 z" style="fill:url(#grad25-91)"/>
		</pattern>
		<linearGradient id="grad28-90" v:fillPattern="31" v:foreground="#ffffff" v:background="#a7a7a7" x1="0" y1="0" x2="0" y2="1">
			<stop offset="0" style="stop-color:#ffffff;stop-opacity:1"/>
			<stop offset="1" style="stop-color:#a7a7a7;stop-opacity:1"/>
		</linearGradient>
		<linearGradient id="grad25-91" v:fillPattern="31" v:foreground="#ffffff" v:background="#a7a7a7" x1="0" y1="0" x2="1" y2="0">
			<stop offset="0" style="stop-color:#ffffff;stop-opacity:1"/>
			<stop offset="1" style="stop-color:#a7a7a7;stop-opacity:1"/>
		</linearGradient>
		<pattern id="grad32-104" v:fillPattern="32" v:foreground="#ffffff" v:background="#c0c0c0" x="0" y="0" width="1" height="1"
				patternContentUnits="objectBoundingBox">
			<path d="M 0 1 L 0 0 L 1 0 z" style="fill:url(#grad27-105)"/>
			<path d="M 0 1 L 1 1 L 1 0 z" style="fill:url(#grad28-106)"/>
		</pattern>
		<linearGradient id="grad27-105" v:fillPattern="32" v:foreground="#ffffff" v:background="#c0c0c0" x1="1" y1="0" x2="0"
				y2="0">
			<stop offset="0" style="stop-color:#ffffff;stop-opacity:1"/>
			<stop offset="1" style="stop-color:#c0c0c0;stop-opacity:1"/>
		</linearGradient>
		<linearGradient id="grad28-106" v:fillPattern="32" v:foreground="#ffffff" v:background="#c0c0c0" x1="0" y1="0" x2="0"
				y2="1">
			<stop offset="0" style="stop-color:#ffffff;stop-opacity:1"/>
			<stop offset="1" style="stop-color:#c0c0c0;stop-opacity:1"/>
		</linearGradient>
	</defs>
	<defs id="Markers">
		<g id="lend13">
			<path d="M 3 1 L 0 0 L 3 -1 L 3 1 " style="stroke:none"/>
		</g>
		<marker id="mrkr13-14" class="st5" v:arrowType="13" v:arrowSize="2" v:setback="10.2" refX="10.2" orient="auto"
				markerUnits="strokeWidth" overflow="visible">
			<use xlink:href="#lend13" transform="scale(3.52) "/>
		</marker>
		<marker id="mrkr13-132" class="st5" v:arrowType="13" v:arrowSize="2" v:setback="10.56" refX="-10.56" orient="auto"
				markerUnits="strokeWidth" overflow="visible">
			<use xlink:href="#lend13" transform="scale(-3.52,-3.52) "/>
		</marker>
	</defs>
	<g v:mID="0" v:index="2" v:groupContext="foregroundPage">
		<title>aliceprofile</title>
		<v:pageProperties v:drawingScale="1" v:pageScale="1" v:drawingUnits="19" v:shadowOffsetX="9" v:shadowOffsetY="-9"/>
		<v:layer v:name="Flowchart" v:index="0"/>
		<g id="group1-1" transform="translate(18.24,-202.4)" v:mID="1" v:groupContext="group" v:layerMember="0">
			<v:custProps>
				<v:cp v:nameU="Cost" v:lbl="Cost" v:type="7" v:format="@" v:langID="1033"/>
				<v:cp v:nameU="Duration" v:lbl="Duration" v:type="2" v:langID="1033"/>
				<v:cp v:nameU="Resources" v:lbl="Resources" v:langID="1033"/>
			</v:custProps>
			<v:userDefs>
				<v:ud v:nameU="visVersion" v:val="VT0(14):26"/>
			</v:userDefs>
			<title>Person 1</title>
			<g id="shape2-2" v:mID="2" v:groupContext="shape" v:layerMember="0" transform="translate(25.2236,-57.6) scale(-1,1)">
				<title>Sheet.2</title>
				<path d="M0 285.44 A7.22357 7.2 0 0 1 14.45 285.44 A7.22357 7.2 0 1 1 0 285.44 Z" class="st1"/>
			</g>
			<g id="shape3-4" v:mID="3" v:groupContext="shape" v:layerMember="0">
				<title>Sheet.3</title>
				<path d="M18.42 264.74 L26.79 292.64 L33.49 292.64 L26.79 260.24 L26.79 241.34 L31.81 256.64 L36 253.94 L30.14 235.04
							 L18.42 235.94 L6.7 235.04 L0 254.84 L5.02 256.64 L10.05 241.34 L10.05 260.24 L3.35 292.64 L10.05 292.64
							 L18.42 264.74 Z" class="st1"/>
			</g>
			<g id="shape4-6" v:mID="4" v:groupContext="shape" v:layerMember="0" transform="translate(0,18)">
				<title>Sheet.4</title>
				<desc>Alice</desc>
				<v:userDefs>
					<v:ud v:nameU="ScaleFactor" v:val="VT0(1):26"/>
				</v:userDefs>
				<v:textBlock v:margins="rect(0,0,0,0)"/>
				<v:textRect cx="18" cy="283.64" width="36" height="18"/>
				<rect x="0" y="274.64" width="36" height="18" class="st2"/>
				<text x="6.25" y="287.24" class="st3" v:langID="1033"><v:paragraph v:horizAlign="1"/><v:tabList/>Alice</text>			</g>
		</g>
		<g id="shape5-9" v:mID="5" v:groupContext="shape" transform="translate(-48.3535,-84.891) rotate(-35.5377)">
			<title>Sheet.5</title>
			<desc>Connected</desc>
			<v:textBlock v:margins="rect(4,4,4,4)" v:verticalAlign="2"/>
			<v:textRect cx="38.7105" cy="292.64" width="77.43" height="0"/>
			<path d="M10.2 292.64 L10.56 292.64 L77.42 292.64" class="st4"/>
			<rect v:rectContext="textBkgnd" x="12.3723" y="274.24" width="52.6764" height="14.4001" class="st6"/>
			<text x="12.37" y="285.04" class="st3" v:langID="1033"><v:paragraph v:horizAlign="1"/><v:tabList/>Connected</text>		</g>
		<g id="group34-17" transform="translate(180.24,-193.4)" v:mID="34" v:groupContext="group">
			<v:userDefs>
				<v:ud v:nameU="CalcH" v:val="VT0(1.0779504797272):1"/>
				<v:ud v:nameU="visVersion" v:prompt="" v:val="VT0(14):26"/>
			</v:userDefs>
			<title>Group</title>
			<g id="shape35-18" v:mID="35" v:groupContext="shape">
				<title>Sheet.35</title>
				<desc>Laptop: MDEFR-… Tablet: MAE43-.. ...</desc>
				<v:textBlock v:margins="rect(4,4,4,4)" v:verticalAlign="0"/>
				<v:textRect cx="56.25" cy="265.036" width="112.5" height="55.2087"/>
				<path d="M0 237.43 L0 281.44 A10.2684 10.2684 -180 0 0 11.2 292.64 L101.3 292.64 A10.2684 10.2684 -180 0 0 112.5
							 281.44 L112.5 237.43 L0 237.43 Z" class="st7"/>
				<text x="4" y="252.23" class="st3" v:langID="1033"><v:paragraph/><v:tabList/>Laptop: MDEFR-…<v:newlineChar/><tspan
							x="4" dy="1.2em" class="st8">Tablet</tspan>: MAE43-..<v:newlineChar/><tspan x="4" dy="1.2em"
							class="st8">...</tspan></text>			</g>
			<g id="shape36-23" v:mID="36" v:groupContext="shape" transform="translate(0,-55.2087)">
				<title>Sheet.36</title>
				<desc>Personal Profile</desc>
				<v:userDefs>
					<v:ud v:nameU="cornersize" v:prompt="0.125" v:val="VT0(0.15558131849501):1"/>
					<v:ud v:nameU="Row_2" v:val="VT0(0):1"/>
				</v:userDefs>
				<v:textBlock v:margins="rect(4,4,4,4)"/>
				<v:textRect cx="56.25" cy="281.438" width="112.5" height="22.4037"/>
				<path d="M0 281.44 L0 292.64 L112.5 292.64 L112.5 281.44 A10.2684 10.2684 -180 0 0 101.3 270.24 L11.2 270.24 A10.2684
							 10.2684 -180 0 0 0 281.44 Z" class="st7"/>
				<text x="17.88" y="285.04" class="st3" v:langID="1033"><v:paragraph v:horizAlign="1"/><v:tabList/>Personal Profile</text>			</g>
		</g>
		<g id="group41-26" transform="translate(283.74,-40.4)" v:mID="41" v:groupContext="group">
			<title>Sheet.41</title>
			<g id="group38-27" transform="translate(0,-24.7751)" v:mID="38" v:groupContext="group">
				<v:userDefs>
					<v:ud v:nameU="CalcH" v:val="VT0(0.78090095945435):1"/>
					<v:ud v:nameU="visVersion" v:prompt="" v:val="VT0(14):26"/>
				</v:userDefs>
				<title>Group.38</title>
				<g id="shape39-28" v:mID="39" v:groupContext="shape">
					<title>Sheet.39</title>
					<desc>Tablet</desc>
					<v:textBlock v:margins="rect(4,4,4,4)"/>
					<v:textRect cx="56.25" cy="275.729" width="112.5" height="33.8212"/>
					<path d="M0 258.82 L0 281.44 A10.2684 10.2684 -180 0 0 11.2 292.64 L101.3 292.64 A10.2684 10.2684 -180 0 0 112.5
								 281.44 L112.5 258.82 L0 258.82 Z" class="st7"/>
					<text x="40.93" y="279.33" class="st3" v:langID="1033"><v:paragraph v:horizAlign="1"/><v:tabList/>Tablet</text>				</g>
				<g id="shape40-31" v:mID="40" v:groupContext="shape" transform="translate(0,-33.8212)">
					<title>Sheet.40</title>
					<desc>Device Profile</desc>
					<v:userDefs>
						<v:ud v:nameU="cornersize" v:prompt="0.125" v:val="VT0(0.15558131849501):1"/>
						<v:ud v:nameU="Row_2" v:val="VT0(0):1"/>
					</v:userDefs>
					<v:textBlock v:margins="rect(4,4,4,4)"/>
					<v:textRect cx="56.25" cy="281.438" width="112.5" height="22.4037"/>
					<path d="M0 281.44 L0 292.64 L112.5 292.64 L112.5 281.44 A10.2684 10.2684 -180 0 0 101.3 270.24 L11.2 270.24
								 A10.2684 10.2684 -180 0 0 0 281.44 Z" class="st7"/>
					<text x="22.68" y="285.04" class="st3" v:langID="1033"><v:paragraph v:horizAlign="1"/><v:tabList/>Device Profile</text>				</g>
			</g>
			<g id="group21-34" transform="translate(90,0)" v:mID="21" v:groupContext="group">
				<v:custProps>
					<v:cp v:nameU="ShapeClass" v:lbl="ShapeClass" v:type="0" v:invis="true" v:ask="false" v:langID="1033"
							v:val="VT4(Equipment)"/>
					<v:cp v:nameU="ShapeType" v:lbl="ShapeType" v:type="0" v:invis="true" v:ask="false" v:langID="1033"
							v:val="VT4(Computer)"/>
					<v:cp v:nameU="SubShapeType" v:lbl="SubShapeType" v:type="0" v:invis="true" v:ask="false" v:langID="1033"
							v:val="VT4(Tablet)"/>
					<v:cp v:nameU="Manufacturer" v:lbl="Manufacturer" v:type="0" v:sortKey="Equipment" v:invis="false"
							v:ask="false" v:langID="1033"/>
					<v:cp v:nameU="ProductNumber" v:lbl="Product Number" v:type="0" v:sortKey="Equipment" v:invis="false"
							v:ask="false" v:langID="1033"/>
					<v:cp v:nameU="PartNumber" v:lbl="Part Number" v:type="0" v:sortKey="Equipment" v:invis="false" v:ask="false"
							v:langID="1033"/>
					<v:cp v:nameU="ProductDescription" v:lbl="Product Description" v:type="0" v:sortKey="Equipment" v:invis="false"
							v:ask="false" v:langID="1033"/>
					<v:cp v:nameU="AssetNumber" v:lbl="Asset Number" v:type="0" v:sortKey="Asset" v:invis="false" v:ask="false"
							v:langID="1033"/>
					<v:cp v:nameU="SerialNumber" v:lbl="Serial Number" v:type="0" v:sortKey="Asset" v:invis="false" v:ask="false"
							v:langID="1033"/>
					<v:cp v:nameU="Location" v:lbl="Location" v:type="0" v:sortKey="Asset" v:invis="false" v:ask="false"
							v:langID="1033"/>
					<v:cp v:nameU="Building" v:lbl="Building" v:type="0" v:sortKey="Asset" v:invis="false" v:ask="false"
							v:langID="1033"/>
					<v:cp v:nameU="Room" v:lbl="Room" v:type="0" v:sortKey="Asset" v:invis="false" v:ask="false" v:langID="1033"/>
					<v:cp v:nameU="NetworkName" v:lbl="Network Name" v:type="0" v:sortKey="Network" v:invis="false" v:ask="false"
							v:langID="1033"/>
					<v:cp v:nameU="IPAddress" v:lbl="IP Address" v:type="0" v:sortKey="Network" v:invis="false" v:ask="false"
							v:langID="1033"/>
					<v:cp v:nameU="SubnetMask" v:lbl="Subnet Mask" v:type="0" v:sortKey="Network" v:invis="false" v:ask="false"
							v:langID="1033"/>
					<v:cp v:nameU="AdminInterface" v:lbl="Administrative Interface" v:type="0" v:sortKey="Network" v:invis="false"
							v:ask="false" v:langID="1033"/>
					<v:cp v:nameU="NumberofPorts" v:lbl="Number of Ports" v:type="0" v:sortKey="Network" v:invis="false"
							v:ask="false" v:langID="1033"/>
					<v:cp v:nameU="MACAddress" v:lbl="MAC Address" v:type="0" v:sortKey="Network" v:invis="false" v:ask="false"
							v:langID="1033"/>
					<v:cp v:nameU="CommunityString" v:lbl="Community String" v:type="0" v:sortKey="Network" v:invis="false"
							v:ask="false" v:langID="1033"/>
					<v:cp v:nameU="NetworkDescription" v:lbl="Network Description" v:type="0" v:sortKey="Network" v:invis="false"
							v:ask="false" v:langID="1033"/>
					<v:cp v:nameU="HardDriveSize" v:lbl="Hard Drive Capacity" v:type="0" v:sortKey="Workstation" v:invis="false"
							v:ask="false" v:langID="1033"/>
					<v:cp v:nameU="CPU" v:lbl="CPU" v:type="0" v:sortKey="Workstation" v:invis="false" v:ask="false"
							v:langID="1033"/>
					<v:cp v:nameU="Memory" v:lbl="Memory" v:type="0" v:sortKey="Workstation" v:invis="false" v:ask="false"
							v:langID="1033"/>
					<v:cp v:nameU="OperatingSystem" v:lbl="Operating System" v:type="0" v:sortKey="Workstation" v:invis="false"
							v:ask="false" v:langID="1033"/>
				</v:custProps>
				<v:userDefs>
					<v:ud v:nameU="HasText" v:val="VT0(0):5"/>
					<v:ud v:nameU="ShapeClass" v:val="VT0(5):26"/>
					<v:ud v:nameU="ShapeType" v:val="VT0(6):26"/>
					<v:ud v:nameU="SubShapeType" v:val="VT0(69):26"/>
					<v:ud v:nameU="SolSH" v:val="VT14({BF0433D9-CD73-4EB5-8390-8653BE590246}):41"/>
					<v:ud v:nameU="visLegendShape" v:val="VT0(2):26"/>
					<v:ud v:nameU="visVersion" v:prompt="" v:val="VT0(14):26"/>
				</v:userDefs>
				<title>Tablet computer</title>
				<g id="shape22-35" v:mID="22" v:groupContext="shape" transform="translate(0,8.71705E-006)">
					<title>Sheet.22</title>
					<path d="M1.08 259.34 a1.09821 0.677875 -80 1 0 -0.192549 1.96692 A1.79415 1.73456 -90 0 0 1.07 259.33 L1.08
								 259.34 ZM10.75 250.47 A71.3073 68.9391 89.62 0 1 19.46 254.72 A71.3991 69.0279 -89.52 0 0 10.75
								 250.47 ZM1.08 259.34 a1.09821 0.677875 100 0 1 -0.192549 1.96692 A1.79415 1.73456 90 0 1 0.72 261.49
								 L10.75 263.28 L10.75 282.35 A47.5986 46.0178 -90.26 0 0 28.23 292.64 A5.29978 5.12376 -88.53 0 0
								 31.53 290.29 L31.57 258.8 A2.56534 2.48014 89.86 0 1 28.23 260.75 A2.7877 2.69512 -87.63 0 0 31.57
								 258.8 A57.1018 55.2054 -90.89 0 0 13.93 248.62 A3.04361 2.94253 -89.3 0 0 10.75 250.47 L10.75 261.48
								 L1.07 259.33 L1.08 259.34 Z" class="st9"/>
					<path d="M1.08 259.34 a1.09821 0.677875 -80 1 0 -0.192549 1.96692 A1.79415 1.73456 -90 0 0 1.07 259.33M10.75
								 250.47 A71.3073 68.9391 89.62 0 1 19.46 254.72 A71.3991 69.0279 -89.52 0 0 10.75 250.47M1.08 259.34
								 a1.09821 0.677875 100 0 1 -0.192549 1.96692 A1.79415 1.73456 90 0 1 0.72 261.49 L10.75 263.28 L10.75
								 282.35 A47.5986 46.0178 -90.26 0 0 28.23 292.64 A5.29978 5.12376 -88.53 0 0 31.53 290.29 L31.57
								 258.8 A2.56534 2.48014 89.86 0 1 28.23 260.75 A2.7877 2.69512 -87.63 0 0 31.57 258.8 A57.1018 55.2054
								 -90.89 0 0 13.93 248.62 A3.04361 2.94253 -89.3 0 0 10.75 250.47 L10.75 261.48 L1.07 259.33"
							class="st10"/>
				</g>
				<g id="shape23-38" v:mID="23" v:groupContext="shape" transform="translate(11.3143,0)">
					<title>Sheet.23</title>
					<path d="M0 282.35 A47.5986 46.0178 -90.26 0 0 17.49 292.64 L17.49 260.75 A71.3991 69.0279 -89.52 0 0 0 250.47
								 L0 282.35 Z" class="st11"/>
				</g>
				<g id="shape24-42" v:mID="24" v:groupContext="shape" transform="translate(28.8,0)">
					<title>Sheet.24</title>
					<path d="M0 292.64 A5.29978 5.12376 -88.53 0 0 3.29 290.29 L3.34 258.8 A2.56534 2.48014 89.86 0 1 0 260.75 L0
								 292.64 Z" class="st12"/>
				</g>
				<g id="shape25-46" v:mID="25" v:groupContext="shape" transform="translate(11.3143,-31.7799)">
					<title>Sheet.25</title>
					<path d="M-0 282.25 A71.3073 68.9391 89.62 0 1 17.49 292.53 A2.7877 2.69512 -87.63 0 0 20.83 290.58 A57.1018
								 55.2054 -90.89 0 0 3.19 280.4 A3.04361 2.94253 -89.3 0 0 0 282.25 Z" class="st13"/>
				</g>
				<g id="shape26-50" v:mID="26" v:groupContext="shape" transform="translate(13.0629,-4.62857)">
					<title>Sheet.26</title>
					<path d="M14.45 292.64 L0 284.31 L0 257.82" class="st14"/>
				</g>
				<g id="shape27-54" v:mID="27" v:groupContext="shape" transform="translate(-122.084,35.7524) rotate(-30)">
					<title>Sheet.27</title>
					<ellipse cx="0.596697" cy="291.875" rx="0.596697" ry="0.764753" class="st15"/>
				</g>
				<g id="shape28-58" v:mID="28" v:groupContext="shape" transform="translate(13.0629,-4.62857)">
					<title>Sheet.28</title>
					<path d="M0.57 284 L14.45 292.13 L14.45 292.64 L14.45 266.15 L0 257.82 L0.57 258.18 L0.57 284 Z" class="st16"/>
				</g>
				<g id="shape29-66" v:mID="29" v:groupContext="shape" transform="translate(17.0391,-28.4702)">
					<title>Sheet.29</title>
					<path d="M0 292.64 L1.45 292.34 L0.11 291.36 L0 292.64 Z" class="st1"/>
				</g>
				<g id="shape30-68" v:mID="30" v:groupContext="shape" transform="translate(0,6.22647E-006)">
					<title>Sheet.30</title>
					<path d="M11.31 282.35 A48.8099 46.7144 -90.81 0 0 28.8 292.64 A3.82447 3.66028 -91.42 0 0 32.09 290.49 L32.14
								 258.8 A62.021 59.3583 -91.17 0 0 14.5 248.62 A3.10961 2.97611 -89.03 0 0 11.31 250.47 L11.32 260.81
								 L1.72 258.67 A1.47913 1.54548 -180 0 0 0.01 260.35 A1.82174 1.90346 -180 0 0 1.28 262.06 L11.32
								 263.72 L11.31 282.35" class="st17"/>
				</g>
				<g id="shape31-71" v:mID="31" v:groupContext="shape" transform="translate(0.568677,-28.36)">
					<title>Sheet.31</title>
					<path d="M1.36 288.81 a0.677875 1.09821 -170 1 0 -1.33515 -0.235424 a0.677875 1.09821 -170 1 0 1.33515 0.235424
								 ZM0.72 289.85 L16.36 292.64 L16.6 291.14 L1.07 287.69 A1.79415 1.73456 90 0 1 0.72 289.85 Z"
							class="st18"/>
				</g>
			</g>
		</g>
		<g id="group42-75" transform="translate(67.74,-43.7876)" v:mID="42" v:groupContext="group">
			<title>Sheet.42</title>
			<g id="group32-76" transform="translate(0,-21.3876)" v:mID="32" v:groupContext="group">
				<v:userDefs>
					<v:ud v:nameU="CalcH" v:val="VT0(0.78090095945435):1"/>
					<v:ud v:nameU="visVersion" v:prompt="" v:val="VT0(14):26"/>
				</v:userDefs>
				<title>Group.32</title>
				<g id="shape33-77" v:mID="33" v:groupContext="shape">
					<title>Sheet.33</title>
					<desc>Laptop</desc>
					<v:textBlock v:margins="rect(4,4,4,4)"/>
					<v:textRect cx="56.25" cy="275.729" width="112.5" height="33.8212"/>
					<path d="M0 258.82 L0 281.44 A10.2684 10.2684 -180 0 0 11.2 292.64 L101.3 292.64 A10.2684 10.2684 -180 0 0 112.5
								 281.44 L112.5 258.82 L0 258.82 Z" class="st7"/>
					<text x="39.37" y="279.33" class="st3" v:langID="1033"><v:paragraph v:horizAlign="1"/><v:tabList/>Laptop</text>				</g>
				<g id="shape37-80" v:mID="37" v:groupContext="shape" transform="translate(0,-33.8212)">
					<title>Sheet.37</title>
					<desc>Device Profile</desc>
					<v:userDefs>
						<v:ud v:nameU="cornersize" v:prompt="0.125" v:val="VT0(0.15558131849501):1"/>
						<v:ud v:nameU="Row_2" v:val="VT0(0):1"/>
					</v:userDefs>
					<v:textBlock v:margins="rect(4,4,4,4)"/>
					<v:textRect cx="56.25" cy="281.438" width="112.5" height="22.4037"/>
					<path d="M0 281.44 L0 292.64 L112.5 292.64 L112.5 281.44 A10.2684 10.2684 -180 0 0 101.3 270.24 L11.2 270.24
								 A10.2684 10.2684 -180 0 0 0 281.44 Z" class="st7"/>
					<text x="22.68" y="285.04" class="st3" v:langID="1033"><v:paragraph v:horizAlign="1"/><v:tabList/>Device Profile</text>				</g>
			</g>
			<g id="group6-83" transform="translate(83.25,0)" v:mID="6" v:groupContext="group">
				<v:custProps>
					<v:cp v:nameU="ShapeClass" v:lbl="ShapeClass" v:type="0" v:invis="true" v:ask="false" v:langID="1033"
							v:val="VT4(Equipment)"/>
					<v:cp v:nameU="ShapeType" v:lbl="ShapeType" v:type="0" v:invis="true" v:ask="false" v:langID="1033"
							v:val="VT4(Computer)"/>
					<v:cp v:nameU="SubShapeType" v:lbl="SubShapeType" v:type="0" v:invis="true" v:ask="false" v:langID="1033"
							v:val="VT4(Laptop)"/>
					<v:cp v:nameU="Manufacturer" v:lbl="Manufacturer" v:type="0" v:sortKey="Equipment" v:invis="false"
							v:ask="false" v:langID="1033"/>
					<v:cp v:nameU="ProductNumber" v:lbl="Product Number" v:type="0" v:sortKey="Equipment" v:invis="false"
							v:ask="false" v:langID="1033"/>
					<v:cp v:nameU="PartNumber" v:lbl="Part Number" v:type="0" v:sortKey="Equipment" v:invis="false" v:ask="false"
							v:langID="1033"/>
					<v:cp v:nameU="ProductDescription" v:lbl="Product Description" v:type="0" v:sortKey="Equipment" v:invis="false"
							v:ask="false" v:langID="1033"/>
					<v:cp v:nameU="AssetNumber" v:lbl="Asset Number" v:type="0" v:sortKey="Asset" v:invis="false" v:ask="false"
							v:langID="1033"/>
					<v:cp v:nameU="SerialNumber" v:lbl="Serial Number" v:type="0" v:sortKey="Asset" v:invis="false" v:ask="false"
							v:langID="1033"/>
					<v:cp v:nameU="Location" v:lbl="Location" v:type="0" v:sortKey="Asset" v:invis="false" v:ask="false"
							v:langID="1033"/>
					<v:cp v:nameU="Building" v:lbl="Building" v:type="0" v:sortKey="Asset" v:invis="false" v:ask="false"
							v:langID="1033"/>
					<v:cp v:nameU="Room" v:lbl="Room" v:type="0" v:sortKey="Asset" v:invis="false" v:ask="false" v:langID="1033"/>
					<v:cp v:nameU="NetworkName" v:lbl="Network Name" v:type="0" v:sortKey="Network" v:invis="false" v:ask="false"
							v:langID="1033"/>
					<v:cp v:nameU="IPAddress" v:lbl="IP Address" v:type="0" v:sortKey="Network" v:invis="false" v:ask="false"
							v:langID="1033"/>
					<v:cp v:nameU="SubnetMask" v:lbl="Subnet Mask" v:type="0" v:sortKey="Network" v:invis="false" v:ask="false"
							v:langID="1033"/>
					<v:cp v:nameU="AdminInterface" v:lbl="Administrative Interface" v:type="0" v:sortKey="Network" v:invis="false"
							v:ask="false" v:langID="1033"/>
					<v:cp v:nameU="NumberofPorts" v:lbl="Number of Ports" v:type="0" v:sortKey="Network" v:invis="false"
							v:ask="false" v:langID="1033"/>
					<v:cp v:nameU="MACAddress" v:lbl="MAC Address" v:type="0" v:sortKey="Network" v:invis="false" v:ask="false"
							v:langID="1033"/>
					<v:cp v:nameU="CommunityString" v:lbl="Community String" v:type="0" v:sortKey="Network" v:invis="false"
							v:ask="false" v:langID="1033"/>
					<v:cp v:nameU="NetworkDescription" v:lbl="Network Description" v:type="0" v:sortKey="Network" v:invis="false"
							v:ask="false" v:langID="1033"/>
					<v:cp v:nameU="HardDriveSize" v:lbl="Hard Drive Capacity" v:type="0" v:sortKey="Workstation" v:invis="false"
							v:ask="false" v:langID="1033"/>
					<v:cp v:nameU="CPU" v:lbl="CPU" v:type="0" v:sortKey="Workstation" v:invis="false" v:ask="false"
							v:langID="1033"/>
					<v:cp v:nameU="Memory" v:lbl="Memory" v:type="0" v:sortKey="Workstation" v:invis="false" v:ask="false"
							v:langID="1033"/>
					<v:cp v:nameU="OperatingSystem" v:lbl="Operating System" v:type="0" v:sortKey="Workstation" v:invis="false"
							v:ask="false" v:langID="1033"/>
				</v:custProps>
				<v:userDefs>
					<v:ud v:nameU="HasText" v:val="VT0(0):5"/>
					<v:ud v:nameU="ShapeClass" v:val="VT0(5):26"/>
					<v:ud v:nameU="ShapeType" v:val="VT0(6):26"/>
					<v:ud v:nameU="SubShapeType" v:val="VT0(37):26"/>
					<v:ud v:nameU="SolSH" v:val="VT14({BF0433D9-CD73-4EB5-8390-8653BE590246}):41"/>
					<v:ud v:nameU="visLegendShape" v:val="VT0(2):26"/>
					<v:ud v:nameU="visVersion" v:prompt="" v:val="VT0(14):26"/>
				</v:userDefs>
				<title>Laptop computer</title>
				<g id="shape7-84" v:mID="7" v:groupContext="shape">
					<title>Sheet.7</title>
					<path d="M49.5 259.48 L24.13 244.84 L21.95 244.84 L21.93 244.92 L15.94 265.12 L0 274.33 L0 277.79 A59.6798 58.772
								 -90.05 0 0 25.48 292.64 L42.57 282.74 L49.5 259.48 Z" class="st19"/>
				</g>
				<g id="shape8-86" v:mID="8" v:groupContext="shape" transform="translate(25.4778,0)">
					<title>Sheet.8</title>
					<path d="M0.01 288.93 L18.33 278.29 L17.09 282.74 L0 292.64 L0.01 288.93 Z" class="st20"/>
				</g>
				<g id="shape9-92" v:mID="9" v:groupContext="shape" transform="translate(41.3116,-12.8866)">
					<title>Sheet.9</title>
					<path d="M0 292.64 L6.01 272.36 L8.19 272.36 L2.5 291.17 L0 292.64 Z" class="st20"/>
				</g>
				<g id="shape10-95" v:mID="10" v:groupContext="shape" transform="translate(21.879,-33.165)">
					<title>Sheet.10</title>
					<path d="M0 278.09 L2.25 278 L27.62 292.64 L25.44 292.64 A1097.38 1080.69 87.95 0 1 0 278.09 Z" class="st13"/>
				</g>
				<g id="shape11-98" v:mID="11" v:groupContext="shape" transform="translate(0,-3.7125)">
					<title>Sheet.11</title>
					<path d="M0 278.04 L15.94 268.83 L41.31 283.47 L25.49 292.64 A66.4043 65.3942 89.17 0 1 -0 278.04 Z"
							class="st13"/>
				</g>
				<g id="shape12-101" v:mID="12" v:groupContext="shape" transform="translate(15.939,-12.8866)">
					<title>Sheet.12</title>
					<path d="M25.37 292.64 A3466.18 3413.45 -91.15 0 0 -0 278 L6.01 257.73 L31.38 272.36 L25.37 292.64 Z"
							class="st21"/>
				</g>
				<g id="shape13-107" v:mID="13" v:groupContext="shape">
					<title>Sheet.13</title>
					<path d="M0 277.79 A59.6798 58.772 -90.05 0 0 25.48 292.64 L25.49 288.93 A66.3911 65.3811 88.88 0 1 0 274.33
								 L0 277.79 Z" class="st21"/>
				</g>
				<g id="shape14-110" v:mID="14" v:groupContext="shape" transform="translate(17.82,-14.9737)">
					<title>Sheet.14</title>
					<path d="M5.25 262.2 L0 279.72 L22.47 292.64" class="st14"/>
				</g>
				<g id="shape15-113" v:mID="15" v:groupContext="shape" transform="translate(37.8675,-0.891) scale(-1,1)">
					<title>Sheet.15</title>
					<path d="M0 284.13 L10.94 290.46 L10.94 292.64" class="st22"/>
				</g>
				<g id="shape16-117" v:mID="16" v:groupContext="shape" transform="translate(18.513,-14.9737)">
					<title>Sheet.16</title>
					<path d="M0 279.52 L5.05 262.49 L4.55 262.2 A975.667 960.825 89.01 0 1 26.93 275.12 L21.78 292.64 L21.88 292.15
								 A860.419 847.33 88.95 0 1 0 279.52 Z" class="st16"/>
				</g>
				<g id="group17-120" transform="translate(3.58446,-5.28551)" v:mID="17" v:groupContext="group">
					<title>Sheet.17</title>
					<g id="shape18-121" v:mID="18" v:groupContext="shape" transform="translate(0,-0.495)">
						<title>Sheet.18</title>
						<path d="M0 279.43 L2.29 280.75 L4.44 279.51 L2.15 278.19 L0 279.43 ZM3.23 277.57 L5.51 278.89 L7.67 277.65
									 L5.38 276.33 L3.23 277.57 ZM6.45 275.71 L8.74 277.03 L10.89 275.79 L8.61 274.47 L6.45 275.71
									 ZM9.68 273.84 L11.97 275.16 L14.12 273.92 L11.83 272.6 L9.68 273.84 ZM13.11 275.82 L15.4 277.15
									 L17.55 275.9 L15.26 274.58 L13.11 275.82 ZM16.54 277.81 L18.83 279.13 L20.98 277.88 L18.7 276.56
									 L16.54 277.81 ZM19.97 279.79 L22.26 281.11 L24.41 279.87 L22.13 278.54 L19.97 279.79 ZM26.84
									 283.75 L29.12 285.07 L31.28 283.83 L28.99 282.51 L26.84 283.75 ZM30.27 285.73 L32.56 287.05
									 L34.71 285.81 L32.42 284.49 L30.27 285.73 ZM27.04 287.59 L29.33 288.91 L31.48 287.67 L29.19
									 286.35 L27.04 287.59 ZM23.61 285.61 L25.9 286.93 L28.05 285.69 L25.76 284.37 L23.61 285.61 ZM23.41
									 281.77 L25.69 283.09 L27.84 281.85 L25.56 280.53 L23.41 281.77 ZM20.18 283.63 L22.47 284.95
									 L24.62 283.71 L22.33 282.39 L20.18 283.63 ZM16.75 281.65 L19.04 282.97 L21.19 281.73 L18.9 280.41
									 L16.75 281.65 ZM13.32 279.67 L15.6 280.99 L17.76 279.75 L15.47 278.43 L13.32 279.67 ZM9.89 277.69
									 L12.17 279.01 L14.32 277.77 L12.04 276.45 L9.89 277.69 ZM6.66 279.55 L8.95 280.87 L11.1 279.63
									 L8.81 278.31 L6.66 279.55 ZM10.09 281.53 L12.38 282.85 L14.53 281.61 L12.24 280.29 L10.09 281.53
									 ZM13.52 283.51 L15.81 284.83 L17.96 283.59 L15.67 282.27 L13.52 283.51 ZM16.95 285.49 L19.24
									 286.81 L21.39 285.57 L19.1 284.25 L16.95 285.49 ZM20.38 287.48 L22.67 288.8 L24.82 287.55 L22.53
									 286.23 L20.38 287.48 ZM23.81 289.46 L26.1 290.78 L28.25 289.53 L25.97 288.21 L23.81 289.46 ZM20.59
									 291.32 L22.87 292.64 L25.03 291.4 L22.74 290.08 L20.59 291.32 ZM17.16 289.34 L19.44 290.66 L21.59
									 289.42 L19.31 288.1 L17.16 289.34 ZM6.86 283.4 L16.01 288.68 L18.16 287.44 L9.01 282.15 L6.86
									 283.4 ZM3.43 281.41 L5.72 282.74 L7.87 281.49 L5.58 280.17 L3.43 281.41 Z" class="st23"/>
					</g>
					<g id="shape19-123" v:mID="19" v:groupContext="shape">
						<title>Sheet.19</title>
						<path d="M9.68 273.84 L11.97 275.16 L11.97 274.67 L9.68 273.35 L9.68 273.84 ZM13.11 275.82 L15.4 277.15 L15.4
									 276.65 L13.11 275.33 L13.11 275.82 ZM16.54 277.81 L18.83 279.13 L18.83 278.63 L16.54 277.31
									 L16.54 277.81 ZM19.97 279.79 L22.26 281.11 L22.26 280.61 L19.97 279.29 L19.97 279.79 ZM23.41
									 281.77 L25.69 283.09 L25.69 282.59 L23.41 281.27 L23.41 281.77 ZM26.84 283.75 L29.12 285.07
									 L29.12 284.57 L26.84 283.25 L26.84 283.75 ZM11.97 274.67 L11.97 275.16 L14.12 273.92 L14.12
									 273.43 L11.97 274.67 ZM15.4 276.65 L15.4 277.15 L17.55 275.9 L17.55 275.41 L15.4 276.65 ZM18.83
									 278.63 L18.83 279.13 L20.98 277.88 L20.98 277.39 L18.83 278.63 ZM22.26 280.61 L22.26 281.11
									 L24.41 279.87 L24.41 279.37 L22.26 280.61 ZM25.69 282.59 L25.69 283.09 L27.84 281.85 L27.84
									 281.35 L25.69 282.59 ZM29.12 284.57 L29.12 285.07 L31.28 283.83 L31.28 283.33 L29.12 284.57
									 ZM30.27 285.73 L32.56 287.05 L32.56 286.56 L30.27 285.23 L30.27 285.73 ZM32.56 286.56 L32.56
									 287.05 L34.71 285.81 L34.71 285.31 L32.56 286.56 ZM6.45 275.71 L8.74 277.03 L8.74 276.53 L6.45
									 275.21 L6.45 275.71 ZM9.89 277.69 L12.17 279.01 L12.17 278.51 L9.89 277.19 L9.89 277.69 ZM13.32
									 279.67 L15.6 280.99 L15.6 280.49 L13.32 279.17 L13.32 279.67 ZM16.75 281.65 L19.04 282.97 L19.04
									 282.48 L16.75 281.16 L16.75 281.65 ZM20.18 283.63 L22.47 284.95 L22.47 284.46 L20.18 283.14
									 L20.18 283.63 ZM23.61 285.61 L25.9 286.93 L25.9 286.44 L23.61 285.12 L23.61 285.61 ZM8.74 276.53
									 L8.74 277.03 L10.89 275.79 L10.89 275.29 L8.74 276.53 ZM12.17 278.51 L12.17 279.01 L14.32 277.77
									 L14.32 277.27 L12.17 278.51 ZM15.6 280.49 L15.6 280.99 L17.76 279.75 L17.76 279.25 L15.6 280.49
									 ZM19.04 282.48 L19.04 282.97 L21.19 281.73 L21.19 281.23 L19.04 282.48 ZM22.47 284.46 L22.47
									 284.95 L24.62 283.71 L24.62 283.21 L22.47 284.46 ZM25.9 286.44 L25.9 286.93 L28.05 285.69 L28.05
									 285.2 L25.9 286.44 ZM27.04 287.59 L29.33 288.91 L29.33 288.42 L27.04 287.1 L27.04 287.59 ZM29.33
									 288.42 L29.33 288.91 L31.48 287.67 L31.48 287.18 L29.33 288.42 ZM3.23 277.57 L5.51 278.89 L5.51
									 278.4 L3.23 277.08 L3.23 277.57 ZM6.66 279.55 L8.95 280.87 L8.95 280.38 L6.66 279.06 L6.66 279.55
									 ZM10.09 281.53 L12.38 282.85 L12.38 282.36 L10.09 281.04 L10.09 281.53 ZM13.52 283.51 L15.81
									 284.83 L15.81 284.34 L13.52 283.02 L13.52 283.51 ZM16.95 285.49 L19.24 286.81 L19.24 286.32
									 L16.95 285 L16.95 285.49 ZM20.38 287.48 L22.67 288.8 L22.67 288.3 L20.38 286.98 L20.38 287.48
									 ZM5.51 278.4 L5.51 278.89 L7.67 277.65 L7.67 277.15 L5.51 278.4 ZM8.95 280.38 L8.95 280.87 L11.1
									 279.63 L11.1 279.13 L8.95 280.38 ZM12.38 282.36 L12.38 282.85 L14.53 281.61 L14.53 281.12 L12.38
									 282.36 ZM15.81 284.34 L15.81 284.83 L17.96 283.59 L17.96 283.1 L15.81 284.34 ZM19.24 286.32
									 L19.24 286.81 L21.39 285.57 L21.39 285.08 L19.24 286.32 ZM22.67 288.3 L22.67 288.8 L24.82 287.55
									 L24.82 287.06 L22.67 288.3 ZM23.81 289.46 L26.1 290.78 L26.1 290.28 L23.81 288.96 L23.81 289.46
									 ZM26.1 290.28 L26.1 290.78 L28.25 289.53 L28.25 289.04 L26.1 290.28 ZM0 279.43 L2.29 280.75
									 L2.29 280.26 L0 278.94 L0 279.43 ZM3.43 281.41 L5.72 282.74 L5.72 282.24 L3.43 280.92 L3.43
									 281.41 ZM6.86 283.4 L16.01 288.68 L16.01 288.18 L6.86 282.9 L6.86 283.4 ZM17.16 289.34 L19.44
									 290.66 L19.44 290.16 L17.16 288.84 L17.16 289.34 ZM2.29 280.26 L2.29 280.75 L4.44 279.51 L4.44
									 279.02 L2.29 280.26 ZM5.72 282.24 L5.72 282.74 L7.87 281.49 L7.87 281 L5.72 282.24 ZM16.01 288.18
									 L16.01 288.68 L18.16 287.44 L18.16 286.94 L16.01 288.18 ZM19.44 290.16 L19.44 290.66 L21.59
									 289.42 L21.59 288.92 L19.44 290.16 ZM20.59 291.32 L22.87 292.64 L22.87 292.15 L20.59 290.82
									 L20.59 291.32 ZM22.87 292.15 L22.87 292.64 L25.03 291.4 L25.03 290.9 L22.87 292.15 Z"
								class="st24"/>
					</g>
				</g>
				<g id="shape20-125" v:mID="20" v:groupContext="shape">
					<title>Sheet.20</title>
					<path d="M25.48 292.64 L42.57 282.74 L49.5 259.48 L24.13 244.84 L21.95 244.84 L15.94 265.12 L0 274.33 L0 277.79
								 A60.7075 59.784 -90.05 0 0 25.48 292.64 Z" class="st25"/>
				</g>
			</g>
		</g>
		<g id="shape43-127" v:mID="43" v:groupContext="shape" transform="translate(490.668,-98.6877) rotate(45)">
			<title>Sheet.43</title>
			<desc>Connected</desc>
			<v:textBlock v:margins="rect(4,4,4,4)" v:verticalAlign="2"/>
			<v:textRect cx="34.1179" cy="292.64" width="68.24" height="0"/>
			<path d="M0 292.64 L57.68 292.64" class="st26"/>
			<rect v:rectContext="textBkgnd" x="7.77969" y="274.24" width="52.6764" height="14.4001" class="st6"/>
			<text x="7.78" y="285.04" class="st3" v:langID="1033"><v:paragraph v:horizAlign="1"/><v:tabList/>Connected</text>		</g>
		<g id="shape44-135" v:mID="44" v:groupContext="shape" transform="translate(67.74,-238.4)">
			<title>Sheet.44</title>
			<desc>Controls</desc>
			<v:textBlock v:margins="rect(4,4,4,4)" v:verticalAlign="2"/>
			<v:textRect cx="45" cy="292.64" width="90" height="0"/>
			<path d="M0 292.64 L79.44 292.64" class="st26"/>
			<rect v:rectContext="textBkgnd" x="24.4951" y="274.24" width="41.01" height="14.4001" class="st6"/>
			<text x="24.5" y="285.04" class="st3" v:langID="1033"><v:paragraph v:horizAlign="1"/><v:tabList/>Controls</text>		</g>
	</g>
</svg>
