<?xml version="1.0" encoding="UTF-8" standalone="no"?>
<!DOCTYPE svg PUBLIC "-//W3C//DTD SVG 1.0//EN" "http://www.w3.org/TR/2001/REC-SVG-20010904/DTD/svg10.dtd">
<!-- Generated by Microsoft Visio 11.0, SVG Export, v1.0 CeremonyContextAdministrationCode.svg CeremonyContextAdministrationCode -->
<svg xmlns="http://www.w3.org/2000/svg" xmlns:xlink="http://www.w3.org/1999/xlink" xmlns:ev="http://www.w3.org/2001/xml-events"
		xmlns:v="http://schemas.microsoft.com/visio/2003/SVGExtensions/" width="8.5in" height="11in" viewBox="0 0 612 792"
		xml:space="preserve" color-interpolation-filters="sRGB" class="st9">
	<v:documentProperties v:langID="1033" v:viewMarkup="false">
		<v:userDefs>
			<v:ud v:nameU="msvNoAutoConnect" v:val="VT0(1):26"/>
		</v:userDefs>
	</v:documentProperties>

	<style type="text/css">
	<![CDATA[
		.st1 {fill:#ffffff;stroke:#000000;stroke-linecap:round;stroke-linejoin:round;stroke-width:0.75}
		.st2 {fill:#000000;font-family:Calibri;font-size:1.00001em}
		.st3 {fill:#ffffff;stroke:#000000;stroke-linecap:round;stroke-linejoin:round;stroke-width:0.24}
		.st4 {fill:#ffffff;stroke:#000000;stroke-linecap:round;stroke-linejoin:round;stroke-width:0.24;visibility:hidden}
		.st5 {marker-end:url(#mrkr13-26);marker-start:url(#mrkr13-24);stroke:#000000;stroke-linecap:round;stroke-linejoin:round;stroke-width:0.75}
		.st6 {fill:#000000;fill-opacity:1;stroke:#000000;stroke-opacity:1;stroke-width:0.22935779816514}
		.st7 {marker-end:url(#mrkr13-26);stroke:#000000;stroke-linecap:round;stroke-linejoin:round;stroke-width:0.75}
		.st8 {fill:#ffffff;stroke:none;stroke-linecap:butt;stroke-width:7.2}
		.st9 {fill:none;fill-rule:evenodd;font-size:12px;overflow:visible;stroke-linecap:square;stroke-miterlimit:3}
	]]>
	</style>

	<defs id="Markers">
		<g id="lend13">
			<path d="M 3 1 L 0 0 L 3 -1 L 3 1 " style="stroke:none"/>
		</g>
		<marker id="mrkr13-24" class="st6" v:arrowType="13" v:arrowSize="2" v:setback="12.6" refX="12.6" orient="auto"
				markerUnits="strokeWidth" overflow="visible">
			<use xlink:href="#lend13" transform="scale(4.36) "/>
		</marker>
		<marker id="mrkr13-26" class="st6" v:arrowType="13" v:arrowSize="2" v:setback="13.08" refX="-13.08" orient="auto"
				markerUnits="strokeWidth" overflow="visible">
			<use xlink:href="#lend13" transform="scale(-4.36,-4.36) "/>
		</marker>
	</defs>
	<g v:mID="8" v:index="6" v:groupContext="foregroundPage">
		<title>CeremonyContextAdministrationCode</title>
		<v:pageProperties v:drawingScale="1" v:pageScale="1" v:drawingUnits="19" v:shadowOffsetX="9" v:shadowOffsetY="-9"/>
		<v:layer v:name="Flowchart" v:index="0"/>
		<g id="shape1-1" v:mID="1" v:groupContext="shape" transform="translate(378,-540)">
			<title>Sheet.1</title>
			<desc>Target Device</desc>
			<v:textBlock v:margins="rect(4,4,4,4)"/>
			<v:textRect cx="54" cy="774" width="108" height="36"/>
			<rect x="0" y="756" width="108" height="36" class="st1"/>
			<text x="20.65" y="777.6" class="st2" v:langID="1033"><v:paragraph v:horizAlign="1"/><v:tabList/>Target Device</text>		</g>
		<g id="shape2-4" v:mID="2" v:groupContext="shape" transform="translate(261,-648)">
			<title>Sheet.2</title>
			<desc>Service</desc>
			<v:textBlock v:margins="rect(4,4,4,4)"/>
			<v:textRect cx="54" cy="774" width="108" height="36"/>
			<rect x="0" y="756" width="108" height="36" class="st1"/>
			<text x="36.56" y="777.6" class="st2" v:langID="1033"><v:paragraph v:horizAlign="1"/><v:tabList/>Service</text>		</g>
		<g id="shape3-7" v:mID="3" v:groupContext="shape" transform="translate(144,-540)">
			<title>Sheet.3</title>
			<desc>Admin Device</desc>
			<v:textBlock v:margins="rect(4,4,4,4)"/>
			<v:textRect cx="54" cy="774" width="108" height="36"/>
			<rect x="0" y="756" width="108" height="36" class="st1"/>
			<text x="20.41" y="777.6" class="st2" v:langID="1033"><v:paragraph v:horizAlign="1"/><v:tabList/>Admin Device</text>		</g>
		<g id="group4-10" transform="translate(297,-423)" v:mID="4" v:groupContext="group" v:layerMember="0">
			<v:custProps>
				<v:cp v:nameU="Cost" v:lbl="Cost" v:type="7" v:format="@" v:langID="1033"/>
				<v:cp v:nameU="Duration" v:lbl="Duration" v:type="2" v:langID="1033"/>
				<v:cp v:nameU="Resources" v:lbl="Resources" v:langID="1033"/>
			</v:custProps>
			<v:userDefs>
				<v:ud v:nameU="visVersion" v:val="VT0(14):26"/>
			</v:userDefs>
			<title>Person 1</title>
			<g id="shape5-11" v:mID="5" v:groupContext="shape" v:layerMember="0" transform="translate(25.2236,-57.6) scale(-1,1)">
				<title>Sheet.5</title>
				<path d="M0 784.8 A7.22357 7.2 0 0 1 14.45 784.8 A7.22357 7.2 0 1 1 0 784.8 Z" class="st3"/>
			</g>
			<g id="shape6-13" v:mID="6" v:groupContext="shape" v:layerMember="0">
				<title>Sheet.6</title>
				<path d="M18.42 764.1 L26.79 792 L33.49 792 L26.79 759.6 L26.79 740.7 L31.81 756 L36 753.3 L30.14 734.4 L18.42 735.3
							 L6.7 734.4 L0 754.2 L5.02 756 L10.05 740.7 L10.05 759.6 L3.35 792 L10.05 792 L18.42 764.1 Z"
						class="st3"/>
			</g>
			<g id="shape7-15" v:mID="7" v:groupContext="shape" v:layerMember="0" transform="translate(0,21.2598)">
				<title>Sheet.7</title>
				<desc>User</desc>
				<v:userDefs>
					<v:ud v:nameU="ScaleFactor" v:val="VT0(1):26"/>
				</v:userDefs>
				<v:textBlock v:margins="rect(0,0,0,0)"/>
				<v:textRect cx="18" cy="781.37" width="36" height="21.2598"/>
				<rect x="0" y="770.74" width="36" height="21.2598" class="st4"/>
				<text x="6.73" y="784.97" class="st2" v:langID="1033"><v:paragraph v:horizAlign="1"/><v:tabList/>User</text>			</g>
		</g>
		<g id="shape8-18" v:mID="8" v:groupContext="shape" transform="translate(-271.868,884.189) rotate(-135)">
			<title>Sheet.8</title>
			<path d="M9.45 792 L9.81 792 L79.51 792" class="st5"/>
		</g>
		<g id="shape9-27" v:mID="9" v:groupContext="shape" transform="translate(-335.029,-353.029) rotate(-45)">
			<title>Sheet.9</title>
			<path d="M9.45 792 L9.81 792 L67.62 792" class="st5"/>
		</g>
		<g id="shape10-34" v:mID="10" v:groupContext="shape" transform="translate(902.189,883.868) rotate(-45) scale(1,-1)">
			<title>Sheet.10</title>
			<path d="M9.45 792 L9.81 792 L79.06 792" class="st5"/>
		</g>
		<g id="shape11-41" v:mID="11" v:groupContext="shape" transform="translate(965.029,-353.029) rotate(45) scale(-1,1)">
			<title>Sheet.11</title>
			<path d="M9.45 792 L9.81 792 L67.62 792" class="st5"/>
		</g>
		<g id="shape12-48" v:mID="12" v:groupContext="shape" transform="translate(261,1026) scale(1,-1)">
			<title>Sheet.12</title>
			<desc>Code</desc>
			<v:textBlock v:margins="rect(4,4,4,4)"/>
			<v:textRect cx="54" cy="792" width="108" height="0"/>
			<path d="M0 792 L98.19 792" class="st7"/>
			<rect v:rectContext="textBkgnd" x="41.4989" y="784.8" width="25.0021" height="14.4001" class="st8"/>
			<text x="41.5" y="-788.4" transform="scale(1,-1)" class="st2" v:langID="1033"><v:paragraph v:horizAlign="1"/><v:tabList/>Code</text>		</g>
	</g>
</svg>
