<?xml version="1.0" encoding="UTF-8" standalone="no"?>
<!DOCTYPE svg PUBLIC "-//W3C//DTD SVG 1.0//EN" "http://www.w3.org/TR/2001/REC-SVG-20010904/DTD/svg10.dtd">
<!-- Generated by Microsoft Visio 11.0, SVG Export, v1.0 CeremonyStack.svg Page-1 -->
<svg xmlns="http://www.w3.org/2000/svg" xmlns:xlink="http://www.w3.org/1999/xlink" xmlns:ev="http://www.w3.org/2001/xml-events"
		xmlns:v="http://schemas.microsoft.com/visio/2003/SVGExtensions/" width="4.39583in" height="1.02083in"
		viewBox="0 0 316.5 73.5" xml:space="preserve" color-interpolation-filters="sRGB" class="st5">
	<v:documentProperties v:langID="1033" v:viewMarkup="false"/>

	<style type="text/css">
	<![CDATA[
		.st1 {fill:#ffffff;stroke:#000000;stroke-linecap:round;stroke-linejoin:round;stroke-width:0.75}
		.st2 {fill:#000000;font-family:Calibri;font-size:1.00001em}
		.st3 {stroke:#000000;stroke-linecap:round;stroke-linejoin:round;stroke-width:0.24}
		.st4 {fill:none;stroke:none;stroke-linecap:round;stroke-linejoin:round;stroke-width:0.75}
		.st5 {fill:none;fill-rule:evenodd;font-size:12px;overflow:visible;stroke-linecap:square;stroke-miterlimit:3}
	]]>
	</style>

	<g v:mID="0" v:index="1" v:groupContext="foregroundPage">
		<title>Page-1</title>
		<v:pageProperties v:drawingScale="1" v:pageScale="1" v:drawingUnits="19" v:shadowOffsetX="9" v:shadowOffsetY="-9"/>
		<g id="shape1-1" v:mID="1" v:groupContext="shape" transform="translate(0.75,-36.75)">
			<title>Sheet.1</title>
			<desc>Context</desc>
			<v:textBlock v:margins="rect(4,4,4,4)"/>
			<v:textRect cx="72" cy="55.5" width="144" height="36"/>
			<rect x="0" y="37.5" width="144" height="36" class="st1"/>
			<text x="52.88" y="59.1" class="st2" v:langID="1033"><v:paragraph v:horizAlign="1"/><v:tabList/>Context</text>		</g>
		<g id="shape2-4" v:mID="2" v:groupContext="shape" transform="translate(0.75,-0.75)">
			<title>Sheet.2</title>
			<desc>Ceremony</desc>
			<v:textBlock v:margins="rect(4,4,4,4)"/>
			<v:textRect cx="72" cy="55.5" width="144" height="36"/>
			<rect x="0" y="37.5" width="144" height="36" class="st1"/>
			<text x="46.91" y="59.1" class="st2" v:langID="1033"><v:paragraph v:horizAlign="1"/><v:tabList/>Ceremony</text>		</g>
		<g id="shape3-7" v:mID="3" v:groupContext="shape" transform="translate(98.25,0.75) rotate(-90) scale(-1,1)">
			<title>Side brace</title>
			<v:userDefs>
				<v:ud v:nameU="TxtW" v:val="VT0(0.55555555555556):29"/>
				<v:ud v:nameU="TxtA" v:val="VT0(1.5707963267949):37"/>
				<v:ud v:nameU="TxtAState" v:val="VT0(0):26"/>
				<v:ud v:nameU="TxtWState" v:val="VT0(0):26"/>
				<v:ud v:nameU="MaxRadius" v:val="VT0(0.125):1"/>
				<v:ud v:nameU="PosCH1" v:prompt="Constrains X postion of Control Handle #1" v:val="VT0(0):26"/>
				<v:ud v:nameU="PosCH2" v:prompt="Constrains Y postion of Control Handle #2" v:val="VT0(0):26"/>
				<v:ud v:nameU="Scale" v:val="VT0(1):26"/>
				<v:ud v:nameU="AntiScale" v:val="VT0(1):26"/>
				<v:ud v:nameU="visVersion" v:val="VT0(14):26"/>
			</v:userDefs>
			<path d="M0 64.5 L0 66.41 A7.0865 7.0865 -180 0 0 7.09 73.5 L10.91 73.5 A7.0865 7.0865 0 0 1 18 80.59 A7.0865 7.0865
						 0 0 1 25.09 73.5 L28.91 73.5 A7.0865 7.0865 -180 0 0 36 66.41 L36 64.5" class="st3"/>
		</g>
		<g id="shape4-10" v:mID="4" v:groupContext="shape" transform="translate(180.75,-45.75)">
			<title>Sheet.4</title>
			<desc>Physical Implementation</desc>
			<v:textBlock v:margins="rect(4,4,4,4)"/>
			<v:textRect cx="67.5" cy="64.5" width="135" height="18"/>
			<rect x="0" y="55.5" width="135" height="18" class="st4"/>
			<text x="4" y="68.1" class="st2" v:langID="1033"><v:paragraph/><v:tabList/>Physical Implementation</text>		</g>
		<g id="shape5-13" v:mID="5" v:groupContext="shape" transform="translate(98.25,36.75) rotate(-90) scale(-1,1)">
			<title>Side brace.5</title>
			<v:userDefs>
				<v:ud v:nameU="TxtW" v:val="VT0(0.55555555555556):29"/>
				<v:ud v:nameU="TxtA" v:val="VT0(1.5707963267949):37"/>
				<v:ud v:nameU="TxtAState" v:val="VT0(0):26"/>
				<v:ud v:nameU="TxtWState" v:val="VT0(0):26"/>
				<v:ud v:nameU="MaxRadius" v:val="VT0(0.125):1"/>
				<v:ud v:nameU="PosCH1" v:prompt="Constrains X postion of Control Handle #1" v:val="VT0(0):26"/>
				<v:ud v:nameU="PosCH2" v:prompt="Constrains Y postion of Control Handle #2" v:val="VT0(0):26"/>
				<v:ud v:nameU="Scale" v:val="VT0(1):26"/>
				<v:ud v:nameU="AntiScale" v:val="VT0(1):26"/>
				<v:ud v:nameU="visVersion" v:val="VT0(14):26"/>
			</v:userDefs>
			<path d="M0 64.5 L0 66.41 A7.0865 7.0865 -180 0 0 7.09 73.5 L10.91 73.5 A7.0865 7.0865 0 0 1 18 80.59 A7.0865 7.0865
						 0 0 1 25.09 73.5 L28.91 73.5 A7.0865 7.0865 -180 0 0 36 66.41 L36 64.5" class="st3"/>
		</g>
		<g id="shape6-16" v:mID="6" v:groupContext="shape" transform="translate(180.75,-9.75)">
			<title>Sheet.6</title>
			<desc>Logical Description</desc>
			<v:textBlock v:margins="rect(4,4,4,4)"/>
			<v:textRect cx="67.5" cy="64.5" width="135" height="18"/>
			<rect x="0" y="55.5" width="135" height="18" class="st4"/>
			<text x="4" y="68.1" class="st2" v:langID="1033"><v:paragraph/><v:tabList/>Logical Description</text>		</g>
	</g>
</svg>
