<?xml version="1.0" encoding="UTF-8" standalone="no"?>
<!DOCTYPE svg PUBLIC "-//W3C//DTD SVG 1.0//EN" "http://www.w3.org/TR/2001/REC-SVG-20010904/DTD/svg10.dtd">
<!-- Generated by Microsoft Visio 11.0, SVG Export, v1.0 ConstrainedDevice.svg ConstrainedDevice -->
<svg xmlns="http://www.w3.org/2000/svg" xmlns:xlink="http://www.w3.org/1999/xlink" xmlns:ev="http://www.w3.org/2001/xml-events"
		xmlns:v="http://schemas.microsoft.com/visio/2003/SVGExtensions/" width="7.89931in" height="4.13802in"
		viewBox="0 0 568.75 297.937" xml:space="preserve" color-interpolation-filters="sRGB" class="st8">
	<v:documentProperties v:langID="1033" v:viewMarkup="false">
		<v:userDefs>
			<v:ud v:nameU="msvNoAutoConnect" v:val="VT0(1):26"/>
		</v:userDefs>
	</v:documentProperties>

	<style type="text/css">
	<![CDATA[
		.st1 {fill:#ffffff;stroke:#000000;stroke-linecap:round;stroke-linejoin:round;stroke-width:0.75}
		.st2 {fill:#000000;font-family:Calibri;font-size:0.833336em}
		.st3 {fill:#000000;font-family:Calibri;font-size:1.00001em}
		.st4 {marker-end:url(#mrkr4-24);stroke:#000000;stroke-linecap:round;stroke-linejoin:round;stroke-width:0.75}
		.st5 {fill:#000000;fill-opacity:1;stroke:#000000;stroke-opacity:1;stroke-width:0.22935779816514}
		.st6 {stroke:#000000;stroke-linecap:round;stroke-linejoin:round;stroke-width:0.75}
		.st7 {font-size:1em}
		.st8 {fill:none;fill-rule:evenodd;font-size:12px;overflow:visible;stroke-linecap:square;stroke-miterlimit:3}
	]]>
	</style>

	<defs id="Markers">
		<g id="lend4">
			<path d="M 2 1 L 0 0 L 2 -1 L 2 1 " style="stroke:none"/>
		</g>
		<marker id="mrkr4-24" class="st5" v:arrowType="4" v:arrowSize="2" v:setback="8.72" refX="-8.72" orient="auto"
				markerUnits="strokeWidth" overflow="visible">
			<use xlink:href="#lend4" transform="scale(-4.36,-4.36) "/>
		</marker>
	</defs>
	<g v:mID="23" v:index="21" v:groupContext="foregroundPage">
		<title>ConstrainedDevice</title>
		<v:pageProperties v:drawingScale="1" v:pageScale="1" v:drawingUnits="19" v:shadowOffsetX="9" v:shadowOffsetY="-9"/>
		<v:layer v:name="Callout" v:index="0"/>
		<g id="shape1-1" v:mID="1" v:groupContext="shape" transform="translate(18.75,-108.188)">
			<title>Sheet.1</title>
			<desc>Alice’s Desktop</desc>
			<v:textBlock v:margins="rect(4,4,4,4)"/>
			<v:textRect cx="45" cy="280.219" width="90" height="35.4375"/>
			<rect x="0" y="262.5" width="90" height="35.4375" class="st1"/>
			<text x="14.15" y="283.22" class="st2" v:langID="1033"><v:paragraph v:horizAlign="1"/><v:tabList/>Alice’s Desktop</text>		</g>
		<g id="shape2-4" v:mID="2" v:groupContext="shape" transform="translate(144.75,-108.469)">
			<title>Sheet.2</title>
			<desc>Alice’s Laptop</desc>
			<v:textBlock v:margins="rect(4,4,4,4)"/>
			<v:textRect cx="45" cy="280.219" width="90" height="35.4375"/>
			<rect x="0" y="262.5" width="90" height="35.4375" class="st1"/>
			<text x="16.81" y="283.22" class="st2" v:langID="1033"><v:paragraph v:horizAlign="1"/><v:tabList/>Alice’s Laptop</text>		</g>
		<g id="shape3-7" v:mID="3" v:groupContext="shape" transform="translate(324.75,-18.75)">
			<title>Sheet.3</title>
			<desc>Alice’s Light Bulb</desc>
			<v:textBlock v:margins="rect(4,4,4,4)"/>
			<v:textRect cx="45" cy="280.219" width="90" height="35.4375"/>
			<rect x="0" y="262.5" width="90" height="35.4375" class="st1"/>
			<text x="10.72" y="283.22" class="st2" v:langID="1033"><v:paragraph v:horizAlign="1"/><v:tabList/>Alice’s Light Bulb</text>		</g>
		<g id="shape4-10" v:mID="4" v:groupContext="shape" transform="translate(270.75,-108.75)">
			<title>Sheet.4</title>
			<desc>Mesh Hub</desc>
			<v:textBlock v:margins="rect(4,4,4,4)"/>
			<v:textRect cx="45" cy="280.219" width="90" height="35.4375"/>
			<rect x="0" y="262.5" width="90" height="35.4375" class="st1"/>
			<text x="24.16" y="283.22" class="st2" v:langID="1033"><v:paragraph v:horizAlign="1"/><v:tabList/>Mesh Hub</text>		</g>
		<g id="shape5-13" v:mID="5" v:groupContext="shape" transform="translate(126.75,-222.58)">
			<title>Cloud</title>
			<desc>Mesh Service</desc>
			<v:userDefs>
				<v:ud v:nameU="solsh"/>
				<v:ud v:nameU="shapetype" v:val="VT0(1):26"/>
				<v:ud v:nameU="shapelook" v:val="VT0(2):26"/>
				<v:ud v:nameU="visVersion" v:val="VT0(14):26"/>
			</v:userDefs>
			<v:textBlock v:margins="rect(0,0,0,0)"/>
			<v:textRect cx="63" cy="269.634" width="126" height="56.608"/>
			<path d="M46.8 249.12 A19.9436 14.549 0 0 1 81.99 248.93 A14.6382 10.6787 0 0 1 107.16 252.46 A14.7217 10.7397 0 0 1
						 124.55 257.88 A11.1053 8.10143 0 0 1 118.64 267.7 A12.5413 9.149 0 0 1 109.02 284.59 A22.5836 16.4749 0
						 0 1 77.58 293.09 A28.4428 20.7493 0 0 1 38.12 291.03 A15.6526 11.4187 0 0 1 10.58 281.82 A11.3106 8.25121
						 0 0 1 10.63 265.35 A9.67765 7.05995 0 1 1 18.44 252.44 A15.1714 11.0677 0 0 1 46.8 249.12 Z" class="st1"/>
			<text x="30.59" y="273.23" class="st3" v:langID="1033"><v:paragraph v:horizAlign="1"/><v:tabList/>Mesh Service</text>		</g>
		<g id="shape6-16" v:mID="6" v:groupContext="shape" transform="translate(216.75,-18.75)">
			<title>Sheet.6</title>
			<desc>Alice’s Blender</desc>
			<v:textBlock v:margins="rect(4,4,4,4)"/>
			<v:textRect cx="45" cy="280.219" width="90" height="35.4375"/>
			<rect x="0" y="262.5" width="90" height="35.4375" class="st1"/>
			<text x="15.04" y="283.22" class="st2" v:langID="1033"><v:paragraph v:horizAlign="1"/><v:tabList/>Alice’s Blender</text>		</g>
		<g id="shape7-19" v:mID="7" v:groupContext="shape" transform="translate(-108.187,144.75) rotate(-90)">
			<title>Sheet.7</title>
			<path d="M0 297.94 L51.96 297.94" class="st4"/>
		</g>
		<g id="shape8-25" v:mID="8" v:groupContext="shape" transform="translate(-124.127,-86.4835) rotate(-39.0939)">
			<title>Sheet.8</title>
			<path d="M0 297.94 L86.23 297.94" class="st4"/>
		</g>
		<g id="shape9-30" v:mID="9" v:groupContext="shape" transform="translate(485.627,-86.4835) rotate(39.0939) scale(-1,1)">
			<title>Sheet.9</title>
			<path d="M0 297.94 L86.23 297.94" class="st4"/>
		</g>
		<g id="shape10-35" v:mID="10" v:groupContext="shape" transform="translate(44.7046,30.6469) rotate(-46.7602)">
			<title>Sheet.10</title>
			<path d="M0 297.94 L45.61 297.94" class="st4"/>
		</g>
		<g id="shape11-40" v:mID="11" v:groupContext="shape" transform="translate(584.96,28.1246) rotate(46.2926) scale(-1,1)">
			<title>Sheet.11</title>
			<path d="M0 297.94 L45.33 297.94" class="st4"/>
		</g>
		<g id="shape13-45" v:mID="13" v:groupContext="shape" transform="translate(148.313,86.25) rotate(-90) scale(-1,1)">
			<title>Side brace</title>
			<desc>Mesh Service Protocol TLS/HTTP/JSON</desc>
			<v:userDefs>
				<v:ud v:nameU="TxtW" v:val="VT0(1.3888888888889):29"/>
				<v:ud v:nameU="TxtA" v:val="VT0(1.5707963267949):37"/>
				<v:ud v:nameU="TxtAState" v:val="VT0(0):26"/>
				<v:ud v:nameU="TxtWState" v:val="VT0(1):26"/>
				<v:ud v:nameU="MaxRadius" v:val="VT0(0.1875):1"/>
				<v:ud v:nameU="PosCH1" v:prompt="Constrains X postion of Control Handle #1" v:val="VT0(0):26"/>
				<v:ud v:nameU="PosCH2" v:prompt="Constrains Y postion of Control Handle #2" v:val="VT0(0):26"/>
				<v:ud v:nameU="Scale" v:val="VT0(1):26"/>
				<v:ud v:nameU="AntiScale" v:val="VT0(1):26"/>
				<v:ud v:nameU="visVersion" v:val="VT0(14):26"/>
			</v:userDefs>
			<v:textBlock v:margins="rect(4,4,4,4)"/>
			<v:textRect cx="33.75" cy="352.437" width="100.01" height="32.0037" transform="rotate(90)"/>
			<path d="M0 284.44 L0 293.44 A4.49993 4.49993 -180 0 0 4.5 297.94 L29.25 297.94 A4.49993 4.49993 0 0 1 33.75 302.44 A4.49993
						 4.49993 0 0 1 38.25 297.94 L58.5 297.94 A4.49993 4.49993 -180 0 0 63 293.44 L63 284.44" class="st6"/>
			<text x="306.44" y="30.75" transform="rotate(-90) scale(-1,1)" class="st2" v:langID="1033"><v:paragraph/><v:tabList/>Mesh Service Protocol<v:newlineChar/><tspan
						x="306.44" dy="1.2em" class="st7">TLS</tspan>/HTTP/JSON</text>		</g>
		<g id="shape12-50" v:mID="12" v:groupContext="shape" transform="translate(148.313,194.25) rotate(-90) scale(-1,1)">
			<title>Side brace.12</title>
			<desc>Constrained Service Protocol</desc>
			<v:userDefs>
				<v:ud v:nameU="TxtW" v:val="VT0(1.3888888888889):29"/>
				<v:ud v:nameU="TxtA" v:val="VT0(1.5707963267949):37"/>
				<v:ud v:nameU="TxtAState" v:val="VT0(0):26"/>
				<v:ud v:nameU="TxtWState" v:val="VT0(1):26"/>
				<v:ud v:nameU="MaxRadius" v:val="VT0(0.140625):1"/>
				<v:ud v:nameU="PosCH1" v:prompt="Constrains X postion of Control Handle #1" v:val="VT0(0):26"/>
				<v:ud v:nameU="PosCH2" v:prompt="Constrains Y postion of Control Handle #2" v:val="VT0(0):26"/>
				<v:ud v:nameU="Scale" v:val="VT0(1):26"/>
				<v:ud v:nameU="AntiScale" v:val="VT0(1):26"/>
				<v:ud v:nameU="visVersion" v:val="VT0(14):26"/>
			</v:userDefs>
			<v:textBlock v:margins="rect(4,4,4,4)"/>
			<v:textRect cx="22.5" cy="352.437" width="100.01" height="32.0037" transform="rotate(90)"/>
			<path d="M0 284.44 L0 293.44 A4.49993 4.49993 -180 0 0 4.5 297.94 L18 297.94 A4.49993 4.49993 0 0 1 22.5 302.44 A4.49993
						 4.49993 0 0 1 27 297.94 L36 297.94 A4.49993 4.49993 -180 0 0 40.5 293.44 L40.5 284.44" class="st6"/>
			<text x="306.44" y="19.5" transform="rotate(-90) scale(-1,1)" class="st2" v:langID="1033"><v:paragraph/><v:tabList/>Constrained Service <tspan
						x="306.44" dy="1.2em" class="st7">Protocol</tspan></text>		</g>
	</g>
</svg>
