<?xml version="1.0" encoding="UTF-8" standalone="no"?>
<!DOCTYPE svg PUBLIC "-//W3C//DTD SVG 1.0//EN" "http://www.w3.org/TR/2001/REC-SVG-20010904/DTD/svg10.dtd">
<!-- Generated by Microsoft Visio 11.0, SVG Export, v1.0 DAREEncrypt3.svg Page-1 -->
<svg xmlns="http://www.w3.org/2000/svg" xmlns:xlink="http://www.w3.org/1999/xlink" xmlns:ev="http://www.w3.org/2001/xml-events"
		xmlns:v="http://schemas.microsoft.com/visio/2003/SVGExtensions/" width="5.29167in" height="4.28945in"
		viewBox="0 0 381 308.841" xml:space="preserve" color-interpolation-filters="sRGB" class="st11">
	<v:documentProperties v:langID="1033" v:viewMarkup="false"/>

	<style type="text/css">
	<![CDATA[
		.st1 {fill:#ffffff;stroke:#000000;stroke-dasharray:5.25,3.75,0,3.75;stroke-linecap:round;stroke-linejoin:round;stroke-width:0.75}
		.st2 {fill:#000000;font-family:Calibri;font-size:1.00001em}
		.st3 {fill:#ffffff;marker-end:url(#mrkr13-10);stroke:#000000;stroke-linecap:round;stroke-linejoin:round;stroke-width:0.75}
		.st4 {fill:#000000;fill-opacity:1;stroke:#000000;stroke-opacity:1;stroke-width:0.22935779816514}
		.st5 {fill:#ffffff;stroke:#000000;stroke-linecap:round;stroke-linejoin:round;stroke-width:0.75}
		.st6 {fill:#ffffff}
		.st7 {stroke:#000000;stroke-linecap:round;stroke-linejoin:round;stroke-width:0.24}
		.st8 {marker-end:url(#mrkr13-10);stroke:#000000;stroke-linecap:round;stroke-linejoin:round;stroke-width:0.75}
		.st9 {font-size:1em}
		.st10 {stroke:#000000;stroke-linecap:round;stroke-linejoin:round;stroke-width:0.75}
		.st11 {fill:none;fill-rule:evenodd;font-size:12px;overflow:visible;stroke-linecap:square;stroke-miterlimit:3}
	]]>
	</style>

	<defs id="Markers">
		<g id="lend13">
			<path d="M 3 1 L 0 0 L 3 -1 L 3 1 " style="stroke:none"/>
		</g>
		<marker id="mrkr13-10" class="st4" v:arrowType="13" v:arrowSize="2" v:setback="13.08" refX="-13.08" orient="auto"
				markerUnits="strokeWidth" overflow="visible">
			<use xlink:href="#lend13" transform="scale(-4.36,-4.36) "/>
		</marker>
	</defs>
	<g v:mID="0" v:index="1" v:groupContext="foregroundPage">
		<title>Page-1</title>
		<v:pageProperties v:drawingScale="1" v:pageScale="1" v:drawingUnits="19" v:shadowOffsetX="9" v:shadowOffsetY="-9"/>
		<v:layer v:name="Flowchart" v:index="0"/>
		<g id="shape22-1" v:mID="22" v:groupContext="shape" transform="translate(286.875,-0.75)">
			<title>Sheet.22</title>
			<desc>Sequence Output</desc>
			<v:textBlock v:margins="rect(4,4,4,4)" v:verticalAlign="0"/>
			<v:textRect cx="46.6875" cy="191.841" width="93.38" height="234"/>
			<path d="M0 308.84 L93.37 308.84 L93.37 74.84 L0 74.84 L0 308.84 Z" class="st1"/>
			<text x="4.17" y="89.64" class="st2" v:langID="1033"><v:paragraph v:horizAlign="1"/><v:tabList/>Sequence Output</text>		</g>
		<g id="shape21-4" v:mID="21" v:groupContext="shape" transform="translate(0.75,-1.5)">
			<title>Sheet.21</title>
			<desc>Sequence Input</desc>
			<v:textBlock v:margins="rect(4,4,4,4)" v:verticalAlign="0"/>
			<v:textRect cx="54" cy="191.841" width="108" height="234"/>
			<path d="M0 308.84 L108 308.84 L108 74.84 L0 74.84 L0 308.84 Z" class="st1"/>
			<text x="15.96" y="89.64" class="st2" v:langID="1033"><v:paragraph v:horizAlign="1"/><v:tabList/>Sequence Input</text>		</g>
		<g id="shape1-7" v:mID="1" v:groupContext="shape" transform="translate(18.75,-19.5)">
			<title>Sheet.1</title>
			<desc>Plaintext</desc>
			<v:textBlock v:margins="rect(4,4,4,4)"/>
			<v:textRect cx="36" cy="290.841" width="72" height="36"/>
			<rect x="0" y="272.841" width="72" height="36" class="st3"/>
			<text x="14.52" y="294.44" class="st2" v:langID="1033"><v:paragraph v:horizAlign="1"/><v:tabList/>Plaintext</text>		</g>
		<g id="shape2-12" v:mID="2" v:groupContext="shape" transform="translate(297.75,-19.5)">
			<title>Sheet.2</title>
			<desc>Ciphertext</desc>
			<v:textBlock v:margins="rect(4,4,4,4)"/>
			<v:textRect cx="36" cy="290.841" width="72" height="36"/>
			<rect x="0" y="272.841" width="72" height="36" class="st5"/>
			<text x="10.44" y="294.44" class="st2" v:langID="1033"><v:paragraph v:horizAlign="1"/><v:tabList/>Ciphertext</text>		</g>
		<g id="shape3-15" v:mID="3" v:groupContext="shape" v:layerMember="0" transform="translate(189.75,-28.5)">
			<title>Summing junction</title>
			<v:custProps>
				<v:cp v:nameU="Cost" v:lbl="Cost" v:type="7" v:format="@" v:langID="1033"/>
				<v:cp v:nameU="Duration" v:lbl="Duration" v:type="2" v:langID="1033"/>
				<v:cp v:nameU="Resources" v:lbl="Resources" v:langID="1033"/>
			</v:custProps>
			<v:userDefs>
				<v:ud v:nameU="visVersion" v:val="VT0(14):26"/>
			</v:userDefs>
			<path d="M0 299.84 A9 9 0 0 1 18 299.84 A9 9 0 1 1 0 299.84 Z" class="st6"/>
			<path d="M2.64 293.48 L15.36 306.2" class="st7"/>
			<path d="M2.64 306.2 L15.36 293.48" class="st7"/>
			<path d="M0 299.84 A9 9 0 0 1 18 299.84 A9 9 0 1 1 0 299.84" class="st7"/>
		</g>
		<g id="shape5-20" v:mID="5" v:groupContext="shape" transform="translate(507.591,46.3406) rotate(90)">
			<title>Sheet.5</title>
			<path d="M0 308.84 L44.19 308.84" class="st8"/>
		</g>
		<g id="shape6-25" v:mID="6" v:groupContext="shape" transform="translate(117.75,-91.5)">
			<title>Sheet.6</title>
			<desc>Encryption Key</desc>
			<v:textBlock v:margins="rect(4,4,4,4)"/>
			<v:textRect cx="36" cy="290.841" width="72" height="36"/>
			<rect x="0" y="272.841" width="72" height="36" class="st3"/>
			<text x="9.72" y="287.24" class="st2" v:langID="1033"><v:paragraph v:horizAlign="1"/><v:tabList/>Encryption <tspan
						x="27.18" dy="1.2em" class="st9">Key</tspan></text>		</g>
		<g id="shape10-30" v:mID="10" v:groupContext="shape" transform="translate(162.75,-262.5)">
			<title>Sheet.10</title>
			<desc>Master Key</desc>
			<v:textBlock v:margins="rect(4,4,4,4)"/>
			<v:textRect cx="36" cy="290.841" width="72" height="36"/>
			<rect x="0" y="272.841" width="72" height="36" class="st3"/>
			<text x="8.39" y="294.44" class="st2" v:langID="1033"><v:paragraph v:horizAlign="1"/><v:tabList/>Master Key</text>		</g>
		<g id="shape11-34" v:mID="11" v:groupContext="shape" transform="translate(18.75,-172.5)">
			<title>Sheet.11</title>
			<desc>Salt</desc>
			<v:textBlock v:margins="rect(4,4,4,4)"/>
			<v:textRect cx="36" cy="290.841" width="72" height="36"/>
			<rect x="0" y="272.841" width="72" height="36" class="st3"/>
			<text x="26.98" y="294.44" class="st2" v:langID="1033"><v:paragraph v:horizAlign="1"/><v:tabList/>Salt</text>		</g>
		<g id="shape12-38" v:mID="12" v:groupContext="shape" transform="translate(207.75,-91.5)">
			<title>Sheet.12</title>
			<desc>IV</desc>
			<v:textBlock v:margins="rect(4,4,4,4)"/>
			<v:textRect cx="36" cy="290.841" width="72" height="36"/>
			<rect x="0" y="272.841" width="72" height="36" class="st3"/>
			<text x="31.08" y="294.44" class="st2" v:langID="1033"><v:paragraph v:horizAlign="1"/><v:tabList/>IV</text>		</g>
		<g id="shape13-42" v:mID="13" v:groupContext="shape" transform="translate(162.75,-172.5)">
			<title>Sheet.13</title>
			<desc>HKDF</desc>
			<v:textBlock v:margins="rect(4,4,4,4)"/>
			<v:textRect cx="36" cy="290.841" width="72" height="36"/>
			<rect x="0" y="272.841" width="72" height="36" class="st3"/>
			<text x="22.7" y="294.44" class="st2" v:langID="1033"><v:paragraph v:horizAlign="1"/><v:tabList/>HKDF</text>		</g>
		<g id="shape14-46" v:mID="14" v:groupContext="shape" transform="translate(90.75,-191.4)">
			<title>Sheet.14</title>
			<path d="M0 308.84 L62.19 308.84" class="st8"/>
		</g>
		<g id="shape8-51" v:mID="8" v:groupContext="shape" transform="translate(207.75,-37.5)">
			<title>Sheet.8</title>
			<path d="M0 308.84 L80.19 308.84" class="st8"/>
		</g>
		<g id="shape17-56" v:mID="17" v:groupContext="shape" transform="translate(90.75,-37.5)">
			<title>Sheet.17</title>
			<path d="M0 308.84 L89.19 308.84" class="st8"/>
		</g>
		<g id="shape7-61" v:mID="7" v:groupContext="shape" transform="translate(500.814,231.318) rotate(89.2537)">
			<title>Sheet.7</title>
			<path d="M0 308.84 L19.83 308.84" class="st8"/>
		</g>
		<g id="shape15-66" v:mID="15" v:groupContext="shape" transform="translate(552.591,154.341) rotate(90)">
			<title>Sheet.15</title>
			<path d="M0 308.84 L17.19 308.84" class="st8"/>
		</g>
		<g id="shape16-71" v:mID="16" v:groupContext="shape" transform="translate(462.591,154.341) rotate(90)">
			<title>Sheet.16</title>
			<path d="M0 308.84 L17.19 308.84" class="st8"/>
		</g>
		<g id="shape4-76" v:mID="4" v:groupContext="shape" transform="translate(153.75,-154.5)">
			<title>Sheet.4</title>
			<path d="M36 290.84 L36 308.84 L0 308.84" class="st10"/>
		</g>
		<g id="shape9-79" v:mID="9" v:groupContext="shape" transform="translate(207.75,-154.5)">
			<title>Sheet.9</title>
			<path d="M0 290.84 L0 308.84 L36 308.84" class="st10"/>
		</g>
		<g id="shape18-82" v:mID="18" v:groupContext="shape" transform="translate(205.5,-73.5)">
			<title>Sheet.18</title>
			<path d="M38.25 290.84 L38.25 308.84 L0 308.84" class="st10"/>
		</g>
		<g id="shape19-85" v:mID="19" v:groupContext="shape" transform="translate(153.75,-73.5)">
			<title>Sheet.19</title>
			<path d="M0 290.84 L0 308.84 L38.25 308.84" class="st10"/>
		</g>
		<g id="shape20-88" v:mID="20" v:groupContext="shape" transform="translate(514.314,239.363) rotate(90.7463)">
			<title>Sheet.20</title>
			<path d="M0 308.84 L19.83 308.84" class="st8"/>
		</g>
	</g>
</svg>
