<?xml version="1.0" encoding="UTF-8" standalone="no"?>
<!DOCTYPE svg PUBLIC "-//W3C//DTD SVG 1.0//EN" "http://www.w3.org/TR/2001/REC-SVG-20010904/DTD/svg10.dtd">
<!-- Generated by Microsoft Visio 11.0, SVG Export, v1.0 MerkleTree1.svg Page-1 -->
<svg xmlns="http://www.w3.org/2000/svg" xmlns:xlink="http://www.w3.org/1999/xlink" xmlns:ev="http://www.w3.org/2001/xml-events"
		xmlns:v="http://schemas.microsoft.com/visio/2003/SVGExtensions/" width="5.82292in" height="3.84722in"
		viewBox="0 0 419.25 277" xml:space="preserve" color-interpolation-filters="sRGB" class="st9">
	<v:documentProperties v:langID="1033" v:viewMarkup="false"/>

	<style type="text/css">
	<![CDATA[
		.st1 {stroke:#000000;stroke-linecap:round;stroke-linejoin:round;stroke-width:0.75}
		.st2 {fill:none;stroke:none;stroke-linecap:round;stroke-linejoin:round;stroke-width:0.75}
		.st3 {fill:#000000;font-family:Calibri;font-size:1.00001em}
		.st4 {marker-end:url(#mrkr13-72);stroke:#000000;stroke-linecap:round;stroke-linejoin:round;stroke-width:0.75}
		.st5 {fill:#000000;fill-opacity:1;stroke:#000000;stroke-opacity:1;stroke-width:0.22935779816514}
		.st6 {stroke:#000000;stroke-dasharray:0.75,1.5;stroke-linecap:round;stroke-linejoin:round;stroke-width:0.75}
		.st7 {marker-end:url(#mrkr13-72);stroke:#000000;stroke-dasharray:0.75,1.5;stroke-linecap:round;stroke-linejoin:round;stroke-width:0.75}
		.st8 {fill:#ffffff;stroke:#000000;stroke-linecap:round;stroke-linejoin:round;stroke-width:0.75}
		.st9 {fill:none;fill-rule:evenodd;font-size:12px;overflow:visible;stroke-linecap:square;stroke-miterlimit:3}
	]]>
	</style>

	<defs id="Markers">
		<g id="lend13">
			<path d="M 3 1 L 0 0 L 3 -1 L 3 1 " style="stroke:none"/>
		</g>
		<marker id="mrkr13-72" class="st5" v:arrowType="13" v:arrowSize="2" v:setback="13.08" refX="-13.08" orient="auto"
				markerUnits="strokeWidth" overflow="visible">
			<use xlink:href="#lend13" transform="scale(-4.36,-4.36) "/>
		</marker>
	</defs>
	<g v:mID="0" v:index="1" v:groupContext="foregroundPage">
		<title>Page-1</title>
		<v:pageProperties v:drawingScale="1" v:pageScale="1" v:drawingUnits="19" v:shadowOffsetX="9" v:shadowOffsetY="-9"/>
		<g id="shape7-1" v:mID="7" v:groupContext="shape" transform="translate(-78.277,-71.8529) rotate(-33.6901)">
			<title>Sheet.7</title>
			<path d="M0 277 L129.8 277" class="st1"/>
		</g>
		<g id="shape26-4" v:mID="26" v:groupContext="shape" transform="translate(0.75,-0.75)">
			<title>Sheet.26</title>
			<desc>0000</desc>
			<v:textBlock v:margins="rect(4,4,4,4)"/>
			<v:textRect cx="20.375" cy="267" width="40.75" height="20"/>
			<rect x="0" y="257" width="40.75" height="20" class="st2"/>
			<text x="8.21" y="270.6" class="st3" v:langID="1033"><v:paragraph v:horizAlign="1"/><v:tabList/>0000</text>		</g>
		<g id="shape27-7" v:mID="27" v:groupContext="shape" transform="translate(54.75,-0.75)">
			<title>Sheet.27</title>
			<desc>0001</desc>
			<v:textBlock v:margins="rect(4,4,4,4)"/>
			<v:textRect cx="20.375" cy="267" width="40.75" height="20"/>
			<rect x="0" y="257" width="40.75" height="20" class="st2"/>
			<text x="8.21" y="270.6" class="st3" v:langID="1033"><v:paragraph v:horizAlign="1"/><v:tabList/>0001</text>		</g>
		<g id="shape28-10" v:mID="28" v:groupContext="shape" transform="translate(108.75,-0.75)">
			<title>Sheet.28</title>
			<desc>0010</desc>
			<v:textBlock v:margins="rect(4,4,4,4)"/>
			<v:textRect cx="20.375" cy="267" width="40.75" height="20"/>
			<rect x="0" y="257" width="40.75" height="20" class="st2"/>
			<text x="8.21" y="270.6" class="st3" v:langID="1033"><v:paragraph v:horizAlign="1"/><v:tabList/>0010</text>		</g>
		<g id="shape29-13" v:mID="29" v:groupContext="shape" transform="translate(162.75,-0.75)">
			<title>Sheet.29</title>
			<desc>0011</desc>
			<v:textBlock v:margins="rect(4,4,4,4)"/>
			<v:textRect cx="20.375" cy="267" width="40.75" height="20"/>
			<rect x="0" y="257" width="40.75" height="20" class="st2"/>
			<text x="8.21" y="270.6" class="st3" v:langID="1033"><v:paragraph v:horizAlign="1"/><v:tabList/>0011</text>		</g>
		<g id="shape30-16" v:mID="30" v:groupContext="shape" transform="translate(217.25,-0.75)">
			<title>Sheet.30</title>
			<desc>0100</desc>
			<v:textBlock v:margins="rect(4,4,4,4)"/>
			<v:textRect cx="20.375" cy="267" width="40.75" height="20"/>
			<rect x="0" y="257" width="40.75" height="20" class="st2"/>
			<text x="8.21" y="270.6" class="st3" v:langID="1033"><v:paragraph v:horizAlign="1"/><v:tabList/>0100</text>		</g>
		<g id="shape31-19" v:mID="31" v:groupContext="shape" transform="translate(271.25,-0.75)">
			<title>Sheet.31</title>
			<desc>0101</desc>
			<v:textBlock v:margins="rect(4,4,4,4)"/>
			<v:textRect cx="20.375" cy="267" width="40.75" height="20"/>
			<rect x="0" y="257" width="40.75" height="20" class="st2"/>
			<text x="8.21" y="270.6" class="st3" v:langID="1033"><v:paragraph v:horizAlign="1"/><v:tabList/>0101</text>		</g>
		<g id="shape32-22" v:mID="32" v:groupContext="shape" transform="translate(330.75,-0.75)">
			<title>Sheet.32</title>
			<desc>0110</desc>
			<v:textBlock v:margins="rect(4,4,4,4)"/>
			<v:textRect cx="20.375" cy="267" width="40.75" height="20"/>
			<rect x="0" y="257" width="40.75" height="20" class="st2"/>
			<text x="8.21" y="270.6" class="st3" v:langID="1033"><v:paragraph v:horizAlign="1"/><v:tabList/>0110</text>		</g>
		<g id="shape33-25" v:mID="33" v:groupContext="shape" transform="translate(377.75,-0.75)">
			<title>Sheet.33</title>
			<desc>0111</desc>
			<v:textBlock v:margins="rect(4,4,4,4)"/>
			<v:textRect cx="20.375" cy="267" width="40.75" height="20"/>
			<rect x="0" y="257" width="40.75" height="20" class="st2"/>
			<text x="8.21" y="270.6" class="st3" v:langID="1033"><v:paragraph v:horizAlign="1"/><v:tabList/>0111</text>		</g>
		<g id="shape1-28" v:mID="1" v:groupContext="shape" transform="translate(94.1079,-175.597) rotate(-18.7999)">
			<title>Sheet.1</title>
			<path d="M0 277 L223.42 277" class="st1"/>
		</g>
		<g id="shape4-31" v:mID="4" v:groupContext="shape" transform="translate(-199.747,63.2489) rotate(-52.9227)">
			<title>Sheet.4</title>
			<path d="M0 277 L89.78 277" class="st1"/>
		</g>
		<g id="shape2-34" v:mID="2" v:groupContext="shape" transform="translate(-91.6219,63.6239) rotate(-52.9227)">
			<title>Sheet.2</title>
			<path d="M0 277 L89.78 277" class="st1"/>
		</g>
		<g id="shape5-37" v:mID="5" v:groupContext="shape" transform="translate(15.2531,63.2489) rotate(-52.9227)">
			<title>Sheet.5</title>
			<path d="M0 277 L89.78 277" class="st1"/>
		</g>
		<g id="shape6-40" v:mID="6" v:groupContext="shape" transform="translate(125.128,63.2489) rotate(-52.9227)">
			<title>Sheet.6</title>
			<path d="M0 277 L89.78 277" class="st1"/>
		</g>
		<g id="shape15-43" v:mID="15" v:groupContext="shape" transform="translate(137.348,-72.2279) rotate(-33.6901)">
			<title>Sheet.15</title>
			<path d="M0 277 L129.8 277" class="st1"/>
		</g>
		<g id="shape16-46" v:mID="16" v:groupContext="shape" transform="translate(-201.5,231.478) rotate(-90.099)">
			<title>Sheet.16</title>
			<path d="M0 277 L72.38 277" class="st1"/>
		</g>
		<g id="shape17-49" v:mID="17" v:groupContext="shape" transform="translate(-93.3746,231.853) rotate(-90.099)">
			<title>Sheet.17</title>
			<path d="M0 277 L72.38 277" class="st1"/>
		</g>
		<g id="shape18-52" v:mID="18" v:groupContext="shape" transform="translate(13.5004,231.478) rotate(-90.099)">
			<title>Sheet.18</title>
			<path d="M0 277 L72.38 277" class="st1"/>
		</g>
		<g id="shape54-55" v:mID="54" v:groupContext="shape" transform="translate(-93.4996,159.478) rotate(-90.099)">
			<title>Sheet.54</title>
			<path d="M0 277 L72.38 277" class="st1"/>
		</g>
		<g id="shape55-58" v:mID="55" v:groupContext="shape" transform="translate(122.25,231.478) rotate(-90.099)">
			<title>Sheet.55</title>
			<path d="M0 277 L72.38 277" class="st1"/>
		</g>
		<g id="shape56-61" v:mID="56" v:groupContext="shape" transform="translate(122.125,159.103) rotate(-90.099)">
			<title>Sheet.56</title>
			<path d="M0 277 L72.38 277" class="st1"/>
		</g>
		<g id="shape57-64" v:mID="57" v:groupContext="shape" transform="translate(122,86.7284) rotate(-90.099)">
			<title>Sheet.57</title>
			<path d="M0 277 L72.38 277" class="st1"/>
		</g>
		<g id="shape61-67" v:mID="61" v:groupContext="shape" transform="translate(-199.747,63.2489) rotate(-52.9227)">
			<title>Sheet.61</title>
			<path d="M0 277 L41.59 277" class="st4"/>
		</g>
		<g id="shape62-73" v:mID="62" v:groupContext="shape" transform="translate(-78.277,-71.8529) rotate(-33.6901)">
			<title>Sheet.62</title>
			<path d="M0 277 L56.16 277" class="st4"/>
		</g>
		<g id="shape63-78" v:mID="63" v:groupContext="shape" transform="translate(94.1079,-175.597) rotate(-18.7999)">
			<title>Sheet.63</title>
			<path d="M0 277 L98.55 277" class="st4"/>
		</g>
		<g id="shape64-83" v:mID="64" v:groupContext="shape" transform="translate(15.2531,63.2489) rotate(-52.9227)">
			<title>Sheet.64</title>
			<path d="M0 277 L39.8 277" class="st4"/>
		</g>
		<g id="shape65-88" v:mID="65" v:groupContext="shape" transform="translate(-91.6219,63.6239) rotate(-52.9227)">
			<title>Sheet.65</title>
			<path d="M0 277 L39.8 277" class="st4"/>
		</g>
		<g id="shape66-93" v:mID="66" v:groupContext="shape" transform="translate(125.128,63.2489) rotate(-52.9227)">
			<title>Sheet.66</title>
			<path d="M0 277 L39.8 277" class="st4"/>
		</g>
		<g id="shape67-98" v:mID="67" v:groupContext="shape" transform="translate(137.348,-72.2279) rotate(-33.6901)">
			<title>Sheet.67</title>
			<path d="M0 277 L56.16 277" class="st4"/>
		</g>
		<g id="shape69-103" v:mID="69" v:groupContext="shape" transform="translate(-201.5,231.478) rotate(-90.099)">
			<title>Sheet.69</title>
			<path d="M0 277 L33 277" class="st4"/>
		</g>
		<g id="shape70-108" v:mID="70" v:groupContext="shape" transform="translate(-93.3746,231.853) rotate(-90.099)">
			<title>Sheet.70</title>
			<path d="M0 277 L33 277" class="st4"/>
		</g>
		<g id="shape71-113" v:mID="71" v:groupContext="shape" transform="translate(13.5004,231.478) rotate(-90.099)">
			<title>Sheet.71</title>
			<path d="M0 277 L33 277" class="st4"/>
		</g>
		<g id="shape72-118" v:mID="72" v:groupContext="shape" transform="translate(122.25,231.478) rotate(-90.099)">
			<title>Sheet.72</title>
			<path d="M0 277 L33 277" class="st4"/>
		</g>
		<g id="shape77-123" v:mID="77" v:groupContext="shape" transform="translate(445.027,-71.8529) rotate(33.6901) scale(-1,1)">
			<title>Sheet.77</title>
			<path d="M0 277 L129.8 277" class="st6"/>
		</g>
		<g id="shape78-126" v:mID="78" v:groupContext="shape" transform="translate(445.027,-71.8529) rotate(33.6901) scale(-1,1)">
			<title>Sheet.78</title>
			<path d="M0 277 L56.16 277" class="st7"/>
		</g>
		<g id="group81-131" transform="translate(129.5,-46.75) scale(-1,1)" v:mID="81" v:groupContext="group">
			<title>Sheet.81</title>
			<g id="shape79-132" v:mID="79" v:groupContext="shape" transform="translate(-220.997,109.999) rotate(-52.9227)">
				<title>Sheet.79</title>
				<path d="M0 277 L89.78 277" class="st6"/>
			</g>
			<g id="shape80-135" v:mID="80" v:groupContext="shape" transform="translate(-220.997,109.999) rotate(-52.9227)">
				<title>Sheet.80</title>
				<path d="M0 277 L41.59 277" class="st7"/>
			</g>
		</g>
		<g id="group82-140" transform="translate(237.5,-46.375) scale(-1,1)" v:mID="82" v:groupContext="group">
			<title>Sheet.82</title>
			<g id="shape83-141" v:mID="83" v:groupContext="shape" transform="translate(-220.997,109.999) rotate(-52.9227)">
				<title>Sheet.83</title>
				<path d="M0 277 L89.78 277" class="st6"/>
			</g>
			<g id="shape84-144" v:mID="84" v:groupContext="shape" transform="translate(-220.997,109.999) rotate(-52.9227)">
				<title>Sheet.84</title>
				<path d="M0 277 L41.59 277" class="st7"/>
			</g>
		</g>
		<g id="group85-149" transform="translate(345.5,-46.375) scale(-1,1)" v:mID="85" v:groupContext="group">
			<title>Sheet.85</title>
			<g id="shape86-150" v:mID="86" v:groupContext="shape" transform="translate(-220.997,109.999) rotate(-52.9227)">
				<title>Sheet.86</title>
				<path d="M0 277 L89.78 277" class="st6"/>
			</g>
			<g id="shape87-153" v:mID="87" v:groupContext="shape" transform="translate(-220.997,109.999) rotate(-52.9227)">
				<title>Sheet.87</title>
				<path d="M0 277 L41.59 277" class="st7"/>
			</g>
		</g>
		<g id="group68-158" transform="translate(7.75,-33.25)" v:mID="68" v:groupContext="group">
			<title>Sheet.68</title>
			<g id="shape3-159" v:mID="3" v:groupContext="shape" transform="translate(376.875,-216)">
				<title>Sheet.3</title>
				<desc>7</desc>
				<v:textBlock v:margins="rect(4,4,4,4)"/>
				<v:textRect cx="13.5" cy="263.5" width="27" height="27"/>
				<ellipse cx="13.5" cy="263.5" rx="13.5" ry="13.5" class="st8"/>
				<text x="10.46" y="267.1" class="st3" v:langID="1033"><v:paragraph v:horizAlign="1"/><v:tabList/>7</text>			</g>
			<g id="shape8-162" v:mID="8" v:groupContext="shape">
				<title>Sheet.8</title>
				<desc>0</desc>
				<v:textBlock v:margins="rect(4,4,4,4)"/>
				<v:textRect cx="13.5" cy="263.5" width="27" height="27"/>
				<ellipse cx="13.5" cy="263.5" rx="13.5" ry="13.5" class="st8"/>
				<text x="10.46" y="267.1" class="st3" v:langID="1033"><v:paragraph v:horizAlign="1"/><v:tabList/>0</text>			</g>
			<g id="shape9-165" v:mID="9" v:groupContext="shape" transform="translate(53.875,0)">
				<title>Sheet.9</title>
				<desc>1</desc>
				<v:textBlock v:margins="rect(4,4,4,4)"/>
				<v:textRect cx="13.5" cy="263.5" width="27" height="27"/>
				<ellipse cx="13.5" cy="263.5" rx="13.5" ry="13.5" class="st8"/>
				<text x="10.46" y="267.1" class="st3" v:langID="1033"><v:paragraph v:horizAlign="1"/><v:tabList/>1</text>			</g>
			<g id="shape10-168" v:mID="10" v:groupContext="shape" transform="translate(108,0)">
				<title>Sheet.10</title>
				<desc>2</desc>
				<v:textBlock v:margins="rect(4,4,4,4)"/>
				<v:textRect cx="13.5" cy="263.5" width="27" height="27"/>
				<ellipse cx="13.5" cy="263.5" rx="13.5" ry="13.5" class="st8"/>
				<text x="10.46" y="267.1" class="st3" v:langID="1033"><v:paragraph v:horizAlign="1"/><v:tabList/>2</text>			</g>
			<g id="shape11-171" v:mID="11" v:groupContext="shape" transform="translate(161.875,0)">
				<title>Sheet.11</title>
				<desc>3</desc>
				<v:textBlock v:margins="rect(4,4,4,4)"/>
				<v:textRect cx="13.5" cy="263.5" width="27" height="27"/>
				<ellipse cx="13.5" cy="263.5" rx="13.5" ry="13.5" class="st8"/>
				<text x="10.46" y="267.1" class="st3" v:langID="1033"><v:paragraph v:horizAlign="1"/><v:tabList/>3</text>			</g>
			<g id="shape12-174" v:mID="12" v:groupContext="shape" transform="translate(53.875,-72)">
				<title>Sheet.12</title>
				<desc>1</desc>
				<v:textBlock v:margins="rect(4,4,4,4)"/>
				<v:textRect cx="13.5" cy="263.5" width="27" height="27"/>
				<ellipse cx="13.5" cy="263.5" rx="13.5" ry="13.5" class="st8"/>
				<text x="10.46" y="267.1" class="st3" v:langID="1033"><v:paragraph v:horizAlign="1"/><v:tabList/>1</text>			</g>
			<g id="shape13-177" v:mID="13" v:groupContext="shape" transform="translate(161.875,-72)">
				<title>Sheet.13</title>
				<desc>3</desc>
				<v:textBlock v:margins="rect(4,4,4,4)"/>
				<v:textRect cx="13.5" cy="263.5" width="27" height="27"/>
				<ellipse cx="13.5" cy="263.5" rx="13.5" ry="13.5" class="st8"/>
				<text x="10.46" y="267.1" class="st3" v:langID="1033"><v:paragraph v:horizAlign="1"/><v:tabList/>3</text>			</g>
			<g id="shape14-180" v:mID="14" v:groupContext="shape" transform="translate(161.875,-144)">
				<title>Sheet.14</title>
				<desc>3</desc>
				<v:textBlock v:margins="rect(4,4,4,4)"/>
				<v:textRect cx="13.5" cy="263.5" width="27" height="27"/>
				<ellipse cx="13.5" cy="263.5" rx="13.5" ry="13.5" class="st8"/>
				<text x="10.46" y="267.1" class="st3" v:langID="1033"><v:paragraph v:horizAlign="1"/><v:tabList/>3</text>			</g>
			<g id="shape19-183" v:mID="19" v:groupContext="shape" transform="translate(216.5,0)">
				<title>Sheet.19</title>
				<desc>4</desc>
				<v:textBlock v:margins="rect(4,4,4,4)"/>
				<v:textRect cx="13.5" cy="263.5" width="27" height="27"/>
				<ellipse cx="13.5" cy="263.5" rx="13.5" ry="13.5" class="st8"/>
				<text x="10.46" y="267.1" class="st3" v:langID="1033"><v:paragraph v:horizAlign="1"/><v:tabList/>4</text>			</g>
			<g id="shape20-186" v:mID="20" v:groupContext="shape" transform="translate(270.375,0)">
				<title>Sheet.20</title>
				<desc>5</desc>
				<v:textBlock v:margins="rect(4,4,4,4)"/>
				<v:textRect cx="13.5" cy="263.5" width="27" height="27"/>
				<ellipse cx="13.5" cy="263.5" rx="13.5" ry="13.5" class="st8"/>
				<text x="10.46" y="267.1" class="st3" v:langID="1033"><v:paragraph v:horizAlign="1"/><v:tabList/>5</text>			</g>
			<g id="shape21-189" v:mID="21" v:groupContext="shape" transform="translate(324.125,0)">
				<title>Sheet.21</title>
				<desc>6</desc>
				<v:textBlock v:margins="rect(4,4,4,4)"/>
				<v:textRect cx="13.5" cy="263.5" width="27" height="27"/>
				<ellipse cx="13.5" cy="263.5" rx="13.5" ry="13.5" class="st8"/>
				<text x="10.46" y="267.1" class="st3" v:langID="1033"><v:paragraph v:horizAlign="1"/><v:tabList/>6</text>			</g>
			<g id="shape22-192" v:mID="22" v:groupContext="shape" transform="translate(376.875,0)">
				<title>Sheet.22</title>
				<desc>7</desc>
				<v:textBlock v:margins="rect(4,4,4,4)"/>
				<v:textRect cx="13.5" cy="263.5" width="27" height="27"/>
				<ellipse cx="13.5" cy="263.5" rx="13.5" ry="13.5" class="st8"/>
				<text x="10.46" y="267.1" class="st3" v:langID="1033"><v:paragraph v:horizAlign="1"/><v:tabList/>7</text>			</g>
			<g id="shape23-195" v:mID="23" v:groupContext="shape" transform="translate(270.375,-72)">
				<title>Sheet.23</title>
				<desc>5</desc>
				<v:textBlock v:margins="rect(4,4,4,4)"/>
				<v:textRect cx="13.5" cy="263.5" width="27" height="27"/>
				<ellipse cx="13.5" cy="263.5" rx="13.5" ry="13.5" class="st8"/>
				<text x="10.46" y="267.1" class="st3" v:langID="1033"><v:paragraph v:horizAlign="1"/><v:tabList/>5</text>			</g>
			<g id="shape24-198" v:mID="24" v:groupContext="shape" transform="translate(376.875,-72)">
				<title>Sheet.24</title>
				<desc>7</desc>
				<v:textBlock v:margins="rect(4,4,4,4)"/>
				<v:textRect cx="13.5" cy="263.5" width="27" height="27"/>
				<ellipse cx="13.5" cy="263.5" rx="13.5" ry="13.5" class="st8"/>
				<text x="10.46" y="267.1" class="st3" v:langID="1033"><v:paragraph v:horizAlign="1"/><v:tabList/>7</text>			</g>
			<g id="shape25-201" v:mID="25" v:groupContext="shape" transform="translate(376.875,-144)">
				<title>Sheet.25</title>
				<desc>7</desc>
				<v:textBlock v:margins="rect(4,4,4,4)"/>
				<v:textRect cx="13.5" cy="263.5" width="27" height="27"/>
				<ellipse cx="13.5" cy="263.5" rx="13.5" ry="13.5" class="st8"/>
				<text x="10.46" y="267.1" class="st3" v:langID="1033"><v:paragraph v:horizAlign="1"/><v:tabList/>7</text>			</g>
		</g>
	</g>
</svg>
