<?xml version="1.0" encoding="UTF-8" standalone="no"?>
<!DOCTYPE svg PUBLIC "-//W3C//DTD SVG 1.0//EN" "http://www.w3.org/TR/2001/REC-SVG-20010904/DTD/svg10.dtd">
<!-- Generated by Microsoft Visio 11.0, SVG Export, v1.0 DAREEncrypt2.svg Page-1 -->
<svg xmlns="http://www.w3.org/2000/svg" xmlns:xlink="http://www.w3.org/1999/xlink" xmlns:ev="http://www.w3.org/2001/xml-events"
		xmlns:v="http://schemas.microsoft.com/visio/2003/SVGExtensions/" width="5.41224in" height="3.03724in"
		viewBox="0 0 389.681 218.681" xml:space="preserve" color-interpolation-filters="sRGB" class="st8">
	<v:documentProperties v:langID="1033" v:viewMarkup="false"/>

	<style type="text/css">
	<![CDATA[
		.st1 {fill:#ffffff;stroke:#000000;stroke-dasharray:0.75,1.5;stroke-linecap:round;stroke-linejoin:round;stroke-width:0.75}
		.st2 {fill:#000000;fill-opacity:1;stroke:#000000;stroke-opacity:1;stroke-width:0.22935779816514}
		.st3 {fill:#000000;font-family:Calibri;font-size:1.00001em}
		.st4 {font-size:1em}
		.st5 {fill:#ffffff;stroke:#000000;stroke-linecap:round;stroke-linejoin:round;stroke-width:0.75}
		.st6 {marker-end:url(#mrkr13-4);stroke:#000000;stroke-linecap:round;stroke-linejoin:round;stroke-width:0.75}
		.st7 {fill:#ffffff;marker-end:url(#mrkr13-4);stroke:#000000;stroke-linecap:round;stroke-linejoin:round;stroke-width:0.75}
		.st8 {fill:none;fill-rule:evenodd;font-size:12px;overflow:visible;stroke-linecap:square;stroke-miterlimit:3}
	]]>
	</style>

	<defs id="Markers">
		<g id="lend13">
			<path d="M 3 1 L 0 0 L 3 -1 L 3 1 " style="stroke:none"/>
		</g>
		<marker id="mrkr13-4" class="st2" v:arrowType="13" v:arrowSize="2" v:setback="13.08" refX="-13.08" orient="auto"
				markerUnits="strokeWidth" overflow="visible">
			<use xlink:href="#lend13" transform="scale(-4.36,-4.36) "/>
		</marker>
	</defs>
	<g v:mID="0" v:index="1" v:groupContext="foregroundPage">
		<title>Page-1</title>
		<v:pageProperties v:drawingScale="1" v:pageScale="1" v:drawingUnits="19" v:shadowOffsetX="9" v:shadowOffsetY="-9"/>
		<g id="shape1-1" v:mID="1" v:groupContext="shape" transform="translate(163.341,-91.3406)">
			<title>Sheet.1</title>
			<desc>Public Key Information</desc>
			<v:textBlock v:margins="rect(4,4,4,4)"/>
			<v:textRect cx="36" cy="200.681" width="72" height="36"/>
			<path d="M0 218.68 L72 218.68 L72 182.68 L0 182.68 L0 218.68 Z" class="st1"/>
			<text x="11.13" y="197.08" class="st3" v:langID="1033"><v:paragraph v:horizAlign="1"/><v:tabList/>Public Key <tspan
						x="6.88" dy="1.2em" class="st4">Information</tspan></text>		</g>
		<g id="shape2-7" v:mID="2" v:groupContext="shape" transform="translate(158.841,-95.8406)">
			<title>Sheet.2</title>
			<desc>Public Key Information</desc>
			<v:textBlock v:margins="rect(4,4,4,4)"/>
			<v:textRect cx="36" cy="200.681" width="72" height="36"/>
			<path d="M0 218.68 L72 218.68 L72 182.68 L0 182.68 L0 218.68 Z" class="st1"/>
			<text x="11.13" y="197.08" class="st3" v:langID="1033"><v:paragraph v:horizAlign="1"/><v:tabList/>Public Key <tspan
						x="6.88" dy="1.2em" class="st4">Information</tspan></text>		</g>
		<g id="shape3-12" v:mID="3" v:groupContext="shape" transform="translate(307.341,-163.341)">
			<title>Sheet.3</title>
			<desc>Public Key Information</desc>
			<v:textBlock v:margins="rect(4,4,4,4)"/>
			<v:textRect cx="36" cy="200.681" width="72" height="36"/>
			<path d="M0 218.68 L72 218.68 L72 182.68 L0 182.68 L0 218.68 Z" class="st1"/>
			<text x="11.13" y="197.08" class="st3" v:langID="1033"><v:paragraph v:horizAlign="1"/><v:tabList/>Public Key <tspan
						x="6.88" dy="1.2em" class="st4">Information</tspan></text>		</g>
		<g id="shape4-17" v:mID="4" v:groupContext="shape" transform="translate(302.841,-167.841)">
			<title>Sheet.4</title>
			<desc>Public Key Information</desc>
			<v:textBlock v:margins="rect(4,4,4,4)"/>
			<v:textRect cx="36" cy="200.681" width="72" height="36"/>
			<path d="M0 218.68 L72 218.68 L72 182.68 L0 182.68 L0 218.68 Z" class="st1"/>
			<text x="11.13" y="197.08" class="st3" v:langID="1033"><v:paragraph v:horizAlign="1"/><v:tabList/>Public Key <tspan
						x="6.88" dy="1.2em" class="st4">Information</tspan></text>		</g>
		<g id="shape5-22" v:mID="5" v:groupContext="shape" transform="translate(307.341,-91.3406)">
			<title>Sheet.5</title>
			<desc>Public Key Information</desc>
			<v:textBlock v:margins="rect(4,4,4,4)"/>
			<v:textRect cx="36" cy="200.681" width="72" height="36"/>
			<path d="M0 218.68 L72 218.68 L72 182.68 L0 182.68 L0 218.68 Z" class="st1"/>
			<text x="11.13" y="197.08" class="st3" v:langID="1033"><v:paragraph v:horizAlign="1"/><v:tabList/>Public Key <tspan
						x="6.88" dy="1.2em" class="st4">Information</tspan></text>		</g>
		<g id="shape6-27" v:mID="6" v:groupContext="shape" transform="translate(302.841,-95.8406)">
			<title>Sheet.6</title>
			<desc>Public Key Information</desc>
			<v:textBlock v:margins="rect(4,4,4,4)"/>
			<v:textRect cx="36" cy="200.681" width="72" height="36"/>
			<path d="M0 218.68 L72 218.68 L72 182.68 L0 182.68 L0 218.68 Z" class="st1"/>
			<text x="11.13" y="197.08" class="st3" v:langID="1033"><v:paragraph v:horizAlign="1"/><v:tabList/>Public Key <tspan
						x="6.88" dy="1.2em" class="st4">Information</tspan></text>		</g>
		<g id="shape7-32" v:mID="7" v:groupContext="shape" transform="translate(19.3406,-163.341)">
			<title>Sheet.7</title>
			<desc>Public Key Information</desc>
			<v:textBlock v:margins="rect(4,4,4,4)"/>
			<v:textRect cx="36" cy="200.681" width="72" height="36"/>
			<path d="M0 218.68 L72 218.68 L72 182.68 L0 182.68 L0 218.68 Z" class="st1"/>
			<text x="11.13" y="197.08" class="st3" v:langID="1033"><v:paragraph v:horizAlign="1"/><v:tabList/>Public Key <tspan
						x="6.88" dy="1.2em" class="st4">Information</tspan></text>		</g>
		<g id="shape8-37" v:mID="8" v:groupContext="shape" transform="translate(14.8406,-167.841)">
			<title>Sheet.8</title>
			<desc>Public Key Information</desc>
			<v:textBlock v:margins="rect(4,4,4,4)"/>
			<v:textRect cx="36" cy="200.681" width="72" height="36"/>
			<path d="M0 218.68 L72 218.68 L72 182.68 L0 182.68 L0 218.68 Z" class="st1"/>
			<text x="11.13" y="197.08" class="st3" v:langID="1033"><v:paragraph v:horizAlign="1"/><v:tabList/>Public Key <tspan
						x="6.88" dy="1.2em" class="st4">Information</tspan></text>		</g>
		<g id="shape11-42" v:mID="11" v:groupContext="shape" transform="translate(154.341,-100.341)">
			<title>Sheet.11</title>
			<desc>Key Exchange</desc>
			<v:textBlock v:margins="rect(4,4,4,4)"/>
			<v:textRect cx="36" cy="200.681" width="72" height="36"/>
			<rect x="0" y="182.681" width="72" height="36" class="st5"/>
			<text x="27.18" y="197.08" class="st3" v:langID="1033"><v:paragraph v:horizAlign="1"/><v:tabList/>Key <tspan x="12.95"
						dy="1.2em" class="st4">Exchange</tspan></text>		</g>
		<g id="shape15-46" v:mID="15" v:groupContext="shape" transform="translate(226.341,-118.341)">
			<title>Sheet.15</title>
			<path d="M0 218.68 L62.19 218.68" class="st6"/>
		</g>
		<g id="shape16-51" v:mID="16" v:groupContext="shape" transform="translate(298.341,-100.341)">
			<title>Sheet.16</title>
			<desc>Recipient Information</desc>
			<v:textBlock v:margins="rect(4,4,4,4)"/>
			<v:textRect cx="36" cy="200.681" width="72" height="36"/>
			<rect x="0" y="182.681" width="72" height="36" class="st5"/>
			<text x="13.17" y="197.08" class="st3" v:langID="1033"><v:paragraph v:horizAlign="1"/><v:tabList/>Recipient <tspan
						x="6.88" dy="1.2em" class="st4">Information</tspan></text>		</g>
		<g id="shape18-55" v:mID="18" v:groupContext="shape" transform="translate(154.341,-10.3406)">
			<title>Sheet.18</title>
			<desc>Master Key</desc>
			<v:textBlock v:margins="rect(4,4,4,4)"/>
			<v:textRect cx="36" cy="200.681" width="72" height="36"/>
			<rect x="0" y="182.681" width="72" height="36" class="st7"/>
			<text x="8.39" y="204.28" class="st3" v:langID="1033"><v:paragraph v:horizAlign="1"/><v:tabList/>Master Key</text>		</g>
		<g id="shape24-59" v:mID="24" v:groupContext="shape" transform="translate(298.341,-172.341)">
			<title>Sheet.24</title>
			<desc>Public Key Identifier</desc>
			<v:textBlock v:margins="rect(4,4,4,4)"/>
			<v:textRect cx="36" cy="200.681" width="72" height="36"/>
			<rect x="0" y="182.681" width="72" height="36" class="st7"/>
			<text x="11.13" y="197.08" class="st3" v:langID="1033"><v:paragraph v:horizAlign="1"/><v:tabList/>Public Key <tspan
						x="13.53" dy="1.2em" class="st4">Identifier</tspan></text>		</g>
		<g id="shape25-64" v:mID="25" v:groupContext="shape" transform="translate(10.3406,-172.341)">
			<title>Sheet.25</title>
			<desc>Public Key Information</desc>
			<v:textBlock v:margins="rect(4,4,4,4)"/>
			<v:textRect cx="36" cy="200.681" width="72" height="36"/>
			<rect x="0" y="182.681" width="72" height="36" class="st7"/>
			<text x="11.13" y="197.08" class="st3" v:langID="1033"><v:paragraph v:horizAlign="1"/><v:tabList/>Public Key <tspan
						x="6.88" dy="1.2em" class="st4">Information</tspan></text>		</g>
		<g id="shape26-69" v:mID="26" v:groupContext="shape" transform="translate(82.3406,-190.341)">
			<title>Sheet.26</title>
			<path d="M0 218.68 L206.19 218.68" class="st6"/>
		</g>
		<g id="shape27-74" v:mID="27" v:groupContext="shape" transform="translate(409.022,28.3406) rotate(90)">
			<title>Sheet.27</title>
			<path d="M0 218.68 L44.19 218.68" class="st6"/>
		</g>
		<g id="shape9-79" v:mID="9" v:groupContext="shape" transform="translate(409.022,118.341) rotate(90)">
			<title>Sheet.9</title>
			<path d="M0 218.68 L44.19 218.68" class="st6"/>
		</g>
	</g>
</svg>
