<?xml version="1.0" encoding="UTF-8" standalone="no"?>
<!DOCTYPE svg PUBLIC "-//W3C//DTD SVG 1.0//EN" "http://www.w3.org/TR/2001/REC-SVG-20010904/DTD/svg10.dtd">
<!-- Generated by Microsoft Visio 11.0, SVG Export, v1.0 DAREEncrypt1.svg Page-1 -->
<svg xmlns="http://www.w3.org/2000/svg" xmlns:xlink="http://www.w3.org/1999/xlink" xmlns:ev="http://www.w3.org/2001/xml-events"
		xmlns:v="http://schemas.microsoft.com/visio/2003/SVGExtensions/" width="5.41224in" height="3.78724in"
		viewBox="0 0 389.681 272.681" xml:space="preserve" color-interpolation-filters="sRGB" class="st10">
	<v:documentProperties v:langID="1033" v:viewMarkup="false"/>

	<style type="text/css">
	<![CDATA[
		.st1 {fill:#ffffff;stroke:#000000;stroke-dasharray:0.75,1.5;stroke-linecap:round;stroke-linejoin:round;stroke-width:0.75}
		.st2 {fill:#000000;fill-opacity:1;stroke:#000000;stroke-opacity:1;stroke-width:0.22935779816514}
		.st3 {fill:#000000;font-family:Calibri;font-size:1.00001em}
		.st4 {font-size:1em}
		.st5 {fill:#ffffff;marker-end:url(#mrkr13-4);stroke:#000000;stroke-linecap:round;stroke-linejoin:round;stroke-width:0.75}
		.st6 {fill:#ffffff;stroke:#000000;stroke-linecap:round;stroke-linejoin:round;stroke-width:0.75}
		.st7 {fill:#ffffff}
		.st8 {stroke:#000000;stroke-linecap:round;stroke-linejoin:round;stroke-width:0.24}
		.st9 {marker-end:url(#mrkr13-4);stroke:#000000;stroke-linecap:round;stroke-linejoin:round;stroke-width:0.75}
		.st10 {fill:none;fill-rule:evenodd;font-size:12px;overflow:visible;stroke-linecap:square;stroke-miterlimit:3}
	]]>
	</style>

	<defs id="Markers">
		<g id="lend13">
			<path d="M 3 1 L 0 0 L 3 -1 L 3 1 " style="stroke:none"/>
		</g>
		<marker id="mrkr13-4" class="st2" v:arrowType="13" v:arrowSize="2" v:setback="13.08" refX="-13.08" orient="auto"
				markerUnits="strokeWidth" overflow="visible">
			<use xlink:href="#lend13" transform="scale(-4.36,-4.36) "/>
		</marker>
	</defs>
	<g v:mID="0" v:index="1" v:groupContext="foregroundPage">
		<title>Page-1</title>
		<v:pageProperties v:drawingScale="1" v:pageScale="1" v:drawingUnits="19" v:shadowOffsetX="9" v:shadowOffsetY="-9"/>
		<v:layer v:name="Flowchart" v:index="0"/>
		<g id="shape26-1" v:mID="26" v:groupContext="shape" transform="translate(163.341,-145.341)">
			<title>Sheet.26</title>
			<desc>Public Key Information</desc>
			<v:textBlock v:margins="rect(4,4,4,4)"/>
			<v:textRect cx="36" cy="254.681" width="72" height="36"/>
			<path d="M0 272.68 L72 272.68 L72 236.68 L0 236.68 L0 272.68 Z" class="st1"/>
			<text x="11.13" y="251.08" class="st3" v:langID="1033"><v:paragraph v:horizAlign="1"/><v:tabList/>Public Key <tspan
						x="6.88" dy="1.2em" class="st4">Information</tspan></text>		</g>
		<g id="shape27-7" v:mID="27" v:groupContext="shape" transform="translate(158.841,-149.841)">
			<title>Sheet.27</title>
			<desc>Public Key Information</desc>
			<v:textBlock v:margins="rect(4,4,4,4)"/>
			<v:textRect cx="36" cy="254.681" width="72" height="36"/>
			<path d="M0 272.68 L72 272.68 L72 236.68 L0 236.68 L0 272.68 Z" class="st1"/>
			<text x="11.13" y="251.08" class="st3" v:langID="1033"><v:paragraph v:horizAlign="1"/><v:tabList/>Public Key <tspan
						x="6.88" dy="1.2em" class="st4">Information</tspan></text>		</g>
		<g id="shape22-12" v:mID="22" v:groupContext="shape" transform="translate(307.341,-217.341)">
			<title>Sheet.22</title>
			<desc>Public Key Information</desc>
			<v:textBlock v:margins="rect(4,4,4,4)"/>
			<v:textRect cx="36" cy="254.681" width="72" height="36"/>
			<path d="M0 272.68 L72 272.68 L72 236.68 L0 236.68 L0 272.68 Z" class="st1"/>
			<text x="11.13" y="251.08" class="st3" v:langID="1033"><v:paragraph v:horizAlign="1"/><v:tabList/>Public Key <tspan
						x="6.88" dy="1.2em" class="st4">Information</tspan></text>		</g>
		<g id="shape23-17" v:mID="23" v:groupContext="shape" transform="translate(302.841,-221.841)">
			<title>Sheet.23</title>
			<desc>Public Key Information</desc>
			<v:textBlock v:margins="rect(4,4,4,4)"/>
			<v:textRect cx="36" cy="254.681" width="72" height="36"/>
			<path d="M0 272.68 L72 272.68 L72 236.68 L0 236.68 L0 272.68 Z" class="st1"/>
			<text x="11.13" y="251.08" class="st3" v:langID="1033"><v:paragraph v:horizAlign="1"/><v:tabList/>Public Key <tspan
						x="6.88" dy="1.2em" class="st4">Information</tspan></text>		</g>
		<g id="shape24-22" v:mID="24" v:groupContext="shape" transform="translate(307.341,-145.341)">
			<title>Sheet.24</title>
			<desc>Public Key Information</desc>
			<v:textBlock v:margins="rect(4,4,4,4)"/>
			<v:textRect cx="36" cy="254.681" width="72" height="36"/>
			<path d="M0 272.68 L72 272.68 L72 236.68 L0 236.68 L0 272.68 Z" class="st1"/>
			<text x="11.13" y="251.08" class="st3" v:langID="1033"><v:paragraph v:horizAlign="1"/><v:tabList/>Public Key <tspan
						x="6.88" dy="1.2em" class="st4">Information</tspan></text>		</g>
		<g id="shape25-27" v:mID="25" v:groupContext="shape" transform="translate(302.841,-149.841)">
			<title>Sheet.25</title>
			<desc>Public Key Information</desc>
			<v:textBlock v:margins="rect(4,4,4,4)"/>
			<v:textRect cx="36" cy="254.681" width="72" height="36"/>
			<path d="M0 272.68 L72 272.68 L72 236.68 L0 236.68 L0 272.68 Z" class="st1"/>
			<text x="11.13" y="251.08" class="st3" v:langID="1033"><v:paragraph v:horizAlign="1"/><v:tabList/>Public Key <tspan
						x="6.88" dy="1.2em" class="st4">Information</tspan></text>		</g>
		<g id="shape21-32" v:mID="21" v:groupContext="shape" transform="translate(19.3406,-217.341)">
			<title>Sheet.21</title>
			<desc>Public Key Information</desc>
			<v:textBlock v:margins="rect(4,4,4,4)"/>
			<v:textRect cx="36" cy="254.681" width="72" height="36"/>
			<path d="M0 272.68 L72 272.68 L72 236.68 L0 236.68 L0 272.68 Z" class="st1"/>
			<text x="11.13" y="251.08" class="st3" v:langID="1033"><v:paragraph v:horizAlign="1"/><v:tabList/>Public Key <tspan
						x="6.88" dy="1.2em" class="st4">Information</tspan></text>		</g>
		<g id="shape20-37" v:mID="20" v:groupContext="shape" transform="translate(14.8406,-221.841)">
			<title>Sheet.20</title>
			<desc>Public Key Information</desc>
			<v:textBlock v:margins="rect(4,4,4,4)"/>
			<v:textRect cx="36" cy="254.681" width="72" height="36"/>
			<path d="M0 272.68 L72 272.68 L72 236.68 L0 236.68 L0 272.68 Z" class="st1"/>
			<text x="11.13" y="251.08" class="st3" v:langID="1033"><v:paragraph v:horizAlign="1"/><v:tabList/>Public Key <tspan
						x="6.88" dy="1.2em" class="st4">Information</tspan></text>		</g>
		<g id="shape1-42" v:mID="1" v:groupContext="shape" transform="translate(10.3406,-82.3406)">
			<title>Sheet.1</title>
			<desc>Plaintext</desc>
			<v:textBlock v:margins="rect(4,4,4,4)"/>
			<v:textRect cx="36" cy="254.681" width="72" height="36"/>
			<rect x="0" y="236.681" width="72" height="36" class="st5"/>
			<text x="14.52" y="258.28" class="st3" v:langID="1033"><v:paragraph v:horizAlign="1"/><v:tabList/>Plaintext</text>		</g>
		<g id="shape2-46" v:mID="2" v:groupContext="shape" transform="translate(298.341,-82.3406)">
			<title>Sheet.2</title>
			<desc>Ciphertext</desc>
			<v:textBlock v:margins="rect(4,4,4,4)"/>
			<v:textRect cx="36" cy="254.681" width="72" height="36"/>
			<rect x="0" y="236.681" width="72" height="36" class="st6"/>
			<text x="10.44" y="258.28" class="st3" v:langID="1033"><v:paragraph v:horizAlign="1"/><v:tabList/>Ciphertext</text>		</g>
		<g id="shape3-49" v:mID="3" v:groupContext="shape" transform="translate(154.341,-154.341)">
			<title>Sheet.3</title>
			<desc>Key Exchange</desc>
			<v:textBlock v:margins="rect(4,4,4,4)"/>
			<v:textRect cx="36" cy="254.681" width="72" height="36"/>
			<rect x="0" y="236.681" width="72" height="36" class="st6"/>
			<text x="27.18" y="251.08" class="st3" v:langID="1033"><v:paragraph v:horizAlign="1"/><v:tabList/>Key <tspan x="12.95"
						dy="1.2em" class="st4">Exchange</tspan></text>		</g>
		<g id="shape4-53" v:mID="4" v:groupContext="shape" v:layerMember="0" transform="translate(109.341,-91.3406)">
			<title>Summing junction</title>
			<v:custProps>
				<v:cp v:nameU="Cost" v:lbl="Cost" v:type="7" v:format="@" v:langID="1033"/>
				<v:cp v:nameU="Duration" v:lbl="Duration" v:type="2" v:langID="1033"/>
				<v:cp v:nameU="Resources" v:lbl="Resources" v:langID="1033"/>
			</v:custProps>
			<v:userDefs>
				<v:ud v:nameU="visVersion" v:val="VT0(14):26"/>
			</v:userDefs>
			<path d="M0 263.68 A9 9 0 0 1 18 263.68 A9 9 0 1 1 0 263.68 Z" class="st7"/>
			<path d="M2.64 257.32 L15.36 270.05" class="st8"/>
			<path d="M2.64 270.05 L15.36 257.32" class="st8"/>
			<path d="M0 263.68 A9 9 0 0 1 18 263.68 A9 9 0 1 1 0 263.68" class="st8"/>
		</g>
		<g id="shape5-58" v:mID="5" v:groupContext="shape" transform="translate(82.3406,-100.341)">
			<title>Sheet.5</title>
			<path d="M0 272.68 L17.19 272.68" class="st9"/>
		</g>
		<g id="shape6-63" v:mID="6" v:groupContext="shape" transform="translate(127.341,-100.341)">
			<title>Sheet.6</title>
			<path d="M0 272.68 L161.19 272.68" class="st9"/>
		</g>
		<g id="shape8-68" v:mID="8" v:groupContext="shape" transform="translate(226.341,-172.341)">
			<title>Sheet.8</title>
			<path d="M0 272.68 L62.19 272.68" class="st9"/>
		</g>
		<g id="shape9-73" v:mID="9" v:groupContext="shape" transform="translate(298.341,-154.341)">
			<title>Sheet.9</title>
			<desc>Recipient Information</desc>
			<v:textBlock v:margins="rect(4,4,4,4)"/>
			<v:textRect cx="36" cy="254.681" width="72" height="36"/>
			<rect x="0" y="236.681" width="72" height="36" class="st6"/>
			<text x="13.17" y="251.08" class="st3" v:langID="1033"><v:paragraph v:horizAlign="1"/><v:tabList/>Recipient <tspan
						x="6.88" dy="1.2em" class="st4">Information</tspan></text>		</g>
		<g id="shape11-77" v:mID="11" v:groupContext="shape" transform="translate(82.3406,-172.341)">
			<title>Sheet.11</title>
			<path d="M0 272.68 L62.19 272.68" class="st9"/>
		</g>
		<g id="shape7-82" v:mID="7" v:groupContext="shape" transform="translate(10.3406,-154.341)">
			<title>Sheet.7</title>
			<desc>Encryption Key</desc>
			<v:textBlock v:margins="rect(4,4,4,4)"/>
			<v:textRect cx="36" cy="254.681" width="72" height="36"/>
			<rect x="0" y="236.681" width="72" height="36" class="st5"/>
			<text x="9.72" y="251.08" class="st3" v:langID="1033"><v:paragraph v:horizAlign="1"/><v:tabList/>Encryption <tspan
						x="27.18" dy="1.2em" class="st4">Key</tspan></text>		</g>
		<g id="shape10-87" v:mID="10" v:groupContext="shape" transform="translate(391.022,100.341) rotate(90)">
			<title>Sheet.10</title>
			<path d="M0 272.68 L53.19 272.68" class="st9"/>
		</g>
		<g id="shape12-92" v:mID="12" v:groupContext="shape" transform="translate(10.3406,-10.3406)">
			<title>Sheet.12</title>
			<desc>IV</desc>
			<v:textBlock v:margins="rect(4,4,4,4)"/>
			<v:textRect cx="36" cy="254.681" width="72" height="36"/>
			<rect x="0" y="236.681" width="72" height="36" class="st5"/>
			<text x="31.08" y="258.28" class="st3" v:langID="1033"><v:paragraph v:horizAlign="1"/><v:tabList/>IV</text>		</g>
		<g id="shape13-96" v:mID="13" v:groupContext="shape" transform="translate(-154.341,244.341) rotate(-90)">
			<title>Sheet.13</title>
			<path d="M0 272.68 L53.19 272.68" class="st9"/>
		</g>
		<g id="shape14-101" v:mID="14" v:groupContext="shape" transform="translate(82.3406,-28.3406)">
			<title>Sheet.14</title>
			<path d="M0 272.68 L206.19 272.68" class="st9"/>
		</g>
		<g id="shape15-106" v:mID="15" v:groupContext="shape" transform="translate(298.341,-10.3406)">
			<title>Sheet.15</title>
			<desc>IV</desc>
			<v:textBlock v:margins="rect(4,4,4,4)"/>
			<v:textRect cx="36" cy="254.681" width="72" height="36"/>
			<rect x="0" y="236.681" width="72" height="36" class="st6"/>
			<text x="31.08" y="258.28" class="st3" v:langID="1033"><v:paragraph v:horizAlign="1"/><v:tabList/>IV</text>		</g>
		<g id="shape17-109" v:mID="17" v:groupContext="shape" transform="translate(298.341,-226.341)">
			<title>Sheet.17</title>
			<desc>Public Key Identifier</desc>
			<v:textBlock v:margins="rect(4,4,4,4)"/>
			<v:textRect cx="36" cy="254.681" width="72" height="36"/>
			<rect x="0" y="236.681" width="72" height="36" class="st5"/>
			<text x="11.13" y="251.08" class="st3" v:langID="1033"><v:paragraph v:horizAlign="1"/><v:tabList/>Public Key <tspan
						x="13.53" dy="1.2em" class="st4">Identifier</tspan></text>		</g>
		<g id="shape16-114" v:mID="16" v:groupContext="shape" transform="translate(10.3406,-226.341)">
			<title>Sheet.16</title>
			<desc>Public Key Information</desc>
			<v:textBlock v:margins="rect(4,4,4,4)"/>
			<v:textRect cx="36" cy="254.681" width="72" height="36"/>
			<rect x="0" y="236.681" width="72" height="36" class="st5"/>
			<text x="11.13" y="251.08" class="st3" v:langID="1033"><v:paragraph v:horizAlign="1"/><v:tabList/>Public Key <tspan
						x="6.88" dy="1.2em" class="st4">Information</tspan></text>		</g>
		<g id="shape18-119" v:mID="18" v:groupContext="shape" transform="translate(82.3406,-244.341)">
			<title>Sheet.18</title>
			<path d="M0 272.68 L206.19 272.68" class="st9"/>
		</g>
		<g id="shape19-124" v:mID="19" v:groupContext="shape" transform="translate(463.022,28.3406) rotate(90)">
			<title>Sheet.19</title>
			<path d="M0 272.68 L44.19 272.68" class="st9"/>
		</g>
	</g>
</svg>
