<?xml version="1.0" encoding="UTF-8" standalone="no"?>
<!DOCTYPE svg PUBLIC "-//W3C//DTD SVG 1.0//EN" "http://www.w3.org/TR/2001/REC-SVG-20010904/DTD/svg10.dtd">
<!-- Generated by Microsoft Visio 11.0, SVG Export, v1.0 profiles.svg profiles -->
<svg xmlns="http://www.w3.org/2000/svg" xmlns:xlink="http://www.w3.org/1999/xlink" xmlns:ev="http://www.w3.org/2001/xml-events"
		xmlns:v="http://schemas.microsoft.com/visio/2003/SVGExtensions/" width="6.29822in" height="5.52969in"
		viewBox="0 0 453.472 398.138" xml:space="preserve" color-interpolation-filters="sRGB" class="st10">
	<v:documentProperties v:langID="1033" v:viewMarkup="false">
		<v:userDefs>
			<v:ud v:nameU="msvNoAutoConnect" v:val="VT0(1):26"/>
		</v:userDefs>
	</v:documentProperties>

	<style type="text/css">
	<![CDATA[
		.st1 {fill:#ffffff;stroke:#000000;stroke-linecap:round;stroke-linejoin:round;stroke-width:0.75}
		.st2 {fill:#000000;font-family:Calibri;font-size:1.00001em}
		.st3 {font-size:1em}
		.st4 {fill:#ffffff;marker-start:url(#mrkr13-13);stroke:#000000;stroke-linecap:round;stroke-linejoin:round;stroke-width:0.75}
		.st5 {fill:#000000;fill-opacity:1;stroke:#000000;stroke-opacity:1;stroke-width:0.22935779816514}
		.st6 {marker-end:url(#mrkr13-63);stroke:#000000;stroke-linecap:round;stroke-linejoin:round;stroke-width:1}
		.st7 {fill:#000000;fill-opacity:1;stroke:#000000;stroke-opacity:1;stroke-width:0.28409090909091}
		.st8 {fill:#ffffff;stroke:none;stroke-linecap:butt;stroke-width:7.2}
		.st9 {marker-start:url(#mrkr13-85);stroke:#000000;stroke-linecap:round;stroke-linejoin:round;stroke-width:1}
		.st10 {fill:none;fill-rule:evenodd;font-size:12px;overflow:visible;stroke-linecap:square;stroke-miterlimit:3}
	]]>
	</style>

	<defs id="Markers">
		<g id="lend13">
			<path d="M 3 1 L 0 0 L 3 -1 L 3 1 " style="stroke:none"/>
		</g>
		<marker id="mrkr13-13" class="st5" v:arrowType="13" v:arrowSize="2" v:setback="13.08" refX="13.08" orient="auto"
				markerUnits="strokeWidth" overflow="visible">
			<use xlink:href="#lend13" transform="scale(4.36) "/>
		</marker>
		<marker id="mrkr13-63" class="st7" v:arrowType="13" v:arrowSize="2" v:setback="10.56" refX="-10.56" orient="auto"
				markerUnits="strokeWidth" overflow="visible">
			<use xlink:href="#lend13" transform="scale(-3.52,-3.52) "/>
		</marker>
		<marker id="mrkr13-85" class="st7" v:arrowType="13" v:arrowSize="2" v:setback="10.2" refX="10.2" orient="auto"
				markerUnits="strokeWidth" overflow="visible">
			<use xlink:href="#lend13" transform="scale(3.52) "/>
		</marker>
	</defs>
	<g v:mID="6" v:index="5" v:groupContext="foregroundPage">
		<title>profiles</title>
		<v:pageProperties v:drawingScale="1" v:pageScale="1" v:drawingUnits="19" v:shadowOffsetX="9" v:shadowOffsetY="-9"/>
		<g id="group23-1" transform="translate(263.131,-301.728)" v:mID="23" v:groupContext="group">
			<v:userDefs>
				<v:ud v:nameU="CalcH" v:val="VT0(1.0779504797272):1"/>
				<v:ud v:nameU="visVersion" v:prompt="" v:val="VT0(14):26"/>
			</v:userDefs>
			<title>Group.23</title>
			<g id="shape24-2" v:mID="24" v:groupContext="shape">
				<title>Sheet.24</title>
				<desc>Master signing key Admin Key1 Admin Key2</desc>
				<v:textBlock v:margins="rect(4,4,4,4)" v:verticalAlign="0"/>
				<v:textRect cx="56.25" cy="370.533" width="112.5" height="55.2087"/>
				<path d="M0 342.93 L0 386.94 A10.2684 10.2684 -180 0 0 11.2 398.14 L101.3 398.14 A10.2684 10.2684 -180 0 0 112.5
							 386.94 L112.5 342.93 L0 342.93 Z" class="st1"/>
				<text x="4" y="357.73" class="st2" v:langID="1033"><v:paragraph/><v:tabList/>Master signing key<v:newlineChar/><tspan
							x="4" dy="1.2em" class="st3">Admin Key</tspan>1 <v:newlineChar/><tspan x="4" dy="1.2em" class="st3">Admin Key</tspan>2</text>			</g>
			<g id="shape25-7" v:mID="25" v:groupContext="shape" transform="translate(0,-55.2087)">
				<title>Sheet.25</title>
				<desc>Master Profile</desc>
				<v:userDefs>
					<v:ud v:nameU="cornersize" v:prompt="0.125" v:val="VT0(0.15558131849501):1"/>
					<v:ud v:nameU="Row_2" v:val="VT0(0):1"/>
				</v:userDefs>
				<v:textBlock v:margins="rect(4,4,4,4)"/>
				<v:textRect cx="56.25" cy="386.936" width="112.5" height="22.4037"/>
				<path d="M0 386.94 L0 398.14 L112.5 398.14 L112.5 386.94 A10.2684 10.2684 -180 0 0 101.3 375.73 L11.2 375.73 A10.2684
							 10.2684 -180 0 0 0 386.94 Z" class="st1"/>
				<text x="21.53" y="390.54" class="st2" v:langID="1033"><v:paragraph v:horizAlign="1"/><v:tabList/>Master Profile</text>			</g>
		</g>
		<g id="shape26-10" v:mID="26" v:groupContext="shape" transform="translate(326.131,-278.091)">
			<title>Sheet.26</title>
			<desc>Master Signing Signature</desc>
			<v:textBlock v:margins="rect(4,4,4,4)"/>
			<v:textRect cx="49.5" cy="377.888" width="99" height="40.5"/>
			<ellipse cx="49.5" cy="377.888" rx="49.5" ry="20.25" class="st4"/>
			<text x="13.24" y="374.29" class="st2" v:langID="1033"><v:paragraph v:horizAlign="1"/><v:tabList/>Master Signing<v:newlineChar/><tspan
						x="26.28" dy="1.2em" class="st3">Signature</tspan></text>		</g>
		<g id="group28-16" transform="translate(87.6312,-217.341)" v:mID="28" v:groupContext="group">
			<title>Sheet.28</title>
			<g id="group1-17" transform="translate(0,-21.3876)" v:mID="1" v:groupContext="group">
				<v:userDefs>
					<v:ud v:nameU="CalcH" v:val="VT0(1.0779504797272):1"/>
					<v:ud v:nameU="visVersion" v:prompt="" v:val="VT0(14):26"/>
				</v:userDefs>
				<title>Group</title>
				<g id="shape2-18" v:mID="2" v:groupContext="shape">
					<title>Sheet.2</title>
					<desc>Device Fingerprint1 Device Fingerprint2 Application Entry</desc>
					<v:textBlock v:margins="rect(4,4,4,4)" v:verticalAlign="0"/>
					<v:textRect cx="56.25" cy="370.533" width="112.5" height="55.2087"/>
					<path d="M0 342.93 L0 386.94 A10.2684 10.2684 -180 0 0 11.2 398.14 L101.3 398.14 A10.2684 10.2684 -180 0 0 112.5
								 386.94 L112.5 342.93 L0 342.93 Z" class="st1"/>
					<text x="4" y="357.73" class="st2" v:langID="1033"><v:paragraph/><v:tabList/>Device Fingerprint1<v:newlineChar/><tspan
								x="4" dy="1.2em" class="st3">Device Fingerprint</tspan>2<v:newlineChar/><tspan x="4" dy="1.2em"
								class="st3">Application Entry</tspan></text>				</g>
				<g id="shape3-23" v:mID="3" v:groupContext="shape" transform="translate(0,-55.2087)">
					<title>Sheet.3</title>
					<desc>Personal Profile</desc>
					<v:userDefs>
						<v:ud v:nameU="cornersize" v:prompt="0.125" v:val="VT0(0.15558131849501):1"/>
						<v:ud v:nameU="Row_2" v:val="VT0(0):1"/>
					</v:userDefs>
					<v:textBlock v:margins="rect(4,4,4,4)"/>
					<v:textRect cx="56.25" cy="386.936" width="112.5" height="22.4037"/>
					<path d="M0 386.94 L0 398.14 L112.5 398.14 L112.5 386.94 A10.2684 10.2684 -180 0 0 101.3 375.73 L11.2 375.73
								 A10.2684 10.2684 -180 0 0 0 386.94 Z" class="st1"/>
					<text x="17.88" y="390.54" class="st2" v:langID="1033"><v:paragraph v:horizAlign="1"/><v:tabList/>Personal Profile</text>				</g>
			</g>
			<g id="shape27-26" v:mID="27" v:groupContext="shape" transform="translate(67.5,0)">
				<title>Sheet.27</title>
				<desc>Admin Key Signature</desc>
				<v:textBlock v:margins="rect(4,4,4,4)"/>
				<v:textRect cx="49.5" cy="377.888" width="99" height="40.5"/>
				<ellipse cx="49.5" cy="377.888" rx="49.5" ry="20.25" class="st4"/>
				<text x="23.38" y="374.29" class="st2" v:langID="1033"><v:paragraph v:horizAlign="1"/><v:tabList/>Admin Key<v:newlineChar/><tspan
							x="26.28" dy="1.2em" class="st3">Signature</tspan></text>			</g>
		</g>
		<g id="group29-31" transform="translate(20.1312,-28.3406)" v:mID="29" v:groupContext="group">
			<title>Sheet.29</title>
			<g id="group30-32" transform="translate(0,-21.3876)" v:mID="30" v:groupContext="group">
				<v:userDefs>
					<v:ud v:nameU="CalcH" v:val="VT0(1.0779504797272):1"/>
					<v:ud v:nameU="visVersion" v:prompt="" v:val="VT0(14):26"/>
				</v:userDefs>
				<title>Group</title>
				<g id="shape31-33" v:mID="31" v:groupContext="shape">
					<title>Sheet.31</title>
					<desc>Device Key</desc>
					<v:textBlock v:margins="rect(4,4,4,4)" v:verticalAlign="0"/>
					<v:textRect cx="56.25" cy="370.533" width="112.5" height="55.2087"/>
					<path d="M0 342.93 L0 386.94 A10.2684 10.2684 -180 0 0 11.2 398.14 L101.3 398.14 A10.2684 10.2684 -180 0 0 112.5
								 386.94 L112.5 342.93 L0 342.93 Z" class="st1"/>
					<text x="4" y="357.73" class="st2" v:langID="1033"><v:paragraph/><v:tabList/>Device Key</text>				</g>
				<g id="shape32-36" v:mID="32" v:groupContext="shape" transform="translate(0,-55.2087)">
					<title>Sheet.32</title>
					<desc>Device Profile</desc>
					<v:userDefs>
						<v:ud v:nameU="cornersize" v:prompt="0.125" v:val="VT0(0.15558131849501):1"/>
						<v:ud v:nameU="Row_2" v:val="VT0(0):1"/>
					</v:userDefs>
					<v:textBlock v:margins="rect(4,4,4,4)"/>
					<v:textRect cx="56.25" cy="386.936" width="112.5" height="22.4037"/>
					<path d="M0 386.94 L0 398.14 L112.5 398.14 L112.5 386.94 A10.2684 10.2684 -180 0 0 101.3 375.73 L11.2 375.73
								 A10.2684 10.2684 -180 0 0 0 386.94 Z" class="st1"/>
					<text x="22.68" y="390.54" class="st2" v:langID="1033"><v:paragraph v:horizAlign="1"/><v:tabList/>Device Profile</text>				</g>
			</g>
			<g id="shape33-39" v:mID="33" v:groupContext="shape" transform="translate(67.5,0)">
				<title>Sheet.33</title>
				<desc>Device Key Signature</desc>
				<v:textBlock v:margins="rect(4,4,4,4)"/>
				<v:textRect cx="49.5" cy="377.888" width="99" height="40.5"/>
				<ellipse cx="49.5" cy="377.888" rx="49.5" ry="20.25" class="st4"/>
				<text x="23.04" y="374.29" class="st2" v:langID="1033"><v:paragraph v:horizAlign="1"/><v:tabList/>Device Key<v:newlineChar/><tspan
							x="26.28" dy="1.2em" class="st3">Signature</tspan></text>			</g>
		</g>
		<g id="group5-44" transform="translate(274.381,-100.341)" v:mID="5" v:groupContext="group">
			<v:userDefs>
				<v:ud v:nameU="CalcH" v:val="VT0(1.25):1"/>
				<v:ud v:nameU="visVersion" v:prompt="" v:val="VT0(14):26"/>
			</v:userDefs>
			<title>Group</title>
			<g id="shape6-45" v:mID="6" v:groupContext="shape">
				<title>Sheet.6</title>
				<desc>Network settings Public profile Private profile</desc>
				<v:textBlock v:margins="rect(4,4,4,4)" v:verticalAlign="0"/>
				<v:textRect cx="56.25" cy="364.339" width="112.5" height="67.5963"/>
				<path d="M0 330.54 L0 386.94 A10.2684 10.2684 -180 0 0 11.2 398.14 L101.3 398.14 A10.2684 10.2684 -180 0 0 112.5
							 386.94 L112.5 330.54 L0 330.54 Z" class="st1"/>
				<text x="4" y="345.34" class="st2" v:langID="1033"><v:paragraph/><v:tabList/>Network settings<v:newlineChar/><tspan
							x="4" dy="1.2em" class="st3">Public profile<v:newlineChar/></tspan><tspan x="4" dy="1.2em" class="st3">Private profile</tspan></text>			</g>
			<g id="shape7-50" v:mID="7" v:groupContext="shape" transform="translate(0,-67.5963)">
				<title>Sheet.7</title>
				<desc>Application Profile</desc>
				<v:userDefs>
					<v:ud v:nameU="cornersize" v:prompt="0.125" v:val="VT0(0.15558131849501):1"/>
					<v:ud v:nameU="Row_2" v:val="VT0(0):1"/>
				</v:userDefs>
				<v:textBlock v:margins="rect(4,4,4,4)"/>
				<v:textRect cx="56.25" cy="386.936" width="112.5" height="22.4037"/>
				<path d="M0 386.94 L0 398.14 L112.5 398.14 L112.5 386.94 A10.2684 10.2684 -180 0 0 101.3 375.73 L11.2 375.73 A10.2684
							 10.2684 -180 0 0 0 386.94 Z" class="st1"/>
				<text x="11.32" y="390.54" class="st2" v:langID="1033"><v:paragraph v:horizAlign="1"/><v:tabList/>Application Profile</text>			</g>
		</g>
		<g id="shape8-53" v:mID="8" v:groupContext="shape" transform="translate(218.131,-77.8406)">
			<title>Sheet.8</title>
			<desc>Device Key Signature</desc>
			<v:textBlock v:margins="rect(4,4,4,4)"/>
			<v:textRect cx="49.5" cy="377.888" width="99" height="40.5"/>
			<ellipse cx="49.5" cy="377.888" rx="49.5" ry="20.25" class="st4"/>
			<text x="23.04" y="374.29" class="st2" v:langID="1033"><v:paragraph v:horizAlign="1"/><v:tabList/>Device Key<v:newlineChar/><tspan
						x="26.28" dy="1.2em" class="st3">Signature</tspan></text>		</g>
		<g id="shape9-58" v:mID="9" v:groupContext="shape" transform="translate(314.293,-19.7304) rotate(33.2088)">
			<title>Sheet.9</title>
			<desc>Signs</desc>
			<v:textBlock v:margins="rect(4,4,4,4)" v:verticalAlign="2"/>
			<v:textRect cx="21.7495" cy="398.138" width="43.5" height="0"/>
			<path d="M0 398.14 L32.94 398.14" class="st6"/>
			<rect v:rectContext="textBkgnd" x="9.29251" y="379.738" width="24.9142" height="14.4001" class="st8"/>
			<text x="9.29" y="390.54" class="st2" v:langID="1033"><v:paragraph v:horizAlign="1"/><v:tabList/>Signs</text>		</g>
		<g id="shape10-66" v:mID="10" v:groupContext="shape" transform="translate(96.6312,-95.8406)">
			<title>Sheet.10</title>
			<desc>Signs</desc>
			<v:textBlock v:margins="rect(4,4,4,4)" v:verticalAlign="2"/>
			<v:textRect cx="67.5" cy="398.138" width="135" height="0"/>
			<path d="M0 398.14 L124.44 398.14" class="st6"/>
			<rect v:rectContext="textBkgnd" x="55.0429" y="379.738" width="24.9142" height="14.4001" class="st8"/>
			<text x="55.04" y="390.54" class="st2" v:langID="1033"><v:paragraph v:horizAlign="1"/><v:tabList/>Signs</text>		</g>
		<g id="shape11-73" v:mID="11" v:groupContext="shape" transform="translate(575.688,-269.317) rotate(33.2088)">
			<title>Sheet.11</title>
			<desc>Signs</desc>
			<v:textBlock v:margins="rect(4,4,4,4)" v:verticalAlign="2"/>
			<v:textRect cx="21.7495" cy="398.138" width="43.5" height="0"/>
			<path d="M0 398.14 L32.94 398.14" class="st6"/>
			<rect v:rectContext="textBkgnd" x="9.29251" y="379.738" width="24.9142" height="14.4001" class="st8"/>
			<text x="9.29" y="390.54" class="st2" v:langID="1033"><v:paragraph v:horizAlign="1"/><v:tabList/>Signs</text>		</g>
		<g id="shape12-80" v:mID="12" v:groupContext="shape" transform="translate(-11.7158,-186.474) rotate(-33.6901)">
			<title>Sheet.12</title>
			<desc>Signs</desc>
			<v:textBlock v:margins="rect(4,4,4,4)" v:verticalAlign="2"/>
			<v:textRect cx="48.6749" cy="398.138" width="97.35" height="0"/>
			<path d="M10.2 398.14 L10.56 398.14 L97.35 398.14" class="st9"/>
			<rect v:rectContext="textBkgnd" x="36.2178" y="379.738" width="24.9142" height="14.4001" class="st8"/>
			<text x="36.22" y="390.54" class="st2" v:langID="1033"><v:paragraph v:horizAlign="1"/><v:tabList/>Signs</text>		</g>
		<g id="shape13-88" v:mID="13" v:groupContext="shape" transform="translate(-349.586,174.97) rotate(-72.0309)">
			<title>Sheet.13</title>
			<desc>Authorizes</desc>
			<v:textBlock v:margins="rect(4,4,4,4)" v:verticalAlign="2"/>
			<v:textRect cx="87.5189" cy="398.138" width="175.04" height="0"/>
			<path d="M10.2 398.14 L10.56 398.14 L175.04 398.14" class="st9"/>
			<rect v:rectContext="textBkgnd" x="61.3976" y="379.738" width="52.2427" height="14.4001" class="st8"/>
			<text x="61.4" y="390.54" class="st2" v:langID="1033"><v:paragraph v:horizAlign="1"/><v:tabList/>Authorizes</text>		</g>
		<g id="shape14-95" v:mID="14" v:groupContext="shape" transform="translate(443.158,-64.3929) rotate(56.7683)">
			<title>Sheet.14</title>
			<desc>Authorizes</desc>
			<v:textBlock v:margins="rect(4,4,4,4)" v:verticalAlign="2"/>
			<v:textRect cx="78.0072" cy="398.138" width="156.02" height="0"/>
			<path d="M0 398.14 L145.45 398.14" class="st6"/>
			<rect v:rectContext="textBkgnd" x="51.886" y="379.738" width="52.2427" height="14.4001" class="st8"/>
			<text x="51.89" y="390.54" class="st2" v:langID="1033"><v:paragraph v:horizAlign="1"/><v:tabList/>Authorizes</text>		</g>
	</g>
</svg>
